<svg xmlns="http://www.w3.org/2000/svg" width="256" height="256"><path fill-opacity=".016" d="M0 128.004v128.004l128.25-.254 128.25-.254.254-127.75L257.008 0H0v128.004m.485.496c0 70.4.119 99.053.265 63.672.146-35.38.146-92.98 0-128C.604 29.153.485 58.1.485 128.5" fill="#1976D2" fill-rule="evenodd"/><path fill-opacity=".386" d="M120.852 41.442C80.674 55.745 45.266 87.136 26.038 125.5c-6.044 12.06-12.362 29.34-13.619 37.25l-.675 4.25h116.069c63.838 0 116.273-.338 116.522-.75.558-.926-4.209-17.451-7.574-26.25-14.125-36.94-46.115-72.078-82.087-90.164-7.429-3.735-24.981-10.885-26.51-10.799-.365.021-3.656 1.103-7.312 2.405m1.47 3.884c-1.748.646-3.427 1.428-3.732 1.739-.304.311 1.238 2.315 3.428 4.453L126 55.406v-5.703c0-3.137-.112-5.669-.25-5.627-.138.042-1.68.604-3.428 1.25m8.514 4.29c-.185 2.963-.09 5.386.211 5.385.301 0 2.231-1.726 4.29-3.834l3.742-3.832-3.953-1.554-3.954-1.553-.336 5.388m-22.702 1.463c-4.924 2.185-4.817 2.628 1.908 7.954 3.698 2.93 3.772 2.943 7.596 1.358 2.124-.881 4.059-1.788 4.3-2.017.494-.47-8.057-9.413-8.896-9.303-.298.038-2.507.942-4.908 2.008m29.888 2.399c-2.419 2.464-4.2 4.626-3.96 4.805.241.178 2.377 1.168 4.747 2.199l4.308 1.875 4.581-4.581 4.58-4.581-2.889-1.471c-6.064-3.087-6.715-2.987-11.367 1.754m-41.863 3.75l-3.342 2.063 4.452 4.452 4.453 4.452 3.389-1.725c1.864-.948 3.586-1.902 3.827-2.118.503-.453-8.078-9.394-8.896-9.269-.298.045-2.046 1.011-3.883 2.145m54.862 2.251c-2.418 2.464-4.199 4.656-3.959 4.873.241.216 1.963 1.17 3.827 2.118l3.389 1.725 4.457-4.456 4.457-4.457-3.464-2.141C157.823 55.963 156.073 55 155.84 55c-.233 0-2.402 2.016-4.819 4.479m-65.42 4.146l-3.84 2.61 4.482 4.482 4.482 4.482 3.625-2.35c1.994-1.292 3.631-2.593 3.638-2.891.006-.298-1.914-2.432-4.268-4.742l-4.279-4.2-3.84 2.609m34.638.198l-3.261 1.739 4.511 4.427L126 74.416v-6.208c0-6.87-.454-7.216-5.761-4.385M130.5 68c0 3.3.139 6 .309 6 .17 0 2.348-1.912 4.841-4.248l4.532-4.248-3.841-1.726c-2.113-.949-4.291-1.737-4.841-1.752-.558-.014-1 2.623-1 5.974m31.751-1.75l-4.165 4.25 3.579 2.339 3.578 2.339 4.427-4.339 4.426-4.339-2.798-2.245c-1.539-1.235-3.267-2.247-3.84-2.25-.573-.003-2.916 1.908-5.207 4.245m-53.573 2.885c-4.33 2.251-4.187 2.71 2.507 8.011 3.561 2.821 4.12 2.97 6.867 1.832 1.645-.681 3.186-1.554 3.425-1.94.238-.386-1.684-2.769-4.272-5.296l-4.705-4.594-3.822 1.987m29.853 2.834l-4.779 4.851 3.074 1.59c4.45 2.301 5.291 2.065 10.091-2.826l4.334-4.415-3.971-2.026-3.971-2.026-4.778 4.852m-63.934-.354l-2.903 2.552 4.403 4.395 4.403 4.394 3.328-2.611 3.327-2.611-4.286-4.367c-2.357-2.402-4.529-4.353-4.827-4.335-.298.017-1.848 1.18-3.445 2.583m98.534 1.752l-4.286 4.367 3.327 2.611 3.328 2.611 4.5-4.491 4.5-4.491-3-2.451c-1.65-1.348-3.244-2.467-3.542-2.487-.298-.02-2.47 1.929-4.827 4.331m-75.512 2.246l-3.826 2.6 4.312 4.394c2.371 2.416 4.692 4.393 5.156 4.393.465 0 2.381-1.044 4.259-2.32l3.414-2.32-4.744-4.673-4.745-4.674-3.826 2.6m52.09 2.182l-4.627 4.705 3.445 2.25c1.895 1.237 3.808 2.25 4.251 2.25.443 0 2.737-1.968 5.097-4.373l4.291-4.372-2.833-1.964c-1.558-1.08-3.32-2.242-3.915-2.582-.595-.341-3.164 1.498-5.709 4.086m-85.016 2.494L60.887 83.5l4.569 4.471 4.569 4.47 3.5-3.5 3.5-3.5-4.262-4.182-4.263-4.181-3.807 3.211m118.458 1.057l-4.167 4.246 3.514 3.406 3.514 3.406 4.483-4.399 4.483-4.4-2.239-2.394c-4.176-4.466-5.085-4.453-9.588.135m-61.915.479l-3.265 1.741 4.015 3.92 4.014 3.92v-5.703c0-3.137-.338-5.684-.75-5.661-.412.023-2.219.825-4.014 1.783m9.605 3.658l-.341 5.441 3.732-3.647c2.052-2.006 3.627-3.732 3.5-3.835-.128-.103-1.653-.91-3.391-1.793l-3.158-1.606-.342 5.44M86.5 83.447l-3 2.437 4.513 4.557 4.512 4.558 3.768-2.681 3.768-2.681-4.239-4.318c-2.331-2.376-4.707-4.317-5.28-4.314-.573.003-2.392 1.102-4.042 2.442m74.507 2.046c-4.27 4.351-4.348 4.54-2.458 6.017 4.638 3.623 4.94 3.587 9.542-1.132l4.409-4.521-3-2.424c-1.65-1.332-3.244-2.425-3.542-2.428-.298-.003-2.526 2.017-4.951 4.488m-50.757 2.496c-1.787 1.09-3.25 2.408-3.25 2.929 0 .522 1.993 2.581 4.429 4.577l4.429 3.63 3.321-1.69c1.827-.929 3.518-1.867 3.759-2.083.478-.43-8.015-9.354-8.896-9.348-.298.002-2.005.895-3.792 1.985m26.958 2.299c-2.314 2.358-4.208 4.54-4.208 4.848 0 .308 1.818 1.38 4.039 2.382l4.04 1.821 4.471-4.388 4.471-4.388-3.761-2.276c-2.068-1.252-4.004-2.279-4.302-2.282-.298-.003-2.435 1.925-4.75 4.283m-82.973.57l-3.101 3.857 4.326 4.245 4.325 4.245 3.55-3.852 3.55-3.853-4.151-4.25C60.451 88.912 58.303 87 57.959 87c-.343 0-2.019 1.736-3.724 3.858m139.051.392l-4.131 4.25 3.764 4.2 3.763 4.199 4.299-4.379 4.298-4.38-3.224-4.07c-1.772-2.238-3.542-4.07-3.931-4.07-.389 0-2.566 1.912-4.838 4.25M76.199 92.295l-3.193 3.294 4.479 4.397 4.48 4.396 2.767-2.426c1.523-1.334 3.197-2.772 3.722-3.195.864-.697-6.998-9.761-8.466-9.761-.328 0-2.033 1.483-3.789 3.295m94.805 1.201c-2.543 2.591-4.008 4.821-3.458 5.265.525.423 2.199 1.861 3.722 3.195l2.767 2.426 4.48-4.396 4.479-4.397-3.193-3.294C178.045 90.483 176.34 89 176.012 89c-.328 0-2.581 2.023-5.008 4.496M99.253 95.25c-1.77 1.237-3.226 2.494-3.236 2.792-.009.298 1.967 2.489 4.393 4.869l4.41 4.328 3.642-2.778 3.643-2.778-4.261-4.342c-2.343-2.387-4.511-4.341-4.816-4.341-.306 0-2.005 1.013-3.775 2.25m48.903 2.091l-4.261 4.342 3.643 2.778 3.642 2.778 4.41-4.328c2.426-2.38 4.41-4.647 4.41-5.038 0-.655-6.197-4.873-7.16-4.873-.233 0-2.341 1.954-4.684 4.341m-102.068 3.274l-2.178 2.769 4.489 4.488 4.488 4.489 2.023-2.431c1.113-1.336 2.038-2.674 2.057-2.972.018-.298-1.932-2.47-4.334-4.827l-4.366-4.286-2.179 2.77m19.921 2.027l-3.198 3.643 4.655 4.607 4.656 4.608 3.4-4 3.4-4-4.169-4.25C72.46 100.912 70.274 99 69.895 99c-.378 0-2.127 1.639-3.886 3.642m55.751-1.822l-2.74 1.807 3.49 3.383 3.49 3.382v-5.196c0-2.858-.338-5.193-.75-5.189-.412.003-1.983.819-3.49 1.813m8.74 3.18c0 2.75.2 5 .445 5 .796 0 6.055-5.351 6.055-6.161 0-.645-5.158-3.839-6.2-3.839-.165 0-.3 2.25-.3 5m50.788-.75l-4.129 4.25 3.704 4.258 3.705 4.258 4.216-4.296c2.319-2.363 4.216-4.753 4.216-5.312 0-1.002-6.13-7.408-7.089-7.408-.272 0-2.353 1.912-4.623 4.25m22.415-.458c-4.201 4.303-4.436 5.235-1.894 7.535 1.699 1.537 2.066 1.376 5.996-2.628 3.982-4.058 4.111-4.374 2.634-6.483-.854-1.219-1.886-2.216-2.293-2.216-.407 0-2.406 1.706-4.443 3.792m-115.504 1.503l-3.193 3.294 4.479 4.397 4.48 4.396 2.767-2.426c1.523-1.334 3.197-2.772 3.722-3.195.864-.697-6.998-9.761-8.466-9.761-.328 0-2.033 1.483-3.789 3.295m70.822 1.184c-2.418 2.464-4.197 4.601-3.954 4.75.244.149 1.908 1.597 3.699 3.219l3.256 2.947 4.486-4.403 4.486-4.403-3.193-3.294c-1.756-1.812-3.461-3.295-3.789-3.295-.328 0-2.574 2.016-4.991 4.479M112.5 106.6c-1.1.845-2.675 1.928-3.5 2.407-1.225.71-.776 1.614 2.453 4.931 2.174 2.234 4.424 4.046 5 4.026.576-.02 2.388-1.132 4.028-2.472l2.98-2.435-3.933-4.029c-4.449-4.556-4.318-4.51-7.028-2.428m24.203 2.192c-2.037 2.086-3.703 4.074-3.703 4.419 0 .344 1.609 1.62 3.576 2.836l3.576 2.21 3.924-3.831c2.158-2.108 3.918-4.078 3.912-4.379-.012-.502-6.559-5.047-7.271-5.047-.171 0-1.977 1.706-4.014 3.792m-97.512 1.373l-2.113 3.335 4.169 4.25c2.293 2.338 4.429 4.25 4.746 4.25.317 0 1.403-1.401 2.415-3.113l1.839-3.114-4.472-4.471-4.471-4.472-2.113 3.335m170.904 1.239l-4.322 4.403 1.829 3.097c1.006 1.703 2.088 3.096 2.405 3.096.317 0 2.453-1.912 4.746-4.25l4.169-4.25-2.059-3.25c-1.133-1.787-2.147-3.25-2.253-3.25-.106 0-2.138 1.982-4.515 4.404m-151.984 1.182l-2.178 2.77 4.241 4.322c2.334 2.377 4.547 4.322 4.919 4.322.372 0 1.452-1.183 2.4-2.629 1.715-2.618 1.704-2.648-2.74-7.092l-4.463-4.463-2.179 2.77M191.7 114.81l-4.606 4.69 1.915 2.5 1.915 2.5 4.683-4.658 4.683-4.658-1.992-2.532-1.991-2.532-4.607 4.69m-113.631-.077l-3.077 3.733 4.571 4.517 4.571 4.517 3.454-3.941 3.454-3.941-4.229-4.309c-2.326-2.37-4.553-4.309-4.948-4.309-.396 0-2.104 1.68-3.796 3.733m91.21.507l-4.158 4.26 3.69 4.297 3.689 4.297 4.44-4.528 4.44-4.529-2.999-3.705c-1.649-2.037-3.436-3.85-3.971-4.029-.535-.178-2.844 1.593-5.131 3.937m-68.799.968l-3.583 3.292 4.344 4.255 4.344 4.254 3.635-3.754 3.636-3.755-4.397-3.792-4.396-3.793-3.583 3.293m47.023.789l-3.902 3.996 3.403 3.512 3.404 3.511 4.293-4.213 4.293-4.214-3.193-3.294c-1.756-1.812-3.464-3.295-3.794-3.295-.331 0-2.357 1.798-4.504 3.997m-25.334 2.186l-3.331 2.116 3.049 3.049c1.677 1.677 3.315 2.783 3.64 2.458.325-.325.452-2.649.282-5.165l-.309-4.574-3.331 2.116m8.684 3.003l.352 4.992 2.943-2.819c2.768-2.652 2.836-2.9 1.147-4.163-4.566-3.415-4.816-3.303-4.442 1.99m85.888-.431l-4.704 4.776 2.062 3.391 2.062 3.391 4.516-4.516 4.515-4.516-1.873-3.651-1.873-3.651-4.705 4.776m-184.139-.659l-1.829 3.097 4.322 4.403c2.377 2.422 4.594 4.404 4.928 4.404.334 0 1.33-1.516 2.213-3.369l1.607-3.369-4.21-4.131c-2.315-2.272-4.432-4.131-4.705-4.131-.273 0-1.32 1.393-2.326 3.096m19.839-.942c-.438.74-1.385 2.269-2.104 3.398-1.185 1.86-.854 2.498 3.536 6.823l4.844 4.771 2.041-3.46 2.041-3.459-4.781-4.71c-3.577-3.522-4.982-4.37-5.577-3.363m145.578 3.326l-4.46 4.545 1.898 3.525 1.898 3.525 4.771-4.699c4.923-4.849 4.991-5.242 1.687-9.658-1.235-1.651-1.663-1.447-5.794 2.762m-127.843 1.273l-2.078 2.918 4.701 4.596 4.701 4.595 1.75-2.369c.963-1.303 1.75-2.753 1.75-3.223 0-.469-1.968-2.785-4.373-5.145l-4.372-4.291-2.079 2.919m20.059 2.105l-3.101 3.857 4.246 4.167 4.246 4.167 3.304-4.112 3.305-4.112-3.82-3.913c-2.102-2.151-4.104-3.912-4.451-3.912-.346 0-2.024 1.736-3.729 3.858m67.355.05l-3.838 3.931 3.374 4.062c1.856 2.235 3.62 4.071 3.921 4.081.301.01 2.298-1.775 4.438-3.966l3.89-3.985-2.996-3.701c-1.648-2.037-3.436-3.849-3.973-4.028-.537-.179-2.704 1.443-4.816 3.606m21.671.342c-4.123 4.216-4.143 4.272-2.483 6.99l1.673 2.74 4.704-4.633c4.527-4.459 4.646-4.721 3.159-6.99-.849-1.296-1.849-2.357-2.221-2.357-.372 0-2.547 1.912-4.832 4.25m-67.479.12l-3.718 3.287 3.88 3.789 3.881 3.789 4.11-3.303 4.109-3.302-3.725-3.815c-2.049-2.098-3.971-3.796-4.272-3.773-.301.023-2.22 1.52-4.265 3.328m24.763.584l-3.776 3.867 3.365 3.06c1.851 1.683 3.612 3.074 3.913 3.09.301.016 2.244-1.709 4.318-3.833l3.771-3.862-3.907-3.095-3.908-3.094-3.776 3.867m-109.78 4.412l-1.605 3.367 4.848 4.774 4.847 4.775 1.599-3.826 1.599-3.827-4.235-4.314c-2.329-2.373-4.507-4.315-4.841-4.315-.334 0-1.329 1.515-2.212 3.366m195.386.98l-4.265 4.346 1.742 3.654c.958 2.01 2.015 3.654 2.349 3.654.334 0 2.526-1.956 4.872-4.346l4.265-4.346-1.742-3.654c-.958-2.01-2.015-3.654-2.349-3.654-.334 0-2.526 1.956-4.872 4.346m-177.386.02l-1.605 3.367 4.862 4.789 4.862 4.789 1.751-3.671 1.75-3.672-4.4-4.484c-2.421-2.466-4.674-4.484-5.008-4.484-.334 0-1.329 1.515-2.212 3.366m159.25 1.118l-4.4 4.484 1.75 3.672 1.751 3.671 4.862-4.789 4.862-4.789-1.605-3.367c-.883-1.851-1.878-3.366-2.212-3.366-.334 0-2.587 2.018-5.008 4.484m-140.072.107l-2.226 3.602 4.963 4.963 4.963 4.963 1.871-4.149 1.871-4.15-4.608-4.415-4.607-4.416-2.227 3.602m121.218 1.745l-4.256 4.336 1.798 3.158c.988 1.737 2.041 3.16 2.339 3.164.298.003 2.475-1.964 4.838-4.372l4.297-4.378-1.614-3.122c-.888-1.717-1.959-3.122-2.38-3.122-.422 0-2.682 1.951-5.022 4.336m-102.508.071c-2.26 3.449-2.199 3.653 2.388 8.133 3.361 3.282 4.208 3.694 5.033 2.453 2.937-4.417 2.908-4.595-1.471-8.892l-4.297-4.217-1.653 2.523m19.452 1.127c-1.708 1.944-3.105 3.838-3.105 4.209 0 .37 1.644 2.356 3.652 4.413l3.653 3.74 3.338-4.198c1.836-2.309 3.342-4.498 3.347-4.864.006-.366-1.743-2.054-3.885-3.751l-3.896-3.085-3.104 3.536m44.665.216l-3.637 3.75 2.049 2.5c1.127 1.375 2.675 3.391 3.439 4.48 1.343 1.914 1.525 1.844 5.442-2.072l4.052-4.053-3.307-4.126c-1.82-2.269-3.554-4.149-3.855-4.177-.301-.029-2.183 1.636-4.183 3.698m20.752 1.228c-3.636 3.723-3.798 4.138-2.534 6.5.742 1.387 1.633 2.522 1.978 2.522s2.376-1.79 4.512-3.978c3.636-3.723 3.798-4.138 2.534-6.5-.742-1.387-1.633-2.522-1.978-2.522s-2.376 1.79-4.512 3.978m-45.834-.174l-2.687 2.805L122.5 145l3.5 3.392v-6.196c0-3.408-.366-6.196-.813-6.196-.447 0-2.022 1.262-3.499 2.804m9.16 2.788l.348 5.594 2.906-2.784 2.906-2.784-2.691-2.809c-1.48-1.545-2.944-2.81-3.254-2.81-.31-.001-.406 2.516-.215 5.593M21.87 145.039c-1.205 4.024-1.194 4.055 3.168 8.5 2.408 2.454 4.663 4.461 5.012 4.461.348 0 1.19-1.859 1.871-4.131l1.238-4.131-4.288-4.369c-2.358-2.403-4.626-4.369-5.039-4.369-.413 0-1.296 1.818-1.962 4.039m17.857-.383l-1.562 3.844 4.63 4.75c2.546 2.613 4.894 4.75 5.217 4.75.322 0 1.176-1.632 1.898-3.627l1.312-3.628-4.967-4.966-4.966-4.966-1.562 3.843m169.913 1.202l-4.785 4.858 1.606 3.846 1.607 3.846 5-5 5-5-1.547-3.704c-.851-2.037-1.671-3.704-1.822-3.704-.151 0-2.427 2.186-5.059 4.858m17.59-.592c-4.129 4.207-4.171 4.32-3.021 8.25.641 2.191 1.317 4.182 1.502 4.424.184.242 2.522-1.714 5.194-4.346l4.859-4.786-1.534-3.904c-.843-2.147-1.821-3.904-2.173-3.904-.353 0-2.525 1.92-4.827 4.266m-169.364.663l-1.634 3.875 4.861 4.788c2.674 2.633 5.019 4.59 5.211 4.348.193-.242.948-1.94 1.679-3.773 1.313-3.295 1.274-3.386-3.577-8.223l-4.906-4.89-1.634 3.875m133.63 1.075l-4.884 4.959 1.752 3.674 1.752 3.674 4.889-4.815 4.888-4.816-1.478-3.538c-.814-1.947-1.604-3.665-1.757-3.818-.153-.153-2.476 1.953-5.162 4.68m-115.203.508l-1.675 3.512 3.894 3.988c2.142 2.193 4.169 3.988 4.506 3.988.336 0 1.395-1.643 2.353-3.651l1.74-3.651-3.758-3.849c-2.067-2.117-4.125-3.849-4.572-3.849-.447 0-1.567 1.58-2.488 3.512m96.833.343l-4.373 3.767 1.751 3.439c.963 1.891 1.928 3.636 2.144 3.877.217.24 2.387-1.519 4.823-3.91 4.56-4.475 4.637-5 1.352-9.234-1.214-1.566-1.682-1.397-5.697 2.061m-60.507.578c-1.441 1.889-2.619 3.829-2.619 4.313 0 .484 1.366 2.189 3.036 3.788l3.036 2.909 2.477-2.972c4.637-5.561 4.716-6.071 1.366-8.889-1.688-1.42-3.431-2.582-3.873-2.582-.443 0-1.983 1.545-3.423 3.433m23.924-.478c-3.087 3.222-3.085 3.232 2.187 9.824l1.822 2.278 3.358-3.465 3.359-3.465-3.219-4.063c-1.77-2.235-3.546-4.064-3.947-4.064-.401 0-2.003 1.33-3.56 2.955m-42.302.031c-1.955 3.131-1.51 4.463 2.594 7.761l3.835 3.082 1.625-2.751c1.598-2.705 1.562-2.811-2.127-6.414-2.064-2.015-3.963-3.664-4.22-3.664-.257 0-1.025.894-1.707 1.986m62.376 1.597c-3.717 3.215-3.83 3.489-2.629 6.388.69 1.666 1.559 3.029 1.93 3.029.372 0 2.331-1.694 4.353-3.765 3.635-3.723 3.657-3.795 1.953-6.389l-1.724-2.623-3.883 3.36m-121.607 7.88c-.707 2.527-1.05 4.83-.761 5.119.288.288 3.071.388 6.184.221l5.66-.303-4.898-4.816-4.898-4.816-1.287 4.595m179.489.538L209.575 163h12.648l-.703-3.75c-1.226-6.542-1.721-6.63-7.021-1.249m-195.791-3.337c-.29.468-.842 2.535-1.229 4.594L16.777 163h5.612c3.086 0 5.611-.131 5.611-.292 0-1.049-8.87-8.727-9.292-8.044m34.303 3.302c-.734 2.224-1.086 4.292-.783 4.595.303.303 2.874.413 5.713.245l5.162-.306-4.379-4.289-4.378-4.288-1.335 4.043m69.19.048l-3.299 4.486 3.145.321c1.73.176 3.355.11 3.612-.146.256-.257.326-2.42.154-4.807l-.313-4.341-3.299 4.487m8.637.414c.342 4.308.533 4.572 3.298 4.572 3.275 0 3.08-.917-1.349-6.322l-2.313-2.821.364 4.571m66.204.023L192.584 163h5.708c6.283 0 6.804-.744 4.413-6.299l-1.205-2.798-4.458 4.548m34.954.053L227.584 163H239.839l-1.013-3.75c-.556-2.062-1.328-4.086-1.715-4.496-.386-.41-2.688 1.277-5.115 3.75m-160.795-.183C69.499 163.027 69.477 163 75 163c2.75 0 5-.362 5-.804 0-.856-6.252-7.196-7.097-7.196-.276 0-1.042 1.494-1.702 3.321m17.175.017c-.954 2-1.479 3.893-1.166 4.206.313.312 2.894.43 5.737.262l5.167-.306-4.002-3.899-4.002-3.899-1.734 3.636M161.5 159l-3.906 4h5.703c3.315 0 5.703-.439 5.703-1.05 0-1.057-2.817-6.95-3.323-6.95-.149 0-2.029 1.8-4.177 4m18.047-.053L175.594 163h5.203c5.619 0 5.978-.487 3.908-5.303l-1.205-2.803-3.953 4.053m-74.056.071c-.82 1.585-1.491 3.13-1.491 3.432 0 .303 2.025.55 4.5.55s4.5-.19 4.5-.423c0-.233-1.354-1.777-3.009-3.432l-3.01-3.01-1.49 2.883M145.5 160l-2.874 3h4.687c4.837 0 5.458-.691 3.652-4.066-1.388-2.592-2.092-2.455-5.465 1.066" fill="#1976D2" fill-rule="evenodd"/><path fill-opacity=".578" d="M120 42.087c-9.038 3.188-26.924 12.35-36 18.44-25.411 17.05-45.318 39.794-58.544 66.888-4.926 10.091-11.159 27.139-12.917 35.335l-.698 3.25h232.318l-.685-3.25c-3.58-16.991-15.566-43.29-27.232-59.75-8.595-12.128-27.073-30.581-39.263-39.21-15.325-10.85-42.285-23.91-48.956-23.717-1.388.04-4.998.946-8.023 2.014m1.322 3.239c-1.748.646-3.426 1.427-3.729 1.736-.303.31 1.464 2.541 3.928 4.959L126 56.416v-6.208c0-3.414-.338-6.174-.75-6.132-.412.042-2.18.604-3.928 1.25M130 50.208v6.208L134.5 52c2.475-2.429 4.5-4.542 4.5-4.695 0-.414-7.104-3.305-8.122-3.305-.483 0-.878 2.794-.878 6.208m-22 .574c-1.925.909-3.698 1.791-3.94 1.959-.242.168 1.718 2.495 4.354 5.172l4.793 4.866 4.83-2.14 4.831-2.139-4.646-4.75c-2.556-2.612-5.114-4.721-5.684-4.686-.571.035-2.613.808-4.538 1.718m30.208 2.506c-2.314 2.358-4.208 4.571-4.208 4.917 0 .346 2.049 1.412 4.553 2.368l4.553 1.739 4.447-4.364c2.446-2.4 4.447-4.66 4.447-5.02 0-.577-7.743-3.928-9.075-3.928-.28 0-2.402 1.93-4.717 4.288M96.25 56.745c-1.787.89-3.25 1.893-3.25 2.228 0 .336 1.976 2.55 4.392 4.921 4.571 4.486 5.938 4.699 10.059 1.572 1.884-1.43 1.8-1.634-2.458-5.973-2.425-2.471-4.653-4.464-4.951-4.429-.298.035-2.005.792-3.792 1.681m54.757 2.748c-4.258 4.339-4.342 4.543-2.458 5.973 4.121 3.127 5.488 2.914 10.059-1.572 2.416-2.371 4.389-4.554 4.386-4.852-.008-.627-5.809-4.042-6.867-4.042-.391 0-2.695 2.022-5.12 4.493m-65.744 3.819c-1.78 1.203-3.243 2.432-3.25 2.73-.007.298 1.97 2.488 4.394 4.866l4.406 4.325 4.114-2.312 4.113-2.312-4.732-4.804c-2.603-2.643-4.975-4.777-5.27-4.743-.296.034-1.995 1.047-3.775 2.25m35.436-.049l-4.8 2.237 5.05 4.962L126 75.425v-7.213c0-3.966-.112-7.206-.25-7.199-.138.007-2.41 1.019-5.051 2.25M130 68.212v7.213l5-4.925c2.75-2.709 5-5.033 5-5.166 0-.267-9.034-4.334-9.627-4.334-.205 0-.373 3.246-.373 7.212m32.208-2.924c-2.314 2.358-4.208 4.571-4.208 4.918 0 .347 1.611 1.626 3.579 2.843l3.579 2.212 4.421-4.339c2.432-2.386 4.415-4.582 4.409-4.88-.012-.497-6.562-5.042-7.266-5.042-.168 0-2.199 1.93-4.514 4.288m-53.958 3.457c-1.787.89-3.25 1.891-3.25 2.224 0 .333 2.194 2.767 4.876 5.409l4.875 4.802 3.375-1.717c1.856-.945 3.572-1.895 3.814-2.113.497-.448-9.07-10.385-9.902-10.286-.296.035-2.001.792-3.788 1.681m30.273 3.232c-2.696 2.737-4.705 5.113-4.463 5.28.242.166 2.067 1.04 4.056 1.943l3.617 1.64 4.823-4.897c2.653-2.693 4.626-5.075 4.384-5.293-.572-.514-6.738-3.65-7.178-3.65-.185 0-2.543 2.24-5.239 4.977m34.179.818l-4.664 4.735 3.428 2.735c1.885 1.504 3.807 2.735 4.272 2.735.465 0 2.748-1.938 5.073-4.308l4.228-4.307-2.27-1.99c-5.313-4.66-5.074-4.669-10.067.4m-98.53-1.151l-3.327 2.622 4.286 4.367C77.488 81.035 79.797 83 80.262 83c.465 0 2.386-1.23 4.271-2.733l3.425-2.734-4.187-4.266c-2.303-2.347-4.656-4.262-5.229-4.256-.573.006-2.539 1.191-4.37 2.633M98.5 74.6c-1.1.845-2.675 1.93-3.5 2.411-1.213.706-.565 1.827 3.387 5.855l4.887 4.981 3.912-2.589 3.913-2.589-4.762-4.835c-2.619-2.658-5.004-4.82-5.299-4.802-.296.017-1.438.723-2.538 1.568m51.163 3.234l-4.762 4.835 3.913 2.589 3.912 2.589 4.637-4.708c2.55-2.589 4.637-4.993 4.637-5.342 0-.599-6.261-4.797-7.156-4.797-.23 0-2.562 2.176-5.181 4.834m-85.669 2.672l-3.398 3.506 4.365 4.449 4.366 4.448 3.837-3.039C75.274 88.199 77 86.247 77 85.532 77 84.177 69.592 77 68.193 77c-.44 0-2.33 1.578-4.199 3.506m119.025.975l-4.397 4.48 3.939 3.452 3.939 3.453 4.466-4.413 4.466-4.412-3.412-3.52c-1.877-1.937-3.68-3.521-4.008-3.521-.328 0-2.574 2.016-4.993 4.481m-94.519.16c-1.1.837-2.884 2.157-3.964 2.934-1.892 1.361-1.802 1.578 2.458 5.919C89.426 92.972 91.902 95 92.496 95c.594 0 2.551-1.237 4.35-2.75l3.27-2.75-4.808-4.69c-4.495-4.384-4.938-4.591-6.808-3.169m32.75-.15c-1.787.777-3.25 1.793-3.25 2.258 0 .465 1.8 2.603 4 4.751l4 3.906v-6.203c0-3.412-.338-6.185-.75-6.164-.412.022-2.213.675-4 1.452m8.75 4.712v6.203l4-3.906c2.2-2.148 4-4.253 4-4.677 0-.877-5.356-3.823-6.95-3.823-.62 0-1.05 2.539-1.05 6.203m30.607-1.312l-4.716 4.788 3.488 2.661c1.918 1.463 3.874 2.66 4.346 2.66s2.865-2.048 5.317-4.551l4.458-4.551-2.5-1.977c-5.224-4.133-5.381-4.118-10.393.97m-51.443 3.278l-3.335 2.136 4.897 4.897 4.896 4.897 4.162-2.364 4.161-2.364-4.757-4.686c-2.616-2.577-5.191-4.677-5.722-4.668-.531.009-2.467.978-4.302 2.152m28.044 2.119c-2.314 2.358-4.208 4.599-4.208 4.98 0 .38 1.73 1.574 3.845 2.653l3.846 1.962 4.796-4.87 4.797-4.87-3.392-2.068c-1.866-1.137-3.861-2.069-4.434-2.071-.573-.002-2.935 1.926-5.25 4.284m-83.104.247C52.397 92.479 51 94.41 51 94.827c0 .416 1.962 2.682 4.361 5.036l4.361 4.28 3.653-4.269 3.654-4.268-4.223-4.303C60.484 88.936 58.274 87 57.895 87c-.378 0-2.084 1.591-3.791 3.535m139.126.731l-4.187 4.266 3.91 4.484 3.91 4.484 4.788-4.733 4.788-4.733-3.922-4.017c-2.158-2.209-4.188-4.017-4.512-4.017-.324 0-2.473 1.92-4.775 4.266m-117.059.504l-4.3 3.73 5.076 4.974 5.076 4.974 4-4 4-4-4.776-4.704-4.776-4.705-4.3 3.731m94.514 1.501L165.87 97.5l4.07 3.958 4.07 3.957 5.044-4.957 5.044-4.958-3.534-3.25c-1.944-1.787-3.879-3.241-4.299-3.229-.421.011-2.932 1.923-5.58 4.25m-22.223 3.767c-4.685 4.758-4.795 4.999-2.915 6.397 5.781 4.301 6.214 4.278 11.082-.591l4.542-4.541-3.92-3.104-3.919-3.104-4.87 4.943M98.5 95.447l-3 2.437 4.619 4.663c4.899 4.948 5.196 4.975 10.332.963 1.89-1.477 1.812-1.666-2.458-6.017-2.425-2.471-4.878-4.491-5.451-4.488-.573.003-2.392 1.102-4.042 2.442m-52.867 5.177l-1.867 2.562 4.325 4.407c2.379 2.424 4.63 4.407 5.002 4.407.372 0 1.447-1.176 2.389-2.613 1.699-2.594 1.68-2.646-2.593-7-2.368-2.413-4.549-4.373-4.847-4.356-.298.018-1.382 1.185-2.409 2.593m20.179 1.83l-3.688 4.243 4.854 4.782 4.855 4.781 3.333-3.797c1.834-2.088 3.334-4.284 3.334-4.88 0-.596-2.025-2.948-4.5-5.227l-4.5-4.145-3.688 4.243m56.438-2.339c-1.787 1.145-3.25 2.399-3.25 2.787 0 .388 1.575 2.232 3.5 4.098l3.5 3.392v-6.196c0-3.408-.112-6.188-.25-6.179-.138.009-1.713.953-3.5 2.098m7.75 4.062v6.229l3.992-3.899c4.218-4.118 4.219-4.112-1.242-7.069L130 97.949v6.228m51.628-1.314l-4.872 4.953 4.064 4.342 4.064 4.342 4.558-4.458c2.507-2.452 4.545-4.702 4.528-5-.016-.298-1.704-2.475-3.75-4.837l-3.72-4.294-4.872 4.952m22.163-.132l-4.671 4.769 2.077 2.824 2.077 2.823 4.363-4.282c4.872-4.781 5.058-5.405 2.572-8.634l-1.746-2.269-4.672 4.769m-115.302 1.28l-3.928 4.023 4.719 4.719 4.718 4.719 4.013-4.012 4.012-4.012-4.802-4.731-4.803-4.73-3.929 4.024m70.228.768l-4.73 4.803 4.024 3.929 4.023 3.928 4.719-4.719 4.719-4.718-4.012-4.013-4.012-4.012-4.731 4.802m-47.467 2.336c-1.787 1.145-3.25 2.394-3.25 2.775 0 .381 1.912 2.536 4.25 4.788l4.25 4.095 3.691-2.736 3.691-2.736-4.229-4.151c-2.326-2.282-4.437-4.142-4.691-4.133-.254.009-1.925.953-3.712 2.098m25.041 2.135l-4.126 4.25 3.8 2.657 3.801 2.657 4.351-4.433 4.351-4.433-2.984-2.438c-1.641-1.341-3.453-2.454-4.026-2.474-.573-.02-2.898 1.876-5.167 4.214m-97.223.654c-1.137 1.598-2.068 3.304-2.068 3.792 0 1.091 8.821 9.851 9.305 9.242.191-.241 1.313-2.045 2.492-4.009l2.144-3.57-4.258-4.18C44.341 108.881 42.134 107 41.78 107c-.354 0-1.574 1.307-2.712 2.904m170.59 1.057l-4.662 4.297 2.176 3.621c1.196 1.992 2.332 3.818 2.523 4.059.528.665 9.306-8.203 9.3-9.396-.003-.573-1.056-2.355-2.34-3.96l-2.335-2.918-4.662 4.297m-152.142 1.654c-1.706 2.605-1.693 2.636 3.039 7.44l4.752 4.825 1.846-2.348c1.016-1.291 1.847-2.709 1.847-3.152 0-.98-8.144-9.38-9.093-9.38-.372 0-1.448 1.177-2.391 2.615m21.191 1.173c-2.039 2.088-3.707 4.246-3.707 4.796 0 .55 2.016 2.978 4.481 5.397l4.48 4.397 3.478-3.939c1.913-2.166 3.496-4.408 3.519-4.981.023-.573-1.89-2.937-4.251-5.254l-4.292-4.213-3.708 3.797m90.939.651c-2.564 2.234-4.646 4.511-4.627 5.061.019.55 1.612 2.696 3.539 4.769 3.98 4.282 4.767 4.156 10.353-1.651l3.411-3.545-4.007-4.347-4.007-4.348-4.662 4.061m21.431-.018l-4.36 4.443 1.892 2.967 1.891 2.966 4.952-4.493c4.792-4.349 4.905-4.577 3.5-7.069-.799-1.416-1.916-2.728-2.483-2.915-.568-.188-2.994 1.658-5.392 4.101m-90.357 1.354L97 119.584l4.25 4.13 4.25 4.13 3.954-3.455 3.955-3.454-4.485-4.485-4.485-4.484-3.719 3.809m46.235.771c-2.382 2.427-4.128 4.534-3.882 4.683.247.149 2.133 1.823 4.192 3.721l3.742 3.449 3.996-3.902c2.199-2.147 3.997-4.411 3.997-5.033 0-.621-1.736-2.524-3.858-4.229l-3.857-3.101-4.33 4.412m-114.497 4.548l-1.797 3.985 4.378 4.46c2.407 2.454 4.65 4.461 4.984 4.461.635 0 3.977-6.543 3.977-7.784-.001-.394-2.193-2.604-4.873-4.912l-4.872-4.195-1.797 3.985m89.237-1.839l-2.806 2.245 3.556 3.446 3.555 3.446v-5.696c0-3.133-.338-5.694-.75-5.691-.412.003-2.012 1.015-3.555 2.25m8.305 3.441v5.696l3.555-3.446 3.556-3.446-2.806-2.245c-1.543-1.235-3.143-2.247-3.555-2.25-.412-.003-.75 2.558-.75 5.691m86.641-.839l-4.758 4.83 2.2 3.73 2.2 3.729 4.803-4.731c4.608-4.538 4.745-4.835 3.395-7.322-2.877-5.299-2.854-5.299-7.84-.236m-165.573.047c-1.137 1.598-2.068 3.304-2.068 3.792 0 1.668 8.811 9.539 9.914 8.857.605-.374 1.812-2.056 2.682-3.738 1.575-3.047 1.564-3.076-2.716-7.437-2.363-2.408-4.622-4.378-5.02-4.378-.398 0-1.654 1.307-2.792 2.904m146.01 1.517l-4.339 4.421 2.212 3.579c1.217 1.968 2.532 3.579 2.922 3.579.391 0 2.683-2.01 5.094-4.467l4.384-4.466-1.903-3.534c-1.047-1.943-2.382-3.533-2.967-3.533-.586 0-3.017 1.989-5.403 4.421m-126.271.329c-2.849 3.318-2.7 3.93 2.109 8.667l4.826 4.754 2.256-3.168 2.256-3.168-4.335-4.418c-2.385-2.429-4.622-4.417-4.972-4.417-.35 0-1.313.787-2.14 1.75m19.832 2.358c-2.001 2.339-3.639 4.53-3.639 4.869 0 1.392 7.897 8.205 8.837 7.624.559-.346 2.379-2.349 4.044-4.451l3.028-3.823-4.315-4.235-4.316-4.235-3.639 4.251m66.63.142l-4.148 4.25 3.873 4.5 3.874 4.5 4.066-3.953c2.236-2.174 4.054-4.424 4.039-5-.024-.91-6.527-8.547-7.278-8.547-.153 0-2.145 1.912-4.426 4.25m21.939.038c-4.729 4.818-4.866 5.299-2.417 8.481l1.746 2.269 4.85-4.924 4.85-4.923-1.868-2.564c-1.028-1.41-2.113-2.578-2.411-2.596-.298-.017-2.435 1.899-4.75 4.257m-67.73.866l-3.592 3.154 4.265 4.346 4.265 4.346 3.794-3.706 3.795-3.705-3.706-3.794c-2.037-2.087-4.048-3.795-4.467-3.795-.419 0-2.379 1.419-4.354 3.154m24.208.656l-3.72 3.809 2.267 1.988c5.763 5.053 5.528 5.033 9.811.85l3.955-3.862-3.195-3.298c-1.758-1.813-3.692-3.297-4.297-3.297-.606 0-2.775 1.714-4.821 3.81M26.66 132.183l-1.679 4.274 4.93 4.93 4.93 4.93 1.579-3.781c.869-2.079 1.58-4.08 1.58-4.446 0-.366-2.174-2.806-4.83-5.423l-4.831-4.758-1.679 4.274m195.913.743l-4.915 4.99 1.85 4.101 1.849 4.102 5.032-5.032 5.032-5.032-1.966-4.06-1.967-4.059-4.915 4.99m-177.432-.655C43.964 134.177 43 136.15 43 136.656c0 .505 2.211 3.097 4.914 5.76l4.915 4.84 2.179-4.272 2.18-4.272-4.953-4.953-4.952-4.952-2.142 3.464m158.486 1.601l-4.799 4.871 2.18 4.273 2.18 4.272 5.085-5.084 5.084-5.085-1.83-4.06c-1.007-2.232-2.117-4.059-2.466-4.059-.35 0-2.795 2.192-5.434 4.872m-140.076.664l-1.905 3.536 4.897 4.972 4.897 4.971 2.26-3.744 2.259-3.744-4.692-4.763c-2.58-2.62-4.944-4.764-5.252-4.764-.308 0-1.417 1.591-2.464 3.536m121.277 1.214l-4.596 4.75 1.878 3c1.034 1.65 2.015 3.402 2.182 3.893.167.491 2.639-1.258 5.493-3.887l5.189-4.78-2.171-3.863c-1.194-2.125-2.443-3.863-2.775-3.863-.332 0-2.672 2.137-5.2 4.75m-83.048 1.609l-3.643 4.359 4.219 4.141 4.22 4.141 3.644-4.359 3.643-4.359-4.219-4.141-4.22-4.141-3.644 4.359m44.97-.637c-2.062 2.124-3.731 4.293-3.708 4.82.023.527 1.605 2.729 3.517 4.894l3.475 3.937 3.983-3.89c2.191-2.139 3.982-4.135 3.98-4.436-.001-.301-1.689-2.491-3.75-4.867l-3.747-4.32-3.75 3.862m-64.635.116l-2.021 2.838 4.504 4.412 4.504 4.412 1.927-2.5c1.059-1.375 1.937-2.971 1.949-3.547.023-1.105-7.107-8.453-8.202-8.453-.352 0-1.549 1.277-2.661 2.838m85.038 1.501c-4.316 4.403-4.335 4.454-2.635 7.048.942 1.437 2.017 2.613 2.389 2.613.372 0 2.56-1.919 4.861-4.264l4.184-4.263-2.226-2.785-2.226-2.784-4.347 4.435m-45.127-.289l-3.473 2.969 3.723 3.724 3.724 3.724v-6.734c0-3.703-.112-6.715-.25-6.692-.138.022-1.813 1.376-3.724 3.009m7.974 3.615v6.802l3.626-3.626c3.918-3.918 3.857-4.649-.656-7.863l-2.97-2.114v6.801m-108.372 2.914l-1.634 4.795 5.208 4.813c2.865 2.647 5.282 4.813 5.373 4.813.091 0 .743-2.063 1.449-4.584l1.283-4.585-5.023-5.023-5.023-5.023-1.633 4.794m206.042.248l-4.755 4.828 1.25 4.672c.687 2.57 1.511 4.673 1.83 4.673.319 0 2.754-2.207 5.412-4.905l4.831-4.905-1.755-4.595c-.965-2.527-1.823-4.595-1.906-4.595-.084 0-2.292 2.172-4.907 4.827m-188.17-.481c-.825 1.974-1.5 3.959-1.5 4.409 0 1.055 9.836 10.768 10.314 10.185.199-.242 1.08-2.289 1.959-4.55l1.599-4.11-3.686-3.444c-6.972-6.515-7.001-6.523-8.686-2.49m170.041.97l-4.904 4.315 1.311 4.685c.722 2.576 1.608 4.684 1.97 4.684.361 0 2.856-2.232 5.543-4.96l4.885-4.96-1.333-4.04c-.733-2.222-1.611-4.04-1.95-4.04-.34 0-2.825 1.942-5.522 4.316m-151.915.342l-1.745 3.659 5.237 5.303 5.237 5.303 1.855-4.144 1.856-4.144-4.746-4.817c-2.609-2.65-5.016-4.818-5.347-4.818-.332 0-1.388 1.646-2.347 3.658m133.261 1.092l-4.537 4.75 1.544 4.25c.849 2.338 1.8 4.25 2.113 4.25.312 0 2.766-2.231 5.451-4.958l4.884-4.958-1.823-4.042c-1.003-2.223-2.109-4.042-2.458-4.042-.35 0-2.678 2.137-5.174 4.75m-114.735-.048l-2.035 3.989 4.77 4.698 4.77 4.698 1.85-4.102 1.85-4.102-4.585-4.585-4.585-4.585-2.035 3.989m96.887.759l-4.378 4.46 1.841 4.083 1.841 4.083 4.77-4.698 4.77-4.698-1.962-3.846c-1.079-2.115-2.084-3.845-2.233-3.845-.149 0-2.242 2.007-4.649 4.461m-60.402.65l-3.662 4.279 3.663 3.751 3.663 3.752 3.477-4.553 3.476-4.553-3.477-3.477-3.478-3.477-3.662 4.278m23.433-.683l-3.322 3.428 3.783 4.616 3.782 4.617 3.344-3.241c1.839-1.782 3.343-3.553 3.343-3.936 0-.873-6.303-8.79-7.054-8.86-.304-.029-2.049 1.49-3.876 3.376m-42.377.758l-1.807 3.174 4.326 4.326 4.327 4.326 1.904-3.536 1.904-3.536-3.876-3.97c-2.132-2.184-4.123-3.967-4.424-3.964-.301.004-1.36 1.435-2.354 3.18m62.081 1.564c-3.484 3.598-3.572 3.861-2.171 6.5.804 1.512 1.805 2.75 2.226 2.75.421 0 2.474-1.75 4.563-3.89 3.752-3.842 3.778-3.921 2.088-6.5-.94-1.435-2.017-2.61-2.392-2.61s-2.316 1.688-4.314 3.75m-137.652 5.5c-.456 1.238-1.129 3.488-1.495 5l-.665 2.75H29.425l-4.925-5c-2.709-2.75-5.065-5-5.237-5-.172 0-.685 1.012-1.141 2.25m16.51 2.317c-1.846 5.416-1.504 5.679 6.808 5.237l5.716-.304-5.49-4.732-5.49-4.732-1.544 4.531M214.5 158l-4.925 5H223.038l-.665-2.75c-.828-3.419-2.22-7.25-2.636-7.25-.172 0-2.528 2.25-5.237 5m17 0l-4.925 5h6.82c5.5 0 6.713-.276 6.271-1.429-.302-.786-.85-3.036-1.219-5-.368-1.964-.974-3.571-1.346-3.571-.372 0-2.892 2.25-5.601 5m-178.891.02c-.885 2.211-1.609 4.236-1.609 4.5 0 .264 3.019.48 6.708.48h6.708L60 158.5c-2.429-2.475-4.724-4.5-5.1-4.5-.375 0-1.407 1.809-2.291 4.02m69.475-.126c-1.696 2.142-3.084 4.167-3.084 4.5 0 .333 1.575.606 3.5.606 3.481 0 3.5-.024 3.5-4.5 0-2.475-.187-4.5-.416-4.5-.229 0-1.804 1.752-3.5 3.894m7.958.356L130 163h3.5c1.925 0 3.5-.375 3.5-.833 0-.459-1.556-2.596-3.458-4.75l-3.459-3.917-.041 4.75m65.958.25l-4.416 4.5h6.775c6.568 0 6.754-.069 6.075-2.25-1.502-4.82-2.417-6.75-3.201-6.75-.449 0-2.804 2.025-5.233 4.5m-124-3.122c0 .208-.681 2.008-1.513 4L68.973 163h12.433l-3.906-4c-3.41-3.492-5.5-4.869-5.5-3.622M88 159l-2.041 4h12.447l-3.906-4c-2.148-2.2-4.03-4-4.183-4-.152 0-1.195 1.8-2.317 4m73.5 0l-3.906 4H169.839l-1.571-4c-.864-2.2-1.862-4-2.217-4s-2.403 1.8-4.551 4m17 0l-3.906 4h6.203c3.412 0 6.203-.17 6.203-.378 0-1.29-3.166-7.622-3.81-7.622-.431 0-2.542 1.8-4.69 4m-73.435.118l-2.067 3.382 2.483.315c1.366.173 3.872.173 5.57 0l3.086-.315-3.503-3.382-3.502-3.383-2.067 3.383m40.925.392l-3.382 3.49h5.196c2.858 0 5.193-.338 5.189-.75-.003-.412-.819-1.983-1.813-3.49l-1.807-2.74-3.383 3.49" fill="#1976D2" fill-rule="evenodd"/><path fill-opacity=".523" d="M119 42.899C68.235 61.865 28.5 105.347 14.504 157.25l-2.36 8.75h231.894l-.625-2.75c-.343-1.512-2.389-8.121-4.546-14.686-14.085-42.861-44.791-78.251-85.367-98.388-9.809-4.868-23.458-10.223-25.81-10.127-.654.026-4.565 1.309-8.69 2.85m2.25 1.959c-2.338.855-4.25 1.819-4.25 2.14 0 .84 8.904 9.464 9.229 8.94.149-.241.046-3.183-.229-6.537l-.5-6.099-4.25 1.556m8.75 4.667c0 3.561.356 6.475.792 6.475.435 0 2.761-2.007 5.169-4.46l4.378-4.461-2.67-1.039-5.169-2.015-2.5-.975v6.475m-21.75.734c-2.338 1.174-4.25 2.401-4.25 2.726 0 .324 2.192 2.749 4.872 5.388l4.871 4.799 4.379-2.209c2.408-1.215 4.576-2.389 4.818-2.609.495-.451-9.066-10.388-9.902-10.292-.296.034-2.45 1.023-4.788 2.197m29.921 2.95c-2.898 2.765-5.134 5.14-4.97 5.279.164.139 2.387 1.164 4.94 2.278l4.64 2.025 4.799-4.873c2.64-2.679 4.602-5.052 4.36-5.272-.242-.22-2.254-1.314-4.47-2.431l-4.031-2.032-5.268 5.026m-41.356 2.856c-2.027 1.054-3.927 2.308-4.223 2.786-.295.478 1.655 2.945 4.334 5.482l4.871 4.612 4.093-2.223c2.252-1.222 4.097-2.464 4.102-2.76.004-.295-2.13-2.624-4.742-5.175l-4.75-4.639-3.685 1.917m53.717 2.903c-2.701 2.742-4.714 5.14-4.472 5.328.242.189 2.198 1.35 4.346 2.582l3.907 2.239 4.843-4.771c2.664-2.624 4.844-5.042 4.844-5.373 0-.332-1.687-1.462-3.75-2.512a496.118 496.118 0 01-4.278-2.194c-.291-.157-2.739 1.958-5.44 4.701m-65.92 4.65l-3.853 2.618 4.986 4.985 4.986 4.986 4.134-2.737C97.139 71.966 99 70.457 99 70.117 98.999 69.519 89.465 61 88.797 61c-.183 0-2.066 1.178-4.185 2.618m35.457-.564l-4.431 2.01 4.894 4.968c2.691 2.732 5.022 4.968 5.18 4.968.159 0 .288-3.15.288-7s-.338-6.99-.75-6.978c-.412.012-2.744.926-5.181 2.032M130 68.105v7.32l5-4.925c2.75-2.709 5-5.189 5-5.512 0-.322-1.687-1.19-3.75-1.928a693.522 693.522 0 01-5-1.808c-.929-.346-1.25 1.416-1.25 6.853m31.728-2.336c-4.691 4.762-4.694 4.771-2.463 6.153 1.229.761 3.158 1.983 4.287 2.716 1.869 1.214 2.481.897 6.856-3.545l4.804-4.877-3.838-2.608C169.263 62.174 167.286 61 166.98 61c-.305 0-2.669 2.146-5.252 4.769m-53.978 2.989c-1.513.938-2.75 1.955-2.75 2.261 0 .306 2.18 2.703 4.844 5.327l4.843 4.771 3.907-1.779c2.148-.978 4.104-1.915 4.346-2.081.878-.605-9.407-10.256-10.902-10.23-.846.014-2.775.793-4.288 1.731m29.773 3.219c-2.696 2.737-4.705 5.124-4.463 5.303.242.18 2.379 1.171 4.749 2.202l4.31 1.875 5.037-5.037 5.037-5.037-3.464-2.142c-1.906-1.177-4.104-2.141-4.885-2.141-.78 0-3.625 2.24-6.321 4.977m-62.795-1.251c-2.01 1.526-3.672 3.016-3.692 3.312-.02.295 2.102 2.641 4.714 5.212l4.75 4.675 3.804-3.212 3.804-3.213-4.862-4.774-4.863-4.774-3.655 2.774m97.912 2.132l-4.786 4.859 3.907 3.094 3.907 3.094 4.879-4.952L185.425 74l-3.463-2.959c-1.904-1.628-3.704-2.978-4-3-.295-.023-2.691 2.145-5.322 4.817m-76.103 2.811l-3.927 2.668 5.388 4.751 5.388 4.75 3.799-2.169c2.09-1.193 3.803-2.602 3.807-3.131.011-1.316-8.151-9.538-9.468-9.538-.583 0-2.827 1.201-4.987 2.669m52.986 2.308c-2.696 2.737-4.705 5.134-4.463 5.326.242.192 2.164 1.387 4.272 2.655l3.831 2.306 4.919-4.844c2.705-2.665 4.912-5.087 4.906-5.382-.016-.694-6.708-5.038-7.762-5.038-.44 0-3.007 2.24-5.703 4.977M64.244 79.86l-4.255 3.704 5.017 4.942 5.017 4.942 4-4 4-4-4.761-4.646-4.762-4.646-4.256 3.704m118.414.98l-4.671 4.742 4.011 3.916 4.012 3.917 4.975-4.9c4.781-4.709 4.908-4.976 3.245-6.816-.951-1.053-2.894-2.744-4.316-3.758l-2.585-1.843-4.671 4.742m-61.422.483l-4.265 2.232 4.515 4.431 4.514 4.43v-6.708c0-3.689-.112-6.688-.25-6.663-.138.025-2.169 1.05-4.514 2.278M130 85.73v6.686l4.469-4.385c4.867-4.777 4.82-4.992-1.719-7.805L130 79.043v6.687m-44-2.76l-3.5 2.917 4.912 5.005 4.912 5.005 3.816-2.698c2.1-1.485 3.827-3.226 3.839-3.871.019-1.082-8.848-9.341-9.979-9.295-.275.012-2.075 1.333-4 2.937m74.523 2.007c-2.696 2.737-4.705 5.135-4.463 5.328.242.194 2.043 1.543 4.002 2.999l3.562 2.647 4.938-5.032 4.938-5.032-3.5-2.917c-1.925-1.604-3.742-2.928-4.038-2.943-.295-.015-2.743 2.213-5.439 4.95m-50.763 2.317c-2.057 1.213-3.745 2.448-3.75 2.744-.006.295 2.184 2.698 4.866 5.34 4.828 4.755 4.903 4.787 7.75 3.249 6.288-3.399 6.263-3.156.911-8.59-2.729-2.77-5.204-5.017-5.499-4.993-.296.025-2.221 1.037-4.278 2.25m26.952 2.49c-2.591 2.632-4.712 5.004-4.712 5.271 0 .268 2.019 1.59 4.486 2.938l4.487 2.45 4.513-4.43c2.483-2.436 4.514-4.928 4.514-5.537 0-.912-6.812-5.476-8.174-5.476-.221 0-2.522 2.153-5.114 4.784m-82.927.632l-3.716 4.227 4.943 4.868c2.718 2.678 5.065 4.662 5.215 4.41.15-.252 2.298-2.652 4.773-5.334 2.475-2.682 4.012-4.605 3.416-4.275-.597.331-3.053-1.404-5.459-3.855-2.405-2.452-4.617-4.415-4.915-4.363-.298.052-2.214 1.997-4.257 4.322m139.423-.128c-2.314 2.358-4.208 4.67-4.208 5.138 0 .468 1.759 2.758 3.908 5.09l3.908 4.24 4.725-4.798 4.725-4.797-3.753-4.58c-2.065-2.52-4.056-4.581-4.425-4.581-.369 0-2.565 1.93-4.88 4.288M75.705 91.79l-3.7 3.79 4.984 4.909 4.985 4.91 3.263-2.942c1.795-1.618 3.693-3.285 4.219-3.706.86-.686-8.001-10.751-9.465-10.751-.322 0-2.25 1.705-4.286 3.79m94.818 1.187c-2.696 2.737-4.7 5.1-4.452 5.25.248.15 2.137 1.827 4.198 3.727l3.748 3.454 4.989-4.914 4.989-4.914-3.7-3.79c-2.036-2.085-3.964-3.79-4.286-3.79-.321 0-2.79 2.24-5.486 4.977m-71.747 1.81c-2.049 1.492-3.736 2.955-3.75 3.251-.014.295 2.182 2.712 4.882 5.371l4.907 4.834 4.119-3.31 4.119-3.31-4.739-4.812c-2.606-2.646-4.981-4.794-5.276-4.774-.296.02-2.214 1.258-4.262 2.75m49.304 2.345c-2.521 2.811-4.024 5.272-3.5 5.727.506.439 2.238 1.792 3.85 3.005l2.93 2.207 4.82-4.748c2.651-2.611 4.82-5.041 4.82-5.399 0-.703-7.315-5.991-8.054-5.822-.245.056-2.435 2.319-4.866 5.03M45.656 100.17l-2.613 3.33 4.959 4.968c4.807 4.817 5.005 4.908 6.495 3 3.651-4.676 3.614-4.934-1.414-9.886l-4.813-4.741-2.614 3.329m19.895 2.041l-3.605 4.212 5.037 5.036 5.036 5.036 3.913-4.497 3.912-4.498-4.634-4.75c-2.549-2.612-4.954-4.75-5.344-4.75-.391 0-2.332 1.895-4.315 4.211m56.079-2.035l-3.869 1.995 3.869 3.975 3.87 3.976.313-3.061c.173-1.684.173-4.37 0-5.97l-.313-2.909-3.87 1.994m8.37 3.94v6.116l3.915-3.366c2.154-1.851 3.954-3.659 4-4.017.078-.601-6.468-4.849-7.472-4.849-.244 0-.443 2.752-.443 6.116m50.794-1.366l-4.631 4.75 4.215 4.741 4.215 4.741 4.703-4.775c2.587-2.627 4.704-5.096 4.704-5.488 0-.948-7.045-8.719-7.904-8.719-.369 0-2.755 2.138-5.302 4.75m22.301-.346l-4.322 4.403 1.829 3.097c1.006 1.703 2.087 3.096 2.401 3.096.315 0 2.709-2.169 5.32-4.82l4.748-4.82-2.108-2.68c-1.16-1.474-2.432-2.68-2.827-2.68-.396 0-2.664 1.982-5.041 4.404m-114.987 1.305l-4.24 3.791 4.981 4.878 4.98 4.878 4.068-3.378c2.237-1.858 4.075-3.62 4.085-3.916.01-.295-2.154-2.676-4.808-5.29l-4.825-4.753-4.241 3.79m70.415 1.268c-2.696 2.737-4.7 5.1-4.452 5.25.248.15 2.137 1.827 4.198 3.727l3.748 3.454 4.989-4.914 4.989-4.914-3.7-3.79c-2.036-2.085-3.964-3.79-4.286-3.79-.321 0-2.79 2.24-5.486 4.977m-46.433 1.096c-1.325 1.104-3.125 2.417-4 2.919-1.335.766-.837 1.671 3.097 5.635l4.688 4.722 4.062-2.689c2.235-1.479 4.063-3.002 4.063-3.386 0-.842-8.188-9.288-8.958-9.241-.298.019-1.626.936-2.952 2.04m24.155 2.222c-2.34 2.313-4.253 4.483-4.25 4.822.003.34 1.858 1.844 4.123 3.342l4.118 2.726 4.382-4.301c2.41-2.365 4.372-4.544 4.361-4.842-.022-.554-7.521-6.079-8.139-5.997-.187.025-2.255 1.938-4.595 4.25M38.751 109.8l-2.598 3.926 4.708 4.637c2.589 2.55 4.993 4.637 5.342 4.637.349 0 1.634-1.619 2.857-3.597l2.223-3.596-4.967-4.967-4.966-4.967-2.599 3.927m170.833 1.115l-4.841 4.915 2.305 3.335c1.267 1.834 2.46 3.533 2.651 3.775.191.242 2.552-1.733 5.248-4.387l4.9-4.827-2.556-3.863c-1.406-2.125-2.626-3.863-2.711-3.863-.086 0-2.334 2.212-4.996 4.915m-152.255 1.463l-2.171 3.353 4.705 4.634c2.588 2.549 4.997 4.635 5.353 4.635.356 0 1.636-1.388 2.845-3.085l2.196-3.085-4.841-4.915c-2.662-2.703-5.083-4.909-5.378-4.903-.296.007-1.515 1.522-2.709 3.366m20.351 1.968l-3.561 4.346 5.002 4.904 5.002 4.904 3.879-4.5 3.88-4.5-4.654-4.75c-2.559-2.612-4.953-4.75-5.32-4.75s-2.27 1.956-4.228 4.346m91.104.404l-4.64 4.75 4.183 4.783 4.183 4.783 4.907-4.982 4.907-4.982-3.729-4.551c-2.051-2.503-4.053-4.551-4.45-4.551-.396 0-2.808 2.138-5.361 4.75m22.424-.462c-2.314 2.358-4.198 4.721-4.186 5.25.012.529.896 2.087 1.963 3.462l1.941 2.5 5.082-5.057 5.083-5.058-2.118-2.692c-1.165-1.481-2.442-2.693-2.837-2.693-.396 0-2.613 1.93-4.928 4.288m-91.069 1.325l-4.282 3.665 4.28 4.361c2.354 2.399 4.772 4.361 5.375 4.361.603 0 2.631-1.584 4.508-3.521l3.412-3.52-4.505-4.506-4.506-4.505-4.282 3.665m47.069.675c-2.314 2.358-4.208 4.57-4.208 4.916 0 .345 1.832 2.079 4.07 3.851l4.07 3.224 4.43-4.348 4.43-4.347-3.703-3.792c-2.037-2.086-3.968-3.792-4.292-3.792-.324 0-2.482 1.93-4.797 4.288m-24.945 2.024c-1.78 1.203-3.243 2.697-3.25 3.319-.007.623 1.562 2.333 3.487 3.801l3.5 2.67v-6.051c0-3.328-.112-6.023-.25-5.989-.138.034-1.707 1.047-3.487 2.25m7.737 4.356v6.738l4.025-3.93 4.024-3.93-2.274-1.802c-5.657-4.479-5.775-4.419-5.775 2.924m-97.921-1.823l-1.962 3.846 4.726 4.654c2.599 2.56 5.039 4.655 5.421 4.655.382 0 1.578-1.73 2.657-3.845l1.962-3.846-4.726-4.654c-2.599-2.56-5.039-4.655-5.421-4.655-.382 0-1.578 1.73-2.657 3.845m183.96.616l-4.378 4.46 1.821 4.04c1.002 2.221 2.108 4.039 2.457 4.039.35 0 2.783-2.18 5.407-4.844l4.771-4.843-2.157-3.657c-1.187-2.011-2.469-3.656-2.851-3.656-.381 0-2.663 2.007-5.07 4.461m-164.906-.177C49.96 123.183 49 125.15 49 125.656c0 .505 2.176 3.062 4.834 5.681l4.835 4.762 2.588-3.911 2.587-3.91-5.288-5.223-5.289-5.223-2.134 3.452m146.535 1.545c-2.567 2.607-4.668 5.036-4.668 5.398 0 .362.964 2.293 2.143 4.291l2.143 3.631 5.255-5.19 5.255-5.19-1.998-3.388c-1.1-1.863-2.328-3.591-2.73-3.839-.403-.249-2.832 1.681-5.4 4.287m-127.529.976c-1.177 1.652-2.139 3.403-2.139 3.891 0 1.209 8.328 9.304 9.572 9.304.548 0 1.825-1.401 2.836-3.114l1.84-3.114-4.985-4.985-4.985-4.986-2.139 3.004m20.111 2.146c-1.787 2.153-3.25 4.301-3.25 4.774 0 .472 1.93 2.752 4.288 5.067L95.576 140l3.835-4.587 3.834-4.587-4.331-4.413c-2.382-2.427-4.574-4.405-4.872-4.395-.298.01-2.005 1.78-3.792 3.933m66.798.5l-4.369 4.452 3.85 4.298c2.117 2.365 4.116 4.416 4.441 4.559.326.144 2.55-1.733 4.943-4.171l4.349-4.432-3.751-4.579c-2.064-2.518-4.054-4.578-4.423-4.578-.369 0-2.637 2.003-5.04 4.451m21.696.301l-4.699 4.771 2.419 2.989 2.42 2.988 4.792-4.747c4.768-4.724 4.783-4.76 3.137-7.473-.91-1.5-2.041-2.856-2.512-3.013-.472-.157-2.972 1.861-5.557 4.485m-67.26.264l-3.922 4.017 4.122 4.121 4.122 4.122 4.079-3.388c2.243-1.863 4.087-3.859 4.097-4.435.018-1.025-7.075-8.453-8.071-8.453-.278 0-2.27 1.807-4.427 4.016m24.473.528c-2.383 2.428-4.13 4.536-3.884 4.685.247.149 2.133 1.823 4.192 3.721l3.742 3.449 3.996-3.902c2.199-2.147 3.989-4.374 3.979-4.95-.01-.576-1.745-2.48-3.855-4.232l-3.838-3.185-4.332 4.414m-109.476 4.498l-1.823 4.042 4.884 4.958c2.685 2.727 5.125 4.953 5.42 4.948.296-.006 1.331-1.897 2.3-4.203l1.763-4.193-4.725-4.797c-2.599-2.638-5.011-4.797-5.361-4.797-.349 0-1.455 1.819-2.458 4.042m195.35.699l-4.613 4.759 1.885 4.332 1.885 4.333 5.438-4.646 5.438-4.646-1.753-4.127c-.963-2.269-2.183-4.27-2.71-4.446-.527-.175-3.033 1.823-5.57 4.441m-177.35.301l-1.823 4.042 4.884 4.958c2.685 2.727 5.169 4.958 5.519 4.958.349 0 1.455-1.819 2.458-4.042l1.823-4.042-4.884-4.958c-2.685-2.727-5.169-4.958-5.519-4.958-.349 0-1.455 1.819-2.458 4.042m159.219.755l-4.725 4.797 1.763 4.192c.969 2.305 2.055 4.084 2.412 3.953.358-.132 2.946-2.394 5.75-5.029l5.1-4.79-2.02-3.96c-1.112-2.178-2.366-3.96-2.788-3.96-.422 0-2.893 2.159-5.492 4.797m-140.66.859l-2.157 3.657 4.771 4.843c2.624 2.664 5.081 4.844 5.46 4.844.378 0 1.659-1.645 2.846-3.656l2.157-3.657-4.771-4.843c-2.624-2.664-5.081-4.844-5.46-4.844-.378 0-1.659 1.645-2.846 3.656m121.747 1.094l-4.639 4.75 1.95 3.75c1.072 2.063 2.293 3.75 2.713 3.75.421 0 2.944-2.213 5.609-4.918l4.844-4.919-2.214-3.581c-1.217-1.97-2.531-3.582-2.919-3.582-.388 0-2.793 2.137-5.344 4.75m-102.757.702l-2.235 3.616 4.782 4.453c2.63 2.449 4.847 4.347 4.926 4.216.08-.13 1.102-1.626 2.272-3.323l2.127-3.085-4.819-4.747-4.818-4.746-2.235 3.616m19.609.656c-2.001 2.339-3.639 4.53-3.639 4.869 0 1.392 7.897 8.205 8.837 7.624.559-.346 2.379-2.349 4.044-4.451l3.028-3.823-4.315-4.235-4.316-4.235-3.639 4.251m44.633.142l-4.145 4.25 2.341 2.695c1.288 1.483 3.062 3.724 3.943 4.981l1.601 2.286 4.49-4.49 4.49-4.49-3.746-4.693c-2.06-2.581-3.99-4.715-4.288-4.741-.298-.026-2.407 1.864-4.686 4.202m20.823 1.154l-4.322 4.403 1.829 3.097c1.006 1.703 2.088 3.096 2.405 3.096.317 0 2.521-1.982 4.898-4.404l4.322-4.403-1.829-3.097c-1.006-1.703-2.088-3.096-2.405-3.096-.317 0-2.521 1.982-4.898 4.404m-45.899-.107l-3.195 3.298L122 145.5l4 3.906v-7.203c0-3.962-.362-7.203-.804-7.203-.442 0-2.242 1.484-4 3.297m8.804 3.906v7.203l4-3.906 3.999-3.905-3.195-3.298c-1.758-1.813-3.558-3.297-4-3.297-.442 0-.804 3.241-.804 7.203M22.69 140.75c-.235.412-.987 2.485-1.671 4.605l-1.243 3.855 5.345 5.413 5.346 5.413 1.776-5.224 1.775-5.225-4.721-4.793c-4.719-4.791-5.803-5.454-6.607-4.044m16.461 3.303l-1.935 4.447 5.108 5.25c2.809 2.887 5.412 5.25 5.783 5.25.372 0 1.428-1.879 2.347-4.177l1.671-4.176-5.52-5.52-5.52-5.52-1.934 4.446m170.061 1.232l-5.22 5.286 1.656 4.214c.91 2.318 1.94 4.215 2.288 4.215.348 0 2.961-2.363 5.806-5.25l5.174-5.25-1.909-4.25c-1.05-2.338-2.059-4.25-2.242-4.25-.183 0-2.682 2.378-5.553 5.285m17.56-.544L222.1 149.5l1.724 5.26 1.724 5.26 5.435-5.503 5.435-5.503-1.53-4.198c-.842-2.308-1.961-4.34-2.488-4.516-.526-.175-3.059 1.823-5.628 4.441m-169.069-.244c-.937 1.964-1.703 4.135-1.703 4.825C56 150.558 64.997 160 66.176 160c.334 0 1.359-1.879 2.278-4.177l1.671-4.176-5.36-5.36-5.36-5.36-1.702 3.57m133.518 1.779l-5.229 5.295 1.656 4.214c.91 2.318 1.94 4.215 2.288 4.215.348 0 2.946-2.363 5.774-5.25l5.141-5.25-2.2-4.259-2.201-4.259-5.229 5.294M76.79 145.25c-3.183 4.974-3.06 5.899 1.382 10.426 2.335 2.378 4.592 4.324 5.016 4.324.424 0 1.727-1.874 2.896-4.165l2.125-4.164-4.355-4.29c-2.395-2.36-4.64-4.311-4.989-4.336-.349-.025-1.283.967-2.075 2.205m96.249 2.211l-4.378 4.46 1.821 4.04c1.002 2.221 2.11 4.039 2.462 4.039.352 0 2.61-2.007 5.017-4.461l4.378-4.46-1.821-4.04c-1.002-2.221-2.11-4.039-2.462-4.039-.352 0-2.61 2.007-5.017 4.461m-60.872.48c-1.742 2.168-3.167 4.33-3.167 4.804 0 .475 1.6 2.413 3.556 4.309l3.557 3.446 1.99-2.5c5.559-6.983 5.52-6.762 1.849-10.55-1.84-1.897-3.631-3.45-3.981-3.45-.35 0-2.062 1.774-3.804 3.941m23.895-.505l-3.331 3.437 3.312 4.313c1.822 2.373 3.592 4.651 3.933 5.063.342.411 2.299-.97 4.35-3.071l3.729-3.819-3.573-4.679c-1.966-2.574-3.915-4.68-4.332-4.68-.417 0-2.256 1.546-4.088 3.436m-42.634.703l-1.623 3.139 4.447 4.448 4.448 4.448 2.051-3.476 2.051-3.476-4.189-4.111C98.309 146.85 96.115 145 95.738 145c-.378 0-1.417 1.413-2.31 3.139m62.639 1.293l-4.35 4.432 1.939 3.062 1.939 3.062 4.291-4.372 4.291-4.372-1.614-3.122c-.888-1.717-1.734-3.122-1.88-3.122-.147 0-2.224 1.994-4.616 4.432m-121.554 7.53c-.944 2.842-1.499 5.385-1.233 5.651s3.48.349 7.143.185l6.66-.298-5.427-5.353-5.427-5.353-1.716 5.168m179.479.546L208.568 163h7.216c5.393 0 7.216-.341 7.216-1.351 0-1.683-2.045-7.891-2.929-8.891-.36-.408-3.096 1.729-6.079 4.75m-196.873-.065c-.616 2.443-1.119 4.693-1.119 5 0 .306 3.021.557 6.712.557h6.713l-4.925-5c-2.709-2.75-5.226-5-5.594-5-.368 0-1.172 1.999-1.787 4.443m35.356-.016c-.97 2.54-1.526 4.855-1.235 5.146.29.291 3.301.393 6.69.228l6.161-.301-4.926-4.845-4.927-4.845-1.763 4.617m69.739-.245c-1.768 2.3-3.214 4.55-3.214 5 0 .45 1.575.818 3.5.818h3.5v-5c0-2.75-.129-5-.286-5-.157 0-1.732 1.882-3.5 4.182m7.786.759V163h8.124l-3.29-4.582c-1.81-2.521-3.638-4.797-4.063-5.059-.424-.262-.771 1.8-.771 4.582m66.5.059l-4.925 5h6.821c6.744 0 6.814-.028 6.204-2.456-.79-3.147-2.458-7.544-2.863-7.544-.172 0-2.528 2.25-5.237 5m35 0l-4.925 5h6.713c4.337 0 6.712-.401 6.712-1.134 0-1.975-2.29-8.866-2.946-8.866-.346 0-2.845 2.25-5.554 5m-160.904.052c-.924 2.309-1.487 4.39-1.251 4.626.235.236 2.977.292 6.092.125l5.664-.303-4.412-4.323-4.413-4.323-1.68 4.198m17.419-.081c-1.185 2.323-1.95 4.427-1.701 4.677.25.249 3.229.318 6.62.153l6.166-.301-4.466-4.375-4.465-4.376-2.154 4.222M161 158.5l-4.416 4.5h6.708c3.689 0 6.708-.243 6.708-.54 0-.699-3.956-8.46-4.312-8.46-.149 0-2.259 2.025-4.688 4.5m18 0l-4.416 4.5h6.208c3.414 0 6.208-.395 6.208-.878 0-1.018-2.891-8.122-3.305-8.122-.153 0-2.266 2.025-4.695 4.5m-74.284.404c-.944 1.598-1.716 3.173-1.716 3.5 0 .328 2.563.596 5.696.596h5.696L111 159.5c-1.866-1.925-3.657-3.5-3.981-3.5-.323 0-1.36 1.307-2.303 2.904m40.867.638L141.667 163h5.666c3.117 0 5.667-.247 5.667-.55 0-.671-2.962-6.467-3.276-6.408-.123.023-1.986 1.598-4.141 3.5" fill="#1976D2" fill-rule="evenodd"/></svg>