<svg xmlns="http://www.w3.org/2000/svg" width="256" height="256"><path fill-opacity=".016" d="M0 128.004v128.004l128.25-.254 128.25-.254.254-127.75L257.008 0H0v128.004m.485.496c0 70.4.119 99.053.265 63.672.146-35.38.146-92.98 0-128C.604 29.153.485 58.1.485 128.5" fill="#1976D2" fill-rule="evenodd"/><path fill-opacity=".283" d="M112 61.28C89.93 71.394 73.432 81.253 64.452 89.695c-2.226 2.093-7.251 6.812-11.167 10.487-3.915 3.675-9.717 9.75-12.892 13.5-3.176 3.75-6.446 7.493-7.267 8.318-.821.825-4.266 5.775-7.657 11-5.169 7.965-10.255 18.014-18.992 37.52C3.97 176.117 0 191.193 0 195.116v3.892l128.25-.254 128.25-.254.184-5c.123-3.351-.052-4.199-.529-2.57-.571 1.948-1.273.421-3.54-7.693-1.555-5.568-5.943-16.964-9.752-25.325-11.447-25.127-23.718-42.217-43.176-60.133-15.713-14.468-26.162-21.543-47.106-31.895-15.76-7.789-17.405-8.383-24-8.66-6.546-.275-7.798.031-16.581 4.056m11.49 1.736c-.346.559-1.016.777-1.49.484-.474-.293-1.149-.068-1.5.5-.351.568-1.026.793-1.5.5a1.011 1.011 0 00-1.389.321c-.291.47 1.253 2.593 3.43 4.719L125 73.406v-5.703c0-5.67-.309-6.63-1.51-4.687m6.51 5.193v5.197l3.982-3.888c3.719-3.631 4.172-4.838 1.935-5.143-.505-.069-1.03-.215-1.167-.324-.137-.11-1.262-.388-2.5-.619-2.098-.391-2.25-.07-2.25 4.777m-24.3 1.567l-3.8 1.724 4.898 4.813 4.898 4.813 4.138-1.793 4.138-1.793-4.698-4.77c-2.585-2.623-4.941-4.758-5.236-4.744-.296.015-2.248.802-4.338 1.75M139.5 73c-3.948 4.008-4.53 5-2.935 5 1.095 0 3.01.714 4.256 1.587 2.171 1.521 2.463 1.408 6.973-2.712 2.588-2.364 4.837-4.597 4.998-4.962.224-.511-6.817-3.913-8.1-3.913-.147 0-2.483 2.25-5.192 5m14.028 5.971l-4.674 4.746 3.727 2.198 3.727 2.199 4.346-4.265c2.39-2.346 4.327-4.509 4.304-4.807-.024-.298-1.553-1.504-3.399-2.679l-3.357-2.137-4.674 4.745m-60.432-2.043l-3.404 1.783 4.232 4.591 4.232 4.591 3.422-1.632c1.882-.897 3.422-1.904 3.422-2.238 0-.334-1.912-2.468-4.25-4.742l-4.25-4.136-3.404 1.783M81.25 84.115C79.463 85.26 78 86.473 78 86.81c0 .338 1.861 2.51 4.135 4.827l4.134 4.213 3.913-2.589 3.912-2.589-4.255-4.336c-2.341-2.385-4.499-4.328-4.797-4.319-.298.009-2.005.953-3.792 2.098m39.071-.305l-4.179 1.698 4.429 4.688L125 94.884v-6.442c0-3.543-.112-6.417-.25-6.386-.138.031-2.131.82-4.429 1.754M130 88.723v6.722l4.41-4.972 4.41-4.973-3.66-1.676c-2.013-.922-3.998-1.709-4.41-1.75-.412-.041-.75 2.951-.75 6.649m35.161-2.387l-4.255 4.336 3.912 2.589 3.913 2.589 4.322-4.404c2.377-2.422 4.125-4.555 3.885-4.739-4.696-3.593-6.32-4.707-6.865-4.707-.361 0-2.571 1.951-4.912 4.336M106.5 89.699c-1.65.861-3.197 1.74-3.438 1.954-.689.612 8.218 9.347 9.531 9.347.648 0 2.571-.586 4.274-1.302l3.097-1.302-5.232-5.131c-5.231-5.129-5.233-5.13-8.232-3.566m33.41 4.085c-2.976 3.118-5.013 5.358-4.529 4.978.485-.38 1.823-.032 2.973.773 1.15.806 2.797 1.465 3.66 1.465 1.585 0 10.734-8.622 9.924-9.352-.241-.216-1.829-1.1-3.528-1.964l-3.091-1.57-5.409 5.67m-70.698-1.002l-3.287 2.728 4.447 4.365 4.448 4.364 3.642-2.778 3.643-2.778-4.261-4.342c-2.343-2.387-4.504-4.329-4.802-4.314-.298.015-2.021 1.254-3.83 2.755m107.944 1.559l-4.261 4.342 3.643 2.778 3.642 2.778 4.448-4.364 4.447-4.365-3.287-2.728c-1.809-1.501-3.532-2.74-3.83-2.755-.298-.015-2.459 1.927-4.802 4.314m-81.813 2.596c-1.718 1.046-3.379 2.313-3.691 2.816-.311.504 1.397 2.842 3.795 5.195l4.361 4.28 4.07-2.427 4.07-2.427-4.74-4.669-4.739-4.668-3.126 1.9m56.349 2.868l-4.732 4.804 4.113 2.312 4.114 2.312 4.406-4.325c2.424-2.378 4.401-4.568 4.395-4.866-.012-.495-6.56-5.042-7.262-5.042-.165 0-2.431 2.162-5.034 4.805m-93.698 2.701l-3.398 3.506 4.41 4.494 4.41 4.494 3.797-3.708 3.796-3.707-4.213-4.292C64.479 100.932 62.316 99 61.988 99c-.328 0-2.125 1.578-3.994 3.506m130.21.787l-4.213 4.292 3.796 3.707 3.797 3.708 4.41-4.494 4.41-4.494-3.398-3.506c-1.869-1.928-3.666-3.506-3.994-3.506-.328 0-2.491 1.932-4.808 4.293m-67.574.883l-3.869 1.995 3.869 3.975 3.87 3.976.313-3.061c.173-1.684.173-4.37 0-5.97l-.313-2.909-3.87 1.994m-37.879 1.625l-3.635 2.888 4.692 4.601 4.692 4.601 3.5-2.9 3.5-2.901-4.557-4.589-4.557-4.589-3.635 2.889M130 108.703v5.703l4-3.906c2.2-2.148 4-4.028 4-4.177 0-.506-5.893-3.323-6.95-3.323-.611 0-1.05 2.388-1.05 5.703m33.958-1.144l-4.458 4.558 3.5 2.887 3.5 2.887 4.692-4.601 4.692-4.601-3.579-2.844c-1.969-1.565-3.649-2.845-3.734-2.845-.085 0-2.161 2.051-4.613 4.559m-53.416 2.221c-1.077.246-3.016 1.14-4.308 1.986l-2.35 1.54 4.266 4.347c4.725 4.814 6.391 5.205 10.793 2.528l2.992-1.82-4.717-4.514c-3.204-3.066-5.346-4.371-6.676-4.067m27.204 3.971l-4.68 4.75 3.048 1.75c4.49 2.577 6.021 2.206 10.736-2.598l4.266-4.347-2.308-1.509c-4.986-3.259-6.126-3.058-11.062 1.954m-91.069.427l-3.608 4.322 4.288 4.31 4.289 4.309 4.01-4.011 4.011-4.011-4.691-4.62-4.691-4.621-3.608 4.322m153.371.269l-4.452 4.541 3.452 3.745c1.899 2.06 3.58 3.953 3.737 4.208.157.254 2.272-1.541 4.7-3.989l4.415-4.452-3.7-4.297-3.7-4.297-4.452 4.541M70.92 115.583l-3.352 3.458 4.695 4.696 4.696 4.695 3.52-3.412c1.937-1.877 3.521-3.662 3.521-3.966-.001-.305-2.189-2.439-4.864-4.742l-4.864-4.188-3.352 3.459m104.068.93l-4.429 4.512 3.722 3.723 3.723 3.722 4.714-4.714 4.714-4.715-3.412-3.52c-1.877-1.937-3.68-3.521-4.008-3.521-.328 0-2.589 2.031-5.024 4.513m-78.761 2.809l-3.273 3.216 4.433 4.351 4.433 4.35 3.644-2.78 3.645-2.78-4.767-4.839c-2.622-2.662-4.784-4.816-4.804-4.787-.021.029-1.511 1.5-3.311 3.269m54.347 1.603l-4.759 4.832 3.644 2.779 3.644 2.78 4.448-4.366c2.447-2.402 4.417-4.61 4.377-4.908-.04-.298-1.54-1.758-3.334-3.245l-3.261-2.703-4.759 4.831m-113.203 4.632c-1.653 2.522-1.615 2.618 2.706 7.022l4.382 4.464 1.748-2.271c.962-1.25 1.759-2.743 1.771-3.319.024-1.131-7.119-8.453-8.247-8.453-.377 0-1.439 1.151-2.36 2.557m22.413 1.798l-3.644 4.358 4.68 4.484 4.68 4.483 3.715-4.162 3.716-4.161-4.752-4.681-4.752-4.68-3.643 4.359m61.334-2.289l-3.383 2.066 3.383 3.503 3.382 3.503.315-2.551c.173-1.403.173-3.909 0-5.569L124.5 123l-3.382 2.066M130 128.67v5.722l3.461-3.354c3.82-3.703 3.769-4.351-.524-6.571L130 122.949v5.721m57.216-1.39c-2.319 2.363-4.216 4.674-4.216 5.137 0 .462 1.529 2.533 3.397 4.601l3.397 3.76 4.525-4.639 4.525-4.639-3.706-4.258-3.706-4.258-4.216 4.296m23.859.143l-4.341 4.424 1.982 2.519 1.981 2.518 4.249-4.329c4.214-4.294 4.235-4.35 2.536-6.942-.942-1.437-1.792-2.613-1.889-2.613-.097 0-2.13 1.99-4.518 4.423M84.434 129.25l-3.537 3.25 4.461 4.37 4.462 4.369 4.114-3.306 4.115-3.307-4.233-4.313c-2.328-2.372-4.595-4.313-5.039-4.313-.443 0-2.398 1.463-4.343 3.25m77.186 1.352l-3.879 4.536 3.379 2.89c1.859 1.59 3.624 2.909 3.922 2.931.298.023 2.461-1.915 4.807-4.305l4.265-4.346-3.592-3.154c-1.975-1.735-3.913-3.139-4.307-3.121-.393.018-2.461 2.074-4.595 4.569M112 131c0 .55-.562 1.014-1.25 1.032-.687.017-2.128.696-3.201 1.507-1.884 1.425-1.803 1.626 2.385 5.893l4.335 4.418 3.913-2.589 3.912-2.589-4.255-4.336C113.598 130.015 112 129.102 112 131m25.161 3.336l-4.255 4.336 3.912 2.589 3.913 2.589 4.381-4.464c3.603-3.671 4.115-4.632 2.884-5.409-.823-.521-2.01-.953-2.639-.962-.629-.008-1.402-.69-1.719-1.515-.88-2.295-1.864-1.864-6.477 2.836m-106.604.887c-2.212 3.158-2.042 3.707 2.618 8.455l4.175 4.255 2.24-3.217 2.24-3.216-4.123-4.25c-2.268-2.338-4.454-4.25-4.859-4.25-.404 0-1.435 1-2.291 2.223m187.622 2.089l-4.32 4.408 1.89 3.107 1.89 3.108 4.658-4.729 4.658-4.729-2.227-2.787-2.228-2.786-4.321 4.408m-167.068 1.274l-2.178 2.77 4.241 4.322c2.334 2.377 4.547 4.322 4.919 4.322.372 0 1.452-1.183 2.4-2.629 1.715-2.618 1.704-2.648-2.74-7.092l-4.463-4.463-2.179 2.77m122.529 2.272l-4.721 4.793 3.79 4.182 3.791 4.182 4.636-4.455c4.608-4.427 4.624-4.467 2.607-6.258-1.116-.991-2.784-3.025-3.706-4.52l-1.676-2.717-4.721 4.793m24.1-.088l-4.646 4.73 1.915 2.5 1.915 2.5 4.523-4.5 4.523-4.5-1.792-2.73-1.792-2.731-4.646 4.731m-124.704.335l-3.299 4.105 4.596 4.597c2.528 2.528 4.725 4.388 4.882 4.134.157-.255 1.838-2.148 3.737-4.208l3.452-3.745-4.41-4.494c-2.426-2.472-4.691-4.494-5.035-4.494-.343 0-2.109 1.847-3.923 4.105m25.076 1.027l-3.388 4.062 3.888 3.835 3.888 3.835 3.954-3.464 3.955-3.465-4.455-4.432-4.454-4.433-3.388 4.062m50.904.351l-4.394 4.478 3.939 3.44 3.939 3.439 3.75-3.623c2.063-1.992 3.75-4.118 3.75-4.724 0-.605-1.483-2.538-3.295-4.294l-3.294-3.193-4.395 4.477m-27.516 2.961l-3 2.434 3.25 3.292 3.25 3.292v-5.731c0-3.152-.112-5.729-.25-5.726-.138.003-1.6 1.1-3.25 2.439m8.5 3.175v5.755l3-2.874c1.65-1.581 3-3.209 3-3.619 0-.41-1.35-1.706-3-2.881l-3-2.136v5.755m-106.666-.677l-1.97 3.111 4.568 4.756 4.568 4.756 1.846-3.423 1.846-3.423-4.444-4.445-4.444-4.444-1.97 3.112m201.787 1.435l-4.295 4.376 1.864 3.634 1.864 3.634 4.852-4.925 4.851-4.926-2.196-3.085c-1.209-1.697-2.298-3.085-2.421-3.085-.123 0-2.157 1.969-4.519 4.377m-181.529-.263l-1.84 3.114 4.922 4.922 4.921 4.922 1.623-3.403 1.622-3.402-4.704-4.633L45.431 146l-1.839 3.114m161.13 1.66l-4.685 4.757 1.957 3.218 1.957 3.218 4.638-4.959 4.639-4.959-1.91-3.016-1.91-3.016-4.686 4.757m-140.417 1.172l-2.195 2.738 4.816 4.743 4.816 4.744 2.08-2.921 2.08-2.921-4.701-4.561-4.701-4.56-2.195 2.738m22.257 2.117l-3.899 4.018 4.307 4.388 4.307 4.389 3.361-4.024c1.849-2.213 3.362-4.339 3.362-4.726 0-.386-1.696-2.358-3.769-4.383l-3.769-3.68-3.9 4.018m74.141-.271c-2.037 2.086-3.703 4.068-3.703 4.406 0 .337 1.513 2.423 3.362 4.636l3.361 4.024 4.258-4.339 4.258-4.339-3.287-4.09c-1.808-2.249-3.57-4.09-3.916-4.09-.347 0-2.296 1.706-4.333 3.792m23.353.651c-4.359 4.442-4.36 4.444-2.61 7.115l1.751 2.673 4.831-4.758c4.187-4.124 4.64-4.948 3.401-6.187-.786-.786-1.429-1.847-1.429-2.357 0-1.835-1.655-.856-5.944 3.514m-74.056.095l-3.5 3.433 4 3.967 4 3.968 3.85-3.558 3.85-3.559-3.803-3.894c-2.091-2.142-4.049-3.871-4.35-3.842-.301.029-2.122 1.598-4.047 3.485m26.603.357l-3.803 3.894 3.85 3.559 3.85 3.558 3.965-3.933 3.966-3.933-3.412-3.52c-1.876-1.936-3.682-3.52-4.012-3.52-.331 0-2.313 1.753-4.404 3.895m-120.156 5.576l-1.606 3.844 4.56 4.56c4.404 4.404 4.61 4.493 6.016 2.593 2.804-3.789 2.461-5.164-2.509-10.059l-4.855-4.781-1.606 3.843m215.322 1.324l-4.568 4.705 1.581 3.25c.87 1.787 1.856 3.25 2.191 3.25.336 0 2.57-1.997 4.966-4.438 4.196-4.275 4.308-4.551 3.078-7.521-.703-1.696-1.593-3.279-1.979-3.518-.386-.238-2.757 1.684-5.269 4.272m-195.171-.985c-.879 1.7-1.598 3.521-1.598 4.047 0 .526 2.227 2.821 4.948 5.1l4.949 4.143 1.65-3.19 1.649-3.19-5-5-5-5-1.598 3.09m174.98 2.111l-4.758 4.83 1.624 3.141c1.892 3.658 3.062 3.345 8.45-2.256 3.203-3.33 3.322-3.7 2.12-6.603-.701-1.692-1.59-3.271-1.976-3.51-.386-.238-2.843 1.741-5.46 4.398m-154.282-.699l-2.095 3.551 4.937 4.863c5.16 5.083 5.073 5.079 7.823.316.662-1.148-.328-2.933-3.838-6.914l-4.732-5.367-2.095 3.551m133.537 2.217l-4.667 5.069 2.056 2.822 2.055 2.822 4.81-4.738c4.943-4.868 5.066-5.542 1.736-9.478-1.166-1.379-1.876-.964-5.99 3.503m-113.232.66l-1.828 3.094 4.343 4.425 4.343 4.425 1.748-2.271c2.483-3.227 2.3-3.858-2.493-8.562l-4.285-4.206-1.828 3.095m23.617-1.917c-.67.67-1.218 1.695-1.218 2.277 0 .583-.9 1.622-2 2.309-2.871 1.793-2.5 3.338 1.815 7.551l3.814 3.725 3.32-4.623 3.32-4.623-3.917-3.916c-3.078-3.078-4.177-3.657-5.134-2.7m47.323 2.776l-3.785 3.876 3.309 4.607 3.309 4.608 4.268-4.188 4.267-4.188-3.028-3.823c-1.665-2.102-3.371-4.035-3.792-4.295-.42-.26-2.467 1.272-4.548 3.403m23.162.834c-3.951 4.046-4.452 5.801-2.443 8.549 1.146 1.567 1.659 1.317 5.652-2.752 4.332-4.414 4.37-4.51 2.717-7.032-.921-1.406-1.798-2.557-1.949-2.557-.151 0-1.94 1.706-3.977 3.792m-50.224.23l-2.896 3.023 3.209 3.208 3.208 3.209v-6.231c0-3.427-.141-6.231-.313-6.231-.172 0-1.616 1.36-3.208 3.022m8.521 3.123v6.247l3.5-3.392c1.925-1.866 3.5-3.476 3.5-3.577 0-.102-1.575-1.387-3.5-2.855l-3.5-2.67v6.247m-119.019 3.914l-1.34 4.058 5.026 5.026 5.026 5.026 1.301-4.647 1.301-4.646-4.356-4.438c-2.395-2.441-4.64-4.438-4.987-4.438-.348 0-1.235 1.826-1.971 4.059m226.636.823l-4.778 4.85 1.252 4.178 1.252 4.177 4.828-4.756c5.28-5.2 5.437-5.655 3.526-10.2l-1.303-3.1-4.777 4.851m-206.292-3.224c.362.362.195 1.216-.371 1.898-2.459 2.962-1.762 5.209 3.106 10.003 2.691 2.651 5.026 4.623 5.187 4.381.161-.242.845-2.001 1.519-3.91 1.203-3.403 1.136-3.56-3.482-8.25-2.59-2.629-5.138-4.78-5.663-4.78-.525 0-.658.296-.296.658m186.36 4.154l-4.74 4.812 1.6 3.829 1.6 3.829 4.823-4.75c2.653-2.613 4.715-5.264 4.584-5.891-.777-3.709-1.858-6.641-2.448-6.641-.374 0-2.812 2.165-5.419 4.812m-167.048-.178l-1.754 3.679 4.771 4.843c2.624 2.664 5.042 4.844 5.373 4.844.332 0 1.324-1.514 2.207-3.364l1.604-3.364-5.223-5.159-5.223-5.158-1.755 3.679m147.121 1.116c-2.567 2.613-4.508 5.425-4.315 6.25.831 3.547 1.837 6 2.461 6 .369 0 2.804-2.165 5.411-4.812l4.74-4.812-1.541-3.688c-.847-2.028-1.664-3.688-1.815-3.688-.151 0-2.374 2.137-4.941 4.75m-126.438-.045l-1.761 3.27 4.442 4.526 4.442 4.526 1.839-3.586 1.84-3.586-4.521-4.21-4.52-4.21-1.761 3.27m105.961 1.545l-4.136 4.25 1.709 3.261 1.708 3.261 4.366-4.449c4.197-4.277 4.317-4.567 3.098-7.511-.698-1.684-1.57-3.062-1.939-3.062s-2.532 1.912-4.806 4.25m-67.157.593l-3.043 3.843 3.257 3.157c1.791 1.736 3.497 3.157 3.79 3.157.293 0 1.94-1.959 3.66-4.354l3.126-4.354-2.762-2.646c-1.519-1.455-3.262-2.646-3.873-2.646-.611 0-2.481 1.729-4.155 3.843m26.631-1.093c-2.815 2.956-2.913 2.533 2.022 8.73l2.278 2.859 3.432-3.326 3.432-3.327-3.043-3.843c-1.674-2.114-3.597-3.843-4.273-3.843-.676 0-2.407 1.238-3.848 2.75m-46.644.907c-1.115 2.446-.915 2.959 2.517 6.474 3.918 4.013 5.581 3.936 6.932-.321.461-1.451-.279-2.957-2.657-5.41-3.97-4.096-5.204-4.231-6.792-.743m68.433 1.298c-3.437 3.519-3.711 4.154-2.486 5.75.757.987 1.512 1.991 1.677 2.23.166.239 2.058-1.28 4.205-3.376 3.453-3.372 3.778-4.084 2.821-6.185-.595-1.306-1.368-2.374-1.719-2.374-.35 0-2.374 1.78-4.498 3.955m-151.226 5.25c-.009.712-.345 2.758-.747 4.545l-.73 3.25h5.08c2.793 0 5.079-.131 5.079-.292 0-.16-1.95-2.205-4.333-4.544-2.384-2.339-4.341-3.671-4.349-2.959m18.601 2.671c-.682 2.275-.992 4.384-.69 4.687.303.302 2.873.411 5.712.243l5.162-.306-4.472-4.38-4.473-4.381-1.239 4.137m197.123.575L218.584 193h5.708c6.283 0 6.804-.744 4.413-6.299l-1.205-2.798-4.458 4.548m19.972.034l-4.43 4.515h11.454l-.668-2.75c-1.604-6.606-1.604-6.606-6.356-1.765M123.5 186.339c-1.317 1.663-3.5 5.497-3.5 6.147 0 .283 1.125.514 2.5.514 2.25 0 2.5-.4 2.5-4 0-4.397-.052-4.49-1.5-2.661m6.5 2.539c0 3.921.147 4.122 3.026 4.122 2.997 0 3.012-.026 1.566-2.823-.803-1.552-2.165-3.407-3.026-4.122-1.378-1.144-1.566-.806-1.566 2.823m-84.739.622l-1.074 3.5h10.205L51 189.5c-1.866-1.925-3.679-3.5-4.028-3.5-.35 0-1.12 1.575-1.711 3.5m20 0l-1.074 3.5h9.205L70 189.5c-1.866-1.925-3.454-3.5-3.528-3.5-.075 0-.62 1.575-1.211 3.5m19.213-.449c-.892 1.724-1.412 3.345-1.155 3.601.256.257 2.427.327 4.824.157l4.357-.309-3.203-3.292-3.202-3.292-1.621 3.135m81.178.521L162.803 193h4.599c2.529 0 4.598-.247 4.598-.55 0-.69-2.971-6.476-3.276-6.378-.123.04-1.506 1.615-3.072 3.5m19.333-.057L181.608 193h9.288l-1.096-3.25c-.604-1.787-1.173-3.356-1.267-3.485-.093-.129-1.69 1.333-3.548 3.25M204 189.5l-3.392 3.5h10.205l-1.074-3.5c-.591-1.925-1.361-3.5-1.711-3.5-.349 0-2.162 1.575-4.028 3.5m-101.341.5l-1.772 3h9.487l-2.874-3c-1.581-1.65-2.918-3-2.971-3-.054 0-.895 1.35-1.87 3m45.341.5l-2.349 2.5h4.153c4.067 0 4.13-.052 3.014-2.5-.626-1.375-1.438-2.5-1.804-2.5-.366 0-1.722 1.125-3.014 2.5m-147.714 4c.008 2.75.202 3.756.432 2.236.229-1.52.223-3.77-.014-5-.237-1.23-.425.014-.418 2.764" fill="#1976D2" fill-rule="evenodd"/><path fill-opacity=".639" d="M121.526 57.808c-.321.321-1.133.673-1.805.782-8.889 1.445-37.65 17.733-53.994 30.577-9.967 7.834-26.59 25.224-34.021 35.594C16.366 146.167 1.911 177.705.401 193.06l-.585 5.948 128.342-.254L256.5 198.5l.282-3.5c.166-2.059-.055-3-.537-2.285-.514.761-1.495-1.406-2.627-5.798-4.162-16.158-15.081-39.801-25.534-55.292-18.308-27.131-42.841-48.907-72.145-64.036C146.496 62.714 135 57.83 135 58.693c0 .303-.562.105-1.25-.441-1.335-1.06-11.248-1.421-12.224-.444m-1.276 5.683c-1.787.777-3.25 1.793-3.25 2.258 0 .465 1.8 2.603 4 4.751l4 3.906v-6.203c0-3.412-.338-6.185-.75-6.164-.412.022-2.213.675-4 1.452m9.75 4.65v6.275l4.509-4.425c4.465-4.382 4.487-4.437 2.25-5.584-1.242-.637-3.271-1.469-4.509-1.85-2.168-.667-2.25-.463-2.25 5.584m-23.954 1.436c-1.9.824-3.673 1.717-3.94 1.984-.267.267 1.707 2.711 4.388 5.432 3.741 3.799 5.178 4.694 6.189 3.855.724-.601 1.317-.801 1.317-.445 0 .357 1.35-.05 3-.903s3-1.86 3-2.238c0-1.136-8.336-9.265-9.458-9.223-.573.022-2.596.714-4.496 1.538m32.975 2.902c-2.418 2.464-4.092 4.783-3.72 5.155.372.372 2.43 1.461 4.573 2.421l3.898 1.745 4.614-4.684c2.538-2.577 4.614-4.958 4.614-5.292 0-.615-7.394-3.824-8.812-3.824-.424 0-2.75 2.016-5.167 4.479m13.919 6.499l-4.56 4.682 4.003 2.192 4.003 2.193 4.779-4.708 4.78-4.708-4.074-2.314c-2.242-1.273-4.142-2.248-4.223-2.167-.081.081-2.2 2.255-4.708 4.83m-60.19-2.406c-1.513.821-2.75 1.798-2.75 2.172 0 .374 1.868 2.584 4.152 4.911l4.152 4.231 3.973-2.028 3.974-2.027-4.334-4.415c-4.778-4.869-5.195-4.999-9.167-2.844m-12.148 7.052l-3.843 2.612 4.982 4.982 4.982 4.982 3.626-2.35c1.995-1.293 3.632-2.592 3.639-2.888.006-.295-2.138-2.655-4.766-5.243l-4.777-4.706-3.843 2.611M130 88.249v7.167l4.51-4.426c2.481-2.435 4.367-4.859 4.191-5.388-.176-.528-2.206-1.762-4.511-2.74l-4.19-1.78v7.167m35.569-2.319l-4.754 4.827 3.646 2.781 3.646 2.781 4.966-4.891 4.965-4.891-2.269-1.797c-4.962-3.93-5.183-3.904-10.2 1.19m-46.319-2.346c-1.787.782-3.25 1.777-3.25 2.211 0 .434 2.025 2.776 4.5 5.205l4.5 4.416v-6.708c0-7.322-.238-7.534-5.75-5.124m-13 6.161c-1.787.89-3.25 1.891-3.25 2.224 0 .333 2.194 2.767 4.876 5.409l4.875 4.802 3.375-1.717c1.856-.945 3.572-1.895 3.814-2.113.497-.448-9.07-10.385-9.902-10.286-.296.035-2.001.792-3.788 1.681m33.3 3.306c-2.63 2.777-4.618 5.195-4.416 5.372.201.178 1.884 1.095 3.74 2.04l3.375 1.717 4.875-4.802c2.682-2.642 4.876-5.074 4.876-5.405 0-.504-6.433-3.973-7.368-3.973-.165 0-2.452 2.273-5.082 5.051m-70.266-.708l-3.215 3.3 4.715 4.624 4.716 4.624 3.5-2.901 3.5-2.901-5-5.022-5-5.023-3.216 3.299m108.108 1.785l-4.892 4.985 3.5 2.889 3.5 2.889 4.75-4.658c2.613-2.562 4.75-4.9 4.75-5.195 0-.296-1.511-1.744-3.358-3.217l-3.357-2.679-4.893 4.986M94.25 96.989c-1.787 1.09-3.25 2.345-3.25 2.788 0 .444 1.982 2.752 4.404 5.129l4.404 4.322 4.07-2.427 4.07-2.427-4.758-4.687c-2.617-2.578-4.968-4.685-5.224-4.683-.256.002-1.929.895-3.716 1.985m57.442 2.816l-4.732 4.804 4.116 2.314 4.116 2.313 4.871-4.798 4.871-4.798-3.414-2.32c-1.878-1.276-3.792-2.32-4.255-2.32-.462 0-2.97 2.162-5.573 4.805m-93.823 2.627l-3.631 3.377 4.776 4.705 4.777 4.705 3.854-3.549 3.855-3.549-4.458-4.56c-2.452-2.509-4.702-4.549-5-4.534-.298.015-2.176 1.547-4.173 3.405m130.089 1.129l-4.458 4.56 3.855 3.549 3.854 3.549 4.785-4.713 4.784-4.712-3.76-3.397c-2.068-1.868-3.95-3.397-4.181-3.397-.231 0-2.427 2.052-4.879 4.561m-67.208.172c-2.062.846-3.75 1.836-3.75 2.2 0 .363 1.8 2.419 4 4.567l4 3.906v-6.203c0-3.412-.112-6.159-.25-6.106-.138.054-1.937.79-4 1.636m-38.497 1.517c-1.77 1.237-3.226 2.492-3.236 2.788-.009.295 2.185 2.706 4.877 5.358l4.894 4.82 3.106-2.296c1.708-1.263 3.106-2.757 3.106-3.32 0-1.058-7.984-9.6-8.972-9.6-.306 0-2.005 1.013-3.775 2.25M130 108.703v5.703l4-3.906c2.2-2.148 4-4.221 4-4.605 0-.683-5.462-2.895-7.149-2.895-.468 0-.851 2.566-.851 5.703m33.989-1.192l-4.428 4.512 3.223 3.223 3.223 3.223 5.15-5.15 5.151-5.15-2.904-2.553c-1.597-1.404-3.373-2.567-3.946-2.584-.573-.018-3.034 1.998-5.469 4.479m-56.044 3.25l-4.172 2.488 5 5 5 5 4.026-2.401 4.025-2.401-4.853-5.087-4.853-5.088-4.173 2.489m29.875 2.697l-4.681 5.078 4.048 2.329 4.047 2.329 4.913-4.838c5.351-5.271 5.314-5.555-1.147-8.742-2.338-1.153-2.803-.904-7.18 3.844m-91.133.72l-3.599 4.322 4.646 4.727c2.555 2.6 4.673 4.618 4.706 4.485.033-.134 1.746-2.054 3.808-4.267l3.747-4.025-4.855-4.782-4.855-4.782-3.598 4.322m153.079.572l-4.659 4.75 3.862 4.12 3.861 4.121 4.726-4.798 4.726-4.799-3.225-4.072c-1.774-2.239-3.542-4.072-3.929-4.072s-2.8 2.138-5.362 4.75m-129.177.327c-1.424 1.692-2.589 3.396-2.589 3.787s2.156 2.835 4.791 5.43l4.791 4.719 3.718-3.808 3.718-3.808-5.442-4.698c-2.993-2.585-5.658-4.699-5.92-4.699-.263 0-1.643 1.385-3.067 3.077m104.117 1.714l-4.719 4.791 3.795 3.705 3.794 3.705 5.223-5.289 5.224-5.289-3.309-3.207c-1.82-1.764-3.755-3.207-4.299-3.207-.545 0-3.114 2.156-5.709 4.791m-78.74 2.141l-3.466 2.937 4.707 4.76c4.427 4.475 4.815 4.661 6.521 3.118.997-.903 2.82-2.014 4.051-2.47 2.14-.791 2.004-1.059-3.054-6.055l-5.294-5.228-3.465 2.938m53.982 2.621c-2.959 2.996-4.79 5.447-4.068 5.447.721 0 2.663.962 4.315 2.139l3.004 2.139 4.859-4.889 4.86-4.889-3.795-2.697-3.796-2.697-5.379 5.447m-112.857 3.85l-2.257 2.403 4.716 4.347c2.594 2.391 5.208 4.347 5.809 4.347s1.529-1.241 2.063-2.757c.865-2.46.548-3.189-2.929-6.75-2.145-2.196-4.179-3.993-4.522-3.993-.342 0-1.638 1.081-2.88 2.403m21.997 1.733l-3.412 3.966 4.874 4.949c2.681 2.722 5.117 4.911 5.412 4.864.296-.046 2.073-1.869 3.95-4.051l3.412-3.966-4.874-4.949c-2.681-2.722-5.117-4.911-5.412-4.864-.296.046-2.073 1.869-3.95 4.051m62.03-2.07l-3.383 2.066 3.383 3.503 3.382 3.503.315-2.551c.173-1.403.173-3.909 0-5.569L124.5 123l-3.382 2.066M130 128.67v5.722l3.461-3.354c3.82-3.703 3.769-4.351-.524-6.571L130 122.949v5.721m57.208-1.382c-2.314 2.358-4.195 4.946-4.179 5.75.016.804 1.414 2.984 3.105 4.845l3.076 3.383 5.034-5.034 5.035-5.035-3.39-4.08c-1.864-2.245-3.633-4.089-3.931-4.099-.298-.01-2.435 1.912-4.75 4.27m24 0c-4.791 4.882-5.002 5.684-2.165 8.251 2.009 1.818 2.119 1.773 6.628-2.737l4.586-4.585-1.879-2.577c-1.033-1.418-2.122-2.591-2.42-2.609-.298-.017-2.435 1.899-4.75 4.257m-126.765 1.123l-3.943 3.456 5.03 5.084 5.029 5.085 3.718-3.808 3.718-3.808-4.805-4.732-4.805-4.733-3.942 3.456m77.626 1.622l-4.198 4.979 3.522 3.322 3.521 3.322 4.707-4.779c5.149-5.228 5.112-5.795-.648-9.897l-2.706-1.926-4.198 4.979m-52.684 2.153a2101.196 2101.196 0 00-3.323 2.521c-.24.184 1.508 2.317 3.885 4.739l4.322 4.404 3.913-2.589 3.912-2.589-4.255-4.336c-2.341-2.385-4.551-4.336-4.912-4.336-.362 0-1.955.984-3.542 2.186m27.776 2.15l-4.255 4.336 3.912 2.589 3.913 2.589 4.322-4.404c2.377-2.422 4.125-4.559 3.885-4.749-1.616-1.273-6.817-4.697-7.134-4.697-.213 0-2.302 1.951-4.643 4.336m-107.022.469C28.962 136.457 28 138.174 28 138.62c0 .446 2.106 2.949 4.68 5.563l4.68 4.751 2.438-3.587 2.438-3.588-4.979-4.979-4.979-4.979-2.139 3.004m187.503 2.043l-4.858 4.94 2.428 3.573 2.428 3.573 4.68-4.751c2.574-2.614 4.678-5.186 4.675-5.717-.003-.531-1.015-2.224-2.25-3.762l-2.245-2.795-4.858 4.939m-167.375 1.411l-2.234 3.166 2.734 2.879c1.503 1.583 3.9 3.718 5.327 4.744 2.589 1.862 2.598 1.86 4.675-.949l2.081-2.815-5.175-5.096-5.175-5.096-2.233 3.167m22.457 2.033l-3.605 4.4 4.768 4.696 4.768 4.697 4.179-3.82 4.179-3.821-5.342-5.275-5.342-5.276-3.605 4.399m100.786.698l-4.925 5 3.88 3.974 3.88 3.973 4.577-4.18c2.518-2.3 4.67-4.423 4.782-4.719.113-.296-1.477-2.453-3.532-4.794l-3.736-4.255-4.926 5.001m24.009-.01l-4.905 4.98 2.387 2.541 2.387 2.541 4.763-4.69 4.762-4.691-1.672-2.83c-.92-1.557-1.93-2.831-2.244-2.831-.315 0-2.78 2.241-5.478 4.98m-99.81.806L94 145.584l4.25 4.081 4.25 4.081 4.162-3.247 4.163-3.247-4.703-4.632-4.704-4.633-3.709 3.799m51.118.966l-4.594 4.748 4.272 3.151 4.272 3.152 4.116-4.194 4.116-4.194-3.794-3.705-3.795-3.705-4.593 4.747m-27.327 2.692l-3 2.434 3.25 3.292 3.25 3.292v-5.731c0-3.152-.112-5.729-.25-5.726-.138.003-1.6 1.1-3.25 2.439m8.5 3.175v5.755l3-2.874c1.65-1.581 3-3.209 3-3.619 0-.41-1.35-1.706-3-2.881l-3-2.136v5.755m-107.381-.947l-1.751 3.672 4.887 4.888 4.888 4.887 1.848-4.099 1.848-4.099-4.378-4.46c-2.407-2.454-4.65-4.461-4.984-4.461-.334 0-1.395 1.652-2.358 3.672m202.42.789l-4.378 4.46 1.848 4.099 1.848 4.099 4.93-4.93 4.93-4.93-1.722-3.629c-.948-1.997-2.028-3.63-2.401-3.63-.373 0-2.648 2.007-5.055 4.461m-181.482-.238c-.856 1.222-1.557 2.928-1.557 3.791 0 1.585 8.622 10.734 9.352 9.924.216-.241 1.166-1.955 2.109-3.81l1.716-3.372-4.297-4.378C48.517 147.97 46.253 146 45.848 146c-.404 0-1.435 1-2.291 2.223m160.555 2.163c-3.928 4.002-4.197 4.593-3.076 6.75 2.694 5.182 3.033 5.213 7.627.704 2.385-2.341 4.337-4.963 4.337-5.826 0-1.764-2.719-6.014-3.848-6.014-.405 0-2.673 1.974-5.04 4.386m-139.276.332c-2.926 3.403-2.773 4.059 2.067 8.907l4.866 4.875 2.037-3.115 2.036-3.116-4.737-4.666c-4.462-4.395-4.827-4.563-6.269-2.885m21.212 3.372l-3.287 4.09 4.349 4.432 4.349 4.431 1.817-2.271c5.424-6.781 5.394-6.502 1.171-10.826-2.119-2.17-4.136-3.946-4.483-3.946-.346 0-2.108 1.841-3.916 4.09m74.655-.298c-2.037 2.086-3.703 4.068-3.703 4.406 0 .337 1.513 2.423 3.362 4.636l3.361 4.024 4.278-4.359 4.278-4.359-3.224-4.07c-1.772-2.238-3.544-4.07-3.936-4.07-.392 0-2.379 1.706-4.416 3.792m23.364.64l-4.35 4.432 1.938 3.059 1.937 3.06 4.803-4.876c4.784-4.857 4.796-4.886 3.089-7.492-.943-1.438-2.019-2.615-2.391-2.615-.372 0-2.634 1.994-5.026 4.432m-74.086.088l-3.412 3.52 3.966 3.933 3.965 3.933 3.85-3.558 3.85-3.559-3.803-3.894c-2.091-2.142-4.073-3.895-4.404-3.895-.33 0-2.136 1.584-4.012 3.52m26.622.375l-3.803 3.894 3.85 3.559 3.85 3.558 3.965-3.933 3.966-3.933-3.412-3.52c-1.876-1.936-3.682-3.52-4.012-3.52-.331 0-2.313 1.753-4.404 3.895m-119.995 5.128l-1.719 4.295 4.805 4.894 4.806 4.895 1.771-4.016 1.772-4.015-4.859-5.175-4.858-5.174-1.718 4.296m215.275 1.461l-4.618 5.016 1.618 3.788 1.617 3.789 4.952-5.028 4.952-5.028-1.952-3.777-1.952-3.776-4.617 5.016m-195.389-.47l-1.851 4.105 5.085 5.085 5.085 5.086 1.962-4.06 1.961-4.059-5.196-5.131-5.195-5.131-1.851 4.105m175.079.912l-4.915 4.99 1.85 4.101 1.849 4.102 5.032-5.032 5.032-5.032-1.966-4.06-1.967-4.059-4.915 4.99m-154.481.643l-2.209 3.744 4.771 4.843c2.624 2.664 5.023 4.844 5.331 4.844.308 0 1.421-1.599 2.473-3.552l1.913-3.553-5.035-5.035-5.035-5.035-2.209 3.744m133.562 1.275l-4.771 4.843 1.744 3.657c.959 2.011 2.014 3.656 2.346 3.656.331 0 2.782-2.213 5.447-4.918l4.844-4.919-2.214-3.581c-1.217-1.97-2.306-3.582-2.419-3.582-.113 0-2.353 2.18-4.977 4.844M77.31 165.435l-2.19 3.353 4.797 4.045 4.797 4.045 2.07-2.799 2.069-2.799-4.677-4.599-4.676-4.599-2.19 3.353m21.409.863l-3.604 4.398 4.289 4.21 4.29 4.21 1.72-2.625c.946-1.444 2.542-3.447 3.548-4.453 1.771-1.771 1.695-1.958-2.406-5.983l-4.233-4.155-3.604 4.398m49.674-.115c-3.741 3.932-3.964 4.452-2.5 5.826.884.83 2.512 2.756 3.618 4.281l2.011 2.773 4.217-4.298 4.218-4.297-3.728-4.301-3.729-4.301-4.107 4.317m22.691 1.232c-4.245 4.325-4.265 4.379-2.566 6.972.942 1.437 2.019 2.613 2.394 2.613s2.394-1.753 4.486-3.895c2.805-2.873 3.635-4.424 3.164-5.91-1.391-4.383-3.007-4.336-7.478.22m-49.879-.627l-3.294 2.733 3.544 3.436 3.545 3.435v-6.196c0-3.408-.112-6.184-.25-6.169-.138.015-1.733 1.257-3.545 2.761m8.795 3.357v6.247l3.5-3.392c1.925-1.866 3.5-3.476 3.5-3.577 0-.102-1.575-1.387-3.5-2.855l-3.5-2.67v6.247M10.817 173.75l-1.653 3.75 5.134 5.25c2.823 2.887 5.415 5.25 5.76 5.25.344 0 1.183-1.86 1.864-4.134l1.239-4.134-4.793-4.866C15.732 172.19 13.327 170 13.023 170c-.304 0-1.297 1.688-2.206 3.75m226.402 1.528c-5.135 5.199-5.169 5.276-4.031 8.983.631 2.056 1.425 3.739 1.764 3.739.339 0 2.937-2.363 5.774-5.25l5.157-5.25-1.743-3.733-1.743-3.732-5.178 5.243m-207.123-.666l-1.306 3.612 5.352 5.419 5.352 5.42 1.829-4.282 1.829-4.281-5.146-4.75c-2.83-2.613-5.474-4.75-5.875-4.75-.401 0-1.317 1.625-2.035 3.612m187.233 1.638l-5.104 5.25 1.638 3.786 1.637 3.785 5.355-5.423 5.355-5.424-1.306-3.612c-.718-1.987-1.568-3.612-1.889-3.612-.321 0-2.88 2.363-5.686 5.25m-167.04-.729l-1.679 3.521 5.372 5.44 5.373 5.441 1.855-4.144 1.856-4.144-4.746-4.817c-2.609-2.65-5.107-4.818-5.549-4.818-.442 0-1.559 1.584-2.482 3.521m146.535 1.229l-4.6 4.75 1.599 4.26 1.598 4.261 5.687-5.628 5.686-5.627-1.996-3.383c-1.097-1.861-2.306-3.383-2.684-3.383-.379 0-2.759 2.137-5.29 4.75m-126.196-.096l-1.742 3.654 4.265 4.346c2.346 2.39 4.538 4.346 4.872 4.346.334 0 1.391-1.644 2.349-3.654l1.742-3.654-4.265-4.346c-2.346-2.39-4.538-4.346-4.872-4.346-.334 0-1.391 1.644-2.349 3.654m106.523.692l-4.265 4.346 1.742 3.654c.958 2.01 2.015 3.654 2.349 3.654.334 0 2.526-1.956 4.872-4.346l4.265-4.346-1.742-3.654c-.958-2.01-2.015-3.654-2.349-3.654-.334 0-2.526 1.956-4.872 4.346m-66.452.822l-3.604 4.332 3.629 3.723 3.629 3.722 2.497-3.722c1.374-2.048 2.982-4.048 3.574-4.445.676-.453-.262-2.064-2.523-4.332l-3.599-3.61-3.603 4.332m26.562-.956l-3.238 3.36 2.835 3.464c1.559 1.905 3.022 4.043 3.251 4.75.264.818 1.767-.099 4.13-2.518l3.715-3.805-3.727-4.306-3.727-4.305-3.239 3.36m-46.726.72l-1.659 3.209 3.97 4.308 3.97 4.307 1.822-3.383 1.822-3.383-4.133-4.133-4.133-4.133-1.659 3.208m68.073 1.958c-3.784 3.874-3.792 3.9-2.041 6.572l1.758 2.683 3.897-3.896c3.612-3.612 3.807-4.091 2.676-6.573-.67-1.472-1.505-2.676-1.856-2.676-.35 0-2.345 1.75-4.434 3.89m-133.604 7.596c-1.651 5.897-.833 6.705 6.393 6.318l5.688-.304-5.393-5.319-5.394-5.318-1.294 4.623m198.022.988L217.568 194h6.248c7.283 0 8.053-.894 6.02-6.993l-1.353-4.059-5.457 5.526m-216.933.071c-.651 2.584-.989 4.893-.751 5.13.237.237 2.978.295 6.091.128l5.66-.303-4.909-4.827-4.908-4.826-1.183 4.698m236.418.444L237.575 194h12.584l-.709-3.25c-1.565-7.171-1.602-7.18-6.939-1.761m-197.353-.123c-.637 2.126-1.158 4.151-1.158 4.5 0 .349 2.475.634 5.5.634s5.5-.172 5.5-.382c0-.399-8.068-8.618-8.459-8.618-.124 0-.746 1.74-1.383 3.866m76.393-.522c-3.322 4.355-3.219 5.656.449 5.656 2.889 0 3-.167 3-4.5 0-2.475-.202-4.5-.449-4.5s-1.597 1.505-3 3.344m8.449 1.001V194H137.113l-1.806-3.067c-.994-1.687-2.594-3.782-3.557-4.655-1.643-1.491-1.75-1.305-1.75 3.067m73.62.249L199.74 194h5.463c5.759 0 7.189-.565 6.048-2.389-.382-.611-.785-1.709-.896-2.439-.359-2.374-1.275-4.174-2.074-4.078-.429.052-2.527 2.077-4.661 4.5m-138.007-1.187c-.333 1.324-.88 3.124-1.216 4-.51 1.329.235 1.593 4.496 1.593 2.809 0 5.107-.362 5.107-.804 0-.912-6.278-7.196-7.189-7.196-.327 0-.866 1.083-1.198 2.407m18.447 1.475L81.959 194h5.521c3.036 0 5.52-.362 5.52-.804 0-.442-1.539-2.295-3.419-4.118l-3.42-3.314-2.101 4.118m81.136-.584c-1.758 1.813-3.196 3.613-3.196 4 0 .386 2.484.702 5.52.702h5.521L171 190c-1.122-2.2-2.168-4-2.324-4-.156 0-1.722 1.484-3.48 3.298m19 0c-1.758 1.813-3.196 3.613-3.196 4 0 .386 2.25.702 5 .702s5-.306 5-.679c0-1.408-2.427-7.321-3.005-7.321-.331 0-2.041 1.484-3.799 3.298m-81.583.779c-.994 1.684-1.587 3.282-1.318 3.551.27.27 2.593.351 5.163.181l4.673-.309-3.355-3.242-3.354-3.242-1.809 3.061M147.5 191l-2.874 3h4.687c5.22 0 5.137.081 3.526-3.453-1.47-3.226-1.844-3.195-5.339.453M.232 196c0 1.925.206 2.713.457 1.75.252-.963.252-2.537 0-3.5-.251-.963-.457-.175-.457 1.75" fill="#1976D2" fill-rule="evenodd"/><path fill-opacity=".507" d="M123 57.662c-23.251 9.449-31.307 13.56-46.1 23.528C56.863 94.691 38.654 113.465 25.681 134c-5.576 8.826-16.672 29.767-17.032 32.141-.113.747-.556 1.92-.984 2.605-.428.686-.939 2.036-1.134 3-.196.965-1.527 5.763-2.957 10.663-1.431 4.899-2.878 10.639-3.216 12.753l-.615 3.846 128.379-.254L256.5 198.5l.316-2.744c.226-1.964-.065-2.598-1.024-2.23-1.185.455-3.623-6.584-5.313-15.337-.179-.929-.417-1.802-.527-1.939-.111-.137-.315-.7-.452-1.25s-.341-1.113-.452-1.25c-.11-.137-.344-.925-.519-1.75-1.23-5.808-12.22-27.303-20.706-40.5-12.13-18.862-30.881-37.699-50.531-50.763C153.946 65.216 129.734 54.925 123 57.662m-2.678 5.664c-1.748.646-3.426 1.427-3.729 1.736-.303.31 1.464 2.541 3.928 4.959L125 74.416v-6.208c0-3.414-.338-6.174-.75-6.132-.412.042-2.18.604-3.928 1.25M130 68.141v6.275L134.5 70c2.475-2.429 4.5-4.559 4.5-4.733 0-.334-2.982-1.527-6.75-2.701-2.169-.675-2.25-.474-2.25 5.575m-24.25 1.517c-2.062.856-3.75 1.862-3.75 2.237 0 .374 2.212 2.859 4.916 5.522l4.916 4.843L116.5 80l4.669-2.26-4.797-4.87c-2.638-2.679-5.264-4.847-5.834-4.818-.571.028-2.725.751-4.788 1.606m32.951 3.137l-4.723 4.796 4.664 2.266 4.665 2.266 4.846-4.774c2.666-2.626 4.847-5.045 4.847-5.376 0-.781-6.687-3.973-8.322-3.973-.689 0-3.379 2.158-5.977 4.795m-46.093 3.376l-3.891 2.022 4.983 4.983 4.983 4.983 3.659-1.528c2.012-.841 3.658-1.906 3.658-2.368 0-.461-2.138-2.925-4.75-5.476l-4.75-4.639-3.892 2.023m59.915 2.806c-2.696 2.737-4.705 5.131-4.463 5.319.242.189 2.076 1.278 4.075 2.422l3.634 2.078 5.246-5.311 5.245-5.312-4.09-2.086c-2.25-1.148-4.238-2.087-4.418-2.087-.18 0-2.533 2.24-5.229 4.977m-71.911 4.641l-3.853 2.618 4.986 4.985 4.986 4.986 4.184-2.769 4.184-2.769-4.762-4.835C87.718 83.176 85.325 81 85.02 81c-.306 0-2.289 1.178-4.408 2.618m39.721-.812c-2.292.932-4.419 1.946-4.727 2.254-.308.308 1.68 2.767 4.417 5.463L125 95.425v-7.213c0-3.966-.112-7.187-.25-7.156-.138.031-2.125.818-4.417 1.75M130 88.212v7.213l5-4.925c2.75-2.709 5-5.07 5-5.248 0-.332-8.834-4.252-9.583-4.252-.229 0-.417 3.246-.417 7.212m34.663-2.378l-4.762 4.835 4.129 2.732 4.129 2.733 4.819-4.317c2.65-2.374 4.864-4.593 4.92-4.931.101-.609-7.061-5.886-7.989-5.886-.266 0-2.627 2.176-5.246 4.834m-58.413 3.911c-1.787.89-3.25 1.891-3.25 2.224 0 .333 2.231 2.804 4.958 5.489l4.958 4.884 4.087-1.844 4.088-1.843-5.261-5.327c-2.894-2.931-5.502-5.299-5.796-5.264-.294.035-1.997.792-3.784 1.681m32.92 3.583l-5.261 5.327 4.088 1.843 4.087 1.844 4.958-4.884c2.727-2.685 4.958-5.154 4.958-5.485 0-.488-6.419-3.973-7.318-3.973-.138 0-2.618 2.397-5.512 5.328m-70.441-1.023l-3.77 3.229 4.928 4.855 4.928 4.854 3.593-2.74C80.383 100.996 82 99.271 82 98.669c0-1.119-7.98-9.699-8.958-9.631-.298.02-2.239 1.49-4.313 3.267m108.521 1.312c-2.338 2.436-4.25 4.816-4.25 5.288 0 .472 1.617 2.091 3.592 3.598l3.593 2.74 4.928-4.854 4.928-4.855-3.77-3.229c-2.074-1.777-3.996-3.204-4.271-3.173-.275.031-2.412 2.049-4.75 4.485M95.5 96.17c-5.524 3.065-5.536 3.508-.234 8.81l4.953 4.954 3.883-2.217c2.135-1.219 3.886-2.65 3.89-3.179.011-1.324-8.161-9.545-9.45-9.508-.573.017-1.942.53-3.042 1.14m55.708 3.118c-2.314 2.358-4.208 4.75-4.208 5.316 0 .565 1.81 2.045 4.022 3.288l4.021 2.26 4.979-4.771c2.738-2.624 4.978-5.089 4.978-5.477 0-.931-6.765-4.904-8.349-4.904-.679 0-3.128 1.93-5.443 4.288m-93.711 2.715l-3.908 4.002 4.414 4.498c2.427 2.473 4.768 4.497 5.202 4.497.434 0 2.62-1.654 4.858-3.676l4.069-3.676-4.816-4.792c-2.649-2.636-5.062-4.806-5.363-4.824-.301-.018-2.306 1.769-4.456 3.971m130.382 1.138L183.258 108l3.874 3.5c2.13 1.925 4.229 3.5 4.663 3.5.434 0 2.775-2.024 5.202-4.497l4.414-4.498-3.908-4.002c-2.15-2.202-4.155-3.939-4.456-3.862-.301.078-2.627 2.328-5.168 5m-67.643.232l-4.265 2.182 4.494 4.41c2.471 2.426 4.615 4.213 4.764 3.973.149-.241.046-3.208-.229-6.593l-.5-6.154-4.264 2.182m-37.495 1.343c-2.018 1.531-3.685 3.148-3.705 3.592-.045 1.005 8.7 9.702 9.72 9.665.409-.015 2.319-1.345 4.244-2.955l3.5-2.929-5.046-5.078-5.045-5.079-3.668 2.784M130 108.13v6.13l4.406-3.88c2.423-2.134 4.448-4.134 4.5-4.445.109-.655-6.508-3.935-7.94-3.935-.531 0-.966 2.758-.966 6.13m33.412-1.022l-4.912 5.005 3.5 2.917c1.925 1.604 3.933 2.928 4.462 2.943 1.201.034 9.538-8.07 9.538-9.271 0-.485-1.012-1.749-2.25-2.809-4.82-4.128-5.131-4.091-10.338 1.215m-55.724 3.628l-3.812 2.617 5.056 5.056 5.056 5.056 4.499-2.458 4.499-2.458-5.209-5.274c-2.865-2.901-5.449-5.248-5.743-5.215-.294.033-2.249 1.238-4.346 2.676m30.024 2.048c-2.591 2.632-4.712 5.07-4.712 5.419 0 .968 6.551 4.803 8.118 4.752.76-.025 3.284-2.222 5.609-4.882l4.227-4.838-3.956-2.617c-2.175-1.44-4.094-2.618-4.264-2.618-.17 0-2.43 2.153-5.022 4.784m-92.095 1.466l-3.549 4.25 4.832 4.854 4.833 4.855 4.08-4.355 4.08-4.354-4.659-4.75c-2.562-2.612-4.976-4.75-5.363-4.75-.388 0-2.302 1.912-4.254 4.25m154.149.5l-4.659 4.75 4.068 4.342 4.069 4.342 4.819-4.746 4.818-4.746-3.561-4.346c-1.958-2.39-3.861-4.346-4.228-4.346-.367 0-2.764 2.138-5.326 4.75m-129.787.771l-3.413 3.522 5.216 5.215 5.215 5.215 4.252-4.285c4.039-4.071 4.151-4.34 2.251-5.401-1.1-.614-3.432-2.618-5.183-4.452-1.75-1.834-3.575-3.335-4.054-3.335-.479 0-2.407 1.585-4.284 3.521m104.727 1.27l-4.719 4.791 4.024 3.929 4.025 3.93 5.199-5.199 5.199-5.199-3.413-3.522c-1.877-1.936-3.904-3.521-4.505-3.521-.6 0-3.215 2.156-5.81 4.791m-79.103 2.459l-3.73 3.25 4.971 4.871 4.971 4.872 3.843-2.831a1061.91 1061.91 0 014.282-3.145c.526-.375-9.094-10.267-9.986-10.267-.341 0-2.299 1.463-4.351 3.25m53.909 1.801c-2.744 2.643-4.769 4.986-4.5 5.206.268.22 2.2 1.674 4.292 3.231l3.803 2.831 4.947-4.872c2.72-2.679 4.936-5.114 4.925-5.409-.024-.6-7.603-6.108-8.139-5.916-.187.068-2.585 2.286-5.328 4.929M36.93 125.099l-2.207 3.098 4.545 4.545c4.872 4.871 6.444 5.032 8.664.885 1.345-2.512 1.213-2.791-3.371-7.121-2.624-2.478-4.918-4.506-5.098-4.506-.18 0-1.32 1.394-2.533 3.099m22.66 1.487c-1.974 2.362-3.59 4.678-3.59 5.146 0 1.22 8.387 9.286 9.538 9.174.529-.052 2.615-1.977 4.636-4.277l3.674-4.183-5.334-5.078-5.333-5.077-3.591 4.295m62.66-3.309c-1.237.566-2.25 1.41-2.25 1.876 0 .466-.675.847-1.5.847s-1.5.219-1.5.487c0 .604 7.313 7.449 8 7.487.563.031.433-10.897-.135-11.401-.201-.179-1.378.138-2.615.704m7.75 4.872v6.2l2.705-2.425c5.98-5.36 5.745-5.021 4.207-6.051-.777-.521-2.65-1.616-4.162-2.435l-2.75-1.489v6.2m56.75-.779c-2.613 2.687-4.738 5.165-4.723 5.508.042.961 6.9 8.122 7.778 8.122 1.137 0 9.203-8.405 9.152-9.538-.023-.529-1.711-2.765-3.75-4.969l-3.707-4.008-4.75 4.885m24.028-.129c-4.647 4.88-4.694 4.995-3 7.327.947 1.303 2.191 2.383 2.764 2.401.573.017 2.983-1.947 5.356-4.365l4.315-4.397-2.295-3.103c-1.262-1.707-2.322-3.04-2.356-2.963-.034.078-2.187 2.373-4.784 5.1m-126.243.863c-1.944 1.707-3.535 3.638-3.535 4.291 0 .654 1.986 3.137 4.413 5.519l4.413 4.331 4.513-3.772 4.513-3.773-4.591-4.85c-2.526-2.668-4.952-4.85-5.392-4.85-.44 0-2.39 1.397-4.334 3.104m79.436-.893c-.809 1.215-2.736 3.528-4.283 5.138-1.546 1.61-2.446 3.207-2 3.547.447.341 2.279 1.942 4.073 3.559l3.261 2.94 4.489-4.406c2.469-2.423 4.489-4.94 4.489-5.594 0-1.235-6.509-7.395-7.814-7.395-.409 0-1.406.995-2.215 2.211m-54.195 4.607c-2.049 1.475-3.735 2.907-3.748 3.182-.012.275 1.719 2.519 3.847 4.987 4.197 4.867 4.736 4.877 10.894.199l2.269-1.723-4.769-4.664-4.769-4.664-3.724 2.683m27.432 1.47c-2.314 2.358-4.202 4.721-4.196 5.25.013 1.003 6.357 5.462 7.771 5.462 1.147 0 8.217-7.379 8.217-8.577 0-.545-1.35-1.789-3-2.764-1.65-.975-3-2.197-3-2.716 0-1.836-1.633-.893-5.792 3.345m-107.069 1.517C28.962 136.457 28 138.174 28 138.62c0 .446 2.106 2.949 4.68 5.563l4.68 4.751 2.438-3.587 2.438-3.588-4.979-4.979-4.979-4.979-2.139 3.004m187.503 2.043l-4.858 4.94 2.428 3.573 2.428 3.573 4.68-4.751c2.574-2.614 4.678-5.186 4.675-5.717-.003-.531-1.015-2.224-2.25-3.762l-2.245-2.795-4.858 4.939m-167.384 1.393l-2.241 3.207 4.704 4.776c2.587 2.627 4.974 4.776 5.303 4.776.33 0 1.565-1.305 2.744-2.901l2.145-2.9-5.099-5.1c-2.805-2.804-5.148-5.091-5.207-5.082-.059.01-1.116 1.461-2.349 3.224m22.218 2.353l-3.764 4.594 5.108 5.108c2.81 2.81 5.237 4.898 5.394 4.641.157-.257 1.988-2.295 4.068-4.527l3.782-4.06-5.175-5.175c-2.846-2.846-5.281-5.175-5.411-5.175-.131 0-1.931 2.067-4.002 4.594m101.099.33l-4.832 4.906 2.02 2.835c4.704 6.599 5.186 6.664 10.828 1.456l5.091-4.7-4.137-4.702-4.138-4.701-4.832 4.906m24.039-.039c-4.793 4.865-4.805 4.894-3.098 7.5.943 1.438 1.984 2.615 2.315 2.615.33 0 2.734-2.101 5.341-4.669l4.741-4.67-1.672-2.83c-.92-1.557-1.93-2.831-2.244-2.831-.315 0-2.737 2.198-5.383 4.885m-100.126 1.128l-3.927 4.021 4.469 4.415 4.47 4.414 4.459-3.889c2.453-2.139 4.244-4.021 3.982-4.181-.263-.161-2.514-2.208-5.002-4.548l-4.524-4.254-3.927 4.022m51.169.671l-4.843 4.601 4.343 3.789 4.343 3.789 4.486-4.431 4.486-4.43-3.986-3.96-3.986-3.959-4.843 4.601M122.5 144.6c-1.1.845-2.675 1.927-3.5 2.404-1.235.714-.894 1.494 1.932 4.416 1.887 1.953 3.626 3.355 3.865 3.117.615-.615.808-11.545.203-11.506-.275.018-1.4.724-2.5 1.569m7.5 4.665v6.202l3.617-3.617c3.581-3.581 3.597-3.636 1.673-5.56-4.311-4.311-5.29-3.76-5.29 2.975m-107.636-1.826l-2.135 3.355 5.167 5.103c2.842 2.807 5.418 5.103 5.725 5.103.308 0 1.158-1.817 1.891-4.037l1.332-4.036-4.38-4.464c-2.409-2.455-4.624-4.444-4.922-4.421-.298.024-1.503 1.552-2.678 3.397m202.715.98c-4.52 4.606-4.897 6.779-1.872 10.801 1.177 1.565 1.761 1.27 6.52-3.299l5.227-5.019-2.227-3.439c-1.225-1.891-2.471-3.444-2.769-3.451-.298-.006-2.493 1.977-4.879 4.407m-182.078.079l-2.265 3.665 4.844 4.919c2.665 2.705 5.33 4.918 5.924 4.918.594 0 1.78-1.545 2.636-3.434l1.556-3.434-5.214-5.15-5.215-5.15-2.266 3.666m161.517 1.483l-4.906 4.982 1.678 3.518c.923 1.936 2.039 3.519 2.481 3.519.442 0 2.984-2.213 5.649-4.918l4.844-4.919-2.214-3.581c-1.217-1.97-2.306-3.582-2.419-3.582-.113 0-2.414 2.242-5.113 4.981M63.691 151.68l-1.809 3.631 4.771 4.845c2.625 2.664 5.014 4.838 5.309 4.831.296-.007 1.443-1.409 2.548-3.115l2.011-3.102-5.174-5.385c-2.846-2.962-5.326-5.374-5.511-5.36-.185.013-1.15 1.658-2.145 3.655m23 1.652c-2.03 2.477-3.691 4.9-3.691 5.383 0 1.072 7.276 8.285 8.357 8.285.788 0 5.484-5.179 6.956-7.672.555-.94-.574-2.825-3.558-5.939l-4.372-4.562-3.692 4.505m73.54.639l-4.268 4.768 3.268 4.079c1.798 2.243 3.74 4.102 4.316 4.13 1.158.057 8.453-7.091 8.453-8.282 0-.974-6.345-9.607-7-9.525-.275.034-2.421 2.208-4.769 4.83m23.591.49c-4.645 5.034-4.666 5.088-3.018 7.804.912 1.504 1.909 2.735 2.215 2.735.306 0 2.721-2.198 5.366-4.883 4.064-4.126 4.648-5.186 3.767-6.833-2.277-4.255-3.472-4.086-8.33 1.177m-73.079-.71c-2.059 2.108-3.743 4.289-3.743 4.845 0 1.281 6.274 7.413 7.548 7.377.523-.015 2.63-1.587 4.681-3.494l3.728-3.467-4.235-4.547-4.236-4.547-3.743 3.833m25.683 1.101l-4.075 4.648 3.696 3.25c2.033 1.787 4.116 3.25 4.628 3.25 1.224 0 7.333-6.318 7.298-7.548-.025-.877-6.701-8.581-7.236-8.35-.131.056-2.07 2.193-4.311 4.75m-120.143 5.381c-1.114 4.174-1.072 4.297 3.044 8.898 2.295 2.566 4.687 4.711 5.316 4.767.629.056 1.83-1.585 2.668-3.648l1.526-3.75-5.134-5.25c-2.824-2.887-5.395-5.25-5.712-5.25-.318 0-1.086 1.905-1.708 4.233m215.075 1.017l-5.073 5.25 1.608 3.745c.884 2.06 2.115 3.747 2.736 3.75.62.003 3.216-2.438 5.767-5.425l4.639-5.43-1.703-3.57c-.936-1.963-1.972-3.57-2.301-3.57-.33 0-2.882 2.363-5.673 5.25m-194.85-.268l-1.85 4.102 4.884 4.958c2.685 2.727 5.154 4.958 5.485 4.958.332 0 1.391-1.653 2.354-3.673l1.752-3.673-5.388-5.387-5.387-5.387-1.85 4.102m174.648 1.36l-5.275 5.341 1.745 3.659c.959 2.012 2.015 3.658 2.347 3.658.331 0 2.789-2.221 5.463-4.935 4.826-4.899 4.851-4.959 3.475-8.25-.763-1.823-1.28-3.653-1.149-4.065.621-1.958-1.798-.277-6.606 4.592m-154.081.255l-2.21 3.746 5.317 5.309 5.318 5.308 2.19-3.824 2.19-3.823-5.297-5.231-5.297-5.231-2.211 3.746m133.284 1.653l-5.072 5.25 2.165 3.726 2.164 3.726 5.325-5.393 5.325-5.392-2.214-3.583c-1.218-1.971-2.306-3.584-2.418-3.584-.111 0-2.485 2.363-5.275 5.25m-113.03 1.159l-2.171 3.322 4.789 4.717 4.788 4.716 2.247-3.635c1.235-1.999 2.074-3.723 1.863-3.832-.21-.108-2.399-2.09-4.864-4.404l-4.481-4.207-2.171 3.323m21.187 1.137l-3.803 4.641 4.42 4.42 4.42 4.42 3.806-5.098c2.093-2.804 3.649-5.172 3.458-5.263-.191-.091-2.182-1.875-4.423-3.963l-4.075-3.798-3.803 4.641m49.738-.516l-4.245 4.034 3.708 4.967 3.709 4.968 4.287-4.208c2.358-2.314 4.286-4.451 4.284-4.749-.001-.298-1.689-2.456-3.75-4.794l-3.747-4.253-4.246 4.035m22.996 1.212c-2.338 2.383-4.25 4.67-4.25 5.081 0 .411.744 1.883 1.653 3.27l1.653 2.523 4.347-4.266c4.844-4.754 5.117-5.679 2.597-8.785l-1.75-2.157-4.25 4.334M121 166.98l-3.5 2.927 3.75 3.78 3.75 3.78v-6.734c0-3.703-.112-6.721-.25-6.706-.138.015-1.825 1.344-3.75 2.953m9 3.665v6.747l3.5-3.392c1.925-1.866 3.5-3.701 3.5-4.077 0-.377-1.575-1.887-3.5-3.355l-3.5-2.67v6.747m-119.308 3.047l-1.739 4.692 4.736 4.808c2.605 2.644 5.257 4.808 5.893 4.808.637 0 1.733-2.054 2.436-4.565l1.278-4.565-4.86-4.935c-2.674-2.714-5.118-4.935-5.433-4.935-.314 0-1.354 2.111-2.311 4.692m226.443.672l-5.297 5.363 1.239 4.137c.682 2.275 1.748 4.136 2.369 4.136.621 0 3.272-2.175 5.89-4.834l4.761-4.833-1.833-4.667-1.833-4.666-5.296 5.364m-207.149-.322l-1.334 4.043 5.421 5.489 5.421 5.489 1.789-4.213 1.789-4.214-5.252-5.318c-2.888-2.925-5.533-5.318-5.876-5.318-.343 0-1.224 1.819-1.958 4.042m187.226 1.243l-5.22 5.286 1.656 4.214c.91 2.318 1.925 4.166 2.254 4.107.329-.059 2.806-2.537 5.506-5.507l4.907-5.4-1.317-3.992c-.725-2.196-1.599-3.993-1.942-3.993-.343 0-2.973 2.378-5.844 5.285m-167.043-.677l-2.025 3.892 5.607 5.709 5.606 5.71 1.862-4.159 1.861-4.158-5.443-5.443-5.443-5.444-2.025 3.893m147.134 1.642l-5.128 5.25 1.694 4.25 1.695 4.249 5.646-5.749 5.646-5.75-1.952-3.75c-1.074-2.062-2.069-3.75-2.212-3.75-.143 0-2.568 2.363-5.389 5.25m-126.794-.27l-1.848 4.099 4.378 4.46c2.407 2.454 4.65 4.461 4.984 4.461.334 0 1.395-1.652 2.358-3.672l1.751-3.672-4.887-4.888-4.888-4.887-1.848 4.099m107.177.831l-4.803 4.876 1.744 3.657c.959 2.011 2.016 3.656 2.35 3.656.334 0 2.591-2.022 5.016-4.492l4.408-4.493-1.956-4.04-1.957-4.039-4.802 4.875m-67.274 1.731l-3.722 4.543 3.351 3.457c1.843 1.902 3.67 3.458 4.059 3.458.39 0 2.255-2.088 4.145-4.64l3.437-4.639-3.084-3.361c-1.696-1.848-3.395-3.36-3.774-3.36-.38 0-2.365 2.044-4.412 4.542m26.001-.991l-3.087 3.296 3.411 4.327c1.877 2.379 3.734 4.445 4.128 4.59.394.145 2.197-1.265 4.008-3.133 2.999-3.094 3.173-3.599 1.959-5.695-1.392-2.403-5.968-6.942-6.832-6.777-.275.052-1.889 1.579-3.587 3.392M91.4 175.765c-.605.404-1.661 1.799-2.347 3.099-1.14 2.164-.881 2.736 3.059 6.75 2.367 2.412 4.564 4.386 4.881 4.386.317 0 1.386-1.372 2.377-3.048l1.8-3.049-3.835-4.357c-4.193-4.764-4.331-4.852-5.935-3.781m67.33 3.711c-3.307 3.759-3.648 4.609-2.775 6.905.547 1.441 1.327 2.619 1.732 2.619.406 0 2.642-1.87 4.971-4.155 4.127-4.05 4.196-4.226 2.762-7-.809-1.565-1.797-2.803-2.196-2.751-.398.052-2.421 2.024-4.494 4.382m-133.572 7.39C23.085 193.787 23.244 194 30.5 194c3.575 0 6.5-.354 6.5-.788C37 192.331 27.747 183 26.874 183c-.307 0-1.079 1.74-1.716 3.866m197.554.918c-2.591 2.632-4.712 5.107-4.712 5.5 0 .394 2.925.716 6.5.716 5.348 0 6.5-.29 6.5-1.634 0-2.36-2.204-9.366-2.946-9.366-.346 0-2.75 2.153-5.342 4.784m-216.593.659c-.616 2.443-1.119 4.693-1.119 5 0 .306 2.7.557 6 .557s6-.166 6-.368c0-.406-9.112-9.632-9.513-9.632-.137 0-.753 1.999-1.368 4.443m236.631.178c-2.613 2.469-4.75 4.689-4.75 4.934 0 .245 2.736.445 6.079.445h6.08l-.709-3.25c-1.521-6.969-1.564-6.983-6.7-2.129M45.109 187.25c-2.646 7.071-2.827 6.75 3.824 6.75 3.337 0 6.067-.359 6.067-.797 0-.99-7.313-8.203-8.317-8.203-.403 0-1.111 1.012-1.574 2.25m76.059 1.75l-3.332 4.5 3.178.321c1.748.176 3.388.11 3.645-.146.256-.257.326-2.426.154-4.821l-.313-4.354-3.332 4.5m8.87.25L130 194h3.5c1.925 0 3.493-.338 3.485-.75-.008-.412-1.566-2.55-3.462-4.75l-3.448-4-.037 4.75m73.665-.458c-2.037 2.086-3.703 4.111-3.703 4.5 0 .389 2.73.708 6.067.708 6.651 0 6.47.321 3.824-6.75-1.141-3.05-1.885-2.865-6.188 1.542m-139.424.652c-.582 1.894-.807 3.694-.502 4 .306.306 3.048.556 6.093.556h5.536l-3.906-4c-2.148-2.2-4.414-4-5.035-4-.621 0-1.605 1.55-2.186 3.444m19.406.09c-.927 1.944-1.685 3.744-1.685 4 0 .256 2.791.466 6.203.466h6.203l-3.906-4c-2.148-2.2-4.181-4-4.518-4-.336 0-1.37 1.59-2.297 3.534M164.5 190l-3.906 4h6.203c3.412 0 6.203-.21 6.203-.466 0-1.065-3.419-7.534-3.982-7.534-.337 0-2.37 1.8-4.518 4m19 0l-3.906 4h6.31c5.362 0 6.218-.239 5.699-1.593-.336-.876-.883-2.676-1.216-4-.846-3.373-2.386-3.017-6.887 1.593m-80.819-.036c-.925 1.564-1.681 3.113-1.681 3.44 0 .328 2.25.596 5 .596s4.968-.338 4.928-.75c-.04-.412-1.534-1.961-3.32-3.441l-3.247-2.69-1.68 2.845m45.069.52c-1.512 1.331-2.75 2.667-2.75 2.968 0 .301 2.025.548 4.5.548 4.761 0 5.533-1.056 3.108-4.25-1.65-2.173-1.536-2.19-4.858.734M.195 196.5c.02 1.65.244 2.204.498 1.231.254-.973.237-2.323-.037-3-.274-.677-.481.119-.461 1.769" fill="#1976D2" fill-rule="evenodd"/></svg>