<svg id="Layer_1" data-name="Layer 1" xmlns="http://www.w3.org/2000/svg" xmlns:xlink="http://www.w3.org/1999/xlink" viewBox="0 0 400 300" width="406" height="306" class="illustration"><defs><linearGradient id="linear-gradient" x1="195.71" y1="262.72" x2="234.85" y2="227.39" gradientUnits="userSpaceOnUse"><stop offset="0" stop-color="#daf2e9"></stop><stop offset="1" stop-color="#c4e0d1"></stop></linearGradient><linearGradient id="linear-gradient-2" x1="274.97" y1="224.92" x2="291.52" y2="202.58" xlink:href="#linear-gradient"></linearGradient><linearGradient id="linear-gradient-3" x1="93.44" y1="217.36" x2="110.5" y2="194.33" xlink:href="#linear-gradient"></linearGradient></defs><title>-</title><path d="M25.89,174.4,209.8,280.57a18,18,0,0,0,18.13-.1l146.22-86.61a4.65,4.65,0,0,0,0-8C341.64,167.13,204.68,88.2,182.4,75.57a6.06,6.06,0,0,0-6.06,0L25.85,163.91A6.06,6.06,0,0,0,25.89,174.4Z" fill="#daf2e9"></path><path d="M208.07,234.61l-37.39,22s5.36,4.14,26.78,16.86l8.87,5.12,34-27.35" fill="url(#linear-gradient)"></path><path d="M303.28,179.18,250.64,210.8s15.78,9,37.2,21.76l25-20.78,20.26-18.4" fill="url(#linear-gradient-2)"></path><path d="M82.31,152.47,35.6,178.54s81,47.85,102.39,60.58l48.15-30" fill="url(#linear-gradient-3)"></path><polyline points="135.4 10 151.05 18.35 108.31 58.6 70.62 70.44 58.08 53.42" fill="#ffe8bc"></polyline><polyline points="76.39 61.87 61.86 53.6 135.4 10 133.67 9 58.08 53.42 58.08 166.86 74.57 176.24 80.86 169.68" fill="#68e1fd"></polyline><polyline points="76.39 61.87 61.86 53.6 135.4 10 133.67 9 58.08 53.42 58.08 166.86 74.57 176.24 80.86 169.68" fill="#1371a5" opacity="0.42"></polyline><polygon points="151.05 18.35 74.57 62.94 74.57 176.24 152.26 129.81 151.05 18.35" fill="#68e1fd"></polygon><polygon points="77.46 55.5 82.13 58.46 82.13 82.62 85.09 78.82 87.17 81.17 87.17 55.59 82.81 52.45 77.46 55.5" fill="#e85858"></polygon><path d="M85.28,177.17c-.37,0-3.67-1.32-.89-3.45a57.19,57.19,0,0,1,5.78-3.95" fill="#e27825"></path><path d="M85.28,159.66s2.78,10.29,0,15.78l37.79,22.22,37.38,21.63v-16" fill="#ffe8bc"></path><path d="M84,158.06q.13,1.07.27,2.14l76.15,43.1v16L84.35,174.9c0,.63,0,1.26,0,1.9l79.05,45.75V200.75Z" fill="#e27825"></path><path d="M84.44,158.34l78.54,45,110.2-64.7L196.33,94.53a7.58,7.58,0,0,0-7.63.05L84.43,156.38A1.14,1.14,0,0,0,84.44,158.34Z" fill="#fdba45"></path><path d="M163.38,222.54s110.13-64.86,109.8-65.17,0-18.77,0-18.77L163,203.3Z" fill="#e27825"></path><path d="M84.43,156.38a2.8,2.8,0,0,0-1.15,2c-.13,1.34,1.3,2,1.8,2.27" fill="#fdba45"></path><path d="M309.07,251.49a.37.37,0,0,0-.73,0" fill="#7a9f36"></path><polyline points="289.03 172.19 309.45 182.94 310.06 187.98 288.45 175.79" fill="#e27623"></polyline><path d="M288.2,164l-8.41,30.33,1.54.89a9.59,9.59,0,0,0,1.15-.71c.45-.35,10.91-31.88,10.91-31.88" fill="#e27623"></path><polyline points="307.6 158.04 313.34 175.95 312.85 211.78 311.56 212.63 309.78 211.52 308.46 175.93 303.28 158.04" fill="#e27623"></polyline><path d="M285.06,155.89s-.64,4,.73,6.17,5-3.28,5-3.28" fill="#ffb469"></path><polyline points="304.09 134.24 303.28 148.75 307.08 150.72 307.79 135.17" fill="#ca6b00"></polyline><polyline points="327.97 144.92 330.53 164.53 333.11 193.38 331.45 194.37 329.8 193.33 326.12 164.98 323.65 144.92" fill="#e27623"></polyline><path d="M325.39,147.37c1.07.33,3.37-1.36,4.06-2.45,3.77-5.93,2.68-14-4.1-17.73-3-1.66-6.11-3.32-9.1-5-2.66-1.52-5.47-2.81-8-4.46a5.9,5.9,0,0,0-1.07-.59,3.66,3.66,0,0,0-3.86,1.32" fill="#ffb469"></path><path d="M325.67,147.11c1.82-.06,2.86-2.47,3.39-3.89,1.47-3.89,1.76-11.29-2.67-13.51a.53.53,0,0,1-.31-.42l-8.51-4.91-6.58-3.8c-1.15-.66-2.24-1.42-3.39-2.09s-2.28-1.44-3.55-.68-1.58,2.41-1.8,3.88a23.51,23.51,0,0,0,.52,10.18,8.92,8.92,0,0,0,4.37,4.84l6.11,3.54,11.33,6.54a2.42,2.42,0,0,0,.59.27A1.69,1.69,0,0,0,325.67,147.11Z" fill="#fcbd4c"></path><path d="M326.91,162.82l.35.2a8.51,8.51,0,0,1,2.54,1.91c1.72,2.16.06,4.62-1.65,6.13-4.61,4.1-11.6,7.45-17.85,5.94A55.4,55.4,0,0,1,295,170.27c-3.91-2.35-8.8-5.19-9.82-10a7,7,0,0,1,1.86-6c9.81-11.37,23.62-.7,33.32,4.87Z" fill="#ffb469"></path><path d="M330.31,163.26a13,13,0,0,1,.2,4.16,11.72,11.72,0,0,1-2.81,4c-1.14.92-.46-5.5-.46-5.5" fill="#ffb469"></path><path d="M326.91,160.09l.35.2a8.51,8.51,0,0,1,2.54,1.91c1.72,2.16.06,4.62-1.65,6.13-4.61,4.1-11.6,7.45-17.85,5.94A55.4,55.4,0,0,1,295,167.54c-3.91-2.35-8.8-5.19-9.82-10a7,7,0,0,1,1.86-6c9.81-11.37,23.62-.7,33.32,4.87Z" fill="#fcbd4c"></path><path d="M77.42,146.53c-.37,0-3.67-1.32-.89-3.45a57.19,57.19,0,0,1,5.78-3.95" fill="#9a433a"></path><path d="M77.42,129s2.78,10.29,0,15.78L115.21,167l37.38,21.63v-16" fill="#ffe8bc"></path><path d="M76.17,127.42q.13,1.07.27,2.14l76.15,43.1v16L76.5,144.25c0,.63,0,1.26,0,1.9l79.05,45.75V170.11Z" fill="#9a433a"></path><path d="M76.59,127.7l78.54,45L265.33,108,188.48,63.89a7.58,7.58,0,0,0-7.63.05L76.58,125.73A1.14,1.14,0,0,0,76.59,127.7Z" fill="#f26250"></path><path d="M155.53,191.9S265.66,127,265.33,126.73s0-18.77,0-18.77l-110.2,64.7Z" fill="#9a433a"></path><path d="M76.58,125.73a2.8,2.8,0,0,0-1.15,2c-.13,1.34,1.3,2,1.8,2.27" fill="#f26250"></path><polygon points="142.13 174.5 141.33 189.01 145.22 185.8 148.19 193.21 149.39 178.31 142.13 174.5" fill="#2ae400"></polygon><path d="M214.19,240.18a9.1,9.1,0,0,1-2-.23,12.27,12.27,0,0,1-9.4-9.78c-.17-1.58-.13-6.09-.07-9.6a3.09,3.09,0,0,1,4.5-2.7l0,0,15.64,8.77-.25,1s-.21.9-.73,4c-.33,2-1.27,5.5-4,7.33A6.63,6.63,0,0,1,214.19,240.18Zm-8.34-19.9a.34.34,0,0,0-.18.05.33.33,0,0,0-.17.29c-.09,4.84-.07,8.13.05,9.25a9.53,9.53,0,0,0,7.26,7.39,4.46,4.46,0,0,0,3.62-.5c1.92-1.3,2.61-4.28,2.81-5.51.25-1.53.44-2.55.56-3.2L206,220.32A.34.34,0,0,0,205.85,220.28Z" fill="#e27623"></path><path d="M236.49,252.35a9.1,9.1,0,0,1-2-.23,12.27,12.27,0,0,1-9.4-9.78c-.14-1.29-.16-4.25-.08-9a3.69,3.69,0,0,1,1.7-3.06,2.62,2.62,0,0,1,2.59-.1l0,0,15.88,8.68-.25,1s-.21.9-.73,4c-.33,2-1.27,5.5-4,7.33A6.63,6.63,0,0,1,236.49,252.35Zm-8.36-19.74a1,1,0,0,0-.34.74c-.1,5.75,0,7.91.06,8.7a9.53,9.53,0,0,0,7.26,7.39,4.46,4.46,0,0,0,3.62-.5c1.92-1.3,2.61-4.28,2.81-5.51.25-1.52.44-2.53.56-3.19Z" fill="#e27623"></path><path d="M244.35,240.72,243,238.34l20-11.62a7.25,7.25,0,0,1,5.41-.72,5.22,5.22,0,0,1,3.13,3.1l-2.53,1.07a2.55,2.55,0,0,0-1.48-1.57,4.57,4.57,0,0,0-3.15.5Z" fill="#e27623"></path><path d="M206.24,220.13l-1.38-2.38,20-11.62a7.25,7.25,0,0,1,5.41-.72,5.22,5.22,0,0,1,3.13,3.1l-2.53,1.07a2.56,2.56,0,0,0-1.47-1.57,4.56,4.56,0,0,0-3.17.5Z" fill="#e27623"></path><rect x="223.66" y="225.18" width="2.75" height="8.36" transform="translate(-83.98 317.44) rotate(-61.45)" fill="#e27623"></rect><path d="M209.48,166.4l3.76-1.83s.3-3.3-1-4S209.48,166.4,209.48,166.4Z" fill="#196132"></path><path d="M218.63,157s.52,8.11,1.08,8.94,7.77,4.61,8.36,6-8-.12-10.88-.83-5.48-2.13-5.58-3.19,1-6.51,0-6.39-2.13,4.83-2.13,4.83L207,164.92l5.52-19" fill="#196132"></path><path d="M226.57,158.32l3.76-1.83s.3-3.3-1-4S226.57,158.32,226.57,158.32Z" fill="#196132"></path><path d="M235.72,148.93s.52,8.11,1.08,8.94,7.77,4.61,8.36,6-8-.12-10.88-.83-5.48-2.13-5.58-3.19,1-6.51,0-6.39-2.13,4.83-2.13,4.83l-2.49-1.48,5.52-19" fill="#196132"></path><path d="M207.76,88.09c-1.32,1.27-4.41,18.93-2.35,27.41s22.66,12,22.66,12l-4.84,21.61s7.89,6,15.43,3.52c2.72-.88,8.92-31.91,6.52-36.23s-30-19.28-30-19.28" fill="#fff0d7"></path><path d="M191.5,94.53c-1.32,1.27-5.12,11.2,0,23.39,3.38,8,21.76,13.72,21.76,13.72L207,155.57s8.23,6.82,15.43,3.52,9.22-32.7,6.82-37-26.31-19.54-26.31-19.54" fill="#fff0d7"></path><path d="M198,70.78s-13.63,5.66-9.82,25c2.68,13.6,16.16,15.1,16.16,15.1s8.83-5.56,7.84-7.42l-12-6.25,13.59-6.87,9.81,10.29,7-5.46s-10.12-15.88-14.52-22.44S198,70.78,198,70.78Z" fill="#ff9a22"></path><line x1="237.11" y1="93.35" x2="235.88" y2="92.15" fill="#fff7f0"></line><path d="M215.67,103.61l-2.4-1.93s5.35-4.89,12.65-4.25a15.33,15.33,0,0,1,8.18-6.25l3,2.17" fill="#ffe8bc"></path><polyline points="213.27 101.68 211.37 115.57 215.66 117.92 219.04 105.23" fill="#ffe8bc"></polyline><path d="M215.67,103.61l-2,13.15,2,1.16s20.41-11.22,20.21-11.42,1.23-13.14,1.23-13.14" fill="#68e1fd"></path><polygon points="235.63 92.29 215.66 103.61 217.54 104.67 237.11 93.35 235.63 92.29" fill="#68e1fd"></polygon><polygon points="235.63 92.29 215.66 103.61 217.54 104.67 237.11 93.35 235.63 92.29" fill="#1371a5" opacity="0.42"></polygon><path d="M218.23,105.44a1.09,1.09,0,0,0-1.33-1.33,13.3,13.3,0,0,1-4.86.82,1,1,0,0,0-.51.12l0,0a29.57,29.57,0,0,1-5.15,4.13l.56.26a32.52,32.52,0,0,0,2.54,4.17,2.36,2.36,0,0,0,1.91,1,6,6,0,0,0,.78.5,2.24,2.24,0,0,0,2.5-.22,1.19,1.19,0,0,0,.87.16,1.14,1.14,0,0,0,1.23-.12,2.19,2.19,0,0,0,.81-2.94,2.28,2.28,0,0,0,.08-2.9,6.9,6.9,0,0,0-1.65-1.67A2.82,2.82,0,0,0,218.23,105.44Z" fill="#fdba45"></path><path d="M237.86,100.83c.12-.18.23-.37.34-.55a1,1,0,0,0-.49-1.49l-.15-.14a1.09,1.09,0,0,0-.44-1.37,1.11,1.11,0,0,0-1,0,1,1,0,0,0-.27.11,4.15,4.15,0,0,0-1.67,2.06,1.08,1.08,0,0,0,.5,1.22,1.15,1.15,0,0,0,.38.12h0a6.67,6.67,0,0,0-.92,1.63c-.28.76.5,1.43,1.19,1.36l-.16.22c-.6.78.39,1.83,1.22,1.59a2.25,2.25,0,0,0,1.34-1.21c.35-.64.69-1.28,1-1.93A1.13,1.13,0,0,0,237.86,100.83Z" fill="#fdba45"></path><path d="M214.25,85.4s.33,12.26-.4,13.6-13.68,6.84-13.68,6.84l-8-10.1Z" fill="#ff9a22"></path><path d="M207.66,64.42s2.28,5,1.4,6.76-5.68.56-5.68.56" fill="#1b6333"></path><path d="M208.07,61.88s.14,10.1-4,11.19-6.34-4-6.34-4-.84-6.82.5-8.25S205.88,59,208.07,61.88Z" fill="#fdba45"></path><path d="M209.67,60.76s-2.79,4-4.44,5-3.52.43-4.1,1.8,1.49,9.49-.41,11-5.6-2.87-7.23-.72-.75,6.11-3.31,7-5.58-3.09-3.14-6.25,2.68-4.71,1.28-5.75c-2.09-1.55.07-7.26,2.51-8.34s3.1-6.62,7.49-8S208.72,57.63,209.67,60.76Z" fill="#1b6333"></path><path d="M213.27,81.51q0,8.48-.33,17c0,.64,1,.64,1,0q.35-8.48.33-17A.5.5,0,0,0,213.27,81.51Z" fill="#f26250"></path><path d="M212,103.07A22.76,22.76,0,0,1,199.2,87.21c-.14-.63-1.1-.36-1,.27a23.69,23.69,0,0,0,13.29,16.46C212.11,104.2,212.62,103.34,212,103.07Z" fill="#f26250"></path></svg>