<svg viewBox="0 0 267 148" fill="currentColor" xmlns="http://www.w3.org/2000/svg"><path d="M130.817 126.463L131.121 126.767V126.159C131.019 126.261 130.918 126.362 130.817 126.463Z" fill="currentColor"/><path d="M122.818 142.765C125.248 139.018 127.982 135.475 130.918 132.234L128.083 129.399C125.147 132.639 122.413 136.183 119.983 139.93L122.818 142.765Z" fill="currentColor"/><path d="M129.096 107.124C125.957 109.655 122.919 112.288 120.084 115.123C119.983 115.224 119.882 115.325 119.781 115.427L122.616 118.262C125.349 115.528 128.184 112.997 131.121 110.567V109.149L129.096 107.124Z" fill="currentColor"/><path d="M101.859 139.727L104.896 142.765C106.314 140.031 107.833 137.398 109.453 134.867L106.516 131.931C104.795 134.563 103.276 137.095 101.859 139.727Z" fill="currentColor"/><path d="M111.579 131.526C114.11 127.881 116.844 124.438 119.882 121.198L117.047 118.363C114.009 121.603 111.275 125.045 108.744 128.691L111.579 131.526Z" fill="currentColor"/><path d="M86.9749 130.513C85.2537 133.652 83.7349 136.791 82.3174 140.031L85.3549 143.068C86.7724 139.727 88.2912 136.588 89.9112 133.449L86.9749 130.513Z" fill="currentColor"/><path d="M93.8601 119.375C92.1388 121.805 90.5188 124.337 89 126.969L91.9363 129.906C93.4551 127.273 95.0751 124.742 96.6951 122.312L93.8601 119.375Z" fill="currentColor"/><path d="M116.642 94.67C113.503 97.2013 110.567 99.9351 107.731 102.77C107.63 102.871 107.529 102.973 107.428 103.074L110.263 105.909C113.199 102.973 116.338 100.138 119.578 97.5051L116.642 94.67Z" fill="currentColor"/><path d="M104.694 106.01C101.657 109.25 98.8215 112.693 96.189 116.135L99.1253 119.072C101.758 115.528 104.593 112.085 107.529 108.845L104.694 106.01Z" fill="currentColor"/><path d="M128.994 85.8613C125.856 87.8864 122.818 90.0126 119.781 92.2402L122.717 95.0752C125.451 93.0502 128.286 91.0251 131.121 89.3039V87.9876L128.994 85.8613Z" fill="currentColor"/><path d="M94.7713 89.81C94.67 89.9112 94.5688 90.0125 94.4675 90.1137L97.3026 92.9488C100.239 90.0125 103.276 87.1774 106.516 84.5449L103.681 81.7098C100.543 84.2411 97.6063 86.9749 94.7713 89.81Z" fill="currentColor"/><path d="M106.719 79.1785L109.554 82.0136C112.49 79.6848 115.528 77.5585 118.565 75.5335L115.629 72.5972C112.693 74.6222 109.655 76.8497 106.719 79.1785Z" fill="currentColor"/><path d="M75.6348 113.604L78.5711 116.54C80.1911 114.009 81.8111 111.579 83.5324 109.149L80.5961 106.213C78.9761 108.643 77.2548 111.174 75.6348 113.604Z" fill="currentColor"/><path d="M76.546 120.084L73.6098 117.148C71.7872 120.185 70.1672 123.223 68.6484 126.362L71.686 129.399C73.1035 126.261 74.7235 123.122 76.546 120.084Z" fill="currentColor"/><path d="M66.7246 130.209C65.2058 133.551 63.8896 136.892 62.6746 140.233L65.8134 143.372C67.0284 139.929 68.3446 136.487 69.7622 133.247L66.7246 130.209Z" fill="currentColor"/><path d="M128.893 64.8009C125.552 66.5222 122.312 68.3447 119.173 70.3697L122.109 73.306C125.045 71.4835 128.083 69.7622 131.121 68.2435V67.0284L128.893 64.8009Z" fill="currentColor"/><path d="M83.1274 103.074L86.0637 106.01C88.7975 102.466 91.6326 99.1252 94.6701 95.8851L91.8351 93.0501C88.6963 96.1889 85.76 99.5302 83.1274 103.074Z" fill="currentColor"/><path d="M50.5245 128.083C51.9421 124.843 53.3596 121.603 54.9796 118.464L51.9421 115.427C50.322 118.565 48.8033 121.805 47.3857 125.045L50.5245 128.083Z" fill="currentColor"/><path d="M121.097 51.3345C124.235 49.7144 127.374 48.0944 130.614 46.6769L127.577 43.6393C124.337 45.0569 121.198 46.6769 118.059 48.2969L121.097 51.3345Z" fill="currentColor"/><path d="M64.396 102.365C66.016 99.9352 67.7373 97.5051 69.5598 95.1763L66.6235 92.2401C64.801 94.5688 63.0797 96.9989 61.4597 99.4289L64.396 102.365Z" fill="currentColor"/><path d="M62.1684 105.808L59.2321 102.871C57.4096 105.808 55.5871 108.744 53.967 111.781L57.0046 114.819C58.6246 111.68 60.3459 108.744 62.1684 105.808Z" fill="currentColor"/><path d="M71.9898 91.9362C74.7236 88.4937 77.6599 85.1524 80.6974 81.9123L77.8624 79.0773C74.8249 82.3173 71.8886 85.6586 69.1548 88.9999L71.9898 91.9362Z" fill="currentColor"/><path d="M83.4312 79.1787C86.3675 76.2424 89.4051 73.4073 92.5439 70.6735L89.7088 67.8385C86.6713 70.471 83.735 73.2048 80.8999 76.0399C80.7987 76.1411 80.6974 76.2424 80.5962 76.3436L83.4312 79.1787Z" fill="currentColor"/><path d="M45.2593 142.562C46.3731 139.018 47.5881 135.576 48.9044 132.133L45.7656 128.994C44.4493 132.437 43.1331 135.879 42.0193 139.322L45.2593 142.562Z" fill="currentColor"/><path d="M104.998 56.1945L107.934 59.1308C111.073 57.1057 114.212 55.182 117.452 53.3594L114.414 50.3219C111.174 52.1444 108.035 54.0682 104.998 56.1945Z" fill="currentColor"/><path d="M101.657 58.4221C98.619 60.5483 95.6827 62.7759 92.8477 65.1047L95.7839 68.0409C98.619 65.7122 101.657 63.4846 104.694 61.3583L101.657 58.4221Z" fill="currentColor"/><path d="M29.6666 126.969C30.9829 123.628 32.2992 120.287 33.8179 116.945L30.7804 113.908C30.0716 115.427 29.3629 117.047 28.6541 118.667C27.9454 120.388 27.2366 122.109 26.5278 123.932L29.6666 126.969Z" fill="currentColor"/><path d="M81.6087 54.0683C84.4437 51.7396 87.38 49.4108 90.3163 47.2845L87.38 44.3482C84.4437 46.5757 81.5074 48.8033 78.6724 51.2333L81.6087 54.0683Z" fill="currentColor"/><path d="M24.7054 142.461C25.7179 138.613 26.9329 134.867 28.1479 131.222L25.0091 128.083C23.6929 131.728 22.4778 135.474 21.4653 139.221L24.7054 142.461Z" fill="currentColor"/><path d="M35.5393 113.199C37.0581 110.06 38.6781 106.921 40.3994 103.884L37.4631 100.948C35.7418 103.985 34.1218 107.124 32.603 110.263L35.5393 113.199Z" fill="currentColor"/><path d="M123.628 23.7942C121.198 24.8067 118.869 25.9204 116.54 27.0342L119.578 30.0717C123.324 28.3505 127.07 26.7304 131.019 25.2117L127.88 22.0729C126.362 22.5791 124.944 23.1866 123.628 23.7942Z" fill="currentColor"/><path d="M115.73 31.793L112.693 28.7554C109.554 30.3755 106.517 31.9955 103.479 33.7168L106.415 36.653C109.453 35.033 112.592 33.3117 115.73 31.793Z" fill="currentColor"/><path d="M102.973 38.8805L100.036 35.9442C96.8976 37.868 93.7588 39.893 90.8225 42.0193L93.7588 44.9556C96.6951 42.7281 99.7326 40.703 102.973 38.8805Z" fill="currentColor"/><path d="M66.7247 68.041L63.7884 65.1047C60.7509 68.3447 57.8146 71.5848 55.0808 75.0273L58.0171 77.9636C60.7509 74.5211 63.6872 71.1798 66.7247 68.041Z" fill="currentColor"/><path d="M50.2207 88.19C51.942 85.7599 53.6633 83.4312 55.4858 81.1024L52.5495 78.1661C50.727 80.4949 49.0057 82.8236 47.2844 85.2537L50.2207 88.19Z" fill="currentColor"/><path d="M78.5712 56.5996L75.7362 53.7645C72.6986 56.3971 69.7623 59.1309 66.9273 61.9659C66.826 62.0671 66.7248 62.1684 66.6235 62.2696L69.4586 65.1047C72.3949 62.1684 75.4324 59.3334 78.5712 56.5996Z" fill="currentColor"/><path d="M47.8919 91.5313L44.9556 88.595C43.0318 91.43 41.2093 94.3663 39.488 97.3026L42.4243 100.239C44.1456 97.3026 45.9681 94.3663 47.8919 91.5313Z" fill="currentColor"/><path d="M6.58146 130.007C6.98646 128.589 7.49272 127.172 7.99898 125.754C9.21399 122.109 10.5303 118.565 11.9478 115.022C12.454 113.705 13.0615 112.389 13.5678 111.073C14.9853 107.833 16.5041 104.593 18.0229 101.454C18.6304 100.239 19.2379 98.9227 19.9466 97.7077C21.5667 94.6701 23.2879 91.6326 25.0092 88.595C25.718 87.38 26.4267 86.2662 27.1355 85.0512C28.958 82.1149 30.7805 79.2799 32.8056 76.4449C33.6156 75.3311 34.3243 74.2173 35.1344 73.2048C36.8556 70.7748 38.6782 68.446 40.5007 66.2185C41.3107 65.2059 42.222 64.0922 43.032 63.0797C45.867 59.7384 48.8033 56.3971 51.8408 53.2583C52.7521 52.347 53.6634 51.3345 54.5746 50.4232C57.5109 47.4869 60.5485 44.6519 63.6873 41.8169C64.6998 40.9056 65.7123 40.0956 66.7248 39.1843C69.5598 36.7543 72.3949 34.5268 75.3312 32.2992C76.4449 31.4892 77.4574 30.6792 78.5712 29.8692C81.5075 27.7429 84.545 25.6166 87.6838 23.6929C88.7976 22.9841 90.0126 22.2753 91.1264 21.5666C94.0627 19.7441 97.1002 18.0228 100.138 16.4028C101.353 15.694 102.568 15.0865 103.783 14.479C107.428 12.6565 111.073 10.8339 114.819 9.21391C116.135 8.6064 117.452 8.10014 118.768 7.49263C123.021 5.77136 127.374 4.15134 131.829 2.73382V0.506287C98.0115 11.5427 67.7373 31.5905 44.247 58.5233C22.9842 82.9249 8.10023 112.085 0.911377 143.473H2.93641C3.94892 138.917 5.16394 134.361 6.58146 130.007Z" fill="currentColor"/><path d="M120.388 8.91016C123.932 7.49264 127.577 6.17637 131.222 4.96135V19.7441L131.931 20.4528V2.63257C127.476 4.05009 123.223 5.67011 118.869 7.39139L120.388 8.91016Z" fill="currentColor"/><path d="M131.121 61.3584L131.829 62.0671V47.8919L131.121 47.1832V61.3584Z" fill="currentColor"/><path d="M131.121 126.159C131.323 125.957 131.627 125.754 131.829 125.451V109.959C131.627 110.162 131.323 110.364 131.121 110.465V126.159Z" fill="currentColor"/><path d="M131.121 143.473H131.829V133.146L131.121 132.437V143.473Z" fill="currentColor"/><path d="M131.121 82.3175L131.829 83.0262V67.8385C131.627 67.9398 131.323 68.041 131.121 68.1423V82.3175Z" fill="currentColor"/><path d="M131.121 103.58L131.829 104.289V88.7974C131.627 88.8986 131.323 89.1011 131.121 89.2024V103.58Z" fill="currentColor"/><path d="M34.1216 77.7611L32.8053 76.4448C30.8816 79.2799 28.9578 82.1149 27.1353 84.9499L28.4515 86.2662C30.274 83.4312 32.1978 80.5961 34.1216 77.7611Z" fill="currentColor"/><path d="M36.4505 74.4198C38.1718 71.9898 39.9943 69.661 41.8169 67.4335L40.5006 66.1172C38.6781 68.446 36.8556 70.7747 35.1343 73.1035L36.4505 74.4198Z" fill="currentColor"/><path d="M26.3254 89.81L25.0091 88.4937C23.2878 91.43 21.5666 94.4675 19.9465 97.6063L21.3641 99.0239C22.9841 95.8851 24.6041 92.8475 26.3254 89.81Z" fill="currentColor"/><path d="M55.8907 51.6383C58.827 48.702 61.8646 45.867 65.0034 43.1332L63.6871 41.8169C60.5483 44.5507 57.5108 47.3857 54.5745 50.4233L55.8907 51.6383Z" fill="currentColor"/><path d="M53.1569 54.4732L51.8406 53.1569C48.8031 56.2957 45.8668 59.637 43.0317 62.9783L44.348 64.2946C47.183 60.9533 50.0181 57.612 53.1569 54.4732Z" fill="currentColor"/><path d="M19.4402 102.669L18.0227 101.251C16.4027 104.39 14.9851 107.63 13.5676 110.87L14.9851 112.288C16.4027 109.149 17.9214 105.909 19.4402 102.669Z" fill="currentColor"/><path d="M131.121 41.6143L131.424 41.9181C131.526 41.8169 131.728 41.8168 131.829 41.7156V26.0216L131.121 25.3129V41.6143Z" fill="currentColor"/><path d="M13.4666 116.439L11.9478 114.92C10.5303 118.464 9.21404 122.008 7.99902 125.653L9.51779 127.172C10.7328 123.628 12.0491 119.983 13.4666 116.439Z" fill="currentColor"/><path d="M4.96131 143.473C5.87257 139.423 6.98634 135.474 8.20135 131.526L6.58133 130.007C5.16381 134.462 3.94879 138.917 2.93628 143.473H4.96131Z" fill="currentColor"/><path d="M116.338 10.6314L114.92 9.11267C111.174 10.7327 107.529 12.454 103.884 14.3777L105.302 15.7953C108.947 13.9727 112.592 12.2515 116.338 10.6314Z" fill="currentColor"/><path d="M101.555 17.719L100.138 16.3015C97.1001 17.9215 94.0625 19.6428 91.1262 21.4653L92.5437 22.8829C95.48 21.0603 98.5176 19.3391 101.555 17.719Z" fill="currentColor"/><path d="M89.1012 25.0091L87.6837 23.6928C84.5449 25.7178 81.5073 27.7429 78.571 29.8691L79.8873 31.1854C82.9249 29.0591 85.9624 26.9329 89.1012 25.0091Z" fill="currentColor"/><path d="M76.6472 33.5143L75.331 32.1981C72.3947 34.4256 69.4584 36.7544 66.7246 39.0832L68.0409 40.3994C70.8759 38.0706 73.711 35.7419 76.6472 33.5143Z" fill="currentColor"/><path d="M131.121 126.767L131.829 127.476V125.451C131.627 125.653 131.323 125.856 131.121 126.159V126.767Z" fill="currentColor"/><path d="M131.121 110.668C131.323 110.465 131.627 110.263 131.829 110.162V109.959L131.121 109.25V110.668Z" fill="currentColor"/><path d="M131.121 89.3038C131.323 89.2026 131.627 89.0001 131.829 88.8988V88.6963L131.121 87.9875V89.3038Z" fill="currentColor"/><path d="M131.121 68.2434C131.323 68.1422 131.627 68.0409 131.829 67.9396V67.7371L131.121 67.0284V68.2434Z" fill="currentColor"/><path d="M131.829 42.323V41.7155C131.728 41.8168 131.526 41.8168 131.424 41.918L131.829 42.323Z" fill="currentColor"/><path d="M131.12 25.4141V25.1104C131.019 25.1104 130.918 25.2116 130.918 25.2116L131.12 25.4141Z" fill="currentColor"/><path d="M127.779 22.0728C128.893 21.6678 130.007 21.1616 131.121 20.7566V19.7441L120.388 8.91016C119.072 9.41641 117.755 10.0239 116.439 10.5302L127.779 22.0728Z" fill="currentColor"/><path d="M130.918 25.1103C131.019 25.1103 131.121 25.009 131.121 25.009V20.7565C130.007 21.1615 128.893 21.5665 127.779 22.0727L130.918 25.1103Z" fill="currentColor"/><path d="M131.121 25.4141L131.829 26.1228V24.8066C131.627 24.9078 131.323 25.0091 131.121 25.1103V25.4141Z" fill="currentColor"/><path d="M120.388 8.91013L118.869 7.39136C117.553 7.89761 116.237 8.50512 114.92 9.11263L116.439 10.6314C117.654 10.0239 118.97 9.51764 120.388 8.91013Z" fill="currentColor"/><path d="M131.829 20.4528L131.121 19.744V20.7565C131.424 20.6553 131.627 20.554 131.829 20.4528Z" fill="currentColor"/><path d="M131.121 25.009C131.323 24.9078 131.627 24.8065 131.829 24.7053V20.4527C131.627 20.5539 131.323 20.6552 131.121 20.7565V25.009Z" fill="currentColor"/><path d="M119.477 29.9704C118.16 30.5779 116.945 31.1854 115.629 31.7929L127.476 43.5381C128.691 43.0318 129.906 42.4243 131.121 41.9181V41.5131L119.477 29.9704Z" fill="currentColor"/><path d="M116.439 26.9328L105.301 15.7952C104.086 16.4027 102.77 17.1114 101.555 17.7189L112.693 28.8566C114.009 28.1478 115.224 27.5403 116.439 26.9328Z" fill="currentColor"/><path d="M130.614 46.6769L131.121 47.1832V46.3732C131.019 46.4744 130.817 46.5757 130.614 46.6769Z" fill="currentColor"/><path d="M127.476 43.6393L130.513 46.6769C130.716 46.5756 130.918 46.4744 131.019 46.4744V42.0193C129.906 42.5255 128.691 43.0318 127.476 43.6393Z" fill="currentColor"/><path d="M119.477 29.9703L116.439 26.9328C115.123 27.5403 113.908 28.1478 112.693 28.7553L115.73 31.7929C116.945 31.1854 118.262 30.5779 119.477 29.9703Z" fill="currentColor"/><path d="M131.121 47.1832L131.829 47.8919V46.0694C131.627 46.1706 131.323 46.2719 131.121 46.3732V47.1832Z" fill="currentColor"/><path d="M105.301 15.7951L103.884 14.3776C102.669 14.9851 101.454 15.6939 100.239 16.3014L101.656 17.7189C102.871 17.0102 104.086 16.4027 105.301 15.7951Z" fill="currentColor"/><path d="M131.424 41.918L131.121 41.6143V42.0193C131.222 41.918 131.323 41.918 131.424 41.918Z" fill="currentColor"/><path d="M131.121 42.0194V46.4745C131.323 46.3732 131.627 46.272 131.829 46.1707V42.3232L131.424 41.9182C131.323 41.9182 131.222 41.9182 131.121 42.0194Z" fill="currentColor"/><path d="M99.9352 35.8429C101.15 35.1342 102.264 34.4254 103.479 33.7167L92.5439 22.8828C91.3289 23.5915 90.2151 24.3003 89.1013 25.009L99.9352 35.8429Z" fill="currentColor"/><path d="M114.414 50.322C115.629 49.6133 116.844 49.0058 118.059 48.297L106.516 36.7543C105.301 37.4631 104.188 38.1719 102.973 38.8806L114.414 50.322Z" fill="currentColor"/><path d="M121.097 51.3344C119.882 51.9419 118.667 52.6506 117.452 53.3594L128.893 64.8008C129.602 64.3958 130.412 64.092 131.121 63.687V61.3582L121.097 51.3344Z" fill="currentColor"/><path d="M131.121 67.0284V63.6871C130.412 64.0921 129.602 64.3959 128.893 64.8009L131.121 67.0284Z" fill="currentColor"/><path d="M114.414 50.3219L117.452 53.3594C118.667 52.6507 119.882 52.0432 121.097 51.3344L118.059 48.2969C116.844 48.9044 115.629 49.6131 114.414 50.3219Z" fill="currentColor"/><path d="M106.516 36.7543L103.58 33.818C102.365 34.5268 101.251 35.2355 100.036 35.9443L102.973 38.8806C104.086 38.1718 105.301 37.463 106.516 36.7543Z" fill="currentColor"/><path d="M92.5437 22.8827L91.1261 21.4652C90.0124 22.174 88.7974 22.8827 87.6836 23.5915L89.1011 24.9078C90.2149 24.3002 91.4299 23.4902 92.5437 22.8827Z" fill="currentColor"/><path d="M131.121 61.3584V63.6872C131.323 63.5859 131.627 63.4847 131.829 63.3834V62.1684L131.121 61.3584Z" fill="currentColor"/><path d="M131.121 67.0284L131.829 67.7372V63.3834C131.627 63.4846 131.323 63.5859 131.121 63.6871V67.0284Z" fill="currentColor"/><path d="M122.109 73.306C120.996 74.0148 119.781 74.7235 118.667 75.5336L128.994 85.8612C129.703 85.4562 130.412 84.9499 131.121 84.5449V82.4187L122.109 73.306Z" fill="currentColor"/><path d="M107.934 59.1309C106.82 59.8396 105.707 60.6496 104.593 61.4596L115.832 72.5973C116.945 71.8885 118.059 71.0785 119.274 70.3698L107.934 59.1309Z" fill="currentColor"/><path d="M87.4811 44.3481C88.5949 43.5381 89.6074 42.7281 90.7212 42.0193L79.8873 31.1854C78.7735 31.9954 77.6597 32.8054 76.6472 33.6155L87.4811 44.3481Z" fill="currentColor"/><path d="M101.656 58.4221C102.77 57.6121 103.884 56.9033 104.998 56.0933L93.6575 44.8544C92.5438 45.6644 91.43 46.3731 90.4175 47.1832L101.656 58.4221Z" fill="currentColor"/><path d="M128.994 85.8612L131.121 87.9875V84.5449C130.412 84.9499 129.703 85.3549 128.994 85.8612Z" fill="currentColor"/><path d="M118.667 75.5336C119.781 74.8249 120.996 74.0149 122.109 73.3061L119.173 70.3698C118.059 71.0786 116.844 71.7873 115.73 72.5973L118.667 75.5336Z" fill="currentColor"/><path d="M101.656 58.422L104.593 61.3583C105.707 60.5483 106.82 59.8396 107.934 59.0296L104.998 56.0933C103.783 56.9033 102.669 57.7133 101.656 58.422Z" fill="currentColor"/><path d="M93.6575 44.8544L90.7212 41.9182C89.6075 42.7282 88.4937 43.4369 87.4812 44.2469L90.4175 47.1832C91.43 46.3732 92.5438 45.6645 93.6575 44.8544Z" fill="currentColor"/><path d="M131.121 84.5449C131.323 84.4437 131.627 84.2412 131.829 84.1399V83.0261L131.121 82.3174V84.5449Z" fill="currentColor"/><path d="M79.8874 31.1854L78.5711 29.8691C77.4573 30.6792 76.4448 31.4892 75.3311 32.2992L76.6473 33.6154C77.7611 32.7042 78.8749 31.9954 79.8874 31.1854Z" fill="currentColor"/><path d="M131.121 87.9874L131.829 88.6962V84.1399C131.627 84.2411 131.323 84.4436 131.121 84.5449V87.9874Z" fill="currentColor"/><path d="M122.717 95.0751C121.603 95.8851 120.59 96.6952 119.578 97.5052L129.096 107.023C129.804 106.517 130.513 105.909 131.121 105.403V103.378L122.717 95.0751Z" fill="currentColor"/><path d="M109.655 82.0136C108.643 82.8236 107.529 83.6336 106.517 84.5449L116.642 94.67C117.654 93.86 118.768 92.9488 119.781 92.1388L109.655 82.0136Z" fill="currentColor"/><path d="M95.6826 68.0409C94.67 68.8509 93.6575 69.7622 92.645 70.5722L103.681 81.6086C104.694 80.7986 105.706 79.8873 106.82 79.0773L95.6826 68.0409Z" fill="currentColor"/><path d="M75.7361 53.7645C76.7486 52.8533 77.7611 52.0433 78.7736 51.132L68.041 40.3994C67.0284 41.2094 66.0159 42.1206 65.0034 43.0319L75.7361 53.7645Z" fill="currentColor"/><path d="M89.7087 67.7372C90.7212 66.826 91.7337 66.016 92.7462 65.206L81.6086 54.0683C80.5961 54.8783 79.5836 55.7896 78.571 56.7008L89.7087 67.7372Z" fill="currentColor"/><path d="M129.095 107.124L131.12 109.149V105.504C130.513 106.01 129.804 106.516 129.095 107.124Z" fill="currentColor"/><path d="M116.642 94.6701L119.477 97.5051C120.489 96.6951 121.603 95.8851 122.615 95.0751L119.679 92.1388C118.768 93.0501 117.755 93.8601 116.642 94.6701Z" fill="currentColor"/><path d="M106.516 84.5449C107.529 83.7348 108.541 82.8236 109.655 82.0136L106.82 79.1785C105.808 79.9885 104.694 80.8998 103.681 81.7098L106.516 84.5449Z" fill="currentColor"/><path d="M92.645 70.6735C93.6575 69.7622 94.6701 68.9522 95.6826 68.1422L92.7463 65.2059C91.7338 66.0159 90.7213 66.9272 89.7087 67.7372L92.645 70.6735Z" fill="currentColor"/><path d="M81.6086 54.0683L78.6723 51.2332C77.6598 52.0432 76.6473 52.9545 75.6348 53.8658L78.4698 56.7008C79.5836 55.7895 80.5961 54.8783 81.6086 54.0683Z" fill="currentColor"/><path d="M68.0411 40.3992L66.7248 39.0829C65.7123 39.9942 64.6998 40.8042 63.6873 41.7155L65.0035 43.0318C66.016 42.1205 67.0285 41.3105 68.0411 40.3992Z" fill="currentColor"/><path d="M131.121 105.504C131.323 105.301 131.627 105.2 131.829 104.998V104.188L131.121 103.479V105.504Z" fill="currentColor"/><path d="M131.121 109.149L131.829 109.858V104.998C131.627 105.2 131.323 105.301 131.121 105.504V109.149Z" fill="currentColor"/><path d="M77.7612 79.0774C78.6725 78.1661 79.5837 77.1536 80.495 76.2423L69.3573 65.1047C68.4461 66.0159 67.5348 67.0284 66.6235 67.9397L77.7612 79.0774Z" fill="currentColor"/><path d="M119.882 121.198L128.083 129.399C128.994 128.387 129.905 127.476 130.817 126.463L122.615 118.262C121.704 119.173 120.793 120.186 119.882 121.198Z" fill="currentColor"/><path d="M63.7883 65.1047C64.6996 64.1935 65.6108 63.181 66.5221 62.2697L55.8907 51.6383C54.9794 52.5496 54.0682 53.5621 53.0557 54.4733L63.7883 65.1047Z" fill="currentColor"/><path d="M110.263 105.909C109.352 106.82 108.44 107.833 107.529 108.744L117.047 118.262C117.958 117.249 118.869 116.338 119.78 115.427L110.263 105.909Z" fill="currentColor"/><path d="M83.4313 79.1785C82.52 80.0898 81.6088 81.1023 80.6975 82.0136L91.7339 93.05C92.6452 92.0375 93.5564 91.1262 94.4677 90.2149L83.4313 79.1785Z" fill="currentColor"/><path d="M97.3026 92.9489C96.3914 93.8601 95.4801 94.8726 94.5688 95.7839L104.694 105.909C105.605 104.897 106.517 103.985 107.428 103.074L97.3026 92.9489Z" fill="currentColor"/><path d="M131.12 132.437V131.931C131.019 132.032 131.019 132.133 130.918 132.133L131.12 132.437Z" fill="currentColor"/><path d="M128.083 129.399L130.918 132.234C131.019 132.133 131.019 132.032 131.121 132.032V126.868L130.817 126.564C129.906 127.475 128.994 128.387 128.083 129.399Z" fill="currentColor"/><path d="M117.047 118.262L119.882 121.097C120.793 120.084 121.704 119.173 122.615 118.262L119.78 115.427C118.869 116.338 117.958 117.35 117.047 118.262Z" fill="currentColor"/><path d="M107.529 108.845C108.44 107.833 109.351 106.921 110.263 106.01L107.428 103.175C106.516 104.086 105.605 105.099 104.694 106.01L107.529 108.845Z" fill="currentColor"/><path d="M91.7336 92.9488L94.5687 95.7838C95.4799 94.7713 96.3912 93.8601 97.3025 92.9488L94.4674 90.1138C93.5562 91.025 92.5437 92.0375 91.7336 92.9488Z" fill="currentColor"/><path d="M80.6973 82.0137C81.6086 81.0012 82.5199 80.0899 83.4311 79.1787L80.5961 76.3436C79.6848 77.2549 78.7736 78.2674 77.8623 79.1787L80.6973 82.0137Z" fill="currentColor"/><path d="M66.7247 68.0409C67.636 67.1297 68.5472 66.1172 69.4585 65.2059L66.6234 62.3708C65.7122 63.2821 64.8009 64.2946 63.8896 65.2059L66.7247 68.0409Z" fill="currentColor"/><path d="M131.121 132.437L131.829 133.146V131.222C131.627 131.424 131.323 131.728 131.121 131.931V132.437Z" fill="currentColor"/><path d="M55.8909 51.6382L54.5746 50.3219C53.6633 51.2332 52.7521 52.2457 51.8408 53.1569L53.1571 54.4732C54.0684 53.4607 54.9796 52.5494 55.8909 51.6382Z" fill="currentColor"/><path d="M131.121 131.931C131.323 131.728 131.627 131.424 131.829 131.222V127.475L131.121 126.767V131.931Z" fill="currentColor"/><path d="M96.7964 122.312L106.415 131.931C107.124 130.817 107.934 129.703 108.643 128.589L99.0239 118.97C98.3152 120.084 97.5051 121.198 96.7964 122.312Z" fill="currentColor"/><path d="M117.755 143.372C118.464 142.157 119.173 141.043 119.882 139.93L111.478 131.526C110.668 132.639 109.959 133.753 109.25 134.867L117.755 143.372Z" fill="currentColor"/><path d="M52.5495 78.1661C53.3596 77.1535 54.1696 76.0398 55.0808 75.0273L44.3482 64.2946C43.5382 65.3071 42.6269 66.3196 41.8169 67.4334L52.5495 78.1661Z" fill="currentColor"/><path d="M85.9625 105.909C85.1525 107.023 84.3425 108.035 83.5325 109.149L93.7589 119.375C94.5689 118.262 95.2776 117.148 96.0876 116.135L85.9625 105.909Z" fill="currentColor"/><path d="M66.6234 92.2401C67.4334 91.2276 68.2434 90.1138 69.0535 89.1013L57.9158 77.9636C57.1058 78.9761 56.1945 80.0899 55.3845 81.1024L66.6234 92.2401Z" fill="currentColor"/><path d="M123.527 143.473L122.818 142.765C122.717 142.967 122.514 143.17 122.413 143.473H123.527Z" fill="currentColor"/><path d="M80.6975 106.314C81.5075 105.2 82.3175 104.188 83.1275 103.074L71.9899 91.9364C71.1798 92.9489 70.3698 94.0627 69.5598 95.0752L80.6975 106.314Z" fill="currentColor"/><path d="M119.983 139.929C119.274 141.043 118.464 142.258 117.857 143.372L117.958 143.473H122.514C122.616 143.271 122.818 143.068 122.919 142.764L119.983 139.929Z" fill="currentColor"/><path d="M108.643 128.589C107.833 129.703 107.124 130.817 106.415 131.931L109.352 134.867C110.06 133.753 110.87 132.639 111.579 131.526L108.643 128.589Z" fill="currentColor"/><path d="M96.7964 122.312C97.6064 121.198 98.3152 120.084 99.1252 118.97L96.1889 116.034C95.3789 117.148 94.5689 118.16 93.8601 119.274L96.7964 122.312Z" fill="currentColor"/><path d="M80.6975 106.314L83.6338 109.25C84.4438 108.137 85.2538 107.124 86.0638 106.01L83.1275 103.074C82.3175 104.087 81.5075 105.2 80.6975 106.314Z" fill="currentColor"/><path d="M69.5596 95.1764C70.3697 94.0626 71.1797 93.0501 71.9897 92.0376L69.1546 89.1013C68.3446 90.1138 67.5346 91.2276 66.7246 92.2401L69.5596 95.1764Z" fill="currentColor"/><path d="M57.9158 77.9636L54.9795 75.0273C54.1695 76.0399 53.2583 77.0524 52.4482 78.1661L55.3845 81.1024C56.2958 79.9887 57.1058 78.9762 57.9158 77.9636Z" fill="currentColor"/><path d="M44.348 64.2946L43.0318 62.9783C42.2218 63.9908 41.3105 65.0034 40.5005 66.1171L41.8168 67.4334C42.6268 66.3196 43.4368 65.3071 44.348 64.2946Z" fill="currentColor"/><path d="M30.7803 114.009C31.3879 112.693 31.9954 111.478 32.6029 110.162L21.364 99.0239C20.7565 100.239 20.0477 101.555 19.4402 102.77L30.7803 114.009Z" fill="currentColor"/><path d="M45.7657 128.994C46.272 127.678 46.8795 126.362 47.3857 125.046L35.5393 113.199C34.9318 114.515 34.3243 115.73 33.7168 117.047L45.7657 128.994Z" fill="currentColor"/><path d="M62.6745 140.233L50.5243 128.083C49.9168 129.399 49.4106 130.716 48.9043 132.133L60.2445 143.473H61.5607C61.8645 142.359 62.2695 141.246 62.6745 140.233Z" fill="currentColor"/><path d="M64.3959 147.625C64.3959 147.523 64.3959 147.422 64.4971 147.422H64.1934L64.3959 147.625Z" fill="currentColor"/><path d="M62.6746 140.233C62.2696 141.246 61.9658 142.36 61.5608 143.473H65.8134L62.6746 140.233Z" fill="currentColor"/><path d="M48.9044 132.133C49.4107 130.817 49.9169 129.501 50.5244 128.083L47.3856 124.944C46.7781 126.261 46.2719 127.577 45.7656 128.893L48.9044 132.133Z" fill="currentColor"/><path d="M33.8181 117.047C34.4256 115.73 35.0331 114.515 35.6406 113.199L32.603 110.162C31.9955 111.478 31.388 112.693 30.7805 114.009L33.8181 117.047Z" fill="currentColor"/><path d="M19.4402 102.669C20.0477 101.454 20.6552 100.138 21.364 98.9226L19.9465 97.5051C19.339 98.7201 18.6302 99.9352 18.0227 101.251L19.4402 102.669Z" fill="currentColor"/><path d="M40.5006 143.473H40.8044C41.2094 142.157 41.6144 140.739 42.0194 139.423L29.6667 127.071C29.1605 128.488 28.6542 129.804 28.1479 131.222L40.5006 143.473Z" fill="currentColor"/><path d="M25.009 127.982C25.5152 126.564 26.0215 125.248 26.5277 123.831L15.0863 112.389C14.4788 113.705 13.9726 115.022 13.4663 116.338L25.009 127.982Z" fill="currentColor"/><path d="M45.0569 143.473H46.1706L45.3606 142.663C45.1581 142.866 45.0569 143.17 45.0569 143.473Z" fill="currentColor"/><path d="M42.0192 139.322C41.6142 140.638 41.2092 142.056 40.8042 143.372H45.0568C45.158 143.068 45.2593 142.764 45.2593 142.562L42.0192 139.322Z" fill="currentColor"/><path d="M28.1478 131.121C28.6541 129.703 29.1603 128.387 29.6666 126.969L26.5278 123.831C26.0215 125.147 25.5153 126.564 25.009 127.982L28.1478 131.121Z" fill="currentColor"/><path d="M15.0864 112.389L13.6689 110.972C13.0613 112.288 12.5551 113.604 12.0488 114.92L13.5676 116.439C13.9726 115.022 14.4789 113.705 15.0864 112.389Z" fill="currentColor"/><path d="M20.0478 143.473H20.2503C20.6553 142.056 20.9591 140.638 21.3641 139.221L9.51768 127.273C9.01143 128.691 8.60642 130.108 8.20142 131.526L20.0478 143.473Z" fill="currentColor"/><path d="M24.7054 142.461C24.6041 142.764 24.5029 143.169 24.4016 143.473H25.6166L24.7054 142.461Z" fill="currentColor"/><path d="M24.7054 142.461L21.4653 139.221C21.0603 140.638 20.6553 142.056 20.3516 143.473H24.5029C24.5029 143.068 24.6041 142.764 24.7054 142.461Z" fill="currentColor"/><path d="M8.10025 131.526C8.50525 130.108 9.01151 128.691 9.41652 127.273L7.89774 125.754C7.39149 127.172 6.98648 128.589 6.48022 130.007L8.10025 131.526Z" fill="currentColor"/><path d="M51.9421 115.427C52.5496 114.212 53.2583 112.997 53.8659 111.782L42.4244 100.239C41.7157 101.454 41.0069 102.669 40.3994 103.783L51.9421 115.427Z" fill="currentColor"/><path d="M82.3175 140.132L71.5848 129.399C70.9773 130.716 70.3698 131.931 69.8635 133.247L79.9887 143.473H80.8999C81.4062 142.36 81.8112 141.246 82.3175 140.132Z" fill="currentColor"/><path d="M37.3618 100.846C38.0706 99.6314 38.6781 98.4164 39.3869 97.3026L28.4517 86.3675C27.743 87.5825 27.0342 88.6963 26.3254 89.9113L37.3618 100.846Z" fill="currentColor"/><path d="M85.355 143.473H85.6587L85.4562 143.271C85.355 143.271 85.355 143.372 85.355 143.473Z" fill="currentColor"/><path d="M66.7247 130.209C67.3322 128.893 67.9397 127.678 68.5472 126.362L56.9033 114.819C56.1945 116.034 55.587 117.249 54.9795 118.565L66.7247 130.209Z" fill="currentColor"/><path d="M82.3174 140.132C81.8112 141.246 81.4062 142.36 80.8999 143.473H85.2537C85.2537 143.372 85.355 143.271 85.355 143.271L82.3174 140.132Z" fill="currentColor"/><path d="M68.5471 126.362C67.9396 127.577 67.3321 128.893 66.7246 130.209L69.7622 133.247C70.3697 131.931 70.8759 130.614 71.4834 129.399L68.5471 126.362Z" fill="currentColor"/><path d="M56.9032 114.718L53.8657 111.68C53.1569 112.895 52.5494 114.11 51.9419 115.325L54.9794 118.363C55.6882 117.249 56.2957 115.933 56.9032 114.718Z" fill="currentColor"/><path d="M42.4245 100.239L39.4882 97.3026C38.7794 98.5176 38.0706 99.6314 37.4631 100.846L40.3994 103.783C41.0069 102.669 41.7157 101.454 42.4245 100.239Z" fill="currentColor"/><path d="M28.4516 86.3675L27.1353 85.0512C26.4266 86.165 25.7178 87.38 25.009 88.595L26.3253 89.9113C27.0341 88.6963 27.7428 87.4812 28.4516 86.3675Z" fill="currentColor"/><path d="M91.9364 129.906C91.2276 131.121 90.6201 132.336 89.9114 133.551L99.834 143.372H99.9353C100.543 142.157 101.15 140.942 101.758 139.727L91.9364 129.906Z" fill="currentColor"/><path d="M73.5086 117.148C74.2174 115.933 74.9261 114.819 75.6349 113.604L64.396 102.365C63.6872 103.479 62.8772 104.593 62.1685 105.808L73.5086 117.148Z" fill="currentColor"/><path d="M104.491 143.473H105.504L104.795 142.765C104.694 142.967 104.593 143.17 104.491 143.473Z" fill="currentColor"/><path d="M78.5711 116.54C77.8623 117.654 77.1536 118.869 76.4448 120.084L86.8737 130.513C87.5825 129.298 88.19 128.083 88.8988 126.868L78.5711 116.54Z" fill="currentColor"/><path d="M59.232 102.871C59.9408 101.758 60.7508 100.644 61.4595 99.4288L50.2206 88.1899C49.4106 89.3037 48.7019 90.4175 47.8918 91.5312L59.232 102.871Z" fill="currentColor"/><path d="M44.9557 88.5949C45.6645 87.4812 46.4745 86.3674 47.2845 85.2536L36.4506 74.4197C35.6406 75.5335 34.9318 76.6473 34.1218 77.761L44.9557 88.5949Z" fill="currentColor"/><path d="M101.859 139.727C101.251 140.942 100.644 142.157 100.036 143.372H104.593C104.694 143.17 104.795 142.967 104.896 142.663L101.859 139.727Z" fill="currentColor"/><path d="M89.0001 126.969C88.2914 128.184 87.5826 129.399 86.9751 130.614L90.0126 133.652C90.6201 132.437 91.3289 131.222 92.0377 130.007L89.0001 126.969Z" fill="currentColor"/><path d="M75.6348 113.604C74.9261 114.718 74.2173 115.933 73.5085 117.148L76.4448 120.084C77.1536 118.869 77.8624 117.755 78.5711 116.54L75.6348 113.604Z" fill="currentColor"/><path d="M62.1685 105.808C62.8772 104.694 63.586 103.479 64.396 102.365L61.4597 99.4288C60.6497 100.543 59.9409 101.656 59.2322 102.871L62.1685 105.808Z" fill="currentColor"/><path d="M47.8919 91.5312C48.6006 90.4174 49.4106 89.3037 50.2206 88.1899L47.2843 85.2536C46.4743 86.3674 45.7656 87.4811 44.9556 88.5949L47.8919 91.5312Z" fill="currentColor"/><path d="M36.4505 74.4197L35.1342 73.1035C34.3242 74.2172 33.5142 75.331 32.8054 76.3435L34.1217 77.6598C34.8304 76.6473 35.6405 75.5335 36.4505 74.4197Z" fill="currentColor"/><path d="M147.422 140.436C144.891 136.487 142.056 132.842 138.917 129.399L136.082 132.234C139.221 135.677 142.056 139.423 144.587 143.372L147.422 140.436Z" fill="currentColor"/><path d="M135.879 126.159V126.767L136.183 126.463C136.082 126.362 135.981 126.261 135.879 126.159Z" fill="currentColor"/><path d="M158.661 129.197C156.029 125.45 153.092 121.805 149.953 118.363L147.118 121.198C150.257 124.64 153.193 128.286 155.826 132.133L158.661 129.197Z" fill="currentColor"/><path d="M144.385 118.262L147.22 115.427C147.118 115.325 147.017 115.224 146.916 115.123C144.081 112.288 141.043 109.554 137.904 107.124L135.879 109.149V110.567C138.816 112.997 141.651 115.528 144.385 118.262Z" fill="currentColor"/><path d="M162.205 142.765L165.242 139.727C163.926 137.297 162.509 134.867 160.99 132.538L158.053 135.474C159.471 137.803 160.888 140.233 162.205 142.765Z" fill="currentColor"/><path d="M178 126.969C176.582 124.641 175.064 122.312 173.545 119.983L170.609 122.919C172.127 125.248 173.646 127.577 174.962 130.007L178 126.969Z" fill="currentColor"/><path d="M180.025 130.513L176.988 133.551C178.608 136.689 180.126 139.93 181.544 143.17L184.581 140.132C183.265 136.892 181.746 133.652 180.025 130.513Z" fill="currentColor"/><path d="M156.737 105.909L159.572 103.074C159.471 102.973 159.37 102.871 159.269 102.77C156.434 99.9351 153.396 97.2013 150.358 94.67L147.523 97.5051C150.662 100.239 153.801 102.973 156.737 105.909Z" fill="currentColor"/><path d="M144.283 95.0752L147.22 92.2402C144.283 90.0126 141.144 87.7851 138.006 85.8613L135.879 87.9876V89.3039C138.714 91.1264 141.549 93.0502 144.283 95.0752Z" fill="currentColor"/><path d="M168.28 119.578L171.216 116.642C168.482 112.895 165.546 109.352 162.306 105.909L159.471 108.744C162.61 112.187 165.546 115.832 168.28 119.578Z" fill="currentColor"/><path d="M144.891 73.306L147.827 70.3697C144.688 68.3447 141.347 66.5222 138.107 64.8009L135.879 67.0284V68.2435C138.917 69.7622 141.954 71.4835 144.891 73.306Z" fill="currentColor"/><path d="M157.345 82.0136L160.18 79.1785C157.243 76.8497 154.307 74.6222 151.168 72.5972L148.232 75.5335C151.371 77.5585 154.408 79.6848 157.345 82.0136Z" fill="currentColor"/><path d="M200.275 130.209L197.238 133.247C198.655 136.588 200.073 139.929 201.187 143.372L204.325 140.233C203.11 136.791 201.794 133.449 200.275 130.209Z" fill="currentColor"/><path d="M181.443 106.517L184.379 103.58C181.544 99.9352 178.608 96.3914 175.368 92.9489L172.532 95.7839C175.57 99.2264 178.608 102.77 181.443 106.517Z" fill="currentColor"/><path d="M191.365 113.604C189.948 111.275 188.328 109.048 186.708 106.82L183.771 109.756C185.391 111.984 186.91 114.313 188.328 116.642L191.365 113.604Z" fill="currentColor"/><path d="M198.453 126.362C196.934 123.223 195.213 120.185 193.491 117.148L190.555 120.084C192.276 123.122 193.998 126.159 195.517 129.399L198.453 126.362Z" fill="currentColor"/><path d="M169.697 92.9487L172.532 90.1137C172.431 90.0125 172.33 89.9112 172.229 89.8099C169.394 86.9749 166.356 84.2411 163.318 81.6086L160.483 84.4436C163.622 87.1774 166.761 90.0125 169.697 92.9487Z" fill="currentColor"/><path d="M204.832 105.808C206.654 108.744 208.477 111.68 210.097 114.718L213.134 111.68C211.514 108.643 209.692 105.707 207.869 102.77L204.832 105.808Z" fill="currentColor"/><path d="M197.845 95.6825C199.465 97.91 201.085 100.138 202.604 102.365L205.54 99.4288C204.022 97.2013 202.402 94.9737 200.782 92.7462L197.845 95.6825Z" fill="currentColor"/><path d="M186.302 82.0136C189.441 85.3549 192.479 88.8987 195.415 92.5437L198.351 89.6074C195.516 85.9624 192.479 82.5198 189.239 79.0773L186.302 82.0136Z" fill="currentColor"/><path d="M218.095 132.133C219.412 135.576 220.627 139.018 221.741 142.562L224.981 139.322C223.867 135.778 222.652 132.336 221.234 128.994L218.095 132.133Z" fill="currentColor"/><path d="M216.476 128.083L219.614 124.944C218.197 121.704 216.678 118.464 215.058 115.325L212.021 118.363C213.539 121.603 215.058 124.843 216.476 128.083Z" fill="currentColor"/><path d="M139.423 43.6393L136.386 46.6769C139.626 48.0944 142.765 49.6132 145.903 51.3345L148.941 48.2969C145.802 46.5756 142.663 45.0569 139.423 43.6393Z" fill="currentColor"/><path d="M159.066 59.1308L162.002 56.1945C158.965 54.1695 155.725 52.1444 152.586 50.3219L149.548 53.3594C152.788 55.0807 156.028 57.1057 159.066 59.1308Z" fill="currentColor"/><path d="M174.355 70.6735C177.494 73.4073 180.531 76.2424 183.468 79.1787L186.303 76.3436C186.201 76.2424 186.1 76.1411 185.999 76.0399C183.164 73.2048 180.228 70.471 177.19 67.8385L174.355 70.6735Z" fill="currentColor"/><path d="M174.254 65.2059C171.419 62.8771 168.381 60.6496 165.445 58.5233L162.509 61.4596C165.546 63.5859 168.482 65.8134 171.419 68.1422L174.254 65.2059Z" fill="currentColor"/><path d="M160.484 36.7543L163.42 33.818C160.382 32.0967 157.345 30.3755 154.206 28.8567L151.168 31.8942C154.409 33.3118 157.446 35.033 160.484 36.7543Z" fill="currentColor"/><path d="M136.082 25.1103C139.929 26.6291 143.777 28.2491 147.523 29.9704L150.561 26.9328C148.232 25.819 145.903 24.7053 143.473 23.6928C142.056 23.0853 140.638 22.4778 139.221 21.9715L136.082 25.1103Z" fill="currentColor"/><path d="M197.542 65.1047L200.377 62.2696C200.275 62.1684 200.174 62.0671 200.073 61.9659C197.238 59.1309 194.302 56.3971 191.264 53.7645L188.429 56.5996C191.568 59.3334 194.605 62.1684 197.542 65.1047Z" fill="currentColor"/><path d="M200.275 68.041C203.414 71.3823 206.553 74.8248 209.388 78.4699L212.324 75.5336C209.388 71.9898 206.35 68.446 203.11 65.1047L200.275 68.041Z" fill="currentColor"/><path d="M233.182 117.047C234.701 120.287 236.017 123.628 237.333 127.071L240.472 123.932C239.763 122.211 239.055 120.489 238.346 118.667C237.637 117.047 236.928 115.528 236.22 113.908L233.182 117.047Z" fill="currentColor"/><path d="M219.108 91.5313C221.032 94.3663 222.854 97.3026 224.575 100.239L227.512 97.3026C225.791 94.3663 223.968 91.43 222.044 88.595L219.108 91.5313Z" fill="currentColor"/><path d="M185.391 54.0683L188.226 51.2333C185.391 48.9045 182.455 46.5757 179.519 44.3482L176.583 47.2845C179.62 49.4108 182.556 51.6383 185.391 54.0683Z" fill="currentColor"/><path d="M216.779 88.1899L219.716 85.2536C218.096 83.0261 216.475 80.7985 214.855 78.6722L211.919 81.6085C213.64 83.7348 215.26 85.9623 216.779 88.1899Z" fill="currentColor"/><path d="M231.461 113.199L234.498 110.162C232.98 107.023 231.359 103.884 229.638 100.846L226.702 103.783C228.322 106.921 229.942 109.959 231.461 113.199Z" fill="currentColor"/><path d="M173.343 44.8543L176.279 41.918C173.241 39.7918 170.204 37.7667 167.065 35.843L164.129 38.7792C167.267 40.703 170.305 42.7281 173.343 44.8543Z" fill="currentColor"/><path d="M238.852 131.121C240.168 134.867 241.282 138.613 242.295 142.36L245.535 139.12C244.421 135.373 243.307 131.627 241.991 127.982L238.852 131.121Z" fill="currentColor"/><path d="M135.171 20.4527L135.879 19.7439V4.96123C139.524 6.17625 143.17 7.49252 146.713 9.01129L148.232 7.49252C143.98 5.77125 139.626 4.15122 135.171 2.7337V20.4527Z" fill="currentColor"/><path d="M257.482 127.273L259.001 125.754C257.786 122.109 256.47 118.565 255.052 115.022L253.533 116.54C254.951 119.983 256.267 123.628 257.482 127.273Z" fill="currentColor"/><path d="M238.548 86.3675L239.865 85.0512C238.042 82.1149 236.219 79.2799 234.194 76.4448L232.878 77.7611C234.802 80.5961 236.726 83.4312 238.548 86.3675Z" fill="currentColor"/><path d="M161.698 15.7953L163.116 14.3777C159.471 12.5552 155.826 10.7327 152.08 9.11267L150.561 10.6314C154.408 12.2515 158.053 13.9727 161.698 15.7953Z" fill="currentColor"/><path d="M187.011 31.1854L188.328 29.8691C185.391 27.7429 182.354 25.6166 179.215 23.6928L177.798 25.0091C181.038 26.9329 184.075 29.0591 187.011 31.1854Z" fill="currentColor"/><path d="M258.799 131.526C260.014 135.474 261.026 139.423 262.039 143.473H264.064C263.051 138.917 261.735 134.462 260.419 130.007L258.799 131.526Z" fill="currentColor"/><path d="M174.456 22.8829L175.874 21.4653C172.937 19.6428 169.9 17.9215 166.862 16.3015L165.445 17.719C168.482 19.3391 171.52 21.0603 174.456 22.8829Z" fill="currentColor"/><path d="M211.109 51.6382L212.425 50.3219C209.489 47.3856 206.452 44.5506 203.313 41.7155L201.997 43.0318C205.135 45.7656 208.173 48.7019 211.109 51.6382Z" fill="currentColor"/><path d="M135.879 61.3584V47.1832L135.171 47.8919V62.0671L135.879 61.3584Z" fill="currentColor"/><path d="M223.057 64.8008L224.373 63.4846C221.437 59.9408 218.298 56.4982 215.159 53.1569L213.843 54.4732C217.083 57.8145 220.121 61.257 223.057 64.8008Z" fill="currentColor"/><path d="M135.879 41.6142V25.414L135.171 26.1228V41.7155C135.272 41.8167 135.474 41.8167 135.576 41.918L135.879 41.6142Z" fill="currentColor"/><path d="M245.636 98.9227L247.053 97.5052C245.433 94.4677 243.712 91.4301 241.991 88.3926L240.675 89.7088C242.396 92.8476 244.016 95.8852 245.636 98.9227Z" fill="currentColor"/><path d="M247.56 102.669C249.079 105.808 250.597 109.048 252.015 112.389L253.432 110.971C252.015 107.731 250.496 104.491 248.977 101.353L247.56 102.669Z" fill="currentColor"/><path d="M230.549 74.4198L231.866 73.1036C230.246 70.876 228.626 68.7498 226.904 66.6235L225.588 67.9397C227.309 70.066 228.929 72.1923 230.549 74.4198Z" fill="currentColor"/><path d="M148.131 7.39138C149.447 7.89764 150.763 8.50515 152.08 9.11266C155.826 10.7327 159.471 12.454 163.116 14.3777C164.331 14.9852 165.546 15.694 166.761 16.3015C169.799 17.9215 172.836 19.6428 175.772 21.4653C176.886 22.1741 178.101 22.8828 179.215 23.5916C182.354 25.6166 185.391 27.6417 188.328 29.7679C189.441 30.578 190.454 31.388 191.568 32.198C194.504 34.4255 197.44 36.7543 200.174 39.0831C201.187 39.9943 202.199 40.8043 203.212 41.7156C206.35 44.4494 209.388 47.2844 212.324 50.322C213.235 51.2332 214.147 52.2458 215.058 53.157C218.298 56.4983 221.336 59.9409 224.272 63.4847C225.082 64.4972 225.993 65.5097 226.803 66.6235C228.524 68.7497 230.144 70.876 231.765 73.1035C232.575 74.2173 233.385 75.3311 234.093 76.3436C236.017 79.1786 237.941 82.0137 239.763 84.95C240.472 86.0637 241.181 87.2787 241.89 88.4938C243.611 91.4301 245.332 94.4676 246.952 97.6064C247.56 98.8214 248.268 100.036 248.876 101.353C250.496 104.491 251.914 107.732 253.331 110.972C253.939 112.288 254.445 113.604 254.951 114.92C256.369 118.464 257.685 122.008 258.9 125.653C259.406 127.071 259.811 128.488 260.317 129.906C261.735 134.361 262.95 138.816 263.962 143.372H265.988C258.9 112.085 244.016 83.0262 222.753 58.5233C199.263 31.5905 168.989 11.5427 135.171 0.506287V2.63257C139.524 4.05009 143.878 5.67011 148.131 7.39138Z" fill="currentColor"/><path d="M135.879 132.437L135.171 133.146V143.473H135.879V132.437Z" fill="currentColor"/><path d="M198.959 40.3994L200.275 39.0832C197.44 36.6531 194.605 34.4256 191.669 32.1981L190.353 33.5143C193.289 35.7419 196.124 38.0706 198.959 40.3994Z" fill="currentColor"/><path d="M135.879 110.668C135.677 110.465 135.373 110.263 135.171 110.162V125.552C135.373 125.754 135.677 125.957 135.879 126.261V110.668Z" fill="currentColor"/><path d="M135.879 68.2434C135.677 68.1421 135.373 68.0409 135.171 67.9396V83.1273L135.879 82.4186V68.2434Z" fill="currentColor"/><path d="M135.879 89.3038C135.677 89.2026 135.373 89.0001 135.171 88.8988V104.289L135.879 103.58V89.3038Z" fill="currentColor"/><path d="M131.829 0.506257V2.63254C132.234 2.53129 132.741 2.32878 133.146 2.22753V20.0478V21.7691V24.3003V27.3379V41.1081V43.5381V45.5631V49.2082V62.6746V63.3834V67.2309V69.0535V83.4312V84.4437V88.0887V90.0125V104.086V105.605V109.149V111.275V124.438V128.994V130.007V134.563V143.575H133.854V134.563V130.007V128.994V124.438V111.275V109.149V105.605V104.086V90.0125V88.0887V84.3424V83.3299V69.0535V67.2309V63.3834V62.6746V49.2082V45.5631V43.5381V41.1081V27.3379V24.3003V21.7691V20.0478V2.22753C134.259 2.32878 134.766 2.53129 135.171 2.63254V0.506257C134.968 0.405006 134.664 0.303754 134.462 0.303754L133.449 0L132.538 0.303754C132.336 0.405006 132.032 0.506257 131.829 0.506257Z" fill="currentColor"/><path d="M131.829 67.8385V83.0262L132.538 83.735C132.741 83.6337 132.943 83.5325 133.146 83.33V69.0535L131.931 67.8385C131.931 67.8385 131.931 67.8385 131.829 67.8385Z" fill="currentColor"/><path d="M135.171 26.0216L133.854 27.3379V41.1081C134.259 41.3106 134.766 41.4118 135.171 41.6143V26.0216Z" fill="currentColor"/><path d="M131.829 41.7156C132.234 41.5131 132.741 41.3106 133.146 41.2093V27.3379L131.829 26.0216V41.7156Z" fill="currentColor"/><path d="M131.829 110.06V125.552C132.234 125.147 132.741 124.742 133.146 124.337V111.174L131.931 109.959C131.931 109.959 131.931 110.06 131.829 110.06Z" fill="currentColor"/><path d="M131.829 88.7974V104.188L132.234 104.593C132.538 104.39 132.842 104.188 133.044 103.985V90.0124L131.829 88.7974C131.931 88.7974 131.931 88.7974 131.829 88.7974Z" fill="currentColor"/><path d="M135.171 83.0262V67.8385C135.171 67.8385 135.07 67.8385 135.07 67.7372L133.854 68.9523V83.33C134.057 83.4312 134.26 83.5325 134.462 83.735L135.171 83.0262Z" fill="currentColor"/><path d="M131.829 62.0672L132.639 62.8772C132.842 62.7759 132.943 62.7759 133.146 62.6747V49.2082L131.829 47.892V62.0672Z" fill="currentColor"/><path d="M131.829 143.473H133.146V134.462L131.829 133.146V143.473Z" fill="currentColor"/><path d="M135.171 110.06L135.07 109.959L133.854 111.174V124.337C134.259 124.742 134.766 125.147 135.171 125.552V110.06Z" fill="currentColor"/><path d="M131.829 20.4527C132.336 20.3515 132.741 20.149 133.146 20.0477V2.22748C132.741 2.32873 132.234 2.53123 131.829 2.63248V20.4527Z" fill="currentColor"/><path d="M135.171 104.188V88.7975C135.171 88.7975 135.07 88.7975 135.07 88.6963L133.854 89.9113V103.985C134.158 104.188 134.462 104.39 134.665 104.593L135.171 104.188Z" fill="currentColor"/><path d="M135.171 62.0672V47.892L133.854 49.2082V62.6747C134.057 62.7759 134.158 62.7759 134.361 62.8772L135.171 62.0672Z" fill="currentColor"/><path d="M135.171 133.146L133.854 134.462V143.473H135.171V133.146Z" fill="currentColor"/><path d="M135.171 20.4527V2.63248C134.766 2.53123 134.259 2.32873 133.854 2.22748V20.0477C134.259 20.149 134.665 20.3515 135.171 20.4527Z" fill="currentColor"/><path d="M131.829 127.475L133.146 128.792V124.235C132.741 124.64 132.234 125.045 131.829 125.45V127.475Z" fill="currentColor"/><path d="M133.146 105.504V103.985C132.842 104.188 132.538 104.39 132.336 104.593L133.146 105.504Z" fill="currentColor"/><path d="M131.931 109.959L131.829 109.858V110.06C131.931 110.06 131.931 109.959 131.931 109.959Z" fill="currentColor"/><path d="M133.146 84.3425V83.33C132.943 83.4313 132.741 83.5325 132.538 83.735L133.146 84.3425Z" fill="currentColor"/><path d="M131.931 88.7975L131.829 88.6963V88.8988C131.931 88.7975 131.931 88.7975 131.931 88.7975Z" fill="currentColor"/><path d="M133.146 63.3834V62.6747C132.943 62.7759 132.842 62.7759 132.639 62.8772L133.146 63.3834Z" fill="currentColor"/><path d="M131.931 67.8392L131.829 67.7372V67.8392C131.931 67.8392 131.931 67.8392 131.931 67.8392Z" fill="currentColor"/><path d="M131.829 42.3231L133.146 43.6394V41.2094C132.741 41.4119 132.234 41.5131 131.829 41.7156V42.3231Z" fill="currentColor"/><path d="M133.146 21.7691V20.0478C132.741 20.149 132.336 20.3515 131.931 20.4528L133.146 21.7691Z" fill="currentColor"/><path d="M131.829 26.0217L133.146 27.338V24.3004C132.741 24.5029 132.234 24.6042 131.829 24.8067V26.0217Z" fill="currentColor"/><path d="M131.829 20.4527V24.7053C132.234 24.5028 132.741 24.4015 133.146 24.199V21.6677L131.829 20.4527Z" fill="currentColor"/><path d="M131.829 47.8919L133.146 49.2082V45.5631C132.741 45.7656 132.234 45.9681 131.829 46.1706V47.8919Z" fill="currentColor"/><path d="M131.829 46.1706C132.234 45.9681 132.741 45.7656 133.146 45.5631V43.5381L131.829 42.2218V46.1706Z" fill="currentColor"/><path d="M133.146 69.0535V67.231C132.741 67.4335 132.336 67.636 131.931 67.8385L133.146 69.0535Z" fill="currentColor"/><path d="M132.741 62.9783L131.931 62.1683V63.3833C132.133 63.1808 132.437 63.0796 132.741 62.9783Z" fill="currentColor"/><path d="M131.829 63.3833V67.7371L131.931 67.8384C132.336 67.6359 132.741 67.4334 133.146 67.2309V63.3833L132.639 62.8771C132.437 63.0796 132.133 63.1808 131.829 63.3833Z" fill="currentColor"/><path d="M132.538 83.7349L131.829 83.0261V84.1399C132.032 83.9374 132.336 83.8361 132.538 83.7349Z" fill="currentColor"/><path d="M133.146 90.0125V88.0887C132.741 88.2912 132.336 88.5949 131.931 88.7974L133.146 90.0125Z" fill="currentColor"/><path d="M131.829 84.1398V88.6961L131.931 88.7974C132.336 88.5949 132.741 88.2911 133.146 88.0886V84.3423L132.538 83.7348C132.336 83.8361 132.032 83.9373 131.829 84.1398Z" fill="currentColor"/><path d="M132.336 104.694L131.931 104.289V105.099C132.032 104.896 132.133 104.795 132.336 104.694Z" fill="currentColor"/><path d="M133.146 111.174V109.048C132.741 109.351 132.336 109.655 131.931 109.959L133.146 111.174Z" fill="currentColor"/><path d="M131.829 104.998V109.858L131.931 109.959C132.336 109.655 132.741 109.352 133.146 109.048V105.504L132.336 104.694C132.133 104.795 132.032 104.896 131.829 104.998Z" fill="currentColor"/><path d="M131.829 133.146L133.146 134.462V129.906C132.741 130.311 132.234 130.817 131.829 131.222V133.146Z" fill="currentColor"/><path d="M131.829 131.222C132.234 130.716 132.639 130.311 133.146 129.906V128.893L131.829 127.577V131.222Z" fill="currentColor"/><path d="M135.879 126.159C135.677 125.957 135.373 125.754 135.171 125.451V127.476L135.879 126.767V126.159Z" fill="currentColor"/><path d="M135.171 125.552C134.766 125.147 134.259 124.742 133.854 124.337V128.893L135.171 127.577V125.552Z" fill="currentColor"/><path d="M135.879 109.149L135.171 109.858V110.06C135.373 110.263 135.677 110.465 135.879 110.567V109.149Z" fill="currentColor"/><path d="M133.854 104.087V105.605L134.665 104.795C134.462 104.492 134.158 104.289 133.854 104.087Z" fill="currentColor"/><path d="M135.069 109.959L135.171 110.06V109.858L135.069 109.959Z" fill="currentColor"/><path d="M135.879 87.9875L135.171 88.6963V88.8988C135.373 89.0001 135.677 89.2026 135.879 89.3038V87.9875Z" fill="currentColor"/><path d="M133.854 83.33V84.3425L134.462 83.735C134.26 83.6338 134.057 83.4313 133.854 83.33Z" fill="currentColor"/><path d="M135.069 88.7975C135.069 88.7975 135.171 88.7975 135.171 88.8988V88.6963L135.069 88.7975Z" fill="currentColor"/><path d="M135.879 67.0284L135.171 67.7371V67.8384C135.373 67.9396 135.677 68.0409 135.879 68.1422V67.0284Z" fill="currentColor"/><path d="M133.854 62.6747V63.3834L134.361 62.8772C134.158 62.8772 133.956 62.7759 133.854 62.6747Z" fill="currentColor"/><path d="M135.069 67.8385C135.069 67.8385 135.171 67.8385 135.171 67.9397V67.7372L135.069 67.8385Z" fill="currentColor"/><path d="M135.171 41.7155V42.323L135.576 41.918C135.373 41.8168 135.272 41.7155 135.171 41.7155Z" fill="currentColor"/><path d="M135.171 41.7156C134.766 41.5131 134.259 41.3106 133.854 41.2094V43.6394L135.171 42.3231V41.7156Z" fill="currentColor"/><path d="M133.854 20.0478V21.7691L135.07 20.554C134.665 20.3515 134.259 20.149 133.854 20.0478Z" fill="currentColor"/><path d="M135.879 25.0091V25.3128L136.082 25.1103C135.981 25.1103 135.879 25.1103 135.879 25.0091Z" fill="currentColor"/><path d="M139.221 22.0728L150.662 10.6314C149.346 10.0239 148.03 9.51767 146.713 9.01141L135.879 19.8453V20.8578C136.993 21.1616 138.107 21.5666 139.221 22.0728Z" fill="currentColor"/><path d="M139.221 22.0727C138.107 21.6677 136.993 21.1615 135.879 20.7565V25.009C135.981 25.009 136.082 25.1103 136.082 25.1103L139.221 22.0727Z" fill="currentColor"/><path d="M150.662 10.6314L152.181 9.11263C150.865 8.50512 149.548 7.99887 148.232 7.39136L146.713 8.91013C147.928 9.51764 149.346 10.0239 150.662 10.6314Z" fill="currentColor"/><path d="M135.879 25.0091C135.677 24.9078 135.373 24.8066 135.171 24.7053V26.0216L135.879 25.3128V25.0091Z" fill="currentColor"/><path d="M135.879 19.744L135.171 20.4528V20.554C135.373 20.6553 135.677 20.7565 135.879 20.8578V19.744Z" fill="currentColor"/><path d="M135.171 24.8067C134.766 24.6042 134.259 24.5029 133.854 24.3004V27.338L135.171 26.0217V24.8067Z" fill="currentColor"/><path d="M135.879 20.7565C135.677 20.6552 135.373 20.5539 135.171 20.4527V24.7053C135.373 24.8065 135.677 24.9078 135.879 25.009V20.7565Z" fill="currentColor"/><path d="M135.171 20.4527C135.171 20.4527 135.07 20.4527 135.171 20.4527L133.854 21.6677V24.3003C134.259 24.5028 134.766 24.604 135.171 24.8065V20.4527Z" fill="currentColor"/><path d="M136.386 46.6769C136.183 46.5757 135.981 46.4744 135.879 46.4744V47.2844L136.386 46.6769Z" fill="currentColor"/><path d="M139.423 43.6392L151.27 31.8941C150.055 31.2865 148.739 30.679 147.422 30.0715L135.778 41.7154V42.1205C137.095 42.5255 138.31 43.0317 139.423 43.6392Z" fill="currentColor"/><path d="M150.46 26.9328C151.776 27.5403 152.991 28.1478 154.206 28.7553L165.344 17.6177C164.129 17.0102 162.914 16.3014 161.597 15.6939L150.46 26.9328Z" fill="currentColor"/><path d="M136.386 46.6769L139.423 43.6393C138.208 43.1331 136.993 42.5255 135.778 42.0193V46.4744C135.981 46.4744 136.183 46.5756 136.386 46.6769Z" fill="currentColor"/><path d="M151.27 31.7929L154.307 28.7553C153.092 28.1478 151.776 27.5403 150.561 26.9328L147.523 29.9703C148.738 30.5779 150.055 31.1854 151.27 31.7929Z" fill="currentColor"/><path d="M165.344 17.7189L166.761 16.3014C165.546 15.5926 164.331 14.9851 163.116 14.3776L161.698 15.7951C162.914 16.4027 164.129 17.0102 165.344 17.7189Z" fill="currentColor"/><path d="M135.576 41.918C135.677 41.918 135.778 42.0193 135.879 42.0193V41.6143L135.576 41.918Z" fill="currentColor"/><path d="M135.879 46.4744C135.677 46.3732 135.373 46.2719 135.171 46.1707V47.9932L135.879 47.2844V46.4744Z" fill="currentColor"/><path d="M135.171 46.1706C134.766 45.9681 134.259 45.7656 133.854 45.5631V49.2082L135.171 47.8919V46.1706Z" fill="currentColor"/><path d="M135.879 42.0194C135.778 42.0194 135.677 41.9182 135.576 41.9182L135.171 42.3232V46.1707C135.373 46.272 135.677 46.3732 135.879 46.4745V42.0194Z" fill="currentColor"/><path d="M135.171 42.3231L133.854 43.6393V45.6644C134.259 45.8669 134.766 46.0694 135.171 46.2719V42.3231Z" fill="currentColor"/><path d="M148.941 48.297C150.156 48.9045 151.371 49.6133 152.586 50.322L164.027 38.8806C162.812 38.1719 161.699 37.4631 160.484 36.7543L148.941 48.297Z" fill="currentColor"/><path d="M149.549 53.2582C148.333 52.5495 147.118 51.942 145.903 51.2332L135.778 61.3584V63.6871C136.487 64.0921 137.297 64.3959 138.006 64.8009L149.549 53.2582Z" fill="currentColor"/><path d="M163.521 33.8179C164.736 34.5267 165.85 35.2354 167.065 35.9442L178 25.009C176.886 24.3003 175.671 23.5915 174.557 22.8828L163.521 33.8179Z" fill="currentColor"/><path d="M138.107 64.8009C137.398 64.3959 136.588 64.0921 135.879 63.6871V67.0284L138.107 64.8009Z" fill="currentColor"/><path d="M148.941 48.2969L145.903 51.3344C147.118 51.9419 148.333 52.6507 149.548 53.3594L152.586 50.3219C151.371 49.6131 150.156 48.9044 148.941 48.2969Z" fill="currentColor"/><path d="M164.027 38.8806L166.963 35.9443C165.748 35.2355 164.635 34.5268 163.42 33.818L160.483 36.7543C161.698 37.463 162.913 38.1718 164.027 38.8806Z" fill="currentColor"/><path d="M177.899 25.0091L179.316 23.6929C178.202 22.9841 176.987 22.2753 175.874 21.5666L174.456 22.9841C175.57 23.4904 176.785 24.3004 177.899 25.0091Z" fill="currentColor"/><path d="M135.879 61.3584L135.171 62.0672V63.2822C135.373 63.3834 135.677 63.4847 135.879 63.5859V61.3584Z" fill="currentColor"/><path d="M134.259 62.9783C134.563 63.0796 134.867 63.2821 135.069 63.3833V62.1683L134.259 62.9783Z" fill="currentColor"/><path d="M133.854 67.231V69.0535L135.07 67.8385C134.665 67.636 134.259 67.4335 133.854 67.231Z" fill="currentColor"/><path d="M135.879 63.6871C135.677 63.5859 135.373 63.4846 135.171 63.3834V67.7372L135.879 67.0284V63.6871Z" fill="currentColor"/><path d="M135.171 67.7371V63.3833C134.867 63.2821 134.563 63.0796 134.361 62.9783L133.854 63.4846V67.3321C134.259 67.5346 134.665 67.7371 135.07 67.9396L135.171 67.7371Z" fill="currentColor"/><path d="M162.002 56.1945C163.116 56.9033 164.23 57.7133 165.343 58.5233L176.582 47.2844C175.469 46.4744 174.355 45.6644 173.342 44.9556L162.002 56.1945Z" fill="currentColor"/><path d="M138.006 85.8612L148.333 75.5336C147.22 74.8248 146.005 74.0148 144.891 73.306L135.879 82.3174V84.4437C136.588 84.9499 137.297 85.355 138.006 85.8612Z" fill="currentColor"/><path d="M162.407 61.3584C161.294 60.5484 160.18 59.8396 159.066 59.0296L147.827 70.3698C148.941 71.0785 150.156 71.7873 151.27 72.5973L162.407 61.3584Z" fill="currentColor"/><path d="M176.279 41.9181C177.393 42.7281 178.506 43.4368 179.519 44.2469L190.353 33.5142C189.239 32.7042 188.226 31.8942 187.113 31.0842L176.279 41.9181Z" fill="currentColor"/><path d="M138.006 85.8612C137.297 85.4562 136.588 84.9499 135.879 84.5449V87.9875L138.006 85.8612Z" fill="currentColor"/><path d="M147.827 70.3698L144.891 73.3061C146.005 74.0149 147.22 74.7236 148.333 75.5336L151.27 72.5973C150.156 71.7873 148.941 71.0786 147.827 70.3698Z" fill="currentColor"/><path d="M165.344 58.422C164.23 57.612 163.116 56.9033 162.002 56.0933L159.066 59.0296C160.18 59.7383 161.293 60.5483 162.407 61.3583L165.344 58.422Z" fill="currentColor"/><path d="M176.583 47.1832L179.519 44.2469C178.405 43.4369 177.393 42.6269 176.279 41.9182L173.343 44.8544C174.456 45.6645 175.57 46.3732 176.583 47.1832Z" fill="currentColor"/><path d="M190.353 33.5142L191.669 32.1979C190.555 31.3879 189.543 30.5779 188.429 29.7679L187.113 31.0842C188.125 31.9954 189.239 32.7042 190.353 33.5142Z" fill="currentColor"/><path d="M135.879 82.3174L135.171 83.0261V84.1399C135.373 84.2412 135.677 84.4437 135.879 84.5449V82.3174Z" fill="currentColor"/><path d="M133.854 88.0887V90.0125L135.07 88.7974C134.665 88.4937 134.259 88.2912 133.854 88.0887Z" fill="currentColor"/><path d="M134.462 83.7349C134.664 83.8361 134.867 84.0386 135.171 84.1399V83.0261L134.462 83.7349Z" fill="currentColor"/><path d="M135.879 84.5449C135.677 84.4436 135.373 84.2411 135.171 84.1399V88.6962L135.879 87.9874V84.5449Z" fill="currentColor"/><path d="M135.171 88.6961V84.1398C134.968 84.0386 134.766 83.8361 134.462 83.7348L133.854 84.3423V88.0886C134.259 88.2911 134.665 88.5949 135.07 88.7974L135.171 88.6961Z" fill="currentColor"/><path d="M150.257 94.67L160.382 84.5449C159.37 83.7349 158.357 82.8236 157.243 82.0136L147.017 92.24C148.232 93.05 149.245 93.86 150.257 94.67Z" fill="currentColor"/><path d="M174.254 65.2059C175.266 66.016 176.279 66.9272 177.291 67.7372L188.429 56.5996C187.416 55.6883 186.404 54.8783 185.391 53.967L174.254 65.2059Z" fill="currentColor"/><path d="M174.355 70.6736C173.342 69.7623 172.33 68.9523 171.317 68.1423L160.281 79.1787C161.294 79.9887 162.407 80.8999 163.42 81.71L174.355 70.6736Z" fill="currentColor"/><path d="M188.226 51.132C189.239 51.942 190.251 52.8533 191.264 53.7645L201.997 43.0319C200.984 42.1206 199.971 41.3106 198.959 40.3994L188.226 51.132Z" fill="currentColor"/><path d="M137.904 107.124L147.422 97.6064C146.41 96.7964 145.296 95.9864 144.283 95.1764L135.879 103.58V105.605C136.487 106.01 137.196 106.517 137.904 107.124Z" fill="currentColor"/><path d="M137.904 107.124C137.196 106.618 136.487 106.01 135.879 105.504V109.149L137.904 107.124Z" fill="currentColor"/><path d="M150.257 94.6701C149.244 93.8601 148.131 92.9488 147.118 92.1388L144.182 95.0751C145.296 95.8851 146.308 96.6951 147.321 97.5051L150.257 94.6701Z" fill="currentColor"/><path d="M160.281 79.1785L157.446 82.0136C158.459 82.8236 159.572 83.6336 160.585 84.5449L163.42 81.7098C162.306 80.7986 161.294 79.9885 160.281 79.1785Z" fill="currentColor"/><path d="M171.317 68.041C172.33 68.851 173.342 69.7622 174.355 70.5723L177.291 67.7372C176.279 66.826 175.266 66.0159 174.254 65.2059L171.317 68.041Z" fill="currentColor"/><path d="M185.391 54.0683C186.404 54.8783 187.416 55.7895 188.429 56.7008L191.264 53.8658C190.251 52.9545 189.239 52.1445 188.226 51.2332L185.391 54.0683Z" fill="currentColor"/><path d="M201.997 43.0318L203.313 41.7155C202.3 40.8042 201.288 39.9942 200.275 39.0829L198.959 40.3992C199.971 41.3105 200.984 42.1205 201.997 43.0318Z" fill="currentColor"/><path d="M135.879 103.58L135.171 104.289V105.099C135.373 105.301 135.677 105.403 135.879 105.605V103.58Z" fill="currentColor"/><path d="M133.854 109.048V111.174L135.07 109.959C134.665 109.655 134.259 109.351 133.854 109.048Z" fill="currentColor"/><path d="M134.664 104.694C134.766 104.795 134.968 104.897 135.069 104.998V104.188L134.664 104.694Z" fill="currentColor"/><path d="M135.879 105.504C135.677 105.301 135.373 105.2 135.171 104.998V109.858L135.879 109.149V105.504Z" fill="currentColor"/><path d="M135.171 109.858V104.998C135.069 104.896 134.867 104.795 134.766 104.694L133.956 105.504V109.048C134.361 109.352 134.766 109.655 135.171 109.959V109.858Z" fill="currentColor"/><path d="M147.118 121.198C146.207 120.185 145.296 119.274 144.384 118.363L136.183 126.564C137.094 127.476 138.006 128.488 138.917 129.501L147.118 121.198Z" fill="currentColor"/><path d="M135.879 131.931V132.437L136.082 132.234C135.981 132.133 135.879 132.032 135.879 131.931Z" fill="currentColor"/><path d="M172.431 95.8851C171.52 94.8726 170.609 93.9614 169.697 93.0501L159.572 103.175C160.484 104.087 161.395 105.099 162.306 106.01L172.431 95.8851Z" fill="currentColor"/><path d="M186.404 76.2423C187.315 77.1536 188.226 78.1661 189.138 79.0774L200.275 67.9397C199.364 67.0284 198.453 66.0159 197.541 65.1047L186.404 76.2423Z" fill="currentColor"/><path d="M149.953 118.262L159.471 108.744C158.56 107.731 157.648 106.82 156.737 105.909L147.219 115.427C148.131 116.338 149.042 117.35 149.953 118.262Z" fill="currentColor"/><path d="M200.376 62.2696C201.288 63.1809 202.199 64.1934 203.11 65.1047L213.843 54.372C212.932 53.4608 212.02 52.4483 211.008 51.537L200.376 62.2696Z" fill="currentColor"/><path d="M175.266 92.9487L186.303 82.0136C185.391 81.0011 184.48 80.0898 183.569 79.1785L172.532 90.1137C173.444 91.0249 174.355 92.0375 175.266 92.9487Z" fill="currentColor"/><path d="M138.917 129.399C138.006 128.387 137.094 127.476 136.183 126.463L135.879 126.767V131.931C135.981 132.032 135.981 132.133 136.082 132.133L138.917 129.399Z" fill="currentColor"/><path d="M147.118 121.198L149.953 118.363C149.042 117.35 148.131 116.439 147.22 115.528L144.385 118.363C145.296 119.173 146.207 120.185 147.118 121.198Z" fill="currentColor"/><path d="M162.306 106.01C161.395 104.998 160.483 104.086 159.572 103.175L156.737 106.01C157.648 106.921 158.56 107.934 159.471 108.845L162.306 106.01Z" fill="currentColor"/><path d="M172.532 90.1138L169.697 92.9488C170.609 93.8601 171.52 94.8726 172.431 95.7838L175.266 92.9488C174.355 92.0375 173.444 91.025 172.532 90.1138Z" fill="currentColor"/><path d="M183.569 79.1787C184.48 80.0899 185.391 81.1024 186.303 82.0137L189.138 79.1787C188.226 78.1661 187.315 77.2549 186.404 76.3436L183.569 79.1787Z" fill="currentColor"/><path d="M200.275 68.0409L203.11 65.2059C202.199 64.2946 201.288 63.2821 200.377 62.3708L197.542 65.2059C198.453 66.1172 199.364 67.0284 200.275 68.0409Z" fill="currentColor"/><path d="M135.879 131.931C135.677 131.728 135.373 131.424 135.171 131.222V133.146L135.879 132.437V131.931Z" fill="currentColor"/><path d="M211.109 51.6382C212.02 52.5494 212.932 53.5619 213.944 54.4732L215.26 53.1569C214.349 52.2457 213.438 51.2332 212.527 50.3219L211.109 51.6382Z" fill="currentColor"/><path d="M135.171 131.222C134.766 130.716 134.259 130.311 133.854 129.906V134.462L135.171 133.146V131.222Z" fill="currentColor"/><path d="M135.879 126.767L135.171 127.475V131.222C135.373 131.424 135.677 131.728 135.879 131.931V126.767Z" fill="currentColor"/><path d="M135.171 127.476L133.854 128.792V129.804C134.259 130.209 134.766 130.716 135.171 131.121V127.476Z" fill="currentColor"/><path d="M183.771 109.756C182.961 108.643 182.151 107.63 181.341 106.516L171.115 116.743C171.925 117.857 172.735 118.97 173.444 120.084L183.771 109.756Z" fill="currentColor"/><path d="M158.054 135.474C157.345 134.361 156.636 133.146 155.826 132.032L147.422 140.436C148.03 141.448 148.637 142.359 149.245 143.372H150.055L158.054 135.474Z" fill="currentColor"/><path d="M198.25 89.6075C199.06 90.62 199.87 91.7338 200.68 92.7463L211.919 81.5074C211.109 80.4949 210.299 79.3811 209.388 78.3686L198.25 89.6075Z" fill="currentColor"/><path d="M212.324 75.5336C213.134 76.5461 214.045 77.6598 214.856 78.6723L225.588 67.9397C224.778 66.9272 223.968 65.8134 223.057 64.8009L212.324 75.5336Z" fill="currentColor"/><path d="M184.278 103.58C185.088 104.694 185.898 105.707 186.708 106.82L197.845 95.6826C197.035 94.5688 196.225 93.5563 195.415 92.5438L184.278 103.58Z" fill="currentColor"/><path d="M170.609 122.919C169.9 121.805 169.09 120.692 168.28 119.578L158.661 129.197C159.471 130.311 160.18 131.424 160.888 132.538L170.609 122.919Z" fill="currentColor"/><path d="M149.244 143.473C148.637 142.461 148.029 141.448 147.422 140.537L144.587 143.372C144.587 143.372 144.587 143.473 144.688 143.473H149.244Z" fill="currentColor"/><path d="M160.99 132.538C160.281 131.424 159.471 130.311 158.762 129.197L155.826 132.133C156.636 133.247 157.345 134.361 158.053 135.576L160.99 132.538Z" fill="currentColor"/><path d="M173.545 119.983C172.735 118.869 172.026 117.755 171.216 116.642L168.28 119.578C169.09 120.692 169.9 121.805 170.609 122.919L173.545 119.983Z" fill="currentColor"/><path d="M184.278 103.58L181.341 106.516C182.151 107.63 182.961 108.643 183.771 109.757L186.708 106.82C185.898 105.706 185.088 104.694 184.278 103.58Z" fill="currentColor"/><path d="M195.415 92.5438C196.225 93.5563 197.035 94.6701 197.845 95.6826L200.782 92.7463C199.972 91.6325 199.162 90.62 198.352 89.6075L195.415 92.5438Z" fill="currentColor"/><path d="M211.919 81.6086L214.856 78.6723C214.045 77.6598 213.235 76.546 212.324 75.5335L209.388 78.4698C210.299 79.4823 211.109 80.4948 211.919 81.6086Z" fill="currentColor"/><path d="M225.588 67.9397L226.904 66.6234C226.094 65.6109 225.183 64.4971 224.373 63.4846L223.057 64.8009C223.968 65.8134 224.778 66.9272 225.588 67.9397Z" fill="currentColor"/><path d="M234.397 110.162C235.004 111.478 235.612 112.693 236.22 114.009L247.458 102.77C246.851 101.555 246.243 100.239 245.535 99.0239L234.397 110.162Z" fill="currentColor"/><path d="M219.513 125.046C220.121 126.362 220.627 127.678 221.133 128.994L233.081 117.047C232.473 115.73 231.866 114.515 231.258 113.199L219.513 125.046Z" fill="currentColor"/><path d="M201.085 143.474C201.187 143.372 201.187 143.372 201.085 143.474V143.474Z" fill="currentColor"/><path d="M218.096 132.133C217.589 130.817 217.083 129.501 216.476 128.083L204.325 140.233C204.73 141.347 205.034 142.359 205.439 143.473H206.755L218.096 132.133Z" fill="currentColor"/><path d="M204.325 140.233L201.187 143.372H205.439C205.135 142.36 204.73 141.246 204.325 140.233Z" fill="currentColor"/><path d="M202.503 147.625L202.705 147.422H202.503C202.503 147.523 202.503 147.523 202.503 147.625Z" fill="currentColor"/><path d="M216.476 128.083C217.083 129.399 217.589 130.716 218.096 132.133L221.234 128.994C220.728 127.678 220.121 126.362 219.614 125.046L216.476 128.083Z" fill="currentColor"/><path d="M231.461 113.199C232.068 114.515 232.676 115.73 233.283 117.047L236.321 114.009C235.713 112.693 235.106 111.478 234.498 110.162L231.461 113.199Z" fill="currentColor"/><path d="M247.56 102.669L248.977 101.251C248.37 100.036 247.762 98.7201 247.053 97.5051L245.636 98.9226C246.243 100.239 246.952 101.454 247.56 102.669Z" fill="currentColor"/><path d="M224.981 139.322C225.386 140.638 225.791 142.056 226.196 143.372H226.499L238.751 131.121C238.245 129.703 237.738 128.387 237.232 126.969L224.981 139.322Z" fill="currentColor"/><path d="M240.472 123.932C240.978 125.248 241.485 126.666 241.991 128.083L253.635 116.439C253.129 115.123 252.521 113.807 252.015 112.49L240.472 123.932Z" fill="currentColor"/><path d="M220.931 143.473H222.044C221.943 143.17 221.842 142.866 221.842 142.663L220.931 143.473Z" fill="currentColor"/><path d="M221.74 142.562C221.842 142.866 221.943 143.169 221.943 143.372H226.196C225.791 142.056 225.386 140.638 224.981 139.322L221.74 142.562Z" fill="currentColor"/><path d="M237.333 126.969C237.84 128.387 238.346 129.703 238.852 131.121L241.991 127.982C241.485 126.564 240.978 125.248 240.472 123.831L237.333 126.969Z" fill="currentColor"/><path d="M253.533 116.439L255.052 114.92C254.546 113.604 253.938 112.288 253.432 110.972L252.015 112.389C252.521 113.705 253.027 115.022 253.533 116.439Z" fill="currentColor"/><path d="M245.535 139.221C245.94 140.638 246.345 142.056 246.648 143.473H246.851L258.799 131.526C258.394 130.108 257.887 128.691 257.482 127.273L245.535 139.221Z" fill="currentColor"/><path d="M242.598 143.473C242.497 143.169 242.396 142.764 242.295 142.461L241.282 143.473H242.598Z" fill="currentColor"/><path d="M242.295 142.461C242.396 142.764 242.497 143.169 242.598 143.473H246.75C246.345 142.056 246.041 140.638 245.636 139.221L242.295 142.461Z" fill="currentColor"/><path d="M258.799 131.526L260.317 130.007C259.912 128.589 259.406 127.172 258.9 125.754L257.381 127.273C257.989 128.691 258.394 130.108 258.799 131.526Z" fill="currentColor"/><path d="M213.033 111.782C213.742 112.997 214.349 114.212 214.957 115.427L226.601 103.783C225.892 102.568 225.284 101.353 224.576 100.239L213.033 111.782Z" fill="currentColor"/><path d="M198.453 126.362C199.06 127.577 199.668 128.893 200.275 130.209L212.021 118.464C211.413 117.249 210.704 116.034 210.097 114.718L198.453 126.362Z" fill="currentColor"/><path d="M227.512 97.3025C228.221 98.5175 228.929 99.6313 229.537 100.846L240.573 89.8099C239.865 88.5949 239.156 87.4811 238.447 86.2661L227.512 97.3025Z" fill="currentColor"/><path d="M181.341 143.473H181.645C181.645 143.372 181.544 143.271 181.544 143.271L181.341 143.473Z" fill="currentColor"/><path d="M197.137 133.247C196.529 131.931 196.023 130.614 195.415 129.399L184.683 140.132C185.189 141.246 185.594 142.36 186.1 143.473H187.011L197.137 133.247Z" fill="currentColor"/><path d="M184.683 140.132L181.645 143.17C181.645 143.271 181.746 143.372 181.746 143.372H186.1C185.594 142.36 185.189 141.246 184.683 140.132Z" fill="currentColor"/><path d="M200.275 130.209C199.668 128.893 199.06 127.678 198.453 126.362L195.415 129.399C196.023 130.716 196.63 131.931 197.137 133.247L200.275 130.209Z" fill="currentColor"/><path d="M212.02 118.464L215.058 115.427C214.45 114.212 213.742 112.997 213.134 111.782L210.097 114.819C210.704 115.933 211.312 117.249 212.02 118.464Z" fill="currentColor"/><path d="M226.601 103.783L229.537 100.846C228.828 99.6314 228.221 98.4164 227.512 97.3026L224.576 100.239C225.284 101.454 225.993 102.669 226.601 103.783Z" fill="currentColor"/><path d="M240.573 89.81L241.89 88.4938C241.181 87.2787 240.472 86.165 239.763 84.95L238.447 86.2662C239.257 87.4812 239.966 88.6962 240.573 89.81Z" fill="currentColor"/><path d="M178 126.969C178.709 128.184 179.418 129.399 180.025 130.614L190.454 120.185C189.745 118.97 189.036 117.857 188.328 116.642L178 126.969Z" fill="currentColor"/><path d="M205.54 99.4288C206.35 100.543 207.059 101.656 207.768 102.871L219.108 91.5312C218.399 90.4175 217.589 89.3037 216.779 88.1899L205.54 99.4288Z" fill="currentColor"/><path d="M191.365 113.604C192.074 114.718 192.783 115.933 193.492 117.148L204.832 105.808C204.123 104.694 203.414 103.479 202.604 102.365L191.365 113.604Z" fill="currentColor"/><path d="M161.496 143.473H162.509C162.407 143.271 162.306 143.068 162.205 142.765L161.496 143.473Z" fill="currentColor"/><path d="M219.716 85.2536C220.526 86.3674 221.234 87.4812 222.044 88.5949L232.878 77.761C232.068 76.6473 231.359 75.5335 230.549 74.4197L219.716 85.2536Z" fill="currentColor"/><path d="M176.988 133.551C176.38 132.336 175.671 131.121 174.962 129.906L165.141 139.727C165.749 140.942 166.356 142.157 166.964 143.372H167.065L176.988 133.551Z" fill="currentColor"/><path d="M162.205 142.765C162.306 142.967 162.407 143.17 162.509 143.473H167.065C166.457 142.258 165.85 141.043 165.242 139.828L162.205 142.765Z" fill="currentColor"/><path d="M180.025 130.513C179.316 129.298 178.709 128.083 178 126.868L175.064 129.804C175.772 131.019 176.38 132.234 177.089 133.449L180.025 130.513Z" fill="currentColor"/><path d="M190.454 120.084L193.39 117.148C192.681 115.933 191.973 114.819 191.264 113.604L188.328 116.54C189.138 117.755 189.846 118.869 190.454 120.084Z" fill="currentColor"/><path d="M202.604 102.365C203.313 103.479 204.123 104.593 204.832 105.808L207.768 102.871C207.059 101.758 206.249 100.644 205.541 99.4288L202.604 102.365Z" fill="currentColor"/><path d="M216.779 88.1899C217.589 89.3037 218.298 90.4174 219.108 91.5312L222.044 88.5949C221.336 87.4811 220.526 86.3674 219.716 85.2536L216.779 88.1899Z" fill="currentColor"/><path d="M230.55 74.4198C231.36 75.5336 232.068 76.6474 232.878 77.7611L234.195 76.4449C233.385 75.3311 232.676 74.2173 231.866 73.2048L230.55 74.4198Z" fill="currentColor"/><path d="M48.0945 145.397L50.1195 147.422H60.3459C60.5484 146.713 60.7509 146.106 60.9534 145.397H48.0945Z" fill="currentColor"/><path d="M167.976 145.397C168.28 146.106 168.584 146.713 168.887 147.422H177.392L179.417 145.397H167.976Z" fill="currentColor"/><path d="M40.5005 143.473H25.7178L27.7428 145.498H40.298C40.5005 144.891 40.6017 144.384 40.8042 143.777L40.5005 143.473Z" fill="currentColor"/><path d="M60.2445 143.473H46.0693L48.0944 145.498H60.9533C61.0545 145.194 61.1558 144.789 61.257 144.486L60.2445 143.473Z" fill="currentColor"/><path d="M163.116 147.422H164.331C164.23 147.118 164.027 146.815 163.926 146.612L163.116 147.422Z" fill="currentColor"/><path d="M182.961 147.422H183.164C183.164 147.321 183.164 147.321 183.063 147.22L182.961 147.422Z" fill="currentColor"/><path d="M246.952 143.473L246.75 143.676C246.952 144.283 247.054 144.891 247.155 145.498H262.444C262.342 144.789 262.14 144.182 262.039 143.473H246.952Z" fill="currentColor"/><path d="M247.256 145.397C247.459 146.106 247.56 146.713 247.762 147.422H262.95C262.849 146.713 262.646 146.106 262.545 145.397H247.256Z" fill="currentColor"/><path d="M222.551 147.422H223.158C223.158 147.321 223.057 147.118 223.057 146.916L222.551 147.422Z" fill="currentColor"/><path d="M144.385 143.473H135.879V145.397H142.461L144.385 143.473Z" fill="currentColor"/><path d="M43.8418 147.422H44.4493L43.9431 146.916C43.9431 147.118 43.943 147.22 43.8418 147.422Z" fill="currentColor"/><path d="M23.3892 147.422H23.9967L23.4904 146.916C23.4904 147.118 23.4904 147.22 23.3892 147.422Z" fill="currentColor"/><path d="M27.6416 145.397L29.6666 147.422H39.6905C39.893 146.713 39.9943 146.106 40.1968 145.397H27.6416Z" fill="currentColor"/><path d="M218.906 145.397H206.047C206.249 146.106 206.452 146.713 206.654 147.422H216.881L218.906 145.397Z" fill="currentColor"/><path d="M186.809 145.397C187.011 146.106 187.315 146.713 187.518 147.422H197.136L199.162 145.397H186.809Z" fill="currentColor"/><path d="M167.166 143.473C167.369 144.182 167.672 144.789 167.976 145.498H179.417L181.442 143.473H167.166Z" fill="currentColor"/><path d="M242.902 147.422H243.51C243.51 147.22 243.408 147.118 243.408 146.916L242.902 147.422Z" fill="currentColor"/><path d="M226.803 145.397C227.006 146.106 227.107 146.713 227.309 147.422H237.333L239.358 145.397H226.803Z" fill="currentColor"/><path d="M142.461 145.397H135.879V147.422H140.436L142.461 145.397Z" fill="currentColor"/><path d="M120.692 146.207C120.489 146.612 120.287 147.017 120.084 147.321H121.907L120.692 146.207Z" fill="currentColor"/><path d="M127.475 147.422H131.121V145.397H125.45L127.475 147.422Z" fill="currentColor"/><path d="M116.642 145.397H107.529L109.554 147.422H115.629C115.832 146.713 116.237 146.106 116.642 145.397Z" fill="currentColor"/><path d="M67.8384 145.397L69.8634 147.422H79.4823C79.6848 146.713 79.9885 146.106 80.191 145.397H67.8384Z" fill="currentColor"/><path d="M123.527 143.473L125.451 145.397H131.121V143.473H123.527Z" fill="currentColor"/><path d="M146.106 147.422H147.017C146.916 147.22 146.814 147.017 146.713 146.916L146.106 147.422Z" fill="currentColor"/><path d="M19.7441 145.397C19.8454 144.79 20.0479 144.182 20.1491 143.575L19.9466 143.372H4.9614C4.7589 144.081 4.65765 144.688 4.5564 145.397H19.7441Z" fill="currentColor"/><path d="M83.7349 147.422H84.0386L83.8361 147.22C83.8361 147.321 83.7349 147.321 83.7349 147.422Z" fill="currentColor"/><path d="M99.0239 145.397H87.5825L89.6075 147.422H98.2139C98.4164 146.713 98.7202 146.106 99.0239 145.397Z" fill="currentColor"/><path d="M226.499 143.473L226.196 143.777C226.398 144.384 226.499 144.891 226.702 145.498H239.257L241.282 143.473H226.499Z" fill="currentColor"/><path d="M150.358 145.397C150.763 146.106 151.067 146.713 151.472 147.422H157.547L159.572 145.397H150.358Z" fill="currentColor"/><path d="M150.055 143.473L149.548 143.979C149.852 144.486 150.156 144.992 150.358 145.498H159.471L161.496 143.473H150.055Z" fill="currentColor"/><path d="M102.568 147.422H103.783L102.973 146.612C102.871 146.815 102.669 147.118 102.568 147.422Z" fill="currentColor"/><path d="M206.755 143.473L205.743 144.486C205.844 144.789 205.945 145.194 206.047 145.498H218.906L220.931 143.473H206.755Z" fill="currentColor"/><path d="M79.9887 143.473H65.8135L67.8385 145.498H80.1912C80.3937 145.093 80.4949 144.587 80.6974 144.182L79.9887 143.473Z" fill="currentColor"/><path d="M99.8339 143.473H85.6587L87.6837 145.498H99.1251C99.3276 144.789 99.6314 144.182 99.8339 143.473Z" fill="currentColor"/><path d="M187.011 143.473L186.302 144.182C186.505 144.587 186.606 145.093 186.809 145.498H199.161L201.186 143.473H187.011Z" fill="currentColor"/><path d="M19.339 147.422C19.5415 146.713 19.6428 146.106 19.8453 145.397H4.45505C4.3538 146.106 4.1513 146.713 4.05005 147.422H19.339Z" fill="currentColor"/><path d="M105.504 143.473L107.529 145.498H116.642C117.047 144.789 117.35 144.182 117.755 143.473H105.504Z" fill="currentColor"/><path d="M119.882 145.397H116.642C116.237 146.106 115.933 146.713 115.528 147.422H120.084C120.287 147.017 120.489 146.612 120.692 146.308L119.882 145.397Z" fill="currentColor"/><path d="M117.857 143.473H117.755C117.35 144.182 116.945 144.789 116.642 145.498H119.882L117.857 143.473Z" fill="currentColor"/><path d="M99.9352 143.473C99.6314 144.081 99.3277 144.688 99.0239 145.397H101.859L99.9352 143.473Z" fill="currentColor"/><path d="M101.859 145.397H99.0238C98.7201 146.106 98.4163 146.713 98.1125 147.422H102.568C102.669 147.118 102.871 146.814 102.973 146.612L101.859 145.397Z" fill="currentColor"/><path d="M80.1912 145.397H82.0137L80.6974 144.081C80.4949 144.486 80.2924 144.992 80.1912 145.397Z" fill="currentColor"/><path d="M82.0137 145.397H80.1912C79.9887 146.106 79.6849 146.713 79.4824 147.422H83.735C83.735 147.321 83.735 147.321 83.8362 147.219L82.0137 145.397Z" fill="currentColor"/><path d="M60.9535 145.397C60.751 146.106 60.5485 146.713 60.3459 147.422H64.2948L62.2697 145.397H60.9535Z" fill="currentColor"/><path d="M60.9534 145.397H62.2696L61.2571 144.384C61.1559 144.789 61.0546 145.093 60.9534 145.397Z" fill="currentColor"/><path d="M40.1968 145.397H42.4243L40.703 143.676C40.6018 144.283 40.3993 144.79 40.1968 145.397Z" fill="currentColor"/><path d="M42.4245 145.397H40.1969C39.9944 146.106 39.8932 146.713 39.6907 147.422H43.842C43.842 147.219 43.9432 147.118 43.9432 146.916L42.4245 145.397Z" fill="currentColor"/><path d="M20.2502 143.575C20.0477 144.182 19.9465 144.79 19.8452 145.397H22.0727L20.2502 143.575Z" fill="currentColor"/><path d="M22.0729 145.397H19.8454C19.6429 146.106 19.5416 146.713 19.3391 147.422H23.4904C23.4904 147.219 23.5917 147.118 23.5917 146.916L22.0729 145.397Z" fill="currentColor"/><path d="M2.43012 145.397C2.53138 144.688 2.73388 144.081 2.93638 143.372H0.911353C0.70885 144.081 0.607599 144.688 0.506348 145.397H2.43012Z" fill="currentColor"/><path d="M4.45514 145.397C4.55639 144.688 4.75889 144.081 4.86014 143.372H2.83511C2.63261 144.081 2.53136 144.688 2.32886 145.397H4.45514Z" fill="currentColor"/><path d="M4.45518 145.397H2.43015C2.3289 146.106 2.1264 146.713 2.02515 147.422H4.05017C4.25268 146.713 4.35393 146.106 4.45518 145.397Z" fill="currentColor"/><path d="M131.829 145.397H131.121V147.422H131.829V145.397Z" fill="currentColor"/><path d="M131.829 143.473H131.121V145.498H131.829V143.473Z" fill="currentColor"/><path d="M2.02503 147.422C2.12628 146.713 2.32878 146.106 2.43003 145.397H0.405006C0.303754 146.106 0.101251 146.713 0 147.422H2.02503Z" fill="currentColor"/><path d="M121.198 145.397C120.995 145.701 120.894 146.005 120.692 146.207L121.805 147.321H127.476L125.45 145.296H121.198V145.397Z" fill="currentColor"/><path d="M121.198 145.397H125.451L123.426 143.372H122.312C122.008 144.081 121.603 144.79 121.198 145.397Z" fill="currentColor"/><path d="M120.692 146.207C120.894 145.903 120.995 145.599 121.198 145.397H119.882L120.692 146.207Z" fill="currentColor"/><path d="M117.857 143.473L119.882 145.498H121.198C121.603 144.789 122.008 144.182 122.413 143.473H117.857Z" fill="currentColor"/><path d="M65.8135 143.473C65.611 144.182 65.4085 144.789 65.1047 145.498H67.8385L65.8135 143.473Z" fill="currentColor"/><path d="M61.2571 144.385C61.3584 144.081 61.4596 143.676 61.5609 143.372H60.2446L61.2571 144.385Z" fill="currentColor"/><path d="M65.1046 145.397C64.9021 146.106 64.6996 146.713 64.4971 147.422H69.8634L67.8384 145.397H65.1046Z" fill="currentColor"/><path d="M62.1685 145.397L64.1935 147.422H64.4972C64.6997 146.713 64.9022 146.106 65.1047 145.397H62.1685Z" fill="currentColor"/><path d="M61.5608 143.473C61.4596 143.777 61.3583 144.182 61.2571 144.486L62.2696 145.498H65.2059C65.4084 144.789 65.6109 144.182 65.9146 143.473H61.5608Z" fill="currentColor"/><path d="M45.057 143.473C44.8545 144.182 44.652 144.789 44.4495 145.498H48.0945L46.0695 143.473H45.057Z" fill="currentColor"/><path d="M40.703 143.676C40.703 143.574 40.703 143.473 40.8042 143.372H40.5005L40.703 143.676Z" fill="currentColor"/><path d="M48.0945 145.397H44.4494C44.3482 145.903 44.1457 146.409 44.0444 146.916L44.5507 147.422H50.2208L48.0945 145.397Z" fill="currentColor"/><path d="M44.0444 146.916C44.1457 146.409 44.3482 145.903 44.4494 145.397H42.5256L44.0444 146.916Z" fill="currentColor"/><path d="M40.8044 143.473C40.8044 143.574 40.8044 143.676 40.7031 143.777L42.4244 145.498H44.3482C44.5507 144.789 44.7532 144.182 44.9557 143.473H40.8044Z" fill="currentColor"/><path d="M20.0479 143.473L20.2504 143.676C20.2504 143.574 20.2504 143.574 20.2504 143.473H20.0479Z" fill="currentColor"/><path d="M24.4015 143.473C24.199 144.182 24.0978 144.789 23.8953 145.498H27.6416L25.6165 143.473H24.4015Z" fill="currentColor"/><path d="M23.8955 145.397C23.7942 145.903 23.693 146.409 23.4905 146.916L23.9967 147.422H29.6668L27.6418 145.397H23.8955Z" fill="currentColor"/><path d="M23.8953 145.397C24.0978 144.688 24.199 144.081 24.4016 143.372H20.2502C20.2502 143.473 20.2502 143.473 20.2502 143.575L22.0728 145.397H23.8953Z" fill="currentColor"/><path d="M23.5916 146.916C23.6928 146.409 23.7941 145.903 23.9966 145.397H22.1741L23.5916 146.916Z" fill="currentColor"/><path d="M85.3549 143.473C85.0512 144.182 84.8487 144.789 84.5449 145.498H87.6837L85.6587 143.473H85.3549Z" fill="currentColor"/><path d="M84.5449 145.397C84.3424 146.004 84.0387 146.612 83.8362 147.219L84.0387 147.422H89.7088L87.6837 145.397H84.5449Z" fill="currentColor"/><path d="M79.9885 143.473L80.6973 144.182C80.7985 143.979 80.8998 143.777 81.001 143.473H79.9885Z" fill="currentColor"/><path d="M83.8362 147.219C84.0387 146.612 84.2412 146.004 84.545 145.397H82.0137L83.8362 147.219Z" fill="currentColor"/><path d="M80.8999 143.473C80.7987 143.676 80.6974 143.878 80.5962 144.182L81.9125 145.498H84.4437C84.7475 144.789 84.95 144.182 85.2538 143.473H80.8999Z" fill="currentColor"/><path d="M104.492 143.473C104.188 144.182 103.783 144.789 103.479 145.498H107.428L105.403 143.473H104.492Z" fill="currentColor"/><path d="M103.479 145.397C103.276 145.802 103.074 146.106 102.973 146.511L103.783 147.321H109.453L107.428 145.296H103.479V145.397Z" fill="currentColor"/><path d="M99.9351 143.473L101.758 145.498H103.378C103.681 144.789 103.985 144.182 104.39 143.473H99.9351Z" fill="currentColor"/><path d="M102.973 146.511C103.175 146.106 103.276 145.701 103.479 145.397H101.859L102.973 146.511Z" fill="currentColor"/><path d="M150.358 145.397H148.03L146.612 146.814C146.713 147.017 146.815 147.219 146.916 147.321H151.472C151.067 146.713 150.763 146.106 150.358 145.397Z" fill="currentColor"/><path d="M148.03 145.397H150.358C150.055 144.891 149.852 144.384 149.548 143.878L148.03 145.397Z" fill="currentColor"/><path d="M167.976 145.397H165.141L164.027 146.511C164.129 146.814 164.331 147.118 164.432 147.321H168.887C168.482 146.713 168.28 146.106 167.976 145.397Z" fill="currentColor"/><path d="M165.141 145.397H167.976C167.672 144.789 167.369 144.081 167.065 143.473L165.141 145.397Z" fill="currentColor"/><path d="M184.986 145.397H186.809C186.606 144.992 186.505 144.486 186.303 144.081L184.986 145.397Z" fill="currentColor"/><path d="M184.986 145.397L183.164 147.219C183.164 147.321 183.164 147.321 183.265 147.422H187.518C187.315 146.713 187.011 146.106 186.809 145.397H184.986Z" fill="currentColor"/><path d="M204.73 145.397H206.047C205.945 145.093 205.844 144.688 205.743 144.384L204.73 145.397Z" fill="currentColor"/><path d="M204.73 145.397L202.705 147.422H206.654C206.452 146.713 206.249 146.106 206.047 145.397H204.73Z" fill="currentColor"/><path d="M224.576 145.397H226.803C226.601 144.79 226.499 144.283 226.297 143.676L224.576 145.397Z" fill="currentColor"/><path d="M224.576 145.397L223.057 146.916C223.057 147.017 223.158 147.219 223.158 147.422H227.309C227.107 146.713 227.006 146.106 226.803 145.397H224.576Z" fill="currentColor"/><path d="M243.408 146.916C243.408 147.118 243.51 147.219 243.51 147.422H247.661C247.459 146.713 247.357 146.106 247.155 145.397H244.927L243.408 146.916Z" fill="currentColor"/><path d="M247.256 145.397C247.155 144.79 246.952 144.182 246.851 143.575L245.028 145.397H247.256Z" fill="currentColor"/><path d="M262.039 143.473C262.241 144.182 262.342 144.789 262.444 145.498H264.469C264.367 144.789 264.165 144.182 263.962 143.473H262.039Z" fill="currentColor"/><path d="M135.879 143.473H135.171V145.498H135.879V143.473Z" fill="currentColor"/><path d="M135.879 145.397H135.171V147.422H135.879V145.397Z" fill="currentColor"/><path d="M262.444 145.397C262.545 146.106 262.748 146.713 262.849 147.422H264.874C264.773 146.713 264.57 146.106 264.469 145.397H262.444Z" fill="currentColor"/><path d="M264.57 145.397H266.595C266.494 144.688 266.291 144.081 266.19 143.372H264.165C264.266 144.081 264.368 144.79 264.57 145.397Z" fill="currentColor"/><path d="M264.57 145.397C264.671 146.106 264.874 146.713 264.975 147.422H267C266.899 146.713 266.696 146.106 266.595 145.397H264.57Z" fill="currentColor"/><path d="M133.854 143.473H133.146V145.498H133.854V143.473Z" fill="currentColor"/><path d="M135.171 143.473H133.854V145.498H135.171V143.473Z" fill="currentColor"/><path d="M133.146 143.473H131.829V145.498H133.146V143.473Z" fill="currentColor"/><path d="M135.171 145.397H133.854V147.422H135.171V145.397Z" fill="currentColor"/><path d="M133.854 145.397H133.146V147.422H133.854V145.397Z" fill="currentColor"/><path d="M133.146 145.397H131.829V147.422H133.146V145.397Z" fill="currentColor"/><path d="M146.612 146.814C146.308 146.308 146.106 145.903 145.802 145.397H142.461L140.436 147.422H146.106L146.612 146.814Z" fill="currentColor"/><path d="M150.055 143.473H149.245C149.346 143.676 149.447 143.777 149.548 143.979L150.055 143.473Z" fill="currentColor"/><path d="M145.802 145.397C145.397 144.688 144.992 144.081 144.587 143.372H144.486L142.461 145.397H145.802Z" fill="currentColor"/><path d="M146.612 146.814L148.03 145.397H145.802C146.106 145.903 146.308 146.409 146.612 146.814Z" fill="currentColor"/><path d="M149.548 143.979C149.447 143.777 149.346 143.676 149.244 143.473H144.587C144.992 144.081 145.397 144.789 145.802 145.498H148.029L149.548 143.979Z" fill="currentColor"/><path d="M205.743 144.385L206.755 143.372H205.439C205.54 143.777 205.641 144.081 205.743 144.385Z" fill="currentColor"/><path d="M201.085 143.473L199.06 145.498H201.794C201.592 144.789 201.389 144.081 201.085 143.473Z" fill="currentColor"/><path d="M199.162 145.397L197.136 147.422H202.503C202.3 146.713 202.098 146.106 201.895 145.397H199.162Z" fill="currentColor"/><path d="M205.439 143.473H201.187C201.389 144.182 201.592 144.789 201.895 145.498H204.832L205.844 144.486C205.642 144.081 205.54 143.777 205.439 143.473Z" fill="currentColor"/><path d="M201.794 145.397C201.996 146.106 202.199 146.713 202.401 147.422H202.705L204.73 145.397H201.794Z" fill="currentColor"/><path d="M220.931 143.473L218.906 145.498H222.551C222.348 144.789 222.146 144.182 221.943 143.473H220.931Z" fill="currentColor"/><path d="M222.551 145.397H218.906L216.881 147.422H222.551L223.057 146.916C222.854 146.409 222.753 145.903 222.551 145.397Z" fill="currentColor"/><path d="M226.499 143.473H226.196C226.196 143.574 226.196 143.676 226.297 143.777L226.499 143.473Z" fill="currentColor"/><path d="M226.196 143.473H221.943C222.146 144.182 222.348 144.789 222.551 145.498H224.474L226.196 143.777C226.196 143.574 226.196 143.473 226.196 143.473Z" fill="currentColor"/><path d="M222.956 146.916L224.474 145.397H222.551C222.753 145.903 222.854 146.409 222.956 146.916Z" fill="currentColor"/><path d="M243.105 145.397H239.358L237.333 147.422H243.003L243.51 146.916C243.307 146.409 243.206 145.903 243.105 145.397Z" fill="currentColor"/><path d="M246.952 143.473H246.75C246.75 143.574 246.75 143.574 246.75 143.676L246.952 143.473Z" fill="currentColor"/><path d="M239.358 145.397H243.105C242.902 144.688 242.801 144.081 242.598 143.372H241.383L239.358 145.397Z" fill="currentColor"/><path d="M244.927 145.397H243.105C243.206 145.903 243.307 146.409 243.51 146.916L244.927 145.397Z" fill="currentColor"/><path d="M243.105 145.397H244.927L246.75 143.575C246.75 143.473 246.75 143.473 246.75 143.372H242.598C242.7 144.081 242.902 144.79 243.105 145.397Z" fill="currentColor"/><path d="M185.999 143.473C186.1 143.676 186.201 143.878 186.303 144.182L187.011 143.473H185.999Z" fill="currentColor"/><path d="M182.455 145.397H179.316L177.291 147.422H182.961L183.164 147.219C182.961 146.612 182.759 146.004 182.455 145.397Z" fill="currentColor"/><path d="M181.341 143.473L179.316 145.498H182.455C182.151 144.789 181.949 144.182 181.645 143.473H181.341Z" fill="currentColor"/><path d="M185.999 143.473H181.645C181.949 144.182 182.151 144.789 182.455 145.498H184.986L186.303 144.182C186.201 143.878 186.1 143.676 185.999 143.473Z" fill="currentColor"/><path d="M183.164 147.219L184.986 145.397H182.455C182.759 146.004 182.961 146.612 183.164 147.219Z" fill="currentColor"/><path d="M163.521 145.397H159.572L157.547 147.422H163.217L164.027 146.612C163.825 146.207 163.622 145.802 163.521 145.397Z" fill="currentColor"/><path d="M161.496 143.473L159.471 145.498H163.42C163.116 144.789 162.812 144.182 162.407 143.473H161.496Z" fill="currentColor"/><path d="M164.027 146.511L165.141 145.397H163.521C163.622 145.802 163.825 146.207 164.027 146.511Z" fill="currentColor"/><path d="M167.065 143.473L162.509 143.372C162.812 144.081 163.217 144.688 163.521 145.397H165.141L167.065 143.473Z" fill="currentColor"/></svg>