<svg viewBox="0 0 267 8" fill="currentColor" xmlns="http://www.w3.org/2000/svg"><path fill-rule="evenodd" clip-rule="evenodd" d="M53.3921 0.976578L53.3911 0.624573L46.4824 4.6927L40.2966 1.05859L33.1367 5.25401L26.949 1.11505L19.9155 5.43614L13.6013 1.17149L6.44336 5.87177L0.000488281 0.976578L0.0090332 3.02132L6.44336 7.90993L13.6013 3.20966L19.9155 7.4743L26.949 3.15321L33.1367 7.29218L40.2966 3.09676L46.4824 6.73087L53.3911 2.66273L53.3921 3.01474L59.835 7.90993L66.9929 3.20966L73.3071 7.4743L80.3406 3.15321L86.5283 7.29218L93.6882 3.09676L99.874 6.73087L106.783 2.66273L106.784 3.01474L113.227 7.90993L120.385 3.20966L126.699 7.4743L133.732 3.15321L139.92 7.29218L147.08 3.09676L153.266 6.73087L160.175 2.66273L160.176 3.01474L166.618 7.90993L173.776 3.20966L180.091 7.4743L187.124 3.15321L193.312 7.29218L200.472 3.09676L206.657 6.73087L213.566 2.66273L213.567 3.01474L220.01 7.90993L227.168 3.20966L233.482 7.4743L240.516 3.15321L246.703 7.29218L253.863 3.09676L260.049 6.73087L266.958 2.66273L266.969 5.42661L266.978 5.4207L266.958 0.624573L260.049 4.6927L253.863 1.05859L246.703 5.25401L240.516 1.11505L233.482 5.43614L227.168 1.17149L220.01 5.87177L213.567 0.976578L213.566 0.624573L206.657 4.6927L200.472 1.05859L193.312 5.25401L187.124 1.11505L180.091 5.43614L173.776 1.17149L166.618 5.87177L160.176 0.976578L160.175 0.624573L153.266 4.6927L147.08 1.05859L139.92 5.25401L133.732 1.11505L126.699 5.43614L120.385 1.17149L113.227 5.87177L106.784 0.976578L106.783 0.624573L99.874 4.6927L93.6882 1.05859L86.5283 5.25401L80.3406 1.11505L73.3071 5.43614L66.9929 1.17149L59.835 5.87177L53.3921 0.976578Z" fill="currentColor"/></svg>