<svg width="186" height="128" viewBox="0 0 186 128" fill="none" xmlns="http://www.w3.org/2000/svg">
<g clip-path="url(#clip0)">
<path d="M3.0561 114.248V127.77H0V114.248H3.0561Z" fill="white"/>
<path d="M5.39087 127.78V114.248H8.93324L11.7285 119.203C12.5605 120.698 13.2942 122.246 13.9248 123.838H13.9859C13.7938 121.965 13.7067 120.083 13.7251 118.2V114.248H16.5203V127.77H13.3354L10.4629 122.553C9.60031 121.004 8.81989 119.411 8.12493 117.779L8.06697 117.798C8.14425 119.585 8.18612 121.491 8.18612 123.699V127.77L5.39087 127.78Z" fill="white"/>
<path d="M18.9678 124.631C20.0151 125.164 21.169 125.451 22.3427 125.472C23.7403 125.472 24.4778 124.893 24.4778 124.009C24.4778 123.126 23.8337 122.685 22.2236 122.103C19.9887 121.32 18.5331 120.077 18.5331 118.109C18.5331 115.801 20.4653 114.037 23.6212 114.037C24.7995 114.016 25.9688 114.248 27.0509 114.717L26.3714 117.187C25.4948 116.757 24.5319 116.536 23.5568 116.539C22.2397 116.539 21.5988 117.138 21.5988 117.834C21.5988 118.698 22.3588 119.08 24.0946 119.74C26.4712 120.624 27.5886 121.87 27.5886 123.776C27.5886 126.042 25.8529 127.967 22.1592 127.967C20.8473 127.986 19.5478 127.709 18.356 127.158L18.9678 124.631Z" fill="white"/>
<path d="M31.9456 116.837H28.3389V114.248H38.6794V116.837H34.9985V127.793H31.9456V116.837Z" fill="white"/>
<path d="M43.0462 114.248V127.77H39.9901V114.248H43.0462Z" fill="white"/>
<path d="M47.9829 116.837H44.3633V114.248H54.707V116.837H51.0326V127.793H47.9829V116.837Z" fill="white"/>
<path d="M59.0576 114.248V122.032C59.0576 124.359 59.9368 125.543 61.4954 125.543C63.0541 125.543 63.9686 124.42 63.9686 122.032V114.248H67.0054V121.831C67.0054 126.006 64.909 127.98 61.3924 127.98C58.0014 127.98 56.0048 126.097 56.0048 121.783V114.248H59.0576Z" fill="white"/>
<path d="M71.9357 116.837H68.3225V114.248H78.663V116.837H74.9918V127.793H71.9357V116.837Z" fill="white"/>
<path d="M91.7215 120.88C91.7215 125.314 89.0454 128 85.1134 128C81.1201 128 78.7854 124.971 78.7854 121.12C78.7854 117.067 81.3617 114.038 85.3323 114.038C89.4673 114.038 91.7215 117.161 91.7215 120.88ZM81.9993 121.058C81.9993 123.709 83.2359 125.573 85.2744 125.573C87.3128 125.573 88.4947 123.608 88.4947 120.98C88.4947 118.55 87.3354 116.465 85.239 116.465C83.1425 116.465 81.9993 118.43 81.9993 121.045V121.058Z" fill="white"/>
<path d="M96.0562 114.248H99.0897V122.796C99.0897 126.647 97.2541 127.99 94.2979 127.99C93.5478 127.988 92.8018 127.879 92.0823 127.667L92.4204 125.2C92.9243 125.362 93.4502 125.442 93.979 125.44C95.2672 125.44 96.0562 124.857 96.0562 122.75V114.248Z" fill="white"/>
<path d="M104.461 124.31L103.495 127.78H100.342L104.461 114.248H108.454L112.641 127.77H109.353L108.313 124.301L104.461 124.31ZM107.881 122.016L107.044 119.145C106.802 118.342 106.564 117.339 106.364 116.556H106.323C106.123 117.355 105.923 118.381 105.704 119.145L104.899 122.016H107.881Z" fill="white"/>
<path d="M114.125 127.78V114.248H117.668L120.463 119.203C121.295 120.698 122.029 122.246 122.659 123.838H122.72C122.528 121.965 122.441 120.083 122.46 118.2V114.248H125.271V127.77H122.076L119.201 122.553C118.338 121.005 117.558 119.411 116.866 117.779L116.805 117.798C116.885 119.585 116.927 121.491 116.927 123.699V127.77L114.125 127.78Z" fill="white"/>
<path d="M135.608 122.061H130.655V125.272H136.185V127.78H127.603V114.248H135.898V116.756H130.655V119.566H135.608V122.061Z" fill="white"/>
<path d="M137.962 114.44C139.305 114.242 140.66 114.148 142.017 114.158C144.013 114.158 145.411 114.459 146.367 115.22C146.779 115.561 147.106 115.995 147.322 116.486C147.537 116.977 147.635 117.512 147.607 118.048C147.595 118.778 147.361 119.487 146.938 120.08C146.514 120.673 145.921 121.123 145.237 121.369V121.427C146.174 121.809 146.696 122.722 147.034 123.955C147.453 125.482 147.871 127.246 148.132 127.767H145.012C144.793 127.389 144.471 126.285 144.071 124.618C143.672 122.952 143.134 122.473 141.898 122.45H140.977V127.767H137.962V114.44ZM140.977 120.265H142.174C143.694 120.265 144.593 119.505 144.593 118.323C144.593 117.081 143.752 116.456 142.355 116.436C141.893 116.429 141.432 116.462 140.977 116.537V120.265Z" fill="white"/>
<path d="M152.818 124.31L151.852 127.78H148.699L152.818 114.248H156.811L160.997 127.77H157.709L156.669 124.301L152.818 124.31ZM156.231 122.022L155.394 119.151C155.152 118.349 154.914 117.345 154.714 116.562H154.673C154.473 117.362 154.273 118.388 154.054 119.151L153.256 122.016L156.231 122.022Z" fill="white"/>
<path d="M162.482 114.248H165.496V120.236H165.554C165.854 119.714 166.176 119.232 166.475 118.75L169.528 114.248H173.254L168.81 120.015L173.502 127.783H169.96L166.665 121.957L165.509 123.381V127.796H162.495L162.482 114.248Z" fill="white"/>
<path d="M177.833 124.31L176.867 127.78H173.711L177.833 114.248H181.826L186.013 127.77H182.725L181.688 124.301L177.833 124.31ZM181.25 122.016L180.409 119.145C180.171 118.342 179.93 117.339 179.73 116.556H179.695C179.495 117.355 179.295 118.381 179.076 119.145L178.274 122.016H181.25Z" fill="white"/>
<path d="M91.0034 87.4206L91.2127 87.6278V87.207C91.1354 87.275 91.0743 87.3494 91.0034 87.4206Z" fill="white"/>
<path d="M82.0738 99.1176L82.022 99.0654L81.9929 99.1176H82.0738Z" fill="white"/>
<path d="M85.4934 98.6608C87.1537 96.0852 89.0144 93.6459 91.0582 91.3657L89.126 89.4238C87.0783 91.6979 85.2052 94.1246 83.5226 96.6833L85.4934 98.6608Z" fill="white"/>
<path d="M89.7926 74.0156C87.6156 75.7456 85.5404 77.6011 83.5773 79.5727L83.3873 79.7701L85.3453 81.7379C87.199 79.8629 89.1581 78.0962 91.2127 76.4462V75.4397L89.7926 74.0156Z" fill="white"/>
<path d="M71.0374 96.5935L73.0984 98.6616C74.0537 96.7974 75.0896 94.9861 76.206 93.2276L74.1965 91.208C73.0629 92.96 72.0099 94.7552 71.0374 96.5935Z" fill="white"/>
<path d="M77.7581 90.8931C79.4971 88.3807 81.4014 85.9879 83.4581 83.7308L81.4969 81.7598C79.4348 84.0077 77.518 86.386 75.7583 88.88L77.7581 90.8931Z" fill="white"/>
<path d="M60.8257 90.2266C59.6642 92.3842 58.5993 94.584 57.6311 96.8258L59.7533 98.9586C60.6958 96.6844 61.7402 94.4642 62.8867 92.2979L60.8257 90.2266Z" fill="white"/>
<path d="M65.5532 82.5303C64.3767 84.2327 63.2678 85.9717 62.2266 87.7475L64.265 89.793C65.2955 87.9978 66.3926 86.2479 67.5562 84.5434L65.5532 82.5303Z" fill="white"/>
<path d="M81.2587 65.4453C79.129 67.1995 77.0766 69.0691 75.1015 71.0541C75.0338 71.1189 74.9727 71.1868 74.905 71.2548L76.8694 73.2258C78.8906 71.1831 81.018 69.2493 83.2425 67.4325L81.2587 65.4453Z" fill="white"/>
<path d="M73.0081 73.2383C70.9376 75.4731 68.9886 77.8187 67.1697 80.2647L69.1663 82.2649C70.9641 79.8057 72.8995 77.4512 74.9629 75.2125L73.0081 73.2383Z" fill="white"/>
<path d="M89.7378 59.3184C87.5737 60.682 85.4697 62.1514 83.4259 63.7265L85.4096 65.7234C87.2796 64.2993 89.2118 62.9583 91.2062 61.7004V60.7974L89.7378 59.3184Z" fill="white"/>
<path d="M66.1682 62.0755L65.9718 62.2794L67.9394 64.2569C69.9596 62.2136 72.07 60.2717 74.2706 58.4312L72.2933 56.4473C70.1851 58.223 68.1434 60.0991 66.1682 62.0755Z" fill="white"/>
<path d="M74.4252 54.6971L76.4089 56.6875C78.4184 55.106 80.4934 53.6075 82.6338 52.1921L80.6147 50.166C78.4957 51.5771 76.4325 53.0875 74.4252 54.6971Z" fill="white"/>
<path d="M53.0518 78.5304L55.087 80.5727C56.1605 78.825 57.2983 77.1161 58.5006 75.4461L56.5007 73.4395C55.2963 75.103 54.1467 76.8 53.0518 78.5304Z" fill="white"/>
<path d="M53.6282 83.0002L51.5832 80.9482C50.3595 83.0282 49.2185 85.1514 48.16 87.3176L50.2468 89.4149C51.2945 87.227 52.4216 85.0888 53.6282 83.0002Z" fill="white"/>
<path d="M46.9171 89.9746C45.8909 92.2531 44.9537 94.5683 44.1057 96.9201L46.2891 99.1145C47.1092 96.7281 48.0227 94.3892 49.0296 92.0977L46.9171 89.9746Z" fill="white"/>
<path d="M89.6798 44.79C87.3955 45.9746 85.1585 47.2541 82.9686 48.6285L85.0007 50.6675C87.0209 49.4182 89.0915 48.2455 91.2127 47.1494V46.3274L89.6798 44.79Z" fill="white"/>
<path d="M58.1625 71.2027L60.1526 73.2029C62.0011 70.7777 63.9634 68.4528 66.0394 66.2282L64.0847 64.2637C61.985 66.4969 60.0109 68.8099 58.1625 71.2027Z" fill="white"/>
<path d="M35.7715 88.5339C36.7247 86.2684 37.752 84.0449 38.8533 81.8635L36.773 79.7695C35.6588 81.9445 34.6154 84.1593 33.6428 86.414L35.7715 88.5339Z" fill="white"/>
<path d="M84.2633 35.4562C86.4102 34.3169 88.5989 33.251 90.8296 32.2585L88.7106 30.1289C86.5014 31.1344 84.3256 32.2132 82.183 33.3654L84.2633 35.4562Z" fill="white"/>
<path d="M45.3133 70.7593C46.4469 69.0569 47.6277 67.3891 48.8557 65.7557L46.8559 63.7588C45.6193 65.39 44.432 67.0492 43.2942 68.7365L45.3133 70.7593Z" fill="white"/>
<path d="M43.7965 73.1184L41.7612 71.0762C40.4731 73.0914 39.2612 75.1412 38.1255 77.2255L40.1897 79.3001C41.319 77.1985 42.5212 75.138 43.7965 73.1184Z" fill="white"/>
<path d="M50.5592 63.5643C52.4507 61.1779 54.4365 58.8768 56.5169 56.6608L54.5267 54.6963C52.4313 56.9208 50.4401 59.2166 48.553 61.5835L50.5592 63.5643Z" fill="white"/>
<path d="M58.4072 54.6971C60.4252 52.6581 62.5238 50.7022 64.7029 48.8293L62.7192 46.8389C60.6238 48.6254 58.5961 50.5112 56.636 52.4962L56.4331 52.7034L58.4072 54.6971Z" fill="white"/>
<path d="M32.1486 98.5378C32.8979 96.0889 33.7341 93.6788 34.6573 91.3075L32.5061 89.1455C31.5657 91.5017 30.707 93.8913 29.9298 96.3143L32.1486 98.5378Z" fill="white"/>
<path d="M73.1918 38.8086L75.2206 40.8444C77.346 39.4289 79.524 38.0912 81.7546 36.8311L79.6936 34.7598C77.4845 36.0306 75.3172 37.3802 73.1918 38.8086Z" fill="white"/>
<path d="M70.8989 40.3975C68.8271 41.8711 66.8026 43.4214 64.8253 45.0483L66.8155 47.0484C68.7906 45.4324 70.8237 43.8896 72.9148 42.4203L70.8989 40.3975Z" fill="white"/>
<path d="M21.4281 87.7734C22.2997 85.4345 23.2422 83.1312 24.2555 80.8635L22.1623 78.7598C21.6728 79.8375 21.1962 80.9217 20.7325 82.0157C20.2301 83.2099 19.7471 84.4139 19.2833 85.6179L21.4281 87.7734Z" fill="white"/>
<path d="M57.148 37.3394C59.0996 35.7082 61.1026 34.1374 63.1572 32.627L61.1606 30.6172C59.1146 32.1275 57.1158 33.7048 55.1643 35.3489L57.148 37.3394Z" fill="white"/>
<path d="M18.0049 98.4309C18.7155 95.7943 19.5142 93.1954 20.4008 90.6342L18.2336 88.4561C17.3233 91.0064 16.5053 93.5805 15.7797 96.1783L18.0049 98.4309Z" fill="white"/>
<path d="M25.4824 78.2035C26.528 76.0156 27.6304 73.8665 28.7897 71.7564L26.7448 69.7012C25.5705 71.8006 24.4562 73.9388 23.4021 76.1159L25.4824 78.2035Z" fill="white"/>
<path d="M86.0086 16.4127C84.3598 17.1117 82.7335 17.8529 81.1266 18.6199L83.2101 20.714C85.7735 19.51 88.3863 18.3966 91.0484 17.3739L88.9069 15.2119C87.9376 15.6068 86.9683 16.0049 86.0086 16.4127Z" fill="white"/>
<path d="M80.5954 21.9792L78.5247 19.9014C76.3778 20.9802 74.2695 22.127 72.2 23.3418L74.2416 25.3937C76.3198 24.194 78.4377 23.0559 80.5954 21.9792Z" fill="white"/>
<path d="M71.8135 26.8368L69.7814 24.7979C67.6174 26.127 65.4973 27.5241 63.4213 28.9891L65.4308 31.0054C67.5046 29.549 69.6322 28.1595 71.8135 26.8368Z" fill="white"/>
<path d="M46.8785 46.9999L44.9012 45.0127C42.8015 47.2221 40.7942 49.5017 38.8792 51.8514L40.8693 53.8483C42.7865 51.49 44.7895 49.2072 46.8785 46.9999Z" fill="white"/>
<path d="M35.5267 60.9307C36.6925 59.2606 37.9001 57.6219 39.1496 56.0144L37.153 54.0078C35.897 55.6131 34.6851 57.2486 33.5172 58.9143L35.5267 60.9307Z" fill="white"/>
<path d="M55.0677 39.132L53.0839 37.1416C51.0122 38.9627 48.993 40.8593 47.0265 42.8314L46.8236 43.0417L48.7977 45.0257C50.8115 42.9867 52.9015 41.0222 55.0677 39.132Z" fill="white"/>
<path d="M33.9552 63.2409L31.936 61.2148C30.6157 63.1826 29.3598 65.1893 28.1586 67.2315L30.1938 69.2769C31.3875 67.225 32.6413 65.213 33.9552 63.2409Z" fill="white"/>
<path d="M5.54544 89.8128C5.85245 88.8246 6.16697 87.8429 6.489 86.8676C7.33273 84.3496 8.2473 81.8683 9.23272 79.4237C9.60199 78.5024 9.98199 77.5864 10.3727 76.6759C11.3388 74.419 12.3618 72.1955 13.4417 70.0055C13.8711 69.1424 14.3069 68.2794 14.7492 67.4163C15.8655 65.2953 17.027 63.2132 18.2336 61.1699C18.7134 60.3608 19.1997 59.5516 19.6988 58.7522C20.9419 56.7456 22.23 54.7746 23.5632 52.8391C24.0913 52.0753 24.6281 51.3201 25.1734 50.5736C26.3649 48.9273 27.5951 47.3091 28.8639 45.7189C29.4371 45.0004 30.0168 44.2862 30.6029 43.5763C32.5351 41.2396 34.5531 38.974 36.6571 36.7797C37.2883 36.1151 37.9248 35.457 38.5667 34.8054C40.587 32.7686 42.6694 30.7976 44.8142 28.8923C45.499 28.2839 46.1903 27.6808 46.8881 27.0831C48.8203 25.4347 50.8019 23.8413 52.8328 22.3028C53.5713 21.744 54.3142 21.1927 55.0613 20.649C57.1073 19.1602 59.194 17.7286 61.3216 16.3542C62.1095 15.845 62.9039 15.3455 63.7047 14.8557C65.7313 13.6086 67.7945 12.4154 69.8941 11.2761C70.7443 10.8014 71.5988 10.344 72.4575 9.90385C74.9329 8.62435 77.4555 7.42146 80.0253 6.29516C80.927 5.89707 81.8351 5.51516 82.7465 5.13973C85.6791 3.92928 88.6633 2.8224 91.699 1.81909V0.369141C69.4977 7.64421 49.5413 20.5568 33.7619 37.8567C17.9825 55.1566 6.91452 76.2579 1.62952 99.1177H3.03358C3.76567 95.9719 4.60296 92.8702 5.54544 89.8128Z" fill="white"/>
<path d="M83.7834 6.18768C86.2201 5.19731 88.6966 4.27599 91.2127 3.42372V13.6478L91.6893 14.1268V1.82812C88.6558 2.83144 85.6716 3.93832 82.7368 5.14877L83.7834 6.18768Z" fill="white"/>
<path d="M91.2126 42.4365L91.6893 42.9123V33.1187L91.2126 32.6396V42.4365Z" fill="white"/>
<path d="M91.2126 87.2073L91.6893 86.738V76.0576C91.5282 76.1838 91.3672 76.3133 91.2126 76.4428V87.2073Z" fill="white"/>
<path d="M91.2126 99.1178H91.6893V91.9976L91.2126 91.5186V99.1178Z" fill="white"/>
<path d="M91.2126 56.9068L91.6893 57.3826V46.9287L91.2126 47.165V56.9068Z" fill="white"/>
<path d="M91.2126 71.5458L91.6893 72.0248V61.3994L91.2126 61.7004V71.5458Z" fill="white"/>
<path d="M24.4745 53.7262L23.5761 52.8232C22.23 54.7651 20.9418 56.7362 19.7117 58.7363L20.6101 59.6587C21.8468 57.6456 23.1349 55.6681 24.4745 53.7262Z" fill="white"/>
<path d="M26.0847 51.4603C27.274 49.8097 28.4999 48.1914 29.7623 46.6056L28.8831 45.7188C27.6165 47.3089 26.3863 48.9272 25.1926 50.5735L26.0847 51.4603Z" fill="white"/>
<path d="M19.1578 62.0858L18.2335 61.1699C17.027 63.2175 15.8655 65.3029 14.7491 67.4261L15.7152 68.397C16.808 66.2545 17.9555 64.1507 19.1578 62.0858Z" fill="white"/>
<path d="M39.4587 35.6599C41.4789 33.6231 43.5646 31.6531 45.7158 29.7501L44.8302 28.8633C42.6833 30.7685 40.6008 32.7395 38.5828 34.7764L39.4587 35.6599Z" fill="white"/>
<path d="M37.5458 37.6271L36.6731 36.75C34.5799 38.9508 32.5618 41.2164 30.6189 43.5466L31.498 44.4302C33.4324 42.0978 35.4483 39.8301 37.5458 37.6271Z" fill="white"/>
<path d="M14.4111 70.9758L13.445 70.0049C12.3715 72.1971 11.3485 74.4205 10.376 76.6753L11.3743 77.6754C12.3275 75.4098 13.3398 73.1766 14.4111 70.9758Z" fill="white"/>
<path d="M91.2126 28.7503L91.4059 28.9445L91.6893 28.8215V18.0181L91.2126 17.5391V28.7503Z" fill="white"/>
<path d="M10.2504 80.4394L9.23274 79.4199C8.24946 81.8667 7.33489 84.348 6.48901 86.8639L7.55494 87.9319C8.38364 85.4096 9.28212 82.9121 10.2504 80.4394Z" fill="white"/>
<path d="M4.43119 99.1174C5.07526 96.3405 5.80628 93.5992 6.62424 90.8935L5.54543 89.8125C4.60294 92.8677 3.76566 95.9694 3.03357 99.1174H4.43119Z" fill="white"/>
<path d="M81.0462 7.32736L80.0157 6.29492C77.4394 7.42122 74.9168 8.62412 72.4479 9.90361L73.4236 10.9004C75.9226 9.63606 78.4635 8.44503 81.0462 7.32736Z" fill="white"/>
<path d="M70.8859 12.2307L69.9198 11.2598C67.8137 12.3839 65.7474 13.5728 63.7207 14.8264L64.6675 15.7811C66.7027 14.5383 68.7756 13.3549 70.8859 12.2307Z" fill="white"/>
<path d="M62.2781 17.2703L61.3377 16.3252C59.2102 17.6975 57.1202 19.1291 55.0677 20.62L55.9791 21.5359C58.0358 20.0558 60.1355 18.6339 62.2781 17.2703Z" fill="white"/>
<path d="M53.7538 23.1797L52.8489 22.2734C50.8222 23.8118 48.8407 25.4053 46.9042 27.0537L47.7962 27.9502C49.7348 26.3061 51.7207 24.7159 53.7538 23.1797Z" fill="white"/>
<path d="M91.2126 87.6283L91.6893 88.1073V86.7383L91.2126 87.2076V87.6283Z" fill="white"/>
<path d="M91.2126 76.446C91.3704 76.3165 91.5347 76.1871 91.6893 76.0609V75.9152L91.2126 75.4395V76.446Z" fill="white"/>
<path d="M91.2126 61.7008L91.6893 61.3998V61.2768L91.2126 60.7979V61.7008Z" fill="white"/>
<path d="M91.2126 47.1492L91.6893 46.913V46.8029L91.2126 46.3271V47.1492Z" fill="white"/>
<path d="M91.6893 29.2258V28.8213L91.4059 28.9443L91.6893 29.2258Z" fill="white"/>
<path d="M91.2127 17.5384V17.3086L91.0485 17.3733L91.2127 17.5384Z" fill="white"/>
<path d="M88.907 15.2113C89.6734 14.907 90.4399 14.6157 91.2127 14.3277V13.648L83.7834 6.2041C82.8656 6.57306 81.9511 6.95497 81.0461 7.34335L88.907 15.2113Z" fill="white"/>
<path d="M91.0485 17.3734L91.2128 17.3087V14.3408C90.4399 14.6289 89.6734 14.9202 88.907 15.2244L91.0485 17.3734Z" fill="white"/>
<path d="M91.2126 17.5387L91.6893 18.0177V17.1309L91.2126 17.3089V17.5387Z" fill="white"/>
<path d="M83.7834 6.18827L82.7368 5.13965C81.8255 5.51508 80.9173 5.89699 80.0156 6.29508L81.0461 7.32752C81.951 6.93914 82.8656 6.55723 83.7834 6.18827Z" fill="white"/>
<path d="M91.6893 14.163V14.1274L91.2126 13.6484V14.341L91.6893 14.163Z" fill="white"/>
<path d="M91.2126 17.309L91.6893 17.1309V14.1631L91.2126 14.3411V17.309Z" fill="white"/>
<path d="M83.2101 20.7139C82.3321 21.126 81.4604 21.5478 80.5952 21.9793L88.7105 30.1288C89.5413 29.7501 90.3722 29.3844 91.2127 29.0252V28.7501L83.2101 20.7139Z" fill="white"/>
<path d="M81.1267 18.6194L73.4237 10.9004C72.5703 11.3341 71.7169 11.7775 70.8732 12.2306L78.5118 19.9011C79.3791 19.4652 80.2508 19.038 81.1267 18.6194Z" fill="white"/>
<path d="M90.8295 32.2581L91.2127 32.64V32.0898L90.8295 32.2581Z" fill="white"/>
<path d="M88.7106 30.1281L90.8296 32.2577L91.2128 32.0894V29.0244C90.3723 29.3837 89.5414 29.7494 88.7106 30.1281Z" fill="white"/>
<path d="M83.2103 20.7131L81.1267 18.6191C80.2551 19.0377 79.3877 19.4693 78.5247 19.9137L80.5953 21.9916C81.4584 21.5492 82.33 21.1231 83.2103 20.7131Z" fill="white"/>
<path d="M91.2126 32.6405L91.6893 33.1195V31.8799L91.2126 32.0903V32.6405Z" fill="white"/>
<path d="M73.4237 10.9002L72.4576 9.90332C71.5988 10.3349 70.7529 10.7826 69.9199 11.2465L70.886 12.2174C71.7298 11.7772 72.5831 11.3274 73.4237 10.9002Z" fill="white"/>
<path d="M91.4059 28.9442L91.2126 28.75V29.0251L91.4059 28.9442Z" fill="white"/>
<path d="M91.2126 29.0252V32.0902L91.6893 31.8798V29.2259L91.4059 28.9443L91.2126 29.0252Z" fill="white"/>
<path d="M69.7718 24.7981C70.5769 24.3019 71.3863 23.8164 72.1999 23.3417L64.6676 15.7812C63.8646 16.271 63.0681 16.7673 62.2781 17.27L69.7718 24.7981Z" fill="white"/>
<path d="M79.6936 34.76C80.5181 34.2853 81.3478 33.8214 82.183 33.3683L74.2416 25.3936C73.4237 25.8618 72.6111 26.3429 71.8038 26.837L79.6936 34.76Z" fill="white"/>
<path d="M84.2633 35.4561C83.4196 35.9027 82.5833 36.3612 81.7546 36.8316L89.6799 44.7901C90.1887 44.5247 90.6996 44.2658 91.2128 44.0133V42.4372L84.2633 35.4561Z" fill="white"/>
<path d="M91.2127 46.3275V44.0166C90.6996 44.269 90.1886 44.528 89.6798 44.7934L91.2127 46.3275Z" fill="white"/>
<path d="M79.6936 34.7599L81.7546 36.8312C82.5855 36.363 83.4217 35.9045 84.2633 35.4557L82.1829 33.3682C81.3499 33.8213 80.5202 34.2852 79.6936 34.7599Z" fill="white"/>
<path d="M74.2415 25.3937L72.1999 23.3418C71.384 23.8165 70.5747 24.302 69.7717 24.7982L71.8038 26.8372C72.6088 26.3453 73.4214 25.8641 74.2415 25.3937Z" fill="white"/>
<path d="M64.6675 15.7809L63.7207 14.8262C62.9178 15.3181 62.1234 15.8176 61.3376 16.3247L62.278 17.2697C63.0702 16.7605 63.8667 16.2643 64.6675 15.7809Z" fill="white"/>
<path d="M91.2126 42.4365V44.0159L91.6893 43.7797V42.9155L91.2126 42.4365Z" fill="white"/>
<path d="M91.2126 46.3267L91.6893 46.8025V43.7764L91.2126 44.0126V46.3267Z" fill="white"/>
<path d="M85.0167 50.667C84.2181 51.1622 83.4323 51.6671 82.6498 52.1849L89.7538 59.3052C90.2433 58.9815 90.7199 58.6903 91.2288 58.3925V56.894L85.0167 50.667Z" fill="white"/>
<path d="M75.2206 40.8447C74.4434 41.3626 73.6748 41.888 72.9148 42.4209L80.6146 50.1658C81.3907 49.6447 82.1765 49.1399 82.9687 48.6414L75.2206 40.8447Z" fill="white"/>
<path d="M61.1605 30.6169C61.9055 30.0667 62.6569 29.5272 63.4147 28.9986L56.008 21.5547C55.2566 22.0941 54.5116 22.6421 53.7731 23.1988L61.1605 30.6169Z" fill="white"/>
<path d="M70.8989 40.3982C71.6567 39.8587 72.421 39.329 73.1918 38.809L65.4211 31.0059C64.6611 31.5366 63.9097 32.0761 63.1669 32.6241L70.8989 40.3982Z" fill="white"/>
<path d="M89.7378 59.318L91.2127 60.797V58.4053C90.7168 58.703 90.2273 59.0073 89.7378 59.318Z" fill="white"/>
<path d="M82.6338 52.1848C83.4163 51.667 84.2021 51.1621 85.0007 50.6669L82.9687 48.6279C82.1765 49.1263 81.3907 49.6312 80.6146 50.1523L82.6338 52.1848Z" fill="white"/>
<path d="M70.8988 40.3977L72.9147 42.4205C73.6747 41.8854 74.4433 41.36 75.2205 40.8443L73.1917 38.8086C72.4188 39.3264 71.6545 39.8561 70.8988 40.3977Z" fill="white"/>
<path d="M65.4211 31.0056L63.4116 28.9893C62.6537 29.5244 61.9023 30.0638 61.1573 30.6075L63.154 32.6174C63.9032 32.0736 64.6589 31.5364 65.4211 31.0056Z" fill="white"/>
<path d="M91.2126 58.4057L91.6893 58.1274V57.383L91.2126 56.9072V58.4057Z" fill="white"/>
<path d="M55.9887 21.536L55.0677 20.6201C54.3163 21.1638 53.5735 21.7151 52.8392 22.274L53.7441 23.1802C54.4891 22.6149 55.2373 22.0668 55.9887 21.536Z" fill="white"/>
<path d="M91.2126 60.7971L91.6893 61.2761V58.127L91.2126 58.4053V60.7971Z" fill="white"/>
<path d="M85.4097 65.7236C84.6776 66.2803 83.9552 66.8499 83.2424 67.4325L89.7926 74.0155C90.2628 73.6401 90.7361 73.2733 91.2128 72.9151V71.5461L85.4097 65.7236Z" fill="white"/>
<path d="M76.4088 56.6807C75.6875 57.2503 74.9758 57.8361 74.2705 58.4251L81.2586 65.4451C81.9735 64.8593 82.6949 64.2896 83.4259 63.7265L76.4088 56.6807Z" fill="white"/>
<path d="M66.8154 47.0488C66.1048 47.6292 65.4006 48.2183 64.7029 48.816L72.2932 56.4411C72.9952 55.8456 73.7059 55.262 74.4251 54.6902L66.8154 47.0488Z" fill="white"/>
<path d="M53.0743 37.1418C53.7677 36.5355 54.4644 35.9379 55.1643 35.3488L47.7962 27.9502C47.0984 28.5414 46.405 29.1412 45.7158 29.7497L53.0743 37.1418Z" fill="white"/>
<path d="M62.7193 46.826C63.4149 46.224 64.1169 45.6317 64.8254 45.0492L57.1481 37.3398C56.4439 37.9289 55.7473 38.5266 55.0581 39.1329L62.7193 46.826Z" fill="white"/>
<path d="M89.7926 74.0155L91.2128 75.4395V72.915C90.7319 73.284 90.2585 73.6508 89.7926 74.0155Z" fill="white"/>
<path d="M81.2587 65.4451L83.2424 67.4324C83.953 66.8498 84.6754 66.2802 85.4097 65.7235L83.4259 63.7266C82.6949 64.2897 81.9736 64.8593 81.2587 65.4451Z" fill="white"/>
<path d="M74.2705 58.4247C74.9757 57.8357 75.6874 57.2499 76.4088 56.6803L74.4251 54.6963C73.7059 55.2702 72.9952 55.8539 72.2932 56.4472L74.2705 58.4247Z" fill="white"/>
<path d="M64.703 48.8161C65.3986 48.2163 66.1027 47.6272 66.8155 47.049L64.8253 45.0488C64.1169 45.6314 63.4148 46.2237 62.7192 46.8257L64.703 48.8161Z" fill="white"/>
<path d="M57.1479 37.3391L55.1642 35.3486C54.4622 35.9377 53.7655 36.5353 53.0742 37.1416L55.0579 39.1321C55.7471 38.5279 56.4438 37.9303 57.1479 37.3391Z" fill="white"/>
<path d="M47.7962 27.9502L46.9042 27.0537C46.2043 27.6492 45.513 28.2523 44.8303 28.8629L45.7288 29.7497C46.4072 29.1412 47.0964 28.5414 47.7962 27.9502Z" fill="white"/>
<path d="M91.2126 72.9149C91.3704 72.7952 91.5347 72.6722 91.6893 72.5557V72.0249L91.2126 71.5459V72.9149Z" fill="white"/>
<path d="M91.2126 75.4394L91.6893 75.9151V72.5557C91.5282 72.6722 91.3672 72.7952 91.2126 72.9149V75.4394Z" fill="white"/>
<path d="M54.5267 54.697C55.1515 54.0303 55.7869 53.3711 56.4331 52.7195L48.7881 45.0264C48.144 45.6737 47.5075 46.3318 46.8784 47.0006L54.5267 54.697Z" fill="white"/>
<path d="M83.4581 83.731L89.1195 89.4175C89.7313 88.7378 90.3593 88.0722 91.0034 87.4206L85.3388 81.7373C84.6947 82.3878 84.0732 83.0546 83.4581 83.731Z" fill="white"/>
<path d="M44.9011 45.0126C45.528 44.3481 46.1657 43.6911 46.814 43.0416L39.4588 35.6592C38.8147 36.3065 38.1706 36.9538 37.5459 37.627L44.9011 45.0126Z" fill="white"/>
<path d="M76.8694 73.2256C76.2253 73.8729 75.5974 74.5396 74.9758 75.2128L81.497 81.7602C82.1132 81.087 82.7433 80.4236 83.3874 79.7698L76.8694 73.2256Z" fill="white"/>
<path d="M58.4072 54.6963C57.7631 55.3436 57.1276 56.0028 56.5007 56.6738L64.0846 64.2634C64.7094 63.5934 65.3405 62.9332 65.9878 62.2794L58.4072 54.6963Z" fill="white"/>
<path d="M67.9491 64.2568C67.305 64.9041 66.6717 65.5655 66.0491 66.2408L73.0179 73.2381C73.6383 72.5692 74.2706 71.9079 74.9146 71.2541L67.9491 64.2568Z" fill="white"/>
<path d="M91.2127 91.518V91.1943L91.0581 91.3691L91.2127 91.518Z" fill="white"/>
<path d="M89.1195 89.4181L91.0517 91.36L91.2063 91.1852V87.6251L90.997 87.418C90.3572 88.0717 89.7314 88.7385 89.1195 89.4181Z" fill="white"/>
<path d="M81.4969 81.76L83.4581 83.731C84.0732 83.0546 84.7044 82.3879 85.3452 81.7373L83.3873 79.7695C82.7411 80.4233 82.111 81.0868 81.4969 81.76Z" fill="white"/>
<path d="M74.9758 75.2131C75.5973 74.5399 76.2253 73.8764 76.8694 73.2259L74.905 71.2549C74.2609 71.9022 73.6286 72.5635 73.0082 73.2389L74.9758 75.2131Z" fill="white"/>
<path d="M64.0846 64.2642L66.0554 66.2417C66.6802 65.5729 67.3135 64.9115 67.9554 64.2578L65.9878 62.2803C65.3244 62.934 64.6932 63.5943 64.0846 64.2642Z" fill="white"/>
<path d="M56.5007 56.6614C57.1297 55.9946 57.7652 55.3355 58.4071 54.6839L56.433 52.7031C55.789 53.3504 55.1535 54.0096 54.5266 54.6806L56.5007 56.6614Z" fill="white"/>
<path d="M46.8784 46.9999C47.5075 46.3332 48.144 45.6751 48.7881 45.0257L46.814 43.0449C46.1699 43.6922 45.5323 44.3492 44.9011 45.0159L46.8784 46.9999Z" fill="white"/>
<path d="M91.2126 91.5182L91.6893 91.9972V90.6768C91.5282 90.8483 91.3672 91.0166 91.2126 91.1914V91.5182Z" fill="white"/>
<path d="M39.4587 35.6599L38.5828 34.7764C37.9387 35.4237 37.3021 36.0817 36.6731 36.7506L37.5458 37.6277C38.1738 36.9642 38.8146 36.3105 39.4587 35.6599Z" fill="white"/>
<path d="M91.2126 91.1913C91.3672 91.0165 91.5347 90.8482 91.6893 90.6767V88.1069L91.2126 87.6279V91.1913Z" fill="white"/>
<path d="M67.5562 84.5409L74.1965 91.2081C74.701 90.4248 75.2216 89.6513 75.7583 88.8875L69.1663 82.2656C68.6146 83.0143 68.0778 83.7728 67.5562 84.5409Z" fill="white"/>
<path d="M82.0219 99.0657C82.5028 98.2566 83.0008 97.4604 83.5161 96.6772L77.7581 90.8936C77.2279 91.6617 76.7105 92.4395 76.2059 93.2271L82.0219 99.0657Z" fill="white"/>
<path d="M37.1529 54.0075C37.7197 53.2825 38.2951 52.564 38.879 51.852L31.498 44.4404C30.9119 45.1481 30.3323 45.8634 29.759 46.5862L37.1529 54.0075Z" fill="white"/>
<path d="M60.1526 73.2158C59.5923 73.9516 59.0416 74.6949 58.5006 75.4458L65.5531 82.5305C66.078 81.7699 66.6191 81.0125 67.1633 80.2649L60.1526 73.2158Z" fill="white"/>
<path d="M46.8559 63.7591C47.412 63.0255 47.9777 62.2973 48.553 61.5745L40.8693 53.8555C40.2854 54.5697 39.7121 55.2914 39.1497 56.0207L46.8559 63.7591Z" fill="white"/>
<path d="M85.9475 99.1175L85.4935 98.6611L85.2036 99.1175H85.9475Z" fill="white"/>
<path d="M56.5007 73.439C57.0449 72.6914 57.5956 71.9502 58.1624 71.2155L50.5592 63.5645C49.986 64.2894 49.4224 65.0198 48.8685 65.7556L56.5007 73.439Z" fill="white"/>
<path d="M83.5161 96.6777C83.0008 97.461 82.5028 98.2571 82.0219 99.0663L82.0734 99.1181H85.2036L85.4934 98.6617L83.5161 96.6777Z" fill="white"/>
<path d="M75.7583 88.8867C75.2215 89.6505 74.7009 90.424 74.1964 91.2073L76.2059 93.2268C76.7083 92.4371 77.2257 91.6593 77.7581 90.8933L75.7583 88.8867Z" fill="white"/>
<path d="M67.5562 84.5401C68.08 83.772 68.6167 83.0168 69.1663 82.2746L67.1697 80.2744C66.6191 81.0188 66.078 81.7762 65.5596 82.54L67.5562 84.5401Z" fill="white"/>
<path d="M56.5007 73.4395L58.5006 75.4462C59.0416 74.6953 59.5923 73.952 60.1526 73.2162L58.1624 71.2031C57.5956 71.9508 57.045 72.6919 56.5007 73.4395Z" fill="white"/>
<path d="M48.8524 65.7554C49.4063 65.0175 49.9699 64.2871 50.5431 63.5643L48.553 61.5674C47.9754 62.2902 47.4097 63.0184 46.8558 63.752L48.8524 65.7554Z" fill="white"/>
<path d="M40.8692 53.8485L38.8791 51.8516C38.2951 52.5636 37.7197 53.2821 37.153 54.0071L39.1496 56.0137C39.7142 55.2866 40.2874 54.5648 40.8692 53.8485Z" fill="white"/>
<path d="M31.498 44.4402L30.6189 43.5566C30.0328 44.2644 29.4531 44.9785 28.8799 45.6992L29.759 46.586C30.3323 45.8653 30.9119 45.1501 31.498 44.4402Z" fill="white"/>
<path d="M22.1624 78.76C22.5649 77.8732 22.9803 76.9896 23.4022 76.1158L15.7056 68.3838C15.2634 69.2469 14.834 70.1099 14.4175 70.973L22.1624 78.76Z" fill="white"/>
<path d="M46.2826 99.1186H46.309L46.2892 99.0986C46.2892 99.0986 46.2859 99.112 46.2826 99.1186Z" fill="white"/>
<path d="M32.5061 89.1457C32.8732 88.2222 33.2522 87.3063 33.6429 86.3979L25.4826 78.2031C25.0639 79.0834 24.6549 79.9702 24.2556 80.8635L32.5061 89.1457Z" fill="white"/>
<path d="M44.1185 96.9037L35.7843 88.5342C35.4021 89.4533 35.0307 90.3779 34.67 91.3079L42.4471 99.1175H43.3553C43.5871 98.3893 43.8448 97.6384 44.1185 96.9037Z" fill="white"/>
<path d="M45.3326 102.027C45.3519 101.975 45.3648 101.923 45.3809 101.868H45.1748L45.3326 102.027Z" fill="white"/>
<path d="M44.1186 96.9033C43.8577 97.638 43.6001 98.3759 43.3553 99.1171H46.2955C46.2955 99.1171 46.2955 99.1171 46.2955 99.0977L44.1186 96.9033Z" fill="white"/>
<path d="M34.6573 91.3082C35.018 90.3761 35.3894 89.4515 35.7715 88.5345L33.6429 86.3984C33.25 87.3068 32.8711 88.2227 32.5061 89.1462L34.6573 91.3082Z" fill="white"/>
<path d="M24.2556 80.8642C24.6549 79.9709 25.0639 79.0841 25.4825 78.2038L23.4022 76.1162C22.9803 76.9901 22.5649 77.8736 22.1624 78.7604L24.2556 80.8642Z" fill="white"/>
<path d="M14.411 70.9762C14.8403 70.1131 15.2697 69.25 15.6991 68.387L14.733 67.416C14.2886 68.2791 13.8528 69.1421 13.4255 70.0052L14.411 70.9762Z" fill="white"/>
<path d="M28.851 99.1173H29.0797C29.3502 98.1787 29.6346 97.2445 29.9331 96.3145L21.4282 87.7734C21.0739 88.7228 20.7315 89.6765 20.4009 90.6345L28.851 99.1173Z" fill="white"/>
<path d="M18.2336 88.4565C18.5728 87.5072 18.9227 86.561 19.2834 85.6181L11.3743 77.6758C10.9921 78.5885 10.6175 79.5087 10.2504 80.4365L18.2336 88.4565Z" fill="white"/>
<path d="M31.9779 99.1174H32.725L32.1486 98.5381C32.0906 98.729 32.0359 98.9232 31.9779 99.1174Z" fill="white"/>
<path d="M29.9491 96.3145C29.6485 97.2444 29.3641 98.1787 29.0957 99.1173H31.994C32.052 98.9231 32.1067 98.7289 32.1647 98.5379L29.9491 96.3145Z" fill="white"/>
<path d="M20.4008 90.622C20.7314 89.6597 21.0739 88.706 21.4281 87.761L19.2834 85.6055C18.9227 86.5462 18.5727 87.4923 18.2335 88.4439L20.4008 90.622Z" fill="white"/>
<path d="M11.3742 77.6755L10.3727 76.6689C9.98193 77.5795 9.60193 78.4954 9.23267 79.4167L10.2503 80.4362C10.6174 79.5127 10.992 78.5925 11.3742 77.6755Z" fill="white"/>
<path d="M14.8136 99.1176H14.9682C15.2193 98.1467 15.4866 97.1563 15.7636 96.1789L7.55494 87.9355C7.23291 88.9194 6.92269 89.9055 6.62427 90.8937L14.8136 99.1176Z" fill="white"/>
<path d="M18.0048 98.4316L17.8213 99.1178H18.6779L18.0048 98.4316Z" fill="white"/>
<path d="M18.0049 98.4316L15.7506 96.166C15.4737 97.137 15.2064 98.1079 14.9552 99.1048H17.8084L18.0049 98.4316Z" fill="white"/>
<path d="M6.62422 90.8934C6.92264 89.903 7.23286 88.917 7.5549 87.9352L6.48897 86.8672C6.16479 87.8446 5.85027 88.8263 5.54541 89.8124L6.62422 90.8934Z" fill="white"/>
<path d="M36.773 79.7701C37.2024 78.9199 37.6511 78.0741 38.1191 77.2326L30.1939 69.2773C29.7173 70.0973 29.2492 70.9236 28.7898 71.7565L36.773 79.7701Z" fill="white"/>
<path d="M57.644 96.8256L50.2372 89.4141C49.8185 90.2944 49.416 91.1844 49.0199 92.0809L56.0338 99.1171H56.6779C56.987 98.3511 57.309 97.5873 57.644 96.8256Z" fill="white"/>
<path d="M26.7449 69.701C27.2065 68.8725 27.6777 68.0493 28.1586 67.2316L20.6102 59.6582C20.1175 60.4609 19.6441 61.2764 19.1514 62.0856L26.7449 69.701Z" fill="white"/>
<path d="M59.6888 99.1176H59.8982L59.7404 98.959C59.7307 99.0108 59.7114 99.0658 59.6888 99.1176Z" fill="white"/>
<path d="M46.917 89.9744C47.3163 89.0876 47.7307 88.2072 48.16 87.3334L40.1833 79.2939C39.7303 80.1397 39.2869 80.992 38.8533 81.8508L46.917 89.9744Z" fill="white"/>
<path d="M57.6439 96.8262C57.3175 97.5857 57.003 98.3495 56.7003 99.1176H59.7017C59.7242 99.0658 59.7435 99.0108 59.7661 98.959L57.6439 96.8262Z" fill="white"/>
<path d="M48.1602 87.3174C47.7308 88.1912 47.3164 89.0716 46.9171 89.9584L49.0297 92.0815C49.4258 91.185 49.8283 90.295 50.2469 89.4146L48.1602 87.3174Z" fill="white"/>
<path d="M40.1834 79.2943L38.1192 77.2197C37.6576 78.0612 37.2089 78.907 36.7731 79.7571L38.8534 81.8511C39.2892 81.0096 39.7326 80.1574 40.1834 79.2943Z" fill="white"/>
<path d="M30.1939 69.2769L28.1586 67.2314C27.6798 68.0492 27.2086 68.8723 26.7449 69.7009L28.7898 71.7561C29.2471 70.921 29.7151 70.0947 30.1939 69.2769Z" fill="white"/>
<path d="M20.6101 59.6587L19.6923 58.7363C19.1964 59.5357 18.7069 60.3546 18.2271 61.154L19.1513 62.0861C19.644 61.2705 20.1238 60.4614 20.6101 59.6587Z" fill="white"/>
<path d="M64.2649 89.79C63.7883 90.6153 63.3342 91.4536 62.8866 92.2983L69.6783 99.1176H69.7717C70.1774 98.2675 70.5993 97.426 71.0372 96.5932L64.2649 89.79Z" fill="white"/>
<path d="M51.5832 80.9479C52.0631 80.1356 52.5493 79.3297 53.0517 78.5303L45.3229 70.7627C44.8034 71.5438 44.2956 72.3302 43.7997 73.1221L51.5832 80.9479Z" fill="white"/>
<path d="M72.8696 99.1175H73.5524L73.1015 98.6611L72.8696 99.1175Z" fill="white"/>
<path d="M55.087 80.5889C54.5868 81.3872 54.1005 82.1963 53.6282 83.0162L60.8256 90.2433C61.2808 89.4083 61.7477 88.5808 62.2265 87.7609L55.087 80.5889Z" fill="white"/>
<path d="M41.7548 71.0761C42.2572 70.2864 42.7703 69.5042 43.2942 68.7296L35.5267 60.9297C34.9964 61.6935 34.4726 62.4638 33.9552 63.2405L41.7548 71.0761Z" fill="white"/>
<path d="M31.936 61.2147C32.4512 60.4412 32.9826 59.6742 33.5172 58.9136L26.0847 51.46C25.5404 52.2108 25.0091 52.9714 24.4745 53.7255L31.936 61.2147Z" fill="white"/>
<path d="M71.0373 96.5928C70.6079 97.4235 70.1861 98.265 69.7717 99.1172H72.8697L73.0983 98.6609L71.0373 96.5928Z" fill="white"/>
<path d="M62.2265 87.7441C61.7478 88.5619 61.2808 89.3894 60.8257 90.2265L62.8867 92.2979C63.3343 91.4532 63.7884 90.6149 64.265 89.7896L62.2265 87.7441Z" fill="white"/>
<path d="M53.0517 78.5303C52.5494 79.3297 52.0631 80.1485 51.5833 80.9479L53.6282 82.9999C54.1026 82.18 54.5889 81.3708 55.087 80.5725L53.0517 78.5303Z" fill="white"/>
<path d="M43.7966 73.1191C44.2968 72.3273 44.8046 71.5408 45.3198 70.7597L43.3007 68.7305C42.7768 69.5072 42.2637 70.2894 41.7614 71.0769L43.7966 73.1191Z" fill="white"/>
<path d="M33.9552 63.2412C34.4704 62.4644 34.9943 61.6942 35.5267 60.9303L33.5172 58.9043C32.9826 59.6649 32.4513 60.4319 31.936 61.2054L33.9552 63.2412Z" fill="white"/>
<path d="M26.0847 51.46L25.1927 50.5635C24.6495 51.3143 24.1128 52.0695 23.5825 52.829L24.4745 53.7255C25.0059 52.9585 25.5373 52.1979 26.0847 51.46Z" fill="white"/>
<path d="M102.378 97.0658C100.63 94.3647 98.6708 91.8074 96.5198 89.418L94.5876 91.3599C96.7373 93.7556 98.6838 96.3279 100.407 99.0498L102.378 97.0658Z" fill="white"/>
<path d="M94.4266 87.207V87.6278L94.636 87.4206C94.5651 87.3494 94.4975 87.275 94.4266 87.207Z" fill="white"/>
<path d="M110.135 89.2652C108.304 86.631 106.299 84.1236 104.133 81.7598L102.172 83.7308C104.336 86.0993 106.333 88.6182 108.145 91.2686L110.135 89.2652Z" fill="white"/>
<path d="M100.291 81.7379L102.252 79.7701C102.188 79.7054 102.126 79.6374 102.059 79.5727C100.096 77.6011 98.0205 75.7456 95.8436 74.0156L94.4266 75.4397V76.4462C96.4803 78.0962 98.4382 79.863 100.291 81.7379Z" fill="white"/>
<path d="M112.538 98.6616L114.599 96.5935C113.704 94.8911 112.737 93.2265 111.701 91.5996L109.681 93.6257C110.701 95.2612 111.653 96.9398 112.538 98.6616Z" fill="white"/>
<path d="M123.413 87.7442C122.449 86.1001 121.427 84.4894 120.347 82.9121L118.347 84.922C119.421 86.5035 120.43 88.1218 121.374 89.7767L123.413 87.7442Z" fill="white"/>
<path d="M124.81 90.2266L122.749 92.2979C123.892 94.4556 124.937 96.6758 125.886 98.9586L128.008 96.8258C127.042 94.5818 125.976 92.3821 124.81 90.2266Z" fill="white"/>
<path d="M108.77 73.2258L110.731 71.2548L110.538 71.0541C108.565 69.0713 106.511 67.2016 104.377 65.4453L102.407 67.4325C104.628 69.2496 106.752 71.1834 108.77 73.2258Z" fill="white"/>
<path d="M100.226 65.7234L102.213 63.7265C100.17 62.1535 98.0656 60.6842 95.9015 59.3184L94.4266 60.7974V61.7004C96.4211 62.9562 98.3544 64.2972 100.226 65.7234Z" fill="white"/>
<path d="M116.744 82.6371L118.74 80.6337C116.842 78.0537 114.799 75.5846 112.622 73.2383L110.657 75.2125C112.831 77.5639 114.863 80.0431 116.744 82.6371Z" fill="white"/>
<path d="M100.639 50.6675L102.671 48.6285C100.481 47.2541 98.2427 45.9746 95.9563 44.79L94.4266 46.3274V47.1494C96.5456 48.2434 98.6163 49.4161 100.639 50.6675Z" fill="white"/>
<path d="M109.23 56.6807L111.214 54.6903C109.205 53.0914 107.142 51.5811 105.025 50.1592L103.002 52.1917C105.141 53.6028 107.217 55.0991 109.23 56.6807Z" fill="white"/>
<path d="M138.722 89.9746L136.607 92.0977C137.613 94.3892 138.528 96.7281 139.35 99.1145L141.534 96.9201C140.69 94.5575 139.753 92.2423 138.722 89.9746Z" fill="white"/>
<path d="M125.764 73.5815L127.754 71.5814C125.815 69.0393 123.751 66.597 121.568 64.2637L119.6 66.2412C121.779 68.5798 123.836 71.0299 125.764 73.5815Z" fill="white"/>
<path d="M132.588 78.53C131.576 76.929 130.516 75.3572 129.406 73.8145L127.409 75.8211C128.504 77.3681 129.552 78.9518 130.552 80.5723L132.588 78.53Z" fill="white"/>
<path d="M137.479 87.3176C136.419 85.16 135.277 83.0369 134.053 80.9482L132.011 83.0002C133.216 85.0888 134.342 87.227 135.389 89.4149L137.479 87.3176Z" fill="white"/>
<path d="M117.7 64.2575L119.668 62.28C119.6 62.2153 119.536 62.1441 119.471 62.0761C117.5 60.0976 115.461 58.2193 113.353 56.4414L111.375 58.4254C113.572 60.2702 115.68 62.2142 117.7 64.2575Z" fill="white"/>
<path d="M141.849 73.1188C143.114 75.1383 144.316 77.201 145.456 79.3069L147.52 77.2323C146.378 75.1459 145.165 73.0961 143.881 71.083L141.849 73.1188Z" fill="white"/>
<path d="M137.067 66.1216C138.194 67.6319 139.279 69.1779 140.323 70.7595L142.345 68.7302C141.293 67.1659 140.198 65.6285 139.06 64.1182L137.067 66.1216Z" fill="white"/>
<path d="M129.135 56.6614C131.323 58.9874 133.406 61.4083 135.383 63.9241L137.37 61.9272C135.399 59.4351 133.313 57.0196 131.113 54.6807L129.135 56.6614Z" fill="white"/>
<path d="M150.982 91.3075C151.901 93.6809 152.737 96.091 153.491 98.5378L155.706 96.3143C154.934 93.8934 154.075 91.5038 153.13 89.1455L150.982 91.3075Z" fill="white"/>
<path d="M149.868 88.5344L152 86.4145C151.034 84.1705 149.991 81.9611 148.873 79.7861L146.789 81.8801C147.886 84.0508 148.912 86.2688 149.868 88.5344Z" fill="white"/>
<path d="M96.932 30.1289L94.8098 32.2585C97.0404 33.2489 99.2303 34.3148 101.379 35.4562L103.456 33.3686C101.316 32.2143 99.1412 31.1344 96.932 30.1289Z" fill="white"/>
<path d="M110.419 40.8444L112.448 38.8086C110.322 37.3781 108.155 36.0285 105.946 34.7598L103.881 36.8311C106.119 38.0912 108.298 39.4289 110.419 40.8444Z" fill="white"/>
<path d="M120.936 48.8156C123.111 50.6885 125.21 52.6444 127.232 54.6834L129.203 52.7027L129.003 52.4955C127.037 50.5191 125.009 48.629 122.92 46.8252L120.936 48.8156Z" fill="white"/>
<path d="M120.814 45.0483C118.837 43.4193 116.812 41.869 114.74 40.3975L112.712 42.4203C114.801 43.8939 116.834 45.4367 118.811 47.0484L120.814 45.0483Z" fill="white"/>
<path d="M111.398 25.3937L113.439 23.3418C111.37 22.1356 109.262 20.9888 107.115 19.9014L105.044 21.9792C107.2 23.0537 109.317 24.1919 111.398 25.3937Z" fill="white"/>
<path d="M94.5908 17.3736C97.2508 18.3964 99.8636 19.5097 102.429 20.7137L104.513 18.6197C102.902 17.8526 101.292 17.1115 99.6306 16.4124C98.6667 16.0046 97.7006 15.6087 96.7323 15.2246L94.5908 17.3736Z" fill="white"/>
<path d="M136.864 45.0257L138.838 43.0417C138.771 42.9738 138.703 42.8993 138.632 42.8314C136.672 40.8571 134.653 38.9605 132.575 37.1416L130.594 39.132C132.743 41.0222 134.833 42.9867 136.864 45.0257Z" fill="white"/>
<path d="M138.761 46.9999C140.951 49.3129 143.05 51.7144 145.06 54.2043L147.047 52.2107C145.044 49.738 142.941 47.3387 140.738 45.0127L138.761 46.9999Z" fill="white"/>
<path d="M161.384 80.8635C162.395 83.129 163.337 85.4323 164.211 87.7734L166.356 85.6179C165.892 84.4139 165.409 83.2099 164.907 82.0157C164.446 80.9217 163.966 79.8375 163.477 78.7598L161.384 80.8635Z" fill="white"/>
<path d="M151.678 63.2409C152.989 65.213 154.242 67.225 155.436 69.2769L157.471 67.2315C156.269 65.1882 155.011 63.1826 153.697 61.2148L151.678 63.2409Z" fill="white"/>
<path d="M128.491 37.3394L130.475 35.3489C128.519 33.7048 126.52 32.1275 124.479 30.6172L122.479 32.627C124.533 34.1353 126.538 35.706 128.491 37.3394Z" fill="white"/>
<path d="M150.109 60.9302L152.122 58.9139C151.049 57.3776 149.93 55.8673 148.766 54.3828L146.77 56.3862C147.921 57.8728 149.034 59.3875 150.109 60.9302Z" fill="white"/>
<path d="M160.157 78.2035L162.234 76.1159C161.184 73.941 160.071 71.8027 158.894 69.7012L156.849 71.7564C158.013 73.8665 159.116 76.0156 160.157 78.2035Z" fill="white"/>
<path d="M120.218 31.0054L122.228 28.9891C120.15 27.5262 118.03 26.1291 115.868 24.7979L113.836 26.8368C116.01 28.1616 118.138 29.5512 120.218 31.0054Z" fill="white"/>
<path d="M165.235 90.6218C166.122 93.1808 166.922 95.7797 167.634 98.4185L169.889 96.1529C169.152 93.5637 168.329 90.9897 167.419 88.4307L165.235 90.6218Z" fill="white"/>
<path d="M93.95 14.1277L94.4266 13.6487V3.42464C96.9406 4.2726 99.417 5.19392 101.856 6.1886L102.899 5.13998C99.9688 3.92953 96.9857 2.82265 93.95 1.81934V14.1277Z" fill="white"/>
<path d="M178.084 87.9358L179.147 86.8678C178.308 84.3498 177.393 81.8685 176.403 79.4238L175.386 80.4433C176.358 82.9138 177.258 85.4113 178.084 87.9358Z" fill="white"/>
<path d="M165.023 59.6587L165.941 58.7363C164.698 56.7297 163.409 54.7587 162.076 52.8232L161.162 53.7262C162.499 55.6681 163.786 57.6456 165.023 59.6587Z" fill="white"/>
<path d="M112.2 10.9004L113.192 9.90361C110.712 8.62412 108.19 7.42122 105.627 6.29492L104.596 7.32736C107.177 8.44503 109.711 9.63606 112.2 10.9004Z" fill="white"/>
<path d="M129.651 21.5359L130.562 20.62C128.516 19.1312 126.429 17.6996 124.302 16.3252L123.361 17.2703C125.493 18.636 127.59 20.0579 129.651 21.5359Z" fill="white"/>
<path d="M179.012 90.8935C179.826 93.5992 180.558 96.3405 181.208 99.1174H182.593C181.863 95.9715 181.025 92.8699 180.078 89.8125L179.012 90.8935Z" fill="white"/>
<path d="M120.969 15.7814L121.919 14.8266C119.89 13.573 117.827 12.3798 115.729 11.2471L114.763 12.218C116.867 13.3508 118.936 14.5386 120.969 15.7814Z" fill="white"/>
<path d="M146.177 35.6599L147.057 34.7764C145.038 32.7395 142.955 30.7685 140.806 28.8633L139.923 29.7501C142.075 31.6531 144.159 33.6231 146.177 35.6599Z" fill="white"/>
<path d="M94.4266 42.4365V32.6396L93.95 33.1187V42.9123L94.4266 42.4365Z" fill="white"/>
<path d="M154.431 44.7927L155.31 43.9124C153.279 41.4483 151.165 39.0609 148.966 36.75L148.093 37.6271C150.294 39.9444 152.406 42.3329 154.431 44.7927Z" fill="white"/>
<path d="M94.4266 28.7503V17.5391L93.95 18.0181V28.8215L94.2333 28.9445L94.4266 28.7503Z" fill="white"/>
<path d="M169.934 68.3839L170.9 67.4129C169.792 65.2855 168.631 63.1947 167.415 61.1406L166.491 62.0857C167.691 64.1506 168.839 66.25 169.934 68.3839Z" fill="white"/>
<path d="M171.228 70.9761C172.302 73.177 173.314 75.4101 174.265 77.6757L175.267 76.6724C174.301 74.4155 173.278 72.192 172.198 70.002L171.228 70.9761Z" fill="white"/>
<path d="M159.558 51.4597L160.45 50.5665C159.346 49.0561 158.212 47.5587 157.046 46.0742L156.164 46.961C157.327 48.4261 158.459 49.9256 159.558 51.4597Z" fill="white"/>
<path d="M102.899 5.13973C103.814 5.51516 104.722 5.89707 105.624 6.29516C108.2 7.42146 110.723 8.62435 113.191 9.90385C114.05 10.3354 114.896 10.7831 115.729 11.247C117.824 12.3862 119.888 13.5794 121.919 14.8265C122.717 15.3185 123.512 15.818 124.302 16.325C126.431 17.6973 128.518 19.1289 130.562 20.6199C131.309 21.1636 132.051 21.7149 132.787 22.2737C134.816 23.8121 136.799 25.4056 138.735 27.054C139.431 27.6495 140.121 28.2526 140.806 28.8632C142.953 30.7684 145.036 32.7395 147.056 34.7763C147.701 35.4236 148.337 36.0817 148.966 36.7505C151.162 39.0614 153.277 41.4488 155.31 43.9129C155.896 44.6206 156.475 45.3359 157.046 46.0587C158.207 47.5324 159.342 49.0298 160.45 50.5509C160.993 51.3018 161.53 52.057 162.06 52.8165C163.402 54.7584 164.69 56.7294 165.924 58.7296C166.42 59.529 166.91 60.3478 167.39 61.1472C168.603 63.2056 169.764 65.2964 170.874 67.4195C171.318 68.2826 171.754 69.1457 172.182 70.0087C173.255 72.2009 174.278 74.4244 175.25 76.6791C175.641 77.5897 176.02 78.5056 176.387 79.4269C177.373 81.8737 178.287 84.355 179.131 86.8708C179.459 87.8483 179.774 88.83 180.075 89.8161C181.021 92.8713 181.86 95.9729 182.59 99.121H183.994C178.712 76.2635 167.648 55.1635 151.873 37.8633C136.098 20.563 116.147 7.64826 93.95 0.369141V1.81909C96.9835 2.8224 99.9666 3.92928 102.899 5.13973Z" fill="white"/>
<path d="M94.4266 91.5186L93.95 91.9976V99.1178H94.4266V91.5186Z" fill="white"/>
<path d="M137.83 27.9502L138.722 27.0537C136.79 25.4053 134.807 23.8118 132.774 22.2734L131.873 23.1797C133.912 24.7138 135.898 26.3039 137.83 27.9502Z" fill="white"/>
<path d="M94.4266 76.4457C94.2688 76.3162 94.1045 76.1868 93.95 76.0605V86.741L94.4266 87.2103V76.4457Z" fill="white"/>
<path d="M94.4266 47.1493L93.95 46.9131V57.3831L94.4266 56.9074V47.1493Z" fill="white"/>
<path d="M94.4266 61.7004L93.95 61.3994V72.0248L94.4266 71.5458V61.7004Z" fill="white"/>
<path d="M91.6893 0.36896V1.81891L92.5814 1.52115V99.1176H93.0676V1.52115L93.9597 1.81891V0.36896L93.4766 0.210372L92.8325 0L92.1885 0.210372L91.6893 0.36896Z" fill="white"/>
<path d="M91.6893 46.929V57.3829L92.1563 57.8522L92.5814 57.603V47.6993L91.7602 46.874L91.6893 46.929Z" fill="white"/>
<path d="M93.95 18.0176L93.0676 18.9141V28.452C93.3639 28.575 93.6634 28.6948 93.9596 28.821L93.95 18.0176Z" fill="white"/>
<path d="M91.6893 28.821C91.9856 28.6948 92.2819 28.575 92.5814 28.452V18.9141L91.6893 18.0176V28.821Z" fill="white"/>
<path d="M91.6893 76.0573V86.7377C91.9824 86.4496 92.2819 86.1616 92.5814 85.88V76.8179L91.7795 75.999L91.6893 76.0573Z" fill="white"/>
<path d="M91.6893 61.3991V72.0245L91.9953 72.3482L92.5814 71.921V62.1727L91.7795 61.3506L91.6893 61.3991Z" fill="white"/>
<path d="M93.95 57.3833V46.9295L93.8791 46.8906L93.0676 47.6997V57.6099L93.4927 57.8591L93.95 57.3833Z" fill="white"/>
<path d="M91.6893 42.9128L92.2658 43.4953L92.5878 43.34V34.0156L91.6958 33.1191L91.6893 42.9128Z" fill="white"/>
<path d="M91.6893 99.1174H92.5814V92.8936L91.6893 91.9971V99.1174Z" fill="white"/>
<path d="M93.95 76.0576L93.8695 75.9961L93.0676 76.8117V85.8739C93.3671 86.1587 93.6666 86.4467 93.9596 86.7348L93.95 76.0576Z" fill="white"/>
<path d="M91.6893 14.1276L91.7151 14.1535C92.0017 14.0467 92.2915 13.9464 92.5814 13.8299V1.52148L91.6893 1.81924V14.1276Z" fill="white"/>
<path d="M93.95 72.0245V61.3991L93.8727 61.3506L93.0676 62.1727V71.9048L93.6537 72.332L93.95 72.0245Z" fill="white"/>
<path d="M93.95 42.9128V33.1191L93.0676 34.0156V43.34L93.3897 43.4953L93.95 42.9128Z" fill="white"/>
<path d="M93.95 91.9971L93.058 92.8936V99.1174H93.95V91.9971Z" fill="white"/>
<path d="M93.95 14.1276V1.82895L93.0676 1.52148V13.8428L93.9339 14.1665L93.95 14.1276Z" fill="white"/>
<path d="M91.6893 88.1066L92.5814 89.0031V85.8799C92.2819 86.1615 91.9824 86.4495 91.6893 86.7376V88.1066Z" fill="white"/>
<path d="M92.5813 72.9215V71.9053L91.9952 72.3325L92.5813 72.9215Z" fill="white"/>
<path d="M91.7795 75.9992L91.699 75.915V76.0574L91.7795 75.9992Z" fill="white"/>
<path d="M92.5813 58.2826V57.6094L92.1562 57.8586L92.5813 58.2826Z" fill="white"/>
<path d="M91.7799 61.3513L91.7054 61.2764V61.4002L91.7799 61.3513Z" fill="white"/>
<path d="M92.5813 43.8091V43.3398L92.2593 43.4952L92.5813 43.8091Z" fill="white"/>
<path d="M91.7605 46.8745L91.6893 46.8027V46.9299L91.7605 46.8745Z" fill="white"/>
<path d="M91.6893 29.2257L92.5814 30.1254V28.4521C92.2819 28.5751 91.9856 28.6949 91.6893 28.8211V29.2257Z" fill="white"/>
<path d="M92.5814 15.0241V13.8428C92.2915 13.9463 92.0017 14.0467 91.7151 14.1664L92.5814 15.0241Z" fill="white"/>
<path d="M91.7158 14.1536L91.6893 14.127V14.1636L91.7158 14.1536Z" fill="white"/>
<path d="M91.6893 18.0173L92.5814 18.9138V16.7939L91.6893 17.1176V18.0173Z" fill="white"/>
<path d="M91.6893 14.163V17.1309L92.5814 16.8072V15.0239L91.7151 14.1533L91.6893 14.163Z" fill="white"/>
<path d="M91.6893 33.1192L92.5814 34.0157V31.4912L91.6893 31.8796V33.1192Z" fill="white"/>
<path d="M91.6893 31.8795L92.5814 31.4911V30.1253L91.6893 29.2256V31.8795Z" fill="white"/>
<path d="M92.5814 47.6992V46.4629L91.7603 46.8739L92.5814 47.6992Z" fill="white"/>
<path d="M92.2658 43.4957L91.6893 42.9131V43.7772C91.8825 43.6931 92.0726 43.5863 92.2658 43.4957Z" fill="white"/>
<path d="M91.6893 43.7766V46.8028L91.7602 46.874L92.5814 46.4629V43.809L92.2593 43.4854C92.0725 43.5857 91.8826 43.6925 91.6893 43.7766Z" fill="white"/>
<path d="M92.1563 57.8521L91.6893 57.3828V58.1272L92.1563 57.8521Z" fill="white"/>
<path d="M92.5814 62.1727V60.8457L91.7795 61.3506L92.5814 62.1727Z" fill="white"/>
<path d="M91.6893 58.1276V61.2768L91.7634 61.3512L92.5814 60.8528V58.283L92.1563 57.8525L91.6893 58.1276Z" fill="white"/>
<path d="M91.9953 72.3324L91.6893 72.0088V72.5396L91.9953 72.3324Z" fill="white"/>
<path d="M92.5814 76.8113V75.3711C92.3109 75.5782 92.0372 75.7854 91.7699 75.999L92.5814 76.8113Z" fill="white"/>
<path d="M91.6893 72.5553V75.9148L91.7698 75.999C92.0371 75.7854 92.3109 75.5782 92.5814 75.3711V72.9211L91.9953 72.332L91.6893 72.5553Z" fill="white"/>
<path d="M91.6893 91.997L92.5814 92.8935V89.7314C92.2786 90.0551 91.9824 90.3593 91.6893 90.6765V91.997Z" fill="white"/>
<path d="M91.6893 90.6772C91.9824 90.3536 92.2786 90.0461 92.5814 89.7321V89.0039L91.6893 88.1074V90.6772Z" fill="white"/>
<path d="M94.4266 87.2076L93.95 86.7383V88.1073L94.4266 87.6283V87.2076Z" fill="white"/>
<path d="M93.95 86.7379C93.6569 86.4498 93.3575 86.1618 93.058 85.877V89.0034L93.95 88.1069V86.7379Z" fill="white"/>
<path d="M94.4266 75.4395L93.95 75.9152V76.0576C94.111 76.1838 94.272 76.3133 94.4266 76.4428V75.4395Z" fill="white"/>
<path d="M93.0676 71.9053V72.9215L93.6537 72.3325L93.0676 71.9053Z" fill="white"/>
<path d="M93.8695 75.9992L93.95 76.0607V75.915L93.8695 75.9992Z" fill="white"/>
<path d="M94.4266 60.7979L93.95 61.2768V61.3998L94.4266 61.7008V60.7979Z" fill="white"/>
<path d="M93.0676 57.6094V58.289L93.4927 57.8586L93.0676 57.6094Z" fill="white"/>
<path d="M93.8727 61.3513L93.9504 61.4002V61.2764L93.8727 61.3513Z" fill="white"/>
<path d="M94.4266 46.3271L93.95 46.8029V46.9291L94.4266 47.1654V46.3271Z" fill="white"/>
<path d="M93.0676 43.3398V43.8091L93.3896 43.4855L93.0676 43.3398Z" fill="white"/>
<path d="M93.8792 46.8745L93.9503 46.9136V46.8027L93.8792 46.8745Z" fill="white"/>
<path d="M93.95 28.8213V29.2258L94.2334 28.9443L93.95 28.8213Z" fill="white"/>
<path d="M93.95 28.8211C93.6537 28.6949 93.3542 28.5751 93.058 28.4521V30.1254L93.95 29.2257V28.8211Z" fill="white"/>
<path d="M93.0676 13.8428V15.0241L93.9339 14.1535L93.0676 13.8428Z" fill="white"/>
<path d="M94.4266 17.3086V17.5384L94.5909 17.3733L94.4266 17.3086Z" fill="white"/>
<path d="M96.7324 15.2111L104.593 7.31405C103.688 6.92567 102.774 6.54376 101.856 6.1748L94.4266 13.6479V14.3405C95.1963 14.6285 95.966 14.9198 96.7324 15.2111Z" fill="white"/>
<path d="M96.7324 15.2117C95.966 14.9075 95.1963 14.6162 94.4266 14.3281V17.296L94.5909 17.3607L96.7324 15.2117Z" fill="white"/>
<path d="M104.593 7.32752L105.624 6.29508C104.722 5.89699 103.814 5.51508 102.899 5.13965L101.856 6.18827C102.774 6.55723 103.695 6.93914 104.593 7.32752Z" fill="white"/>
<path d="M94.4266 17.3089L93.95 17.1309V18.0177L94.4266 17.5387V17.3089Z" fill="white"/>
<path d="M94.4266 13.6484L93.95 14.1274V14.163L94.4266 14.341V13.6484Z" fill="white"/>
<path d="M93.9242 14.1539H93.9506V14.1172L93.9242 14.1539Z" fill="white"/>
<path d="M93.95 17.1303L93.058 16.8066V18.9265L93.95 18.03V17.1303Z" fill="white"/>
<path d="M94.4266 14.3411L93.95 14.1631V17.1309L94.4266 17.309V14.3411Z" fill="white"/>
<path d="M93.95 14.1631H93.9242L93.0676 15.024V16.7944L93.9596 17.118L93.95 14.1631Z" fill="white"/>
<path d="M94.8066 32.2581L94.4266 32.0898V32.64L94.8066 32.2581Z" fill="white"/>
<path d="M96.9321 30.1288L105.047 21.9793C104.189 21.5478 103.317 21.126 102.432 20.7139L94.4266 28.7501V29.0252C95.2639 29.3844 96.098 29.7501 96.9321 30.1288Z" fill="white"/>
<path d="M104.513 18.6192C105.384 19.0378 106.252 19.4693 107.115 19.9138L114.75 12.2433C113.906 11.7902 113.056 11.3468 112.2 10.9131L104.513 18.6192Z" fill="white"/>
<path d="M94.8066 32.2577L96.932 30.1281C96.1012 29.7494 95.2671 29.3837 94.4298 29.0244V32.0894L94.8066 32.2577Z" fill="white"/>
<path d="M105.044 21.9789L107.115 19.901C106.256 19.4695 105.389 19.038 104.513 18.6064L102.429 20.7134C103.309 21.1255 104.181 21.5473 105.044 21.9789Z" fill="white"/>
<path d="M114.75 12.2311L115.716 11.2601C114.875 10.8049 114.029 10.3572 113.179 9.91699L112.187 10.9138C113.052 11.3389 113.906 11.778 114.75 12.2311Z" fill="white"/>
<path d="M94.2334 28.9442L94.4266 29.0251V28.75L94.2334 28.9442Z" fill="white"/>
<path d="M94.4266 32.0903L93.95 31.8799V33.1195L94.4266 32.6405V32.0903Z" fill="white"/>
<path d="M93.95 31.8796L93.0676 31.4912V34.0157L93.9596 33.1192L93.95 31.8796Z" fill="white"/>
<path d="M94.4266 29.0252L94.2333 28.9443L93.95 29.2259V31.8798L94.4266 32.0902V29.0252Z" fill="white"/>
<path d="M93.95 29.2256L93.0676 30.1253V31.4911L93.9596 31.8795L93.95 29.2256Z" fill="white"/>
<path d="M103.453 33.3683C104.29 33.8214 105.118 34.2842 105.946 34.76L113.835 26.837C113.028 26.3451 112.216 25.8639 111.398 25.3936L103.453 33.3683Z" fill="white"/>
<path d="M103.882 36.8316C103.055 36.3634 102.22 35.9048 101.376 35.4561L94.4266 42.4372V44.0166C94.9387 44.269 95.4507 44.5279 95.9563 44.7933L103.882 36.8316Z" fill="white"/>
<path d="M113.439 23.3417C114.255 23.8164 115.065 24.3019 115.868 24.7981L123.361 17.27C122.569 16.7651 121.772 16.2689 120.969 15.7812L113.439 23.3417Z" fill="white"/>
<path d="M95.966 44.7895C95.4604 44.5241 94.9483 44.2651 94.4363 44.0127V46.3268L95.966 44.7895Z" fill="white"/>
<path d="M103.453 33.3682L101.376 35.4557C102.218 35.9023 103.053 36.3608 103.882 36.8312L105.946 34.7599C105.118 34.2841 104.29 33.8213 103.453 33.3682Z" fill="white"/>
<path d="M113.835 26.8372L115.868 24.7982C115.062 24.302 114.253 23.8165 113.439 23.3418L111.398 25.3937C112.216 25.8619 113.028 26.3431 113.835 26.8372Z" fill="white"/>
<path d="M123.361 17.2697L124.305 16.3247C123.517 15.8155 122.723 15.316 121.922 14.8262L120.972 15.7809C121.775 16.2643 122.571 16.7605 123.361 17.2697Z" fill="white"/>
<path d="M94.4266 42.4365L93.95 42.9123V43.7764L94.4266 44.0127V42.4365Z" fill="white"/>
<path d="M93.3704 43.4957C93.5668 43.5863 93.7568 43.6834 93.95 43.7772V42.9131L93.3704 43.4957Z" fill="white"/>
<path d="M93.0676 46.4629V47.6992L93.8888 46.8739L93.0676 46.4629Z" fill="white"/>
<path d="M94.4266 44.0165L93.95 43.7803V46.8064L94.4266 46.3306V44.0165Z" fill="white"/>
<path d="M93.95 46.8028V43.7767C93.7568 43.6828 93.5668 43.5857 93.3704 43.4951L93.0483 43.8188V46.4727L93.8695 46.8837L93.95 46.8028Z" fill="white"/>
<path d="M112.448 38.8084C113.216 39.3263 113.981 39.856 114.741 40.3975L122.469 32.63C121.722 32.0798 120.971 31.5403 120.215 31.0117L112.448 38.8084Z" fill="white"/>
<path d="M95.9015 59.3189L103.002 52.1986C102.223 51.6807 101.435 51.1748 100.639 50.6807L94.4266 56.9206V58.4191C94.9204 58.7082 95.4121 59.0082 95.9015 59.3189Z" fill="white"/>
<path d="M112.712 42.4209C111.952 41.8858 111.183 41.3604 110.406 40.8447L102.658 48.6123C103.447 49.1107 104.236 49.6156 105.012 50.1367L112.712 42.4209Z" fill="white"/>
<path d="M122.228 28.9894C122.983 29.5245 123.735 30.0639 124.482 30.6076L131.889 23.1637C131.15 22.607 130.405 22.0589 129.654 21.5195L122.228 28.9894Z" fill="white"/>
<path d="M95.9016 59.318C95.4121 59.0073 94.9204 58.703 94.4266 58.4053V60.797L95.9016 59.318Z" fill="white"/>
<path d="M102.671 48.6279L100.639 50.6669C101.435 51.1632 102.223 51.6692 103.002 52.1848L105.025 50.1523C104.249 49.6312 103.46 49.1263 102.671 48.6279Z" fill="white"/>
<path d="M114.741 40.3977C113.981 39.8583 113.216 39.3286 112.448 38.8086L110.419 40.8443C111.196 41.3622 111.965 41.8876 112.725 42.4205L114.741 40.3977Z" fill="white"/>
<path d="M122.479 32.6271L124.479 30.6173C123.736 30.0671 122.984 29.5277 122.224 28.999L120.215 31.0154C120.977 31.5397 121.732 32.0769 122.479 32.6271Z" fill="white"/>
<path d="M131.886 23.1802L132.787 22.274C132.053 21.7151 131.311 21.1638 130.562 20.6201L129.651 21.536C130.402 22.0668 131.147 22.6149 131.886 23.1802Z" fill="white"/>
<path d="M94.4266 56.9072L93.95 57.383V58.1274L94.4266 58.4057V56.9072Z" fill="white"/>
<path d="M93.0676 60.8457V62.1662L93.8824 61.3441L93.0676 60.8457Z" fill="white"/>
<path d="M93.483 57.8521L93.95 58.1272V57.3828L93.483 57.8521Z" fill="white"/>
<path d="M94.4266 58.4053L93.95 58.127V61.2761L94.4266 60.7971V58.4053Z" fill="white"/>
<path d="M93.95 61.2767V58.1276L93.483 57.8525L93.0676 58.283V60.8463L93.8824 61.3447L93.95 61.2767Z" fill="white"/>
<path d="M104.377 65.4451L111.369 58.4251C110.664 57.8361 109.952 57.2503 109.23 56.6807L102.213 63.7265C102.941 64.2896 103.666 64.8593 104.377 65.4451Z" fill="white"/>
<path d="M120.814 45.0492C121.522 45.6317 122.224 46.224 122.92 46.826L130.581 39.1329C129.892 38.5287 129.195 37.931 128.491 37.3398L120.814 45.0492Z" fill="white"/>
<path d="M120.936 48.816C120.241 48.2161 119.537 47.6271 118.824 47.0488L111.214 54.6967C111.931 55.2706 112.642 55.8543 113.346 56.4476L120.936 48.816Z" fill="white"/>
<path d="M130.475 35.3488C131.177 35.9379 131.873 36.5355 132.562 37.1418L139.923 29.7497C139.239 29.1412 138.545 28.5414 137.843 27.9502L130.475 35.3488Z" fill="white"/>
<path d="M95.8435 74.0155L102.407 67.4325C101.694 66.8499 100.97 66.2803 100.236 65.7236L94.4395 71.5493V72.9183C94.9075 73.2851 95.3755 73.6509 95.8435 74.0155Z" fill="white"/>
<path d="M95.8436 74.0155C95.3777 73.64 94.9054 73.2732 94.4266 72.915V75.4395L95.8436 74.0155Z" fill="white"/>
<path d="M104.377 65.4451C103.666 64.8593 102.941 64.2897 102.213 63.7266L100.226 65.7235C100.961 66.2802 101.684 66.8498 102.397 67.4324L104.377 65.4451Z" fill="white"/>
<path d="M111.214 54.6963L109.23 56.6867C109.952 57.2564 110.664 57.8422 111.369 58.4312L113.346 56.4472C112.64 55.8474 111.929 55.2638 111.214 54.6963Z" fill="white"/>
<path d="M118.83 47.049C119.541 47.6294 120.245 48.2184 120.943 48.8161L122.927 46.8257C122.231 46.2237 121.529 45.6314 120.82 45.0488L118.83 47.049Z" fill="white"/>
<path d="M128.491 37.3391C129.193 37.9281 129.89 38.5258 130.581 39.1321L132.562 37.1416C131.873 36.5332 131.177 35.9355 130.475 35.3486L128.491 37.3391Z" fill="white"/>
<path d="M139.923 29.7497L140.806 28.8629C140.121 28.2545 139.431 27.6514 138.735 27.0537L137.83 27.9502C138.537 28.5414 139.234 29.1412 139.923 29.7497Z" fill="white"/>
<path d="M94.4266 71.5459L93.95 72.0249V72.5557C94.111 72.6722 94.272 72.7952 94.4266 72.9149V71.5459Z" fill="white"/>
<path d="M93.0676 75.3711V76.8113L93.8792 75.999C93.599 75.7854 93.3285 75.5782 93.0676 75.3711Z" fill="white"/>
<path d="M93.644 72.3319L93.95 72.5552V72.0244L93.644 72.3319Z" fill="white"/>
<path d="M94.4266 72.9149C94.2688 72.7952 94.1045 72.6722 93.95 72.5557V75.9151L94.4266 75.4394V72.9149Z" fill="white"/>
<path d="M93.95 75.9148V72.5553L93.6441 72.332L93.0676 72.9211V75.3711C93.3381 75.5782 93.6086 75.7854 93.8791 75.999L93.95 75.9148Z" fill="white"/>
<path d="M102.181 83.731C101.565 83.0556 100.935 82.3911 100.291 81.7373L94.636 87.4206C95.2801 88.0679 95.908 88.7378 96.5199 89.4175L102.181 83.731Z" fill="white"/>
<path d="M94.4266 91.1914V91.515L94.578 91.3629L94.4266 91.1914Z" fill="white"/>
<path d="M119.6 66.2408C118.975 65.5719 118.342 64.9106 117.7 64.2568L110.731 71.2541C111.375 71.9014 112.019 72.5681 112.628 73.2381L119.6 66.2408Z" fill="white"/>
<path d="M129.203 52.7033C129.847 53.3506 130.484 54.0098 131.113 54.6808L138.761 47.0006C138.13 46.3339 137.493 45.6758 136.851 45.0264L129.203 52.7033Z" fill="white"/>
<path d="M104.142 81.7602L110.663 75.2128C110.043 74.5396 109.412 73.8772 108.77 73.2256L102.252 79.7698C102.896 80.4236 103.526 81.087 104.142 81.7602Z" fill="white"/>
<path d="M138.825 43.0455C139.469 43.6928 140.113 44.3401 140.738 45.0165L148.093 37.6309C147.462 36.9663 146.824 36.3104 146.177 35.6631L138.825 43.0455Z" fill="white"/>
<path d="M121.568 64.2636L129.135 56.6611C128.511 55.9944 127.876 55.3352 127.232 54.6836L119.668 62.2796C120.312 62.9334 120.945 63.5947 121.568 64.2636Z" fill="white"/>
<path d="M96.5199 89.4178C95.908 88.7382 95.2768 88.0714 94.636 87.4209L94.4266 87.628V91.1882L94.578 91.363L96.5199 89.4178Z" fill="white"/>
<path d="M102.181 83.731L104.142 81.76C103.528 81.0868 102.898 80.4233 102.252 79.7695L100.291 81.7373C100.935 82.3889 101.565 83.0535 102.181 83.731Z" fill="white"/>
<path d="M112.628 73.2389C112.006 72.5689 111.378 71.9054 110.731 71.2549L108.77 73.2259C109.414 73.8732 110.045 74.5356 110.664 75.2131L112.628 73.2389Z" fill="white"/>
<path d="M119.668 62.2803L117.7 64.2578C118.344 64.9051 118.977 65.5664 119.6 66.2417L121.568 64.2642C120.947 63.5954 120.314 62.934 119.668 62.2803Z" fill="white"/>
<path d="M127.232 54.6966C127.876 55.3438 128.511 56.003 129.135 56.674L131.113 54.6933C130.486 54.0266 129.849 53.3674 129.203 52.7158L127.232 54.6966Z" fill="white"/>
<path d="M138.761 47.0002L140.738 45.013C140.11 44.3495 139.469 43.6925 138.825 43.042L136.864 45.026C137.508 45.6776 138.14 46.3357 138.761 47.0002Z" fill="white"/>
<path d="M94.4266 91.1914C94.2688 91.0166 94.1045 90.8483 93.95 90.6768V91.9972L94.4266 91.5182V91.1914Z" fill="white"/>
<path d="M146.177 35.6599C146.821 36.3072 147.46 36.9632 148.093 37.6277L148.966 36.7506C148.335 36.0861 147.698 35.428 147.057 34.7764L146.177 35.6599Z" fill="white"/>
<path d="M93.95 90.6765C93.6569 90.3529 93.3575 90.0454 93.058 89.7314V92.887L93.95 91.9905V90.6765Z" fill="white"/>
<path d="M94.4266 87.6279L93.95 88.1069V90.6767C94.111 90.8482 94.272 91.0165 94.4266 91.1913V87.6279Z" fill="white"/>
<path d="M93.95 88.1074L93.0676 89.0039V89.7321C93.3671 90.0558 93.6666 90.36 93.9596 90.6772L93.95 88.1074Z" fill="white"/>
<path d="M100.397 99.0557L100.336 99.1176H100.433L100.397 99.0557Z" fill="white"/>
<path d="M127.409 75.8217C126.873 75.0643 126.324 74.3178 125.764 73.582L118.74 80.6343C119.29 81.3852 119.826 82.1404 120.35 82.8999L127.409 75.8217Z" fill="white"/>
<path d="M109.678 93.6251C109.182 92.8289 108.671 92.0457 108.145 91.2754L102.378 97.0655C102.807 97.7408 103.23 98.4248 103.646 99.1174H104.21L109.678 93.6251Z" fill="white"/>
<path d="M137.37 61.9274C137.943 62.6523 138.507 63.3827 139.06 64.1185L146.77 56.3768C146.21 55.6496 145.64 54.9257 145.06 54.2051L137.37 61.9274Z" fill="white"/>
<path d="M147.047 52.211C147.627 52.9263 148.203 53.648 148.767 54.373L156.173 46.9452C155.604 46.2224 155.027 45.505 154.441 44.793L147.047 52.211Z" fill="white"/>
<path d="M127.754 71.5814C128.319 72.3193 128.869 73.0637 129.406 73.8146L137.067 66.1214C136.517 65.3792 135.956 64.6466 135.383 63.9238L127.754 71.5814Z" fill="white"/>
<path d="M118.347 84.9227C117.826 84.1491 117.291 83.3918 116.737 82.6377L110.135 89.266C110.668 90.0363 111.185 90.8141 111.688 91.5995L118.347 84.9227Z" fill="white"/>
<path d="M103.646 99.1174C103.234 98.4248 102.811 97.7408 102.378 97.0654L100.397 99.0559L100.433 99.1174H103.646Z" fill="white"/>
<path d="M111.697 91.5923C111.195 90.8069 110.678 90.0291 110.145 89.2588L108.145 91.2686C108.673 92.0389 109.184 92.8222 109.678 93.6183L111.697 91.5923Z" fill="white"/>
<path d="M120.347 82.912C119.825 82.1439 119.289 81.3887 118.737 80.6465L116.74 82.6499C117.288 83.404 117.822 84.1613 118.35 84.9348L120.347 82.912Z" fill="white"/>
<path d="M127.754 71.5811L125.764 73.5812C126.322 74.3191 126.87 75.0657 127.409 75.8209L129.406 73.8142C128.869 73.0634 128.318 72.319 127.754 71.5811Z" fill="white"/>
<path d="M135.383 63.9237C135.954 64.6486 136.515 65.3812 137.067 66.1213L139.06 64.1179C138.507 63.3821 137.943 62.6517 137.37 61.9268L135.383 63.9237Z" fill="white"/>
<path d="M146.77 56.3763L148.779 54.3729C148.216 53.6479 147.639 52.9262 147.06 52.2109L145.073 54.2046C145.644 54.9231 146.21 55.647 146.77 56.3763Z" fill="white"/>
<path d="M156.164 46.9457L157.046 46.0589C156.475 45.3382 155.896 44.623 155.31 43.9131L154.431 44.7934C155.017 45.5054 155.595 46.2229 156.164 46.9457Z" fill="white"/>
<path d="M162.234 76.1159C162.663 76.979 163.078 77.8604 163.477 78.7601L171.228 70.9925C170.803 70.1251 170.375 69.261 169.94 68.4033L162.234 76.1159Z" fill="white"/>
<path d="M152 86.4145C152.393 87.3229 152.773 88.2388 153.14 89.1623L161.39 80.8801C160.991 79.9869 160.582 79.1001 160.163 78.2197L152 86.4145Z" fill="white"/>
<path d="M139.331 99.1186H139.357C139.356 99.1121 139.356 99.1052 139.357 99.0986L139.331 99.1186Z" fill="white"/>
<path d="M150.982 91.3079C150.621 90.3757 150.25 89.4512 149.868 88.5342L141.534 96.9037C141.796 97.6373 142.049 98.3753 142.294 99.1175H143.205L150.982 91.3079Z" fill="white"/>
<path d="M141.534 96.9033L139.35 99.0977C139.349 99.1041 139.349 99.1107 139.35 99.1171H142.287C142.047 98.3748 141.795 97.6369 141.534 96.9033Z" fill="white"/>
<path d="M140.304 102.027L140.461 101.868H140.258C140.275 101.923 140.287 101.975 140.304 102.027Z" fill="white"/>
<path d="M149.868 88.5345C150.25 89.4537 150.621 90.3783 150.982 91.3082L153.133 89.1462C152.766 88.2227 152.386 87.3068 151.993 86.3984L149.868 88.5345Z" fill="white"/>
<path d="M160.157 78.2038C160.576 79.0841 160.985 79.9709 161.384 80.8642L163.477 78.7604C163.071 77.8736 162.657 76.9922 162.234 76.1162L160.157 78.2038Z" fill="white"/>
<path d="M171.228 70.9762L172.194 70.0052C171.765 69.1421 171.329 68.2791 170.887 67.416L169.921 68.387C170.375 69.2608 170.803 70.1088 171.228 70.9762Z" fill="white"/>
<path d="M155.706 96.3148C156.003 97.2447 156.287 98.179 156.56 99.1176H156.788L165.235 90.6218C164.907 89.6595 164.565 88.7058 164.211 87.7607L155.706 96.3148Z" fill="white"/>
<path d="M166.356 85.6181C166.717 86.5589 167.067 87.505 167.406 88.4565L175.386 80.4397C175.021 79.5141 174.647 78.5928 174.265 77.6758L166.356 85.6181Z" fill="white"/>
<path d="M152.914 99.1174H153.661C153.603 98.9232 153.549 98.729 153.491 98.5381L152.914 99.1174Z" fill="white"/>
<path d="M153.491 98.5379C153.549 98.7289 153.603 98.9231 153.661 99.1173H156.56C156.285 98.1787 156 97.2444 155.706 96.3145L153.491 98.5379Z" fill="white"/>
<path d="M164.211 87.7737C164.565 88.723 164.907 89.6767 165.235 90.6347L167.406 88.4566C167.067 87.5072 166.717 86.5611 166.356 85.6182L164.211 87.7737Z" fill="white"/>
<path d="M175.386 80.4401L176.403 79.4206C176.034 78.4993 175.655 77.5834 175.267 76.6729L174.265 77.6762C174.649 78.5932 175.023 79.5145 175.386 80.4401Z" fill="white"/>
<path d="M169.876 96.1789C170.153 97.1498 170.417 98.1208 170.671 99.1176H170.826L179.012 90.8937C178.716 89.9033 178.403 88.9194 178.084 87.9355L169.876 96.1789Z" fill="white"/>
<path d="M167.815 99.1178C167.754 98.888 167.696 98.6582 167.634 98.4316L166.948 99.1178H167.815Z" fill="white"/>
<path d="M167.634 98.4313C167.696 98.6579 167.754 98.8876 167.815 99.1174H170.678C170.423 98.1465 170.159 97.1561 169.882 96.1787L167.634 98.4313Z" fill="white"/>
<path d="M179.012 90.8934L180.091 89.8124C179.788 88.8242 179.474 87.8424 179.147 86.8672L178.084 87.9352C178.407 88.9191 178.729 89.903 179.012 90.8934Z" fill="white"/>
<path d="M147.52 77.2326C147.982 78.0741 148.431 78.9199 148.866 79.7701L156.85 71.7565C156.388 70.9215 155.919 70.0951 155.442 69.2773L147.52 77.2326Z" fill="white"/>
<path d="M137.479 87.3176C137.909 88.1915 138.323 89.0718 138.722 89.9586L146.773 81.8674C146.344 81.0043 145.901 80.152 145.446 79.3105L137.479 87.3176Z" fill="white"/>
<path d="M157.474 67.2316C157.957 68.0493 158.43 68.8725 158.891 69.701L166.491 62.0856C166.018 61.27 165.525 60.4673 165.036 59.6582L157.474 67.2316Z" fill="white"/>
<path d="M125.728 99.1176H125.95C125.928 99.0625 125.909 99.0108 125.886 98.959L125.728 99.1176Z" fill="white"/>
<path d="M136.607 92.0809C136.214 91.1844 135.811 90.2944 135.389 89.4141L128.008 96.8256C128.332 97.5851 128.647 98.3489 128.952 99.1171H129.596L136.607 92.0809Z" fill="white"/>
<path d="M128.008 96.8262L125.886 98.959C125.909 99.0108 125.928 99.0626 125.95 99.1176H128.952C128.645 98.3516 128.33 97.5878 128.008 96.8262Z" fill="white"/>
<path d="M138.722 89.975C138.321 89.0882 137.906 88.2078 137.479 87.334L135.389 89.4312C135.811 90.3116 136.214 91.2016 136.607 92.0981L138.722 89.975Z" fill="white"/>
<path d="M146.783 81.8638L148.866 79.7698C148.437 78.9197 147.988 78.0739 147.52 77.2324L145.456 79.2941C145.909 80.1571 146.351 81.0137 146.783 81.8638Z" fill="white"/>
<path d="M156.85 71.7561L158.894 69.7009C158.433 68.8723 157.961 68.0492 157.477 67.2314L155.442 69.2769C155.923 70.0968 156.392 70.9232 156.85 71.7561Z" fill="white"/>
<path d="M166.491 62.0861L167.419 61.154C166.939 60.3449 166.453 59.5357 165.953 58.7363L165.036 59.6587C165.525 60.4614 166.005 61.2705 166.491 62.0861Z" fill="white"/>
<path d="M123.413 87.7443C123.894 88.5621 124.36 89.3895 124.81 90.2267L132.011 82.9996C131.538 82.1808 131.045 81.3814 130.552 80.5723L123.413 87.7443Z" fill="white"/>
<path d="M142.339 68.7296C142.86 69.5064 143.376 70.2864 143.875 71.0761L151.678 63.2405C151.162 62.4638 150.638 61.6935 150.103 60.9297L142.339 68.7296Z" fill="white"/>
<path d="M132.588 78.5306C133.09 79.3311 133.578 80.137 134.053 80.9482L141.849 73.1192C141.349 72.3273 140.84 71.5408 140.323 70.7598L132.588 78.5306Z" fill="white"/>
<path d="M112.084 99.1175H112.766C112.692 98.9654 112.615 98.8132 112.538 98.6611L112.084 99.1175Z" fill="white"/>
<path d="M152.122 58.9045C152.657 59.6661 153.184 60.4332 153.703 61.2056L161.162 53.7261C160.633 52.9579 160.097 52.1974 159.551 51.4443L152.122 58.9045Z" fill="white"/>
<path d="M122.749 92.2983C122.305 91.4525 121.847 90.6164 121.374 89.79L114.612 96.5867C115.054 97.4174 115.477 98.2589 115.881 99.1111H115.971L122.749 92.2983Z" fill="white"/>
<path d="M112.538 98.6609C112.615 98.813 112.692 98.9651 112.766 99.1172H115.868C115.462 98.2671 115.039 97.4256 114.599 96.5928L112.538 98.6609Z" fill="white"/>
<path d="M124.81 90.2265C124.36 89.3915 123.894 88.5641 123.413 87.7441L121.374 89.7896C121.849 90.6138 122.307 91.4499 122.749 92.2979L124.81 90.2265Z" fill="white"/>
<path d="M132.011 82.9999L134.053 80.9479C133.576 80.1345 133.088 79.3286 132.588 78.5303L130.552 80.5887C131.048 81.3719 131.538 82.1811 132.011 82.9999Z" fill="white"/>
<path d="M140.323 70.7597C140.842 71.5408 141.351 72.3273 141.849 73.1191L143.881 71.0769C143.382 70.2872 142.867 69.5072 142.345 68.7305L140.323 70.7597Z" fill="white"/>
<path d="M150.109 60.9304C150.644 61.6942 151.169 62.4645 151.684 63.2413L153.703 61.2152C153.184 60.4428 152.657 59.6757 152.122 58.9141L150.109 60.9304Z" fill="white"/>
<path d="M159.558 51.46C160.099 52.2152 160.636 52.9758 161.168 53.7418L162.066 52.8388C161.534 52.075 160.997 51.3198 160.456 50.5732L159.558 51.46Z" fill="white"/>
<path d="M34.0936 100.493L35.4655 101.869H42.4826C42.6211 101.409 42.7628 100.953 42.9077 100.493H34.0936Z" fill="white"/>
<path d="M116.505 100.493C116.72 100.951 116.921 101.409 117.107 101.869H122.988L124.356 100.493H116.505Z" fill="white"/>
<path d="M28.851 99.1172H18.678L20.0498 100.493H28.6836C28.793 100.091 28.9122 99.6933 29.0281 99.2952L28.851 99.1172Z" fill="white"/>
<path d="M42.4344 99.1172H32.7251L34.0937 100.493H42.9078C42.9786 100.263 43.0495 100.036 43.1235 99.8066L42.4344 99.1172Z" fill="white"/>
<path d="M113.217 101.868H114.077C113.99 101.671 113.897 101.477 113.807 101.279L113.217 101.868Z" fill="white"/>
<path d="M126.862 101.869H127.03C127.03 101.83 126.998 101.787 126.985 101.745L126.862 101.869Z" fill="white"/>
<path d="M170.826 99.1172L170.703 99.2402C170.81 99.6577 170.913 100.075 171.025 100.493H181.527C181.427 100.033 181.324 99.5735 181.205 99.1172H170.826Z" fill="white"/>
<path d="M171.016 100.493C171.128 100.953 171.238 101.409 171.338 101.869H181.82C181.72 101.409 181.62 100.953 181.517 100.493H171.016Z" fill="white"/>
<path d="M154.048 101.869H154.447C154.418 101.765 154.392 101.658 154.363 101.545L154.048 101.869Z" fill="white"/>
<path d="M100.336 99.1172H94.4266V100.493H98.9641L100.336 99.1172Z" fill="white"/>
<path d="M31.189 101.869H31.5915L31.2695 101.545L31.189 101.869Z" fill="white"/>
<path d="M17.1322 101.868H17.5541L17.2127 101.525C17.1837 101.626 17.158 101.755 17.1322 101.868Z" fill="white"/>
<path d="M20.0594 100.493L21.4281 101.869H28.3196C28.4388 101.409 28.5547 100.95 28.6835 100.493H20.0594Z" fill="white"/>
<path d="M151.542 100.493H142.732C142.876 100.953 143.018 101.409 143.153 101.869H150.174L151.542 100.493Z" fill="white"/>
<path d="M129.483 100.493C129.654 100.95 129.825 101.409 129.989 101.869H136.587L137.959 100.493H129.483Z" fill="white"/>
<path d="M115.958 99.1172L115.897 99.1787C116.106 99.6156 116.306 100.053 116.505 100.493H124.356L125.728 99.1172H115.958Z" fill="white"/>
<path d="M168.101 101.868H168.523C168.497 101.755 168.468 101.639 168.443 101.525L168.101 101.868Z" fill="white"/>
<path d="M156.956 100.493C157.081 100.95 157.201 101.409 157.32 101.869H164.211L165.58 100.493H156.956Z" fill="white"/>
<path d="M98.9641 100.493H94.4266V101.869H97.5954L98.9641 100.493Z" fill="white"/>
<path d="M84.0217 101.075C83.8704 101.337 83.7222 101.603 83.5741 101.868H84.8139L84.0217 101.075Z" fill="white"/>
<path d="M88.688 101.869H91.2128V100.493H87.3162L88.688 101.869Z" fill="white"/>
<path d="M81.204 100.493H74.9243L76.2962 101.869H80.4601C80.7016 101.406 80.9496 100.95 81.204 100.493Z" fill="white"/>
<path d="M47.6802 100.493L49.0488 101.869H55.6505C55.8115 101.409 55.9725 100.95 56.1561 100.493H47.6802Z" fill="white"/>
<path d="M85.9475 99.1172L87.3162 100.493H91.2128V99.1172H85.9475Z" fill="white"/>
<path d="M101.469 101.868H102.065C101.994 101.742 101.924 101.613 101.849 101.486L101.469 101.868Z" fill="white"/>
<path d="M14.6235 100.493C14.7266 100.075 14.8296 99.6577 14.9455 99.2402L14.8232 99.1172H4.43116C4.32167 99.5735 4.22184 100.033 4.10913 100.493H14.6235Z" fill="white"/>
<path d="M58.6101 101.869H58.7784L58.6554 101.745C58.6392 101.787 58.6101 101.83 58.6101 101.869Z" fill="white"/>
<path d="M69.1341 100.493H61.283L62.6516 101.869H68.5319C68.7273 101.409 68.928 100.951 69.1341 100.493Z" fill="white"/>
<path d="M156.788 99.1172L156.611 99.2952C156.727 99.6933 156.846 100.091 156.956 100.493H165.58L166.948 99.1172H156.788Z" fill="white"/>
<path d="M104.435 100.493C104.687 100.95 104.935 101.406 105.179 101.869H109.343L110.715 100.493H104.435Z" fill="white"/>
<path d="M104.21 99.1172L103.856 99.4732C104.053 99.8098 104.246 100.15 104.435 100.493H110.715L112.084 99.1172H104.21Z" fill="white"/>
<path d="M71.5591 101.868H72.4189L71.8328 101.279C71.7394 101.477 71.6493 101.671 71.5591 101.868Z" fill="white"/>
<path d="M143.205 99.1172L142.516 99.8066C142.59 100.036 142.661 100.263 142.732 100.493H151.542L152.914 99.1172H143.205Z" fill="white"/>
<path d="M56.0338 99.1172H46.3083L47.6802 100.493H56.1561C56.2688 100.188 56.3815 99.8842 56.5007 99.5832L56.0338 99.1172Z" fill="white"/>
<path d="M69.6784 99.1172H59.8982L61.2701 100.493H69.1212C69.3177 100.053 69.5206 99.6156 69.7267 99.1787L69.6784 99.1172Z" fill="white"/>
<path d="M129.602 99.1172L129.135 99.5832C129.251 99.8842 129.364 100.188 129.48 100.493H137.959L139.331 99.1172H129.602Z" fill="white"/>
<path d="M14.295 101.869C14.4012 101.409 14.5107 100.953 14.617 100.493H4.1187C4.01887 100.953 3.91582 101.409 3.81921 101.869H14.295Z" fill="white"/>
<path d="M73.5524 99.1172L74.9242 100.493H81.2039C81.4615 100.03 81.7224 99.5703 81.9929 99.1172H73.5524Z" fill="white"/>
<path d="M83.442 100.493H81.1877C80.9333 100.95 80.6854 101.406 80.4438 101.869H83.5579C83.706 101.603 83.8542 101.338 84.0055 101.076L83.442 100.493Z" fill="white"/>
<path d="M82.0733 99.1172H81.9928C81.7223 99.5703 81.4615 100.03 81.2039 100.493H83.4581L82.0733 99.1172Z" fill="white"/>
<path d="M69.7396 99.1787C69.5335 99.6156 69.3306 100.053 69.1342 100.493H71.0503L69.7396 99.1787Z" fill="white"/>
<path d="M71.0502 100.493H69.1341C68.9194 100.951 68.7186 101.409 68.5319 101.869H71.559C71.6492 101.671 71.7393 101.477 71.8327 101.28L71.0502 100.493Z" fill="white"/>
<path d="M56.1561 100.493H57.4056L56.5007 99.584C56.3816 99.885 56.2688 100.189 56.1561 100.493Z" fill="white"/>
<path d="M57.4056 100.493H56.1561C55.9854 100.95 55.8115 101.409 55.6505 101.869H58.61C58.61 101.83 58.639 101.788 58.6551 101.746L57.4056 100.493Z" fill="white"/>
<path d="M42.9078 100.493C42.7628 100.953 42.6211 101.409 42.4827 101.869H45.1749L43.7966 100.493H42.9078Z" fill="white"/>
<path d="M42.9077 100.493H43.7965L43.1138 99.8066C43.0494 100.036 42.9786 100.263 42.9077 100.493Z" fill="white"/>
<path d="M28.6836 100.493H30.2197L29.0282 99.2959C28.9122 99.6843 28.7931 100.092 28.6836 100.493Z" fill="white"/>
<path d="M30.2196 100.493H28.6835C28.5547 100.95 28.4387 101.409 28.3196 101.869H31.1889L31.2758 101.545L30.2196 100.493Z" fill="white"/>
<path d="M14.9359 99.2402C14.8297 99.6577 14.7266 100.075 14.6139 100.493H16.1758L14.9359 99.2402Z" fill="white"/>
<path d="M16.1854 100.493H14.6235C14.5108 100.953 14.4013 101.409 14.3015 101.869H17.1322C17.1579 101.755 17.1837 101.639 17.2127 101.526L16.1854 100.493Z" fill="white"/>
<path d="M2.71788 100.493C2.81771 100.033 2.9272 99.5735 3.03991 99.1172H1.62941C1.52314 99.5735 1.41686 100.033 1.30737 100.493H2.71788Z" fill="white"/>
<path d="M4.11883 100.493C4.22188 100.033 4.32171 99.5735 4.44087 99.1172H3.03358C2.92731 99.5735 2.81782 100.033 2.71155 100.493H4.11883Z" fill="white"/>
<path d="M4.11882 100.493H2.71798C2.61493 100.95 2.52154 101.409 2.42493 101.869H3.81933C3.91594 101.409 4.01899 100.953 4.11882 100.493Z" fill="white"/>
<path d="M91.6893 100.493H91.2126V101.869H91.6893V100.493Z" fill="white"/>
<path d="M91.6893 99.1172H91.2126V100.493H91.6893V99.1172Z" fill="white"/>
<path d="M2.42489 101.869C2.5215 101.409 2.61489 100.95 2.71794 100.493H1.3171C1.21727 100.953 1.12066 101.409 1.02405 101.869H2.42489Z" fill="white"/>
<path d="M84.3727 100.493L84.0314 101.076L84.8236 101.869H88.688L87.3161 100.493H84.3727Z" fill="white"/>
<path d="M84.3727 100.493H87.3257L85.9571 99.1172H85.2132C84.9169 99.5703 84.64 100.03 84.3727 100.493Z" fill="white"/>
<path d="M84.0217 101.076L84.363 100.493H83.442L84.0217 101.076Z" fill="white"/>
<path d="M82.0734 99.1172L83.442 100.493H84.3727C84.6496 100.03 84.9266 99.5703 85.2132 99.1172H82.0734Z" fill="white"/>
<path d="M46.2827 99.1172C46.1249 99.5735 45.9606 100.033 45.8221 100.493H47.6803L46.3084 99.1172H46.2827Z" fill="white"/>
<path d="M43.1235 99.8066C43.1975 99.5768 43.2684 99.347 43.3425 99.1172H42.4343L43.1235 99.8066Z" fill="white"/>
<path d="M45.822 100.493C45.6739 100.953 45.5226 101.409 45.3809 101.869H49.0488L47.6802 100.493H45.822Z" fill="white"/>
<path d="M43.7965 100.493L45.1652 101.869H45.3713C45.5129 101.409 45.6643 100.953 45.8124 100.493H43.7965Z" fill="white"/>
<path d="M43.3424 99.1172C43.2683 99.347 43.1975 99.5768 43.1234 99.8066L43.7965 100.493H45.8124C45.9637 100.033 46.1151 99.5735 46.2729 99.1172H43.3424Z" fill="white"/>
<path d="M31.978 99.1172C31.8395 99.5735 31.701 100.033 31.569 100.493H34.0937L32.7251 99.1172H31.978Z" fill="white"/>
<path d="M29.0281 99.2952C29.0281 99.2369 29.0603 99.1754 29.0796 99.1172H28.851L29.0281 99.2952Z" fill="white"/>
<path d="M34.0937 100.493H31.5593C31.4595 100.846 31.3628 101.199 31.2662 101.555L31.5883 101.878H35.4527L34.0937 100.493Z" fill="white"/>
<path d="M31.2759 101.555C31.3725 101.199 31.4691 100.846 31.5689 100.493H30.2196L31.2759 101.555Z" fill="white"/>
<path d="M29.0796 99.1172C29.0603 99.1754 29.0442 99.2369 29.0281 99.2952L30.2196 100.493H31.5593C31.6913 100.033 31.8298 99.5735 31.9682 99.1172H29.0796Z" fill="white"/>
<path d="M14.8136 99.1172L14.9366 99.2411C14.9366 99.1987 14.9592 99.1563 14.9689 99.1172H14.8136Z" fill="white"/>
<path d="M17.8213 99.1172C17.7021 99.5735 17.583 100.033 17.467 100.493H20.0433L18.6779 99.1172H17.8213Z" fill="white"/>
<path d="M17.4671 100.493C17.3833 100.836 17.2964 101.179 17.2126 101.526L17.554 101.869H21.4184L20.0498 100.493H17.4671Z" fill="white"/>
<path d="M17.4671 100.493C17.583 100.033 17.7022 99.5735 17.8213 99.1172H14.9681C14.9681 99.156 14.9456 99.1981 14.9359 99.2402L16.1854 100.493H17.4671Z" fill="white"/>
<path d="M17.2127 101.526C17.2964 101.179 17.3834 100.836 17.4671 100.493H16.179L17.2127 101.526Z" fill="white"/>
<path d="M59.6889 99.1172C59.4989 99.5735 59.3121 100.033 59.1285 100.493H61.2829L59.8982 99.1172H59.6889Z" fill="white"/>
<path d="M59.1285 100.493C58.9675 100.912 58.8097 101.329 58.6552 101.746L58.7775 101.869H62.6419L61.2733 100.493H59.1285Z" fill="white"/>
<path d="M56.0338 99.1172L56.4975 99.5832C56.5587 99.4279 56.6199 99.2596 56.6843 99.1172H56.0338Z" fill="white"/>
<path d="M58.6551 101.746C58.8097 101.327 58.9675 100.91 59.1285 100.493H57.4056L58.6551 101.746Z" fill="white"/>
<path d="M56.6779 99.1172C56.6135 99.2725 56.5523 99.4408 56.4911 99.5832L57.396 100.493H59.1189C59.3024 100.033 59.4892 99.5735 59.6792 99.1172H56.6779Z" fill="white"/>
<path d="M69.7398 99.1791L69.7722 99.1172H69.6783L69.7398 99.1791Z" fill="white"/>
<path d="M72.8697 99.1172C72.6411 99.5735 72.4156 100.03 72.1967 100.493H74.9243L73.5524 99.1172H72.8697Z" fill="white"/>
<path d="M72.1967 100.493C72.0743 100.755 71.9519 101.017 71.8328 101.28L72.4189 101.869H76.2833L74.9114 100.493H72.1967Z" fill="white"/>
<path d="M69.7717 99.1172L69.7395 99.1787L71.0502 100.493H72.1966C72.4156 100.03 72.641 99.5735 72.8697 99.1172H69.7717Z" fill="white"/>
<path d="M71.8327 101.28C71.9519 101.017 72.0742 100.755 72.1966 100.493H71.0502L71.8327 101.28Z" fill="white"/>
<path d="M104.435 100.493H102.825L101.837 101.487C101.911 101.613 101.982 101.742 102.052 101.869H105.166C104.935 101.406 104.687 100.95 104.435 100.493Z" fill="white"/>
<path d="M102.838 100.493H104.448C104.257 100.15 104.064 99.8102 103.869 99.4736L102.838 100.493Z" fill="white"/>
<path d="M116.505 100.493H114.589L113.807 101.28C113.897 101.477 113.99 101.671 114.077 101.869H117.107C116.912 101.409 116.711 100.951 116.505 100.493Z" fill="white"/>
<path d="M114.589 100.493H116.505C116.306 100.053 116.106 99.6156 115.897 99.1787L114.589 100.493Z" fill="white"/>
<path d="M128.23 100.493H129.483C129.367 100.189 129.255 99.885 129.139 99.584L128.23 100.493Z" fill="white"/>
<path d="M128.23 100.493L126.984 101.746C126.984 101.788 127.016 101.83 127.029 101.869H129.989C129.824 101.409 129.667 100.95 129.483 100.493H128.23Z" fill="white"/>
<path d="M141.833 100.493H142.732C142.661 100.263 142.59 100.036 142.516 99.8066L141.833 100.493Z" fill="white"/>
<path d="M141.833 100.493L140.461 101.869H143.153C143.018 101.409 142.877 100.953 142.732 100.493H141.833Z" fill="white"/>
<path d="M155.417 100.493H156.956C156.846 100.092 156.727 99.694 156.611 99.2959L155.417 100.493Z" fill="white"/>
<path d="M155.416 100.493L154.363 101.555C154.392 101.658 154.418 101.765 154.447 101.878H157.32C157.201 101.419 157.081 100.959 156.956 100.503L155.416 100.493Z" fill="white"/>
<path d="M168.423 101.526C168.449 101.639 168.478 101.755 168.504 101.869H171.341C171.235 101.409 171.125 100.953 171.019 100.493H169.454L168.423 101.526Z" fill="white"/>
<path d="M171.016 100.493C170.913 100.075 170.81 99.6577 170.694 99.2402L169.444 100.493H171.016Z" fill="white"/>
<path d="M181.208 99.1172C181.314 99.5735 181.417 100.033 181.53 100.493H182.915C182.812 100.033 182.706 99.5735 182.593 99.1172H181.208Z" fill="white"/>
<path d="M94.4266 99.1172H93.95V100.493H94.4266V99.1172Z" fill="white"/>
<path d="M94.4266 100.493H93.95V101.869H94.4266V100.493Z" fill="white"/>
<path d="M181.517 100.493C181.62 100.953 181.72 101.409 181.82 101.869H183.214C183.118 101.409 183.021 100.95 182.921 100.493H181.517Z" fill="white"/>
<path d="M182.915 100.493H184.316C184.216 100.033 184.11 99.5735 183.994 99.1172H182.593C182.712 99.5735 182.818 100.033 182.915 100.493Z" fill="white"/>
<path d="M182.915 100.493C183.015 100.95 183.111 101.409 183.208 101.869H184.606C184.512 101.409 184.416 100.953 184.316 100.493H182.915Z" fill="white"/>
<path d="M93.0579 99.1172H92.5813V100.493H93.0579V99.1172Z" fill="white"/>
<path d="M93.95 99.1172H93.058V100.493H93.95V99.1172Z" fill="white"/>
<path d="M92.5814 99.1172H91.6893V100.493H92.5814V99.1172Z" fill="white"/>
<path d="M93.95 100.493H93.058V101.869H93.95V100.493Z" fill="white"/>
<path d="M93.0579 100.493H92.5813V101.869H93.0579V100.493Z" fill="white"/>
<path d="M92.5814 100.493H91.6893V101.869H92.5814V100.493Z" fill="white"/>
<path d="M101.849 101.487C101.663 101.163 101.469 100.823 101.273 100.493H98.964L97.5953 101.869H101.46L101.849 101.487Z" fill="white"/>
<path d="M104.21 99.1172H103.646C103.714 99.2369 103.785 99.3535 103.856 99.4732L104.21 99.1172Z" fill="white"/>
<path d="M101.273 100.493C100.998 100.031 100.718 99.5725 100.432 99.1172H100.336L98.964 100.493H101.273Z" fill="white"/>
<path d="M101.85 101.487L102.838 100.493H101.273C101.47 100.823 101.663 101.153 101.85 101.487Z" fill="white"/>
<path d="M103.856 99.4732C103.785 99.3535 103.714 99.2369 103.646 99.1172H100.426C100.712 99.5703 100.992 100.029 101.267 100.493H102.832L103.856 99.4732Z" fill="white"/>
<path d="M142.516 99.8066L143.205 99.1172H142.294C142.371 99.3599 142.442 99.5768 142.516 99.8066Z" fill="white"/>
<path d="M139.331 99.1172L137.959 100.493H139.814C139.666 100.033 139.514 99.5735 139.357 99.1172H139.331Z" fill="white"/>
<path d="M137.959 100.493L136.587 101.869H140.258C140.113 101.409 139.965 100.953 139.814 100.493H137.959Z" fill="white"/>
<path d="M142.294 99.1172H139.357C139.514 99.5735 139.679 100.033 139.814 100.493H141.833L142.516 99.8066C142.442 99.5768 142.371 99.3599 142.294 99.1172Z" fill="white"/>
<path d="M139.814 100.493C139.965 100.953 140.113 101.409 140.258 101.869H140.461L141.833 100.493H139.814Z" fill="white"/>
<path d="M152.914 99.1172L151.542 100.493H154.07C153.938 100.033 153.8 99.5735 153.661 99.1172H152.914Z" fill="white"/>
<path d="M154.07 100.493H151.542L150.174 101.869H154.038L154.36 101.545C154.254 101.199 154.17 100.846 154.07 100.493Z" fill="white"/>
<path d="M156.788 99.1172H156.56L156.611 99.2952L156.788 99.1172Z" fill="white"/>
<path d="M156.56 99.1172H153.661C153.8 99.5735 153.938 100.033 154.07 100.493H155.416L156.611 99.2952L156.56 99.1172Z" fill="white"/>
<path d="M154.363 101.555L155.417 100.493H154.07C154.17 100.846 154.254 101.199 154.363 101.555Z" fill="white"/>
<path d="M168.169 100.493H165.593L164.224 101.869H168.089L168.43 101.526C168.343 101.179 168.256 100.836 168.169 100.493Z" fill="white"/>
<path d="M170.826 99.1172H170.678C170.678 99.1563 170.697 99.1987 170.71 99.2411L170.826 99.1172Z" fill="white"/>
<path d="M165.58 100.493H168.156C168.04 100.033 167.924 99.5735 167.802 99.1172H166.936L165.58 100.493Z" fill="white"/>
<path d="M169.454 100.493H168.166C168.253 100.836 168.34 101.179 168.423 101.526L169.454 100.493Z" fill="white"/>
<path d="M168.169 100.493H169.457L170.707 99.2402C170.707 99.1981 170.684 99.156 170.674 99.1172H167.818C167.937 99.5735 168.053 100.033 168.169 100.493Z" fill="white"/>
<path d="M128.952 99.1172L129.139 99.5832L129.602 99.1172H128.952Z" fill="white"/>
<path d="M126.507 100.493H124.356L122.988 101.869H126.852L126.974 101.746C126.826 101.328 126.672 100.911 126.507 100.493Z" fill="white"/>
<path d="M125.728 99.1172L124.356 100.493H126.507C126.327 100.033 126.14 99.5735 125.95 99.1172H125.728Z" fill="white"/>
<path d="M128.952 99.1172H125.95C126.14 99.5735 126.327 100.033 126.508 100.493H128.23L129.139 99.5832L128.952 99.1172Z" fill="white"/>
<path d="M126.984 101.746L128.23 100.493H126.508C126.672 100.911 126.826 101.328 126.984 101.746Z" fill="white"/>
<path d="M113.443 100.493H110.715L109.343 101.869H113.208L113.797 101.28C113.678 101.017 113.565 100.755 113.443 100.493Z" fill="white"/>
<path d="M115.897 99.1791L115.958 99.1172H115.868L115.897 99.1791Z" fill="white"/>
<path d="M112.084 99.1172L110.715 100.493H113.443C113.22 100.03 112.998 99.5735 112.766 99.1172H112.084Z" fill="white"/>
<path d="M113.807 101.28L114.589 100.493H113.443C113.565 100.755 113.678 101.017 113.807 101.28Z" fill="white"/>
<path d="M115.897 99.1787L115.868 99.1172H112.766C112.998 99.5735 113.22 100.03 113.443 100.493H114.589L115.897 99.1787Z" fill="white"/>
</g>
<defs>
<clipPath id="clip0">
<rect width="186" height="128" fill="white"/>
</clipPath>
</defs>
</svg>
