<svg width="685" height="663" viewBox="0 0 685 663" fill="none" xmlns="http://www.w3.org/2000/svg">
<path d="M684.585 200.646C684.511 201.233 684.358 201.809 684.131 202.356C684.04 204.717 682.482 206.517 681.77 208.636C681.092 210.831 680.661 213.095 680.484 215.386C680.34 216.178 680.132 216.957 679.863 217.716C677.654 225.283 673.19 232.502 676.277 240.901C675.238 245.099 673.537 249.104 671.237 252.766C668.589 257.23 665.956 261.634 666.122 267.143C666.228 270.805 664.079 273.499 661.264 275.512C656.21 279.098 654.621 283.911 655.801 289.828C653.077 297.077 647.341 302.995 646.509 311.015C639.971 319.324 633.797 327.662 629.544 337.651C624.217 350.106 613.578 359.443 608.16 372.14C605.709 377.846 599.534 380.373 593.36 381.659C588.487 383.279 585.793 387.486 582.206 390.739C573.671 398.306 563.788 404.072 554.814 411.079C551.702 413.413 548.971 416.216 546.718 419.387C544.675 423.731 546.914 424.957 550.743 424.699C553.77 424.503 556.797 423.473 559.627 425.062C562.88 428.316 565.801 431.933 569.736 434.491C575.426 441.271 566.709 444.388 565.953 449.549C565.514 453.105 565.801 456.737 564.817 460.218C561.685 466.15 560.398 473.021 555.737 478.212C550.365 480.769 548.08 485.779 545.991 490.849C543.948 494.647 540.528 496.629 536.624 497.961C533.264 499.293 529.95 500.761 526.65 502.244C521.414 504.59 518.751 508.071 519.447 514.26C519.937 517.413 519.627 520.638 518.545 523.639C517.464 526.64 515.645 529.322 513.257 531.437C505.857 537.052 505.569 538.625 510.806 544.815C514.09 545.995 517.389 547.176 517.843 551.383C523.366 566.789 514.241 578.624 508.157 591.23C506.462 594.741 504.586 598.191 502.694 601.627C501.167 604.404 499.036 606.804 496.459 608.649C486.213 616.216 477.738 625.296 473.092 637.403C471.322 642.715 469.506 647.996 471.367 653.732C471.852 657.182 471.685 660.436 468.477 662.691C467.598 663.069 466.609 663.101 465.707 662.782C457.702 657.425 448.636 657.167 439.526 657.712C434.063 658.03 428.645 658.696 423.212 657.515C416.039 656.184 408.699 658.499 401.541 656.638C398.514 655.124 395.487 652.839 391.704 654.125C390.94 654.216 390.167 654.216 389.403 654.125C387.135 653.691 384.802 653.727 382.548 654.231C373.331 654.988 364.115 655.836 355.08 652.945C352.947 651.984 350.52 651.908 348.331 652.733C347.553 652.951 346.758 653.103 345.955 653.187C341.415 653.354 336.98 652.113 332.516 653.338C329.58 653.565 326.599 654.428 323.739 652.96C317.852 649.479 311.374 652.673 305.306 651.356C304.472 651.207 303.656 650.974 302.869 650.66C298.329 647.467 293.32 649.01 288.432 649.146C281.395 648.814 274.403 650.372 267.366 649.767C266.084 649.697 264.817 649.458 263.597 649.056C262.483 648.641 261.422 648.098 260.434 647.436C259.67 646.957 258.806 646.661 257.908 646.569C257.011 646.477 256.104 646.593 255.259 646.907C253.81 647.3 252.288 647.331 250.825 646.997C250.119 646.778 249.447 646.462 248.827 646.059C246.92 644.349 244.756 645.03 242.622 645.424C232.997 645.06 223.418 645.681 213.868 646.089C197.902 642.034 181.225 646.437 165.289 642.079C162.48 641.069 159.465 640.768 156.512 641.201C152.774 641.201 149.248 639.688 145.525 639.491C143.111 639.059 140.625 639.273 138.321 640.112C135.694 640.585 133.03 640.818 130.361 640.808C127.558 640.876 124.754 640.785 121.962 640.535C120.091 640.288 118.301 639.621 116.725 638.583C109.734 633.059 99.246 632.167 95.3566 622.526C93.7071 617.729 89.5453 615.762 85.3836 614.021C73.4885 609.027 66.2395 600.855 66.4211 587.341C67.208 579.895 66.4211 572.994 61.2 566.91C56.6599 561.735 57.4771 554.183 53.8602 548.493C50.6821 541.864 48.9417 534.57 44.6741 528.425C45.3702 520.51 42.177 513.761 38.333 507.238C36.7887 503.886 34.8478 500.73 32.552 497.84C31.6335 496.445 30.9438 494.913 30.509 493.3C29.8464 489.573 30.0755 485.741 31.1776 482.119C32.2797 478.497 34.2235 475.188 36.85 472.461C38.3633 467.482 41.4809 463.169 43.0699 458.22C43.0916 457.013 43.392 455.827 43.9476 454.755C46.0981 452.434 47.6375 449.616 48.4272 446.552C50.9848 436.367 58.8694 428.649 61.4875 418.495C67.541 405.343 74.6387 392.767 80.7527 379.571C89.5403 360.613 98.6205 341.752 107.993 322.986C108.716 320.974 109.55 319.004 110.49 317.084C110.889 316.328 111.339 315.6 111.837 314.905C118.557 304.811 122.083 293.052 128.484 282.761C128.883 282.051 129.344 281.377 129.861 280.748C132.328 278.236 134.992 275.86 135.597 272.122C135.784 269.671 136.178 267.241 136.777 264.858C137.489 255.505 143.996 249.86 150.095 243.943C151.452 242.838 152.883 241.827 154.378 240.916C157.064 239.179 160.309 238.524 163.458 239.085C169.33 240.462 173.492 244.473 177.744 248.362C179.893 251.116 182.89 252.902 185.704 254.779C190.854 258.026 196.629 260.155 202.654 261.029C209.116 261.725 209.964 265.176 208.45 270.518C206.725 276.677 204.001 282.473 202.109 288.557C200.702 291.917 201.111 295.594 200.278 299.06C200.079 299.931 199.8 300.782 199.446 301.602C198.114 308.579 196.086 315.389 194.437 322.29C193.317 324.575 193.771 327.572 190.351 329.978C193.952 327.829 193.377 324.832 194.497 322.683C195.662 316.509 198.371 310.682 198.735 304.326C201.398 292.401 207.013 281.535 211.008 270.109C212.809 264.918 216.607 264.298 221.042 264.162C226.172 263.995 231.378 265.463 236.402 263.375C239.022 262.699 241.705 262.298 244.408 262.179C250.9 260.56 257.271 258.759 259.905 251.585C253.988 248.771 253.851 246.228 260.056 243.565C263.93 241.915 268.728 243.065 271.906 239.494C274.13 237.678 276.794 236.467 279.14 234.954C282.318 234.5 284.8 232.336 287.766 231.367C289.685 230.597 291.764 230.311 293.819 230.535C296.572 231.233 299.471 231.091 302.143 230.126C305.427 229.354 308.877 229.551 312.101 228.431C314.9 227.644 317.957 227.856 320.56 226.267C323.239 224.935 324.193 222.68 324.889 219.805C326.236 214.236 329.504 210.15 335.921 212.117C341.369 213.782 335.316 210.271 336.844 210.407C336.148 206.502 338.282 204.429 341.732 204.353C348.058 204.172 354.657 203.93 358.379 210.815C360.165 213.328 355.686 215.598 358.137 218.14C360.13 219.342 362.342 220.134 364.645 220.471C365.371 220.471 366.158 220.471 366.839 220.471C367.916 220.359 368.974 220.11 369.987 219.729C370.668 219.351 371.349 219.018 372.03 218.655C375.208 216.627 378.825 215.325 381.352 212.374C382.263 211.444 383.341 210.695 384.53 210.165C394.367 208.651 401.647 201.357 410.939 198.603C413.572 198.27 416.235 198.027 418.853 197.468C420.647 197.374 422.437 197.708 424.077 198.442C425.716 199.176 427.157 200.289 428.282 201.69C429.38 203.588 430.219 205.623 430.779 207.743C431.611 210.513 431.505 213.494 432.64 216.203C433.503 218.503 435.107 220.44 435.939 222.756C435.319 233.032 445.156 234.121 450.422 239.206C456.945 243.534 460.713 237.799 465.299 235.12C468.235 233.047 471.7 232.941 475.075 232.532C479.615 231.715 481.537 240.795 487.182 235.559C491.99 233.747 496.693 231.671 501.271 229.339C504.661 227.826 508.142 227.024 511.698 228.961C514.029 231.17 513.454 233.728 512.531 236.301C512.41 237.511 511.32 239.146 513.847 239.176C517.086 233.834 524.199 236.058 527.952 231.791C530.492 227.249 533.538 223.01 537.032 219.154C538.303 217.066 539.484 214.856 542.268 214.493C544.432 215.053 546.309 216.491 548.64 216.536C550.062 217.444 551.046 219.124 553.059 219.003C553.785 218.867 554.572 218.791 555.238 218.685C557.508 218.291 559.642 217.762 559.975 214.962C559.975 211.935 557.372 211.935 555.435 211.133C554.681 210.818 554 210.349 553.437 209.756C552.837 208.638 552.69 207.332 553.028 206.109C554.006 203.819 555.449 201.758 557.266 200.055C558.311 199.453 559.482 199.101 560.686 199.026C564.106 198.724 564.424 195.894 565.226 193.427C565.836 191.623 566.232 189.754 566.407 187.858C567.067 186.978 568.006 186.349 569.07 186.072C569.69 185.838 570.296 185.571 570.886 185.27C571.25 184.943 571.546 184.548 571.756 184.106C571.966 183.664 572.087 183.186 572.112 182.697C572.112 181.577 572.112 180.472 572.112 179.353C572.082 177.72 572.322 176.094 572.823 174.54C573.677 172.621 575.246 171.111 577.197 170.333C579.845 169.107 582.342 170.333 584.854 170.817C586.686 170.469 587.745 168.865 589.273 168.033C593.344 164.87 597.128 165.339 600.669 168.91C603.696 169.879 606.329 171.604 609.492 171.937C611.444 171.468 612.413 169.773 613.745 168.517C614.611 167.667 615.713 167.098 616.908 166.882C617.936 167.045 618.913 167.442 619.764 168.043C620.614 168.644 621.315 169.433 621.811 170.348C623.536 174.51 627.864 174.328 631.118 176.008C631.725 176.567 632.236 177.221 632.631 177.945C635.583 183.681 636.884 177.733 638.912 177.007C639.536 176.433 640.293 176.024 641.114 175.815C641.936 175.606 642.796 175.605 643.618 175.811C646.373 177.506 648.734 180.034 652.366 179.837C657.602 188.645 667.908 187.222 675.49 191.263C675.976 191.928 676.29 192.702 676.407 193.518C676.523 194.333 676.437 195.165 676.156 195.939C676.068 196.199 675.916 196.433 675.716 196.621C675.515 196.808 675.271 196.943 675.006 197.014C674.582 197.195 675.006 197.922 675.369 197.695C676.536 197.099 677.822 196.773 679.132 196.741C680.441 196.71 681.742 196.974 682.936 197.513C683.541 197.75 684.04 198.197 684.343 198.773C684.646 199.348 684.732 200.012 684.585 200.646Z" fill="#EC9822"/>
<path opacity="0.96" d="M226.202 13.594C226.202 20.5554 226.686 27.5926 225.839 34.4482C225.097 40.4108 230.379 43.5284 232.619 43.0592C244.983 40.7135 251.036 50.732 259.299 55.8623C263.908 58.9853 268.865 61.5602 274.07 63.535C282.363 66.3801 291.367 68.847 290.717 81.4533C290.429 86.629 294.848 92.0468 299.797 95.2552C304.337 98.2819 308.151 102.096 308.075 107.453C307.924 118.122 313.705 127.127 315.475 137.13C316.039 139.96 317.216 142.633 318.923 144.96C320.631 147.287 322.827 149.212 325.358 150.599C331.199 154.14 332.924 159.331 335.119 165.279C339.659 177.249 345.273 189.084 354.384 198.224C358.924 202.765 366.234 198.86 372.287 198.785C373.8 209.257 369.033 213.51 357.955 211.633C354.157 209.772 351.206 206.049 346.56 206.094C343.927 206.094 340.673 204.914 338.842 207.395C337.01 209.877 339.235 211.739 341.187 213.328C342.701 214.584 342.156 216.173 341.021 217.247C339.371 218.761 338.872 217.096 337.722 216.082C332.834 211.799 325.615 213.964 327.128 219.109C328.975 225.889 324.601 225.859 321.544 227.962C318.381 229.188 314.946 228.446 311.737 229.324C308.135 231.852 303.959 230.035 300.13 230.928C296.846 230.187 296.8 228.371 298.48 225.995C299.135 225.397 299.902 224.935 300.735 224.633C302.829 224.368 304.87 223.787 306.789 222.907C308.157 222.532 309.463 221.956 310.663 221.197C308.862 219.684 307.636 221.606 306.198 221.924C305.192 222.542 304.145 223.093 303.066 223.573C300.63 224.427 297.993 224.527 295.499 223.861C293.229 223.165 295.499 224.996 294.772 225.208C294.703 225.965 294.425 226.688 293.97 227.296C293.452 227.842 292.815 228.261 292.109 228.522C289.854 228.673 288.28 226.6 286.056 226.676C284.179 226.585 282.802 227.765 281.243 228.537C279.457 229.052 277.535 228.81 275.81 229.581C273.631 230.384 272.375 232.321 270.74 233.713C270.279 233.844 269.857 234.089 269.514 234.424C270.044 234.621 270.528 234.212 271.028 234.318C271.776 234.419 272.482 234.723 273.071 235.196C274.584 236.936 275.28 238.737 273.722 240.811C269.454 246.531 261.932 244.201 256.454 247.015C257.967 250.753 261.509 246.788 262.765 249.694C260.661 255.157 255.94 256.898 250.824 257.609C246.679 258.115 242.613 259.132 238.717 260.636C235.833 261.35 232.864 261.661 229.895 261.559C223.357 261.559 217.455 258.956 211.326 257.276C206.785 255.324 201.807 256.519 197.16 255.339C193.909 254.501 190.56 254.104 187.203 254.158C183.283 253.417 179.439 252.464 176.488 249.512C172.205 246.682 168.785 242.627 163.836 240.78C163.268 240.184 162.615 239.674 161.899 239.267C159.893 239.165 157.937 238.605 156.18 237.632C154.423 236.659 152.911 235.298 151.76 233.652C150.519 235.711 150.564 237.572 149.686 239.085C148.466 240.754 147.11 242.318 145.63 243.762C142.951 246.494 139.617 248.495 135.945 249.573C126.865 254.189 121.386 247.303 115.136 242.944C107.04 238.949 100.608 232.623 93.4042 227.372C87.7593 222.65 81.2973 226.918 75.2438 225.662C73.1636 225.595 71.0953 225.321 69.0693 224.845C63.1672 221.228 56.1905 223.225 49.9706 221.228C46.8731 219.04 44.0394 216.501 41.526 213.661C39.0139 208.682 33.0209 206.412 31.4016 200.737C30.4266 195.702 28.1579 191.008 24.8185 187.116C23.7743 183.212 22.0642 179.428 18.5683 177.416C7.82341 171.241 6.35544 160.89 5.58363 150.175C5.37176 147.148 5.6593 144.122 4.73615 141.095C4.38217 139.798 4.15409 138.47 4.05511 137.13C3.9946 136.278 3.9946 135.424 4.05511 134.572C4.96313 130.622 3.96433 126.567 4.61507 122.587C5.05312 121.55 5.25717 120.429 5.2127 119.304C5.16823 118.179 4.87634 117.078 4.35781 116.079C2.77767 110.93 2.26275 105.513 2.84444 100.158C4.0854 97.1317 1.66401 94.9525 0.786263 92.41C0.0860804 88.8077 -0.147898 85.1304 0.0901053 81.4684C0.147993 78.5494 1.02933 75.7061 2.63257 73.266C6.34031 69.4675 11.7127 68.9075 16.1015 66.6072C23.1387 66.2894 23.9861 58.0718 29.631 56.0136C32.8545 55.0602 36.2444 55.4234 39.4981 54.8181C41.7682 54.4852 44.0382 55.0148 46.3537 54.349L48.4875 53.6679C51.1813 52.8658 52.8309 50.7925 54.4653 48.7192C55.2751 47.7769 56.243 46.9832 57.3256 46.3735C60.0746 45.0436 63.144 44.5189 66.1787 44.8601C71.5512 45.1325 75.1681 42.9987 78.2857 38.6099C84.5056 30.0897 92.6324 28.5309 102.03 33.2829C102.731 33.7083 103.403 34.1784 104.043 34.6903C107.842 38.0499 112.049 37.0209 116.256 35.7648C118.677 35.0081 121.084 34.1757 123.566 33.6612C126.986 33.071 130.497 33.3586 133.872 32.4052C135.157 32.1706 136.475 32.1706 137.761 32.4052C140.221 33.0019 142.557 34.0264 144.662 35.4319C145.911 36.278 147.357 36.7866 148.861 36.9086C150.364 37.0306 151.874 36.7617 153.243 36.128C153.815 35.7483 154.264 35.2089 154.533 34.5768C154.802 33.9446 154.879 33.2475 154.756 32.5716C156.042 26.73 152.092 22.8558 149.52 18.4519C149.035 16.7041 149.035 14.8576 149.52 13.1098C153.848 1.82006 154.801 1.3509 164.063 5.99693C167.09 7.96431 170.586 7.58597 173.991 7.4195C176.094 7.17736 178.137 6.66277 180.211 6.23903C183.495 5.61855 186.9 6.1028 190.093 4.89211C193.846 3.28795 197.524 1.47195 201.655 0.957401C202.82 0.684995 204.016 0.488269 205.196 0.306665C206.73 -0.13569 208.361 -0.0987149 209.873 0.412612C211.765 2.31212 213.788 4.07696 215.926 5.69424C218.287 8.11562 221.874 7.52539 224.552 9.17496C225.869 10.3554 227.004 11.6569 226.202 13.594Z" fill="#EC9822"/>
<path d="M473.682 155.138L469.869 154.684C468.355 152.823 468.824 150.961 469.869 149.085C474.515 148.888 477.133 150.053 473.682 155.138Z" fill="#EC9822"/>
<path d="M468.023 156.577C467.614 159.044 468.855 161.919 466.252 163.856L462.469 165.718L460.607 160.527C460.925 157.319 464.209 158.166 465.813 156.698L468.023 156.577Z" fill="#EC9822"/>
<path d="M465.813 156.667L460.607 160.527C458.549 154.004 463.785 157.5 465.813 156.667Z" fill="#EC9822"/>
<path d="M383.758 211.542L381.836 213.495C377.69 216.279 374.83 214.07 372.681 210.786C370.244 207.093 372.681 204.505 375.374 202.22C377.444 200.441 379.28 198.407 380.838 196.167C381.261 195.47 381.73 194.789 382.184 194.108C383.486 191.975 383.441 189.568 383.91 187.162C384.074 186.363 384.302 185.579 384.591 184.816C385.605 182.138 386.346 179.368 387.406 176.705C387.739 175.948 388.102 175.207 388.495 174.48C389.763 172.313 391.288 170.306 393.035 168.502C394.573 167.614 396.261 167.014 398.014 166.732C400.584 165.745 403.394 165.57 406.065 166.232C410.242 168.639 411.68 172.044 409.955 176.659C408.441 179.035 406.822 181.351 406.777 184.332C406.686 185.845 406.656 187.359 406.777 188.978C406.799 189.764 406.707 190.549 406.504 191.309C406.027 192.42 405.368 193.443 404.552 194.336C403.78 195.274 402.948 196.152 402.115 197.029C396.501 202.553 391.446 208.697 383.758 211.542Z" fill="#EC9822"/>
<path d="M546.566 194.562L543.161 195.228C537.562 192.746 531.947 190.294 530.888 183.196C530.888 181.456 531.13 179.489 528.361 179.701C527.61 179.696 526.861 179.63 526.121 179.504C523.889 178.96 521.58 178.807 519.295 179.05C517.298 179.405 515.271 179.573 513.242 179.549C509.61 178.883 505.887 179.141 502.255 178.581C500.922 178.109 499.55 177.759 498.154 177.536C497.004 178.384 496.64 179.837 495.732 180.805C495.268 181.096 494.749 181.288 494.207 181.368C493.666 181.449 493.113 181.417 492.585 181.275C491.071 179.958 489.482 180.366 487.848 181.063C486.208 181.077 484.61 180.545 483.308 179.549C482.356 179.032 481.519 178.326 480.848 177.475C480.177 176.625 479.685 175.647 479.403 174.601C479.403 169.667 482.203 166.565 485.986 164.007C486.59 163.419 487.398 163.088 488.241 163.084C487.106 162.948 486.41 163.795 485.563 164.31C484.848 164.77 484.041 165.066 483.199 165.179C482.356 165.291 481.5 165.217 480.69 164.96C477.3 161.752 466.736 164.96 471.337 154.579C472.759 151.552 469.597 150.568 468.84 148.525C468.668 147.887 468.663 147.215 468.825 146.574C468.987 145.933 469.309 145.344 469.763 144.863C474.515 142.018 478.314 145.922 482.566 146.649C484.579 147.118 486.652 147.466 488.12 149.146C488.786 153.323 491.147 149.691 492.66 150.129C493.437 149.976 494.23 149.92 495.021 149.963C496.164 150.219 497.348 150.226 498.494 149.986C499.64 149.746 500.721 149.263 501.665 148.571C508.062 145.466 515.023 143.69 522.125 143.35C523.473 143.406 524.81 143.625 526.106 144C528.261 144.542 530.309 145.447 532.159 146.679C533.218 150.417 533.218 150.417 536.185 148.026C543.328 149.191 551.106 145.135 557.735 150.599L559.612 151.007L562.033 156.516L559.536 160.224C556.706 161.949 557.538 165.566 555.616 167.79C554.064 169.169 552.988 171.004 552.542 173.032C552.096 175.06 552.304 177.177 553.134 179.08C553.734 180.734 553.943 182.504 553.746 184.252C553.55 186.001 552.952 187.68 551.999 189.159C550.622 191.338 549.215 193.578 546.566 194.562Z" fill="#EC9822"/>
<path d="M526.65 178.521H528.164C527.165 182.107 531.433 180.473 532.053 182.44C534.353 186.178 534.247 192.534 541.739 190.567C543.116 190.204 542.889 193.503 543.101 195.213L535.731 200.51C534.777 200.752 534.142 201.236 534.459 202.371C535.973 204.853 537.486 207.335 534.248 209.681C534.248 210.907 534.142 212.117 534.081 213.343C532.129 216.824 528.966 218.201 525.167 218.504L525.001 218.67C521.974 218.549 519.976 212.768 516.132 217.066C515.83 223.664 512.168 222.938 508.218 220.426C503.375 217.399 499.607 215.038 498.789 223.876C498.487 227.296 496.096 230.883 491.041 228.416C487.802 226.903 485.895 228.704 484.776 231.67C478.223 232.85 475.968 226.646 471.609 224.103C471.095 223.135 471.821 221.954 471.095 221.076C470.626 222.03 470.853 223.256 469.99 224.103C463.558 225.178 463.937 229.112 465.964 233.713L454.917 234.001L451.466 233.925C439.269 232.321 442.507 223.074 442.386 215.507C442.19 211.951 444.762 210.347 447.199 208.637C448.712 207.123 453.888 205.837 447.441 203.87C446.323 203.339 445.42 202.442 444.883 201.327C443.779 198.073 444.717 194.865 445.019 191.626C445.45 189.698 445.98 187.794 446.609 185.921C447.244 184.075 447.895 182.228 448.621 180.428C450.135 176.281 445.958 176.175 444.323 174.268C443.701 173.644 443.226 172.889 442.931 172.059C442.69 171.196 442.669 170.287 442.87 169.415C443.071 168.543 443.487 167.735 444.081 167.064C447.199 165.142 450.695 165.052 454.19 164.976C456.884 165.854 459.563 166.232 462.075 164.356C463.528 163.46 465.212 163.013 466.918 163.069C471.594 164.219 476.422 163.16 481.113 164.007L486.516 163.901C485.275 167.927 481.295 170.56 480.901 175.01C479.781 176.523 477.875 176.75 476.528 177.809C479.252 182.062 484.095 179.323 487.515 181.335C488.369 181.277 489.227 181.318 490.072 181.457C491.052 181.883 491.933 182.506 492.662 183.287C493.391 184.068 493.952 184.99 494.31 185.997C493.931 188.706 493.947 191.203 497.488 191.808C500.515 197.665 502.119 189.614 504.707 190.976C508.112 193.261 511.471 192.126 514.816 190.764C515.524 190.585 516.25 190.489 516.98 190.476C520.007 190.052 518.932 187.207 519.84 185.528C521.066 182.935 522.64 180.522 524.517 178.354C524.836 178.13 525.224 178.023 525.613 178.054C526.003 178.084 526.37 178.249 526.65 178.521Z" fill="#EC9822"/>
<path d="M447.955 185.512C447.622 187.525 447.955 189.735 446.124 191.293C444.52 194.229 443.098 197.559 438.739 194.88C436.121 192.58 431.641 194.986 429.583 191.263C431.596 188.524 431.46 185.361 431.369 182.183C435.031 178.793 438.391 174.919 443.748 174.162C444.98 174.488 446.092 175.16 446.953 176.099C447.814 177.038 448.388 178.204 448.606 179.459C447.789 181.441 448.167 183.515 447.955 185.512Z" fill="#EC9822"/>
<path d="M456.748 132.938C454.629 131.561 455.008 129.397 454.977 127.354C454.435 126.646 454.176 125.761 454.251 124.872C454.453 124.235 454.804 123.655 455.275 123.181C455.746 122.708 456.324 122.353 456.96 122.148C458.627 121.709 460.378 121.709 462.045 122.148C465.072 123.086 468.189 123.661 471.125 121.8C473.758 120.287 476.316 118.773 479.509 119C482.455 119.848 485.391 120.756 488.317 121.724L491.344 123.798C493.81 131.137 487.454 132.802 483.504 136.026C482.661 136.331 481.789 136.549 480.901 136.676C477.027 136.676 473.334 138.19 469.46 138.19C467.099 137.827 464.708 137.524 462.332 137.1C460.062 136.313 458.912 133.907 456.748 132.938Z" fill="#EC9822"/>
<path d="M508.308 130.865C509.126 131.949 509.582 133.263 509.612 134.621C509.642 135.979 509.244 137.312 508.475 138.432C507.628 140.613 506.145 142.49 504.218 143.817C502.291 145.145 500.01 145.863 497.669 145.877C494.517 145.918 491.369 146.14 488.241 146.543C487.295 146.561 486.362 146.314 485.547 145.832C482.369 142.911 483.035 139.869 485.23 136.752C486.078 135.887 487.102 135.215 488.232 134.779C489.363 134.343 490.573 134.154 491.782 134.224C495.128 134.509 498.436 135.143 501.65 136.116C500.817 134.24 496.292 136.797 497.442 132.605C500.787 130.335 504.57 130.698 508.308 130.865Z" fill="#EC9822"/>
<path d="M445.852 147.057C448.621 146.982 449.575 149.675 451.572 150.795C453.691 152.914 453.721 155.472 453.207 158.165C452.858 159.44 452.201 160.61 451.293 161.571C450.385 162.531 449.254 163.254 448.001 163.674C444.556 164.72 440.858 164.565 437.513 163.235C436.647 162.756 435.962 162.006 435.561 161.101C435.198 150.629 437.71 147.193 445.852 147.057Z" fill="#EC9822"/>
<path d="M425.83 138.205L429.659 134.8L432.686 134.906C434.199 135.254 434.199 135.829 432.958 136.616C434.471 138.977 439.102 137.857 439.011 142.003C437.498 150.085 435.061 151.341 423.969 149.782V149.237C422.546 148.42 421.154 147.588 421.835 145.545C423.287 143.154 425.8 141.353 425.83 138.205Z" fill="#EC9822"/>
<path d="M411.12 154.7L405.581 158.469C405.476 158.589 405.343 158.683 405.194 158.742C405.045 158.801 404.885 158.824 404.725 158.81C404.566 158.795 404.412 158.743 404.277 158.657C404.141 158.571 404.028 158.455 403.947 158.317L403.447 158.438C403.553 156.062 403.674 153.671 403.795 151.28C406.262 150.781 407.337 146.619 410.515 148.359C413.496 149.933 411.06 152.551 411.12 154.7Z" fill="#EC9822"/>
<path d="M454.977 165.354C454.977 163.009 454.902 160.663 454.871 158.332L455.325 147.436L457.459 145.726C461.651 145.59 459.412 150.175 462.317 151.779C464.254 150.084 461.576 146.513 464.3 145.257L469.808 145.893V149.01C471.08 150.977 470.626 153.202 470.762 155.351C470.562 155.902 470.248 156.405 469.841 156.827C469.435 157.249 468.944 157.582 468.401 157.803C467.652 158.087 466.876 158.295 466.085 158.423C464.693 158.741 463.18 158.847 462.711 160.587C462.711 162.282 463.619 164.007 462.514 165.642C459.896 167.186 457.142 172.286 454.977 165.354Z" fill="#EC9822"/>
<path d="M464.3 145.393C462.393 147.784 468.688 151.673 462.877 153.308C458.836 154.443 458.67 151.916 458.7 148.949C458.488 147.824 458.062 146.751 457.444 145.786C459.563 142.729 461.939 144.061 464.3 145.393Z" fill="#EC9822"/>
<path d="M460.123 189.069L460.153 186.875L460.607 153.369L541.103 162.918L533.839 193.186L496.489 208.38L460.123 189.069Z" fill="#EC9822"/>
</svg>
