<svg width="656" height="476" viewBox="0 0 556 376" fill="none" xmlns="http://www.w3.org/2000/svg">
<path d="M509.738 184.569C509.253 178.982 515.02 175.776 511.03 170.523C509.397 168.373 513.43 167.476 514.803 166.017C522.895 157.585 531.873 150.05 541.581 143.543C545.644 140.763 551.254 142.162 555.926 144.288C557.026 144.788 558.28 145.85 557.684 147.445C556.904 149.53 555.491 147.729 554.384 147.82C552.851 147.946 551.284 147.888 549.967 149.561C553.467 152.541 556.389 156.049 561.693 156.335C565.44 156.535 564.372 160.791 564.493 162.578C564.77 166.839 567.627 168.161 570.083 170.53C572.44 172.802 573.503 175.847 577.933 174.196C579.595 173.576 582.655 174.719 583.727 177.396C581.51 179.53 579.651 177.324 577.657 176.755C576.492 182.596 580.876 182.072 583.932 183.008C585.514 183.493 587.716 183.179 587.97 185.618C588.251 188.324 584.928 186.749 584.19 188.939C588.99 190.239 590.673 193.033 585.419 195.493C581.831 197.173 584.919 201.268 581.165 202.334C581.296 199.943 579.754 198.026 578.598 195.847C575.375 197.319 578.743 199.662 577.88 201.479C574.511 201.708 573.618 196.871 569.639 198.843C570.649 196.021 577.349 193.231 569.117 193.086C566.429 193.039 564.917 187.924 561.002 191.121C559.996 191.943 559.708 189.621 559.686 188.951C559.691 187.875 559.48 186.809 559.067 185.815C558.653 184.822 558.044 183.921 557.277 183.167C556.509 182.412 555.599 181.819 554.598 181.422C553.598 181.026 552.528 180.833 551.452 180.857C546.823 180.927 540.209 178.19 537.725 185.846C537.115 187.725 534.939 189.184 533.292 190.616C530.83 192.755 527.663 193.747 528.936 198.681C529.557 201.087 526.703 205.294 521.917 203.961C517.203 202.647 514.273 204.434 514.563 209.384C514.744 212.469 513.371 210.865 512.038 211.466C506.873 213.793 500.3 208.666 495.953 215.104C493.813 218.273 492.217 219.784 497.83 220.047C491.085 222.059 484.294 223.931 477.612 226.133C473.349 227.533 470.612 225.576 468.32 222.546C467.202 221.068 467.143 219.378 464.145 219.991C461.204 220.591 458.751 217.591 457.992 214.954C456.635 210.244 453.234 207.174 450.554 203.471C447.367 199.071 443.461 199.335 440.67 202.782C433.77 211.309 423.97 216.849 417.56 225.755C414.895 229.455 408.067 228.649 407.952 234.905C406.261 234.796 404.5 234.332 402.893 234.651C399.243 235.375 395.647 236.41 392.07 237.458C388.813 238.411 386.216 238.418 385.852 233.188C385.011 239.411 381.993 239.454 377.686 237.968C376.126 237.429 373.628 238.03 373.752 235.915C373.814 234.878 375.726 232.192 378.217 233.374C380.162 234.296 381.963 234.716 381.867 231.964C381.76 228.903 378.867 230.503 377.732 230.675C368.461 232.081 361.732 228.881 356.987 220.743C355.003 217.338 351.078 216.777 347.811 218.128C337.022 222.589 325.617 227.672 318.774 236.65C314.284 242.54 308.256 245.892 303.75 251.244C299.819 255.912 293.881 258.373 290.198 263.849C286.99 268.619 272.578 268.004 268.808 263.009C262.033 254.031 251.808 247.653 248.378 236.138C247.434 232.968 245.317 233.615 243.178 234.855C239.369 237.063 235.587 239.321 231.756 241.49C229.773 242.612 228.215 244.533 225.246 243.085C222.246 241.623 221.246 244.937 219.84 246.647C219.085 247.562 219.853 250.259 218.73 250.107C212.205 249.222 212.619 256.207 208.87 258.389C206.397 259.83 206.525 259.823 202.211 259.554C200.954 259.476 199.44 260.743 198.318 261.711C189.961 269.139 180.072 274.639 169.353 277.82C164.571 279.203 161.868 277.957 160.005 274.56C156.24 267.692 149.792 263.466 144.762 257.868C143.007 255.915 141.644 255.33 139.726 257.968C133.568 266.511 125.841 273.804 116.956 279.458C115.075 280.653 115.799 284.524 113.221 285.143C107.401 286.543 101.473 287.532 95.55 288.429C94.017 288.661 93.222 287.445 94.003 285.778C94.836 284.003 94.359 282.892 92.403 282.322C85.17 280.222 83.546 274.31 88.603 268.116C95.945 259.122 103.441 250.254 110.797 241.27C118.135 232.307 125.455 223.326 132.627 214.23C135.113 211.076 137.718 208.03 141.107 205.976C144.923 203.659 150.276 202.75 152.389 206.776C156.198 214.032 163.362 219.202 165.114 227.564C166.208 232.787 168.333 231.133 171.198 228.969C188.988 215.529 207.214 202.805 228.554 195.423C228.97 195.278 229.368 195.077 229.787 194.942C255.087 186.842 258.147 192.662 267.997 213.353C272.802 223.448 270.178 224.807 280.964 216.233C291.999 207.46 301.942 197.314 313.854 189.64C323.491 183.433 333.086 177.063 345.567 178.981C354.742 180.392 361.141 186.274 366.938 192.521C376.538 202.862 386.102 200.548 396.123 192.791C407.007 184.367 417.123 174.965 427.762 166.209C440.134 156.021 447.48 157.42 457.301 171.6C459.429 174.672 461.048 178.135 463.401 181C468.955 187.752 475.765 188.594 483.389 184.472C490.589 180.581 498.211 177.484 504.889 172.624C505.901 171.888 506.989 169.61 508.603 171.756C509.687 173.199 508.703 174.72 507.934 176.056C505.822 179.687 505.8 179.676 509.738 184.569ZM533.256 176.027C535.548 172.646 536.624 170.649 532.384 168.027C530.143 166.641 525.748 166.314 525.865 161.795C525.885 161.028 524.325 161.568 523.665 162.079C523.165 162.467 521.673 162.367 522.665 163.763C525.895 168.324 523.392 171.404 519.521 174.372C522.689 173.61 525.504 177.644 528.616 173.699C529.453 172.638 527.873 169.405 530.816 170.399C532.953 171.128 533.462 173.252 533.256 176.027ZM243.245 203.3C243.063 202.733 242.881 202.166 242.698 201.6C233.342 201.429 225.239 205.177 217.818 211.056L243.245 203.3ZM491.385 188.965C485.651 190.486 481.526 193.02 476.74 193.174C475.293 193.221 473.17 193.507 473.477 195.456C473.724 197.021 475.677 197.1 477.268 197.207C483.221 197.606 487.487 194.971 491.385 188.962V188.965ZM495.227 188.914C499.491 187.232 506.181 190.233 504.237 181.314C500.855 183.123 496.8 183.634 495.227 188.911V188.914ZM517.772 188.092C513.66 191.437 510.438 194.068 507.203 196.683C506.679 197.107 504.546 195.712 505.703 197.92C506.268 198.491 507.029 198.826 507.832 198.857C510.5 195.14 516.955 195.236 517.772 188.089V188.092ZM230.06 239.96L245.777 231.125C239.487 232.092 234.4 235.213 230.06 239.96Z" fill="#551000"/>
<path d="M490.357 318.008C477.232 321.769 465.888 319.008 456.519 308.843C454.192 306.319 451.225 304.079 447.811 305.18C438.944 308.041 429.427 307.287 420.67 311.38C407.212 317.666 394.64 325.872 380.331 330.32C374.914 332.005 369.463 333.576 363.926 335.228C363.394 338.051 366.826 336.021 367.346 337.777C366.678 338.033 366.014 338.561 365.479 338.452C356.379 336.603 345.993 337.464 339.74 328.977C337.386 325.782 333.685 324.987 331.317 321.992C330.483 320.936 325.817 322.214 323.281 323.316C309.038 329.516 294.999 336.189 280.703 342.261C275.733 344.373 270.256 345.342 264.957 346.608C262.702 347.146 260.818 347.272 258.794 344.648C257.248 342.648 254.194 338.388 250.241 342.584C247.431 339.277 241.741 342.543 239.341 336.924C236.615 330.557 231.521 331.61 225.254 333.837C216.595 336.915 212.549 345.525 204.286 348.494C202.586 349.106 201.611 350.663 200.918 352.386C200.433 353.595 199.712 355.599 198.95 355.67C191.723 356.341 192.358 363.933 188.37 367.327C182.018 372.727 175.814 378.408 167.429 380.65C164.819 381.35 164.909 381.435 163.537 384.84C163.3 385.43 162.166 385.794 161.377 386.006C155.965 387.461 153.644 386.156 147.821 380.035C146.706 378.863 143.767 379.455 141.677 379.175C134.439 378.204 132.677 370.517 127.212 367.34C126.205 366.754 124.802 364.522 124.274 365.981C122.06 372.094 113.862 371.899 112.009 378.274C111.42 380.296 109.837 382.074 108.527 383.828C107.09 385.75 105.333 388.101 102.885 387.71C100.802 387.376 100.606 384.586 100.634 382.663C100.692 378.793 94.939 379.539 95.306 374.61C95.7175 369.324 97.516 364.239 100.52 359.87C107.442 349.608 110.447 337.897 114.353 326.514C115.474 323.246 116.487 320.952 120.353 320.762C123.976 320.584 125.704 321.969 128.112 325.003C132.845 330.965 135.323 337.694 137.879 344.517C139.303 348.317 142.054 349.734 145.639 349.081C154.204 347.522 162.334 345.073 167.73 337.303C177.646 323.023 192.298 314.478 206.442 305.212C209.778 303.027 212.8 299.899 215.956 297.192C219.464 294.188 223.923 292.523 228.542 292.492C233.468 292.38 236.28 295.128 238.485 299.632C244.511 311.944 249.948 313.701 262.854 308.753C276.685 303.453 290.376 297.647 304.521 293.359C311.055 291.377 317.099 287.674 324.36 287.547C330.507 287.44 336.021 288.232 339.432 293.573C343.123 299.354 348.094 299.652 353.832 298.349C369.304 294.867 384.319 289.6 398.576 282.655C409.467 277.335 420.576 272.487 432.201 269.155C440.938 266.655 449.919 266.831 457.001 273.817C462.92 279.654 469.591 280.117 477.166 278.388C496.203 274.049 513.924 266.163 531.666 258.37C552.366 249.27 572.232 238.312 593.466 230.37C598.5 228.486 603.498 226.128 609.266 228.557C607.295 232.923 603.431 233.117 600.216 234.008C593.254 235.927 586.55 238.68 580.249 242.208C579.449 242.659 577.86 243.333 578.704 244.597C579.636 245.997 580.44 244.772 581.651 244.244C589.867 240.664 597.387 234.912 607.025 235.409C609.411 235.532 612.891 234.125 611.395 239.096C610.858 240.883 613.115 240.589 614.049 241.282C614.957 241.956 616.382 243.164 615.683 243.69C612.954 245.744 613.055 250.28 610.437 251.348C600.132 255.541 590.312 260.839 581.149 267.148C571.119 274.095 558.534 277.489 550.939 287.917C542.877 287.424 540.704 297.84 532.02 297.561C526.387 297.38 522.32 303.602 517.986 307.022C509.544 313.681 499.986 315.744 490.237 318.043C494.98 313.536 502.037 313.837 507.051 309.829C499.16 312.837 490.844 314.129 482.651 316.475C485.077 318.913 488.4 314.489 490.357 318.008ZM299.216 305.394C284.016 305.602 271.69 315.845 256.897 317.519C255.321 317.697 253.621 318.97 254.091 320.592C254.68 322.627 256.856 322.418 258.575 321.96C265.831 320.03 272.893 317.16 280.085 315.438C287.638 313.633 293 309.085 299.068 305.238C307.645 305.531 315.005 301.638 322.968 298.779C317.542 293.9 306.706 297.136 299.216 305.394ZM395 292.654C381.081 299.112 366.467 303.955 351.446 307.089C359.124 311.822 388.446 301.939 395 292.654ZM440.066 278.938C435.902 274.975 423.919 278.371 419.443 284.838C425.646 280.9 433.01 281.064 440.07 278.938H440.066ZM145.969 358.4C153.162 359.335 157.912 358.481 161.677 352C156.073 354.191 151.18 354.427 145.969 358.4ZM401.044 293.687C404.899 290.566 410.61 289.851 413.42 285.15C409.079 287.655 402 286.02 401.044 293.683V293.687ZM364.21 329.307C371.29 330.526 380.982 327.494 386.718 322.962L364.21 329.307ZM283.859 336.284C277.783 337.135 271.7 338.42 266.365 342.064C272.643 341.927 278.735 339.914 283.859 336.284ZM474.015 288.008L474.333 289.908C480.421 290.112 486.384 288.147 491.159 284.364L474.015 288.008Z" fill="#551000"/>
<path d="M415.769 437.149C418.418 438.385 421.729 436.164 423.914 439.528C420.804 441.599 417.009 442.375 413.336 441.691C411.424 441.248 409.433 441.28 407.536 441.784C402.852 443.37 399.316 443.389 399.294 436.714C399.283 433.668 388.158 427.926 384.546 428.604C380.053 429.447 374.46 429.23 371.241 431.044C362.593 435.915 352.001 437.971 345.691 446.63C344.471 448.304 342.699 448.064 341.131 448.674C335.337 450.929 328.056 450.015 324.488 457.219C323.093 460.035 322.45 454.3 319.425 455.753C316.025 457.386 311.761 457.399 307.84 457.739C298.24 458.573 292.87 456.061 291.188 446.999C290.088 441.099 287.721 443.261 284.623 444.046C285.816 441.159 288.605 438.346 282.935 437.932C279.228 437.663 279.083 433.432 277.272 431.138C276.001 429.531 278.646 430.327 279.591 429.974C281.227 429.362 283.137 428.674 283.486 426.474C281.448 426.226 282.116 422.051 278.632 423.448C276.442 424.326 274.07 423.021 271.787 421.28C273.741 426.465 269.427 429.811 268.959 434.291C268.612 437.622 267.236 440.983 268.178 444.418C268.82 446.76 267.037 447.857 266.312 446.552C264.163 442.682 258.743 441.92 257.912 436.937C257.587 434.981 258.667 434.693 259.775 434.118C260.91 433.529 264.238 434.565 263.03 432.679C260.681 429.014 261.73 425.354 261.257 421.713C256.832 425.87 257.974 418.797 255.387 418.594C254.778 418.546 254.123 414.194 256.953 414.212C264.28 414.271 263.603 408.494 263.22 404.745C262.62 398.899 265.557 396.156 269.689 393.505C272.11 394.773 268.668 399.266 272.977 399.533C276.477 399.75 276.084 396.302 277.642 394.701C278.49 393.829 279.694 392.687 278.665 391.259C277.65 389.851 276.144 390.741 275.023 391.053C269.051 392.72 269.568 386.998 270.744 385.702C274.514 381.549 276.153 375.795 280.895 372.502C285.925 369.012 289.384 370.433 290.465 376.344C290.594 376.992 290.912 377.587 291.379 378.055C301.071 387.334 299.079 399.247 298.438 410.667C297.89 420.426 298.238 420.831 307.913 418.485C319.182 415.754 329.19 410.13 339.506 405.236C351.384 399.601 363.043 393.436 375.816 390.036C385.952 387.336 395.162 388.968 401.934 397.767C405.475 402.367 409.32 402.876 414.609 400.805C432.227 393.905 448.285 384.073 464.557 374.667C472.577 370.189 480.96 366.394 489.617 363.321C499.562 359.627 509.902 362.121 517.271 370.253C524.138 377.829 531.937 379.607 541.561 378.215C568.522 374.315 594.138 365.608 619.695 356.736C646.062 347.583 671.972 337.216 697.681 326.35C699.087 325.715 700.583 325.302 702.116 325.124C704.538 324.916 707.655 324.831 708.433 327.392C709.052 329.43 705.885 329.919 704.453 331.155C703.085 332.335 699.67 332.317 700.721 334.831C701.836 337.498 704.526 335.344 706.562 335.254C709.333 335.132 715.724 331.54 711.019 339.477C710.934 339.76 710.915 340.059 710.963 340.35C711.012 340.642 711.127 340.918 711.299 341.158C717.231 348.966 714.188 355.777 704.587 359.558C697.866 362.261 691.384 365.522 685.208 369.307C673.256 376.559 660.392 381.851 647.953 387.975C626.256 398.805 603.828 408.104 580.833 415.802C567.489 420.354 553.447 422.521 539.351 422.202C537.079 422.131 534.959 422.102 533.07 423.829C534.749 425.465 536.902 426.53 539.221 426.871C535.473 426.15 531.428 426.299 528.721 422.679C527.586 421.163 525.932 421.303 524.171 421.017C521.795 420.63 517.526 420.326 519.781 415.575C519.905 415.184 519.976 414.779 519.992 414.369C514.525 415.776 516.419 409.039 513.214 408.19C509.304 407.111 505.782 404.939 503.064 401.928C500.922 399.686 497.885 399.77 495.156 400.191C492.756 400.561 489.756 404.235 489.278 398.403C488.498 398.196 487.681 398.179 486.893 398.353C486.628 398.445 486.389 398.598 486.195 398.8C486.001 399.002 485.858 399.247 485.777 399.515C485.696 399.783 485.68 400.066 485.729 400.342C485.779 400.617 485.893 400.877 486.063 401.1C487.592 403.75 487.09 406.246 484.411 406.994C480.163 408.179 477.582 412.788 472.872 412.465C470.42 412.297 471.7 409.022 469.695 407.608C468.171 411.039 462.251 411.62 464.352 417.161C464.429 417.361 463.81 418.135 463.564 418.112C459.292 417.719 458.799 419.912 457.787 423.733C456.708 427.8 451.099 428.007 447.311 429.608C446.717 429.859 445.682 430.208 445.672 430.531C445.391 439.431 437.998 433.615 434.497 435.87C433.426 436.559 432.484 435.37 431.638 434.062C428.223 428.788 425.196 428.744 421.366 433.107C419.928 434.753 417.752 435.755 415.769 437.149ZM555.607 387.221C553.715 386.685 533.796 387.096 531.948 387.691C531.104 387.962 530.084 388.216 530.348 389.322C530.528 390.157 531.009 390.897 531.7 391.4C536.314 394.043 551.125 391.4 555.607 387.221ZM485.707 373.514C490.633 378.034 496.435 375.114 501.913 375.158C502.187 375.163 502.458 375.111 502.711 375.006C502.964 374.9 503.191 374.744 503.38 374.546C503.569 374.348 503.715 374.113 503.809 373.855C503.902 373.598 503.941 373.324 503.923 373.051C503.986 372.101 503.33 371.044 502.492 371.389C497.042 373.629 490.725 368.579 485.71 373.514H485.707ZM313.977 425.481C309.922 426.006 305.84 426.388 301.83 427.15C300.744 427.357 298.525 425.494 298.447 428.503C298.389 430.723 299.747 431.257 301.587 431.874C307.456 433.844 310.325 429.108 313.977 425.481ZM568.194 413.725C559.074 415.725 549.726 416.379 540.535 417.963C550.3 419.745 559.235 416.667 568.194 413.725ZM542.082 404.362L542.226 405.4C548.72 404.584 555.216 403.79 561.7 402.9C561.963 402.787 562.192 402.608 562.365 402.38C562.539 402.152 562.65 401.884 562.689 401.6C562.649 401.327 562.553 401.065 562.407 400.831C562.262 400.597 562.07 400.395 561.843 400.238C561.616 400.082 561.359 399.973 561.089 399.92C560.818 399.866 560.539 399.869 560.27 399.928C554.188 401.324 548.141 402.869 542.082 404.362ZM581.807 379.177C576.024 379.233 571.151 381.913 566.07 383.904C571.153 381.822 578.1 387.471 581.807 379.177ZM267.726 409.57C265.765 411.341 263.898 412.593 264.988 415.115C266.088 417.667 268.324 418.776 272.976 419.126C268.4 416.518 269.13 412.965 267.726 409.57ZM313.526 453.556C308.842 448.818 308.842 448.818 303.266 454.727L313.526 453.556Z" fill="#551000"/>
</svg>
