<svg width="275" height="15" viewBox="0 0 275 17" fill="none" xmlns="http://www.w3.org/2000/svg">
<path fill-rule="evenodd" clip-rule="evenodd" d="M6.93262 0.78998L6.93137 0L-1.7295 9.12981L-9.48412 0.974033L-18.4599 10.3895L-26.2169 1.10074L-35.0342 10.7983L-42.9498 1.22741L-51.9231 11.7759L-60 0.78998L-59.9893 5.37885L-51.9231 16.35L-42.9498 5.80153L-35.0342 15.3724L-26.2169 5.67484L-18.4599 14.9636L-9.48412 5.54815L-1.7295 13.7039L6.93137 4.57409L6.93262 5.36408L15.0096 16.35L23.9828 5.80153L31.8984 15.3724L40.7157 5.67484L48.4727 14.9636L57.4485 5.54815L65.2031 13.7039L73.8643 4.57409L73.8656 5.36408L81.9427 16.35L90.916 5.80153L98.8314 15.3724L107.648 5.67484L115.405 14.9636L124.381 5.54815L132.136 13.7039L140.797 4.57409L140.799 5.36408L148.875 16.35L157.848 5.80153L165.764 15.3724L174.581 5.67484L182.339 14.9636L191.314 5.54815L199.068 13.7039L207.729 4.57409L207.731 5.36408L215.808 16.35L224.781 5.80153L232.696 15.3724L241.514 5.67484L249.27 14.9636L258.246 5.54815L266.001 13.7039L274.662 4.57409L274.676 10.7769L274.688 10.7636L274.662 0L266.001 9.12981L258.246 0.974033L249.27 10.3895L241.514 1.10074L232.696 10.7983L224.781 1.22741L215.808 11.7759L207.731 0.78998L207.729 0L199.068 9.12981L191.314 0.974033L182.339 10.3895L174.581 1.10074L165.764 10.7983L157.848 1.22741L148.875 11.7759L140.799 0.78998L140.797 0L132.136 9.12981L124.381 0.974033L115.405 10.3895L107.648 1.10074L98.8314 10.7983L90.916 1.22741L81.9427 11.7759L73.8656 0.78998L73.8643 0L65.2031 9.12981L57.4485 0.974033L48.4727 10.3895L40.7157 1.10074L31.8984 10.7983L23.9828 1.22741L15.0096 11.7759L6.93262 0.78998Z" fill="white"/>
</svg>
