<svg viewBox="0 0 142 142" fill="none" xmlns="http://www.w3.org/2000/svg"><g clip-path="url(#clip0)"><path d="M71 138.678c36.666 0 66.389-30.373 66.389-67.839C137.389 33.373 107.665 3 71 3 34.334 3 4.611 33.373 4.611 70.839c0 37.466 29.723 67.839 66.39 67.839z" fill="#43A16F" stroke="#324154" stroke-width="3.397"/><path d="M118.881 114.363l17.592 5.148-2.777 3.069.77 4.157-17.607-5.154 2.022-7.22z" fill="#282C35"/><path d="M111.436 119.996l23.029 6.742.381 2.052 1.121 6.052-.039.137-26.516-7.762 2.024-7.221z" fill="#387855"/><path d="M120.904 107.143L142 113.316l-.034.123-4.088 4.519-1.405 1.554-17.592-5.148 2.023-7.221z" fill="#377755"/><path d="M115.184 105.538l-5.732 21.651 8.014-1.533 5.165-18.008-7.447-2.11z" fill="#2A4234"/><path d="M23.12 114.418l-17.593 5.148 2.777 3.069-.77 4.156 17.608-5.153-2.023-7.22z" fill="#282C35"/><path d="M30.564 120.052l-23.029 6.74-.38 2.054-1.122 6.051.04.137 26.515-7.762-2.024-7.22z" fill="#387855"/><path d="M21.095 107.198L0 113.373l.034.12 4.088 4.521 1.406 1.553 17.592-5.148-2.025-7.221z" fill="#377755"/><path d="M26.817 105.593l5.732 21.652-8.015-1.535-5.165-18.007 7.448-2.11z" fill="#2A4234"/><path d="M20.303 111.102c15.994-4.492 32.603-7.479 49.443-7.85 17.895-.378 35.82 2.342 52.727 7.902l-2.562 7.102c-16.036-5.273-33.05-7.857-49.99-7.494-15.974.328-31.903 3.213-47.402 7.547l-2.216-7.207z" fill="#324154"/><path d="M17.945 103.699c16.781-4.682 34.208-7.793 51.876-8.18 18.776-.393 37.583 2.441 55.323 8.234l-2.688 7.4c-16.826-5.495-34.677-8.188-52.45-7.809-16.76.342-33.473 3.348-49.734 7.863l-2.327-7.508z" fill="#47B379"/><path d="M22.419 118.201c15.262-4.684 31.11-7.793 47.179-8.18 17.075-.394 34.18 2.44 50.313 8.234l-2.446 7.4c-15.301-5.496-31.535-8.189-47.7-7.811-15.242.344-30.441 3.348-45.23 7.864l-2.116-7.507z" fill="#47B379"/><path d="M106.195 92.939l-3.11-1.64-3.084 1.69.562-3.529-2.526-2.477 3.461-.543 1.522-3.221 1.576 3.195 3.467.484-2.486 2.519.618 3.522z" fill="#fff"/><path d="M79.94 21.915l-8.807 15.24-8.807-15.24H33l38.133 66 38.134-66H79.94z" fill="#42B883"/><path d="M79.94 21.915l-8.807 15.24-8.807-15.24H48.252l22.881 39.599 22.882-39.599H79.94z" fill="#35495E"/><path d="M36.376 101.662c1.467-.048 2.2-.063 3.661-.078a307.51 307.51 0 0 0-.408 11.133l-.572.742c-1.446.341-2.168.52-3.606.895-.303-.18-.456-.27-.76-.448a287.387 287.387 0 0 0-5.372-10.172c1.413-.552 2.122-.816 3.548-1.337a341.338 341.338 0 0 1 3.658 8.02c-.095-3.498-.124-5.25-.149-8.755zM46.95 103.156a138.24 138.24 0 0 1 2.643-.494l1.121 8.835c-.813.107-1.218.165-2.029.283l-.387-.39-.223.479c-1.933.302-2.9.469-4.824.83-.443-.161-.665-.24-1.11-.398-.648-3.273-.973-4.911-1.625-8.185 1.027-.157 1.541-.229 2.57-.37.323.267.483.398.804.666.534 2.112.8 3.171 1.321 5.286.746-.03 1.12-.045 1.863-.066-.253-2.258-.379-3.387-.625-5.646l.5-.83zM56.791 108.102c1.148-.032 1.721-.044 2.868-.055.095.434.142.652.235 1.086-.283.559-.425.841-.703 1.401-2.7.246-4.047.395-6.734.757-.432-.188-.649-.279-1.084-.464-.403-2.907-.604-4.361-1.01-7.268.348-.444.525-.666.878-1.108 2.806-.287 4.211-.401 7.021-.569.511.271.765.412 1.271.688.004 1.682.006 2.52.017 4.201-.353.271-.528.408-.878.681-1.751.09-2.627.145-4.378.283l.063 1.023c.888-.04 1.333-.057 2.221-.084.084-.229.127-.344.213-.572zm-.404-2.138l-.238-1.525c-.922.05-1.383.076-2.305.139l.168 1.427c.951-.024 1.426-.032 2.375-.041zM71.188 98.086c1.483-.063 2.225-.088 3.711-.118a1687.65 1687.65 0 0 0-.698 12.099c-1.053.018-1.576.034-2.628.069a154.028 154.028 0 0 0-3.05-5.358c-.053 2.027-.079 3.038-.127 5.064-1.23.146-1.845.226-3.07.395-.15-4.848-.223-7.272-.367-12.12 1.431-.055 2.146-.075 3.577-.1a172.143 172.143 0 0 1 2.626 5.056l.026-4.987zM83.786 101.825c.308.421.459.634.762 1.057-.245 2.655-.366 3.982-.608 6.638-.275.413-.411.619-.683 1.033-2.753-.189-4.13-.257-6.886-.326-.405-.227-.608-.337-1.017-.561.043-2.947.062-4.421.102-7.367.269-.402.405-.602.677-1.003a138.8 138.8 0 0 1 7.653.529zm-2.738 2.236c-.893-.09-1.34-.132-2.234-.209-.048 1.616-.071 2.425-.121 4.041.827.105 1.242.162 2.067.278l.288-4.11zM93.101 102.787c.281.455.42.683.697 1.14l-.42 2.717c-.229.271-.343.405-.57.676-.983-.149-1.476-.221-2.46-.355-.003-.731-.007-1.097-.012-1.828a125.16 125.16 0 0 0-1.819-.295l-.646 6.157a136.285 136.285 0 0 0-3.192-.47c.244-3.47.366-5.205.605-8.675.81.074 1.212.114 2.021.198l.26.53c.17-.148.257-.222.43-.37 2.044.199 3.066.312 5.106.575zM101.932 109.941c-.14.719-.213 1.075-.353 1.794-.405.425-.604.64-1.005 1.066a130.721 130.721 0 0 0-6.104-.937c-.175-.421-.264-.627-.44-1.047.342-2.2.516-3.304.86-5.504l-.585-.224.234-1.783.404-.296c.188.015.28.021.47.037.197-.859.296-1.29.496-2.148 1.01.167 1.514.255 2.521.438.131.182.2.273.33.456-.12.691-.183 1.035-.304 1.727 1.391.261 2.085.399 3.471.689.121.24.182.358.302.599l-.361 1.734-.465.207a139.244 139.244 0 0 0-3.318-.678c-.306 1.495-.46 2.242-.764 3.738.584.12.876.185 1.46.311.238-.534.361-.803.603-1.336.906.216 1.356.328 2.259.557l.289.6zM108.153 111.712c1.105.336 1.658.512 2.757.867l-.12 1.103c-.448.439-.672.658-1.115 1.101a132.245 132.245 0 0 0-6.662-1.423c-.352-.315-.526-.472-.882-.784.54-2.885.808-4.326 1.345-7.212.472-.311.708-.466 1.185-.773 2.761.619 4.138.958 6.874 1.695.401.421.601.632.997 1.055-.531 1.596-.792 2.395-1.317 3.992-.424.144-.638.218-1.059.364-1.7-.474-2.552-.699-4.264-1.125-.106.396-.161.595-.268.99.859.244 1.29.37 2.146.627.154-.19.228-.288.383-.477zm.295-2.155c.104-.608.157-.913.26-1.522-.896-.247-1.343-.367-2.241-.602-.116.562-.178.844-.295 1.405.913.281 1.368.424 2.276.719z" fill="#fff"/></g><defs><clipPath id="clip0"><path fill="#fff" d="M0 0h142v142H0z"/></clipPath></defs></svg>